<svg width="140" height="129" viewBox="0 0 140 129" fill="none" xmlns="http://www.w3.org/2000/svg">
<g id="Group 560">
<g id="&#235;&#167;&#144;&#237;&#146;&#141;&#236;&#132;&#160;">
<path id="Vector" d="M34.1502 56.0711C54.3602 76.7858 147.999 86.4832 139.45 38.7583C134.241 9.67331 96.3336 -0.519988 71.8501 0.0202664C45.9135 0.590124 4.60823 25.7921 34.1502 56.0711Z" fill="#F5E191"/>
<path id="Vector_2" d="M36.1445 73.8619C36.6 68.7663 31.9345 64.1545 25.7239 63.5611C19.5133 62.9677 14.1093 66.6174 13.6538 71.713C13.1983 76.8086 17.8638 81.4205 24.0745 82.0139C30.2851 82.6073 35.6891 78.9575 36.1445 73.8619Z" fill="#F5E191"/>
<path id="Vector_3" d="M10.2099 88.6229C10.6324 85.9263 8.86048 83.3863 6.2523 82.9495C3.64411 82.5128 1.18732 84.3447 0.764884 87.0413C0.34245 89.7378 2.11435 92.2779 4.72253 92.7146C7.33071 93.1514 9.78751 91.3194 10.2099 88.6229Z" fill="#F5E191"/>
</g>
<g id="&#236;&#185;&#180;&#235;&#147;&#156;2">
<path id="Vector_4" d="M81.3369 32.7983C81.3704 32.8432 81.3807 32.9013 81.3678 32.9515L80.7114 35.277C80.6959 35.3272 80.6599 35.3616 80.6135 35.3616C80.5955 35.3616 80.5801 35.3563 80.562 35.3483C80.5389 35.3351 80.5157 35.3113 80.5002 35.2796L79.5863 33.3955C79.5657 33.3585 79.5606 33.3083 79.5734 33.2686C79.5863 33.2264 79.612 33.1999 79.6455 33.1894L81.2159 32.7454C81.2417 32.7375 81.2674 32.7454 81.2906 32.756C81.3086 32.7665 81.3241 32.7798 81.3369 32.7983ZM80.5672 34.8806L81.0718 33.0969L79.8643 33.4351L80.5672 34.8806Z" fill="#232739"/>
<path id="Vector_5" d="M81.0722 33.0938L80.5702 34.8775L79.8647 33.432L81.0722 33.0938Z" fill="#232739"/>
<path id="Vector_6" d="M88.1077 31.7114C88.0871 31.7854 88.1205 31.87 88.1823 31.907L86.1948 30.7548C86.2566 30.7892 86.321 30.7628 86.3416 30.6888L86.3802 30.5566L88.1463 31.5793L88.1077 31.7114Z" fill="#232739"/>
<path id="Vector_7" d="M87.8254 24.5225L87.4598 25.8148L85.3179 25.4342L85.6371 24.2979C85.7787 23.8064 86.2241 23.6003 86.6386 23.8355L87.8228 24.5225H87.8254Z" fill="#F7E486"/>
<path id="Vector_8" d="M88.0109 24.321C88.0727 24.3553 88.1061 24.4452 88.0855 24.5192L88.0495 24.6487L87.6582 26.036C87.6427 26.0942 87.5964 26.1259 87.5449 26.1179L85.2433 25.711L85.1583 25.6951C85.1583 25.6951 85.1352 25.6872 85.1223 25.6819C85.076 25.6555 85.0425 25.5947 85.0451 25.5286C85.0451 25.4494 85.0991 25.3912 85.1635 25.4018L85.3231 25.4309L87.4651 25.8114L87.8307 24.5192L87.8667 24.3897C87.8873 24.3157 87.9542 24.2866 88.016 24.321H88.0109Z" fill="#232739"/>
<path id="Vector_9" d="M84.8799 27.0003L85.0241 26.4902L91.0998 30.0128L90.9557 30.5228L88.6541 30.1158C88.6026 30.1079 88.5588 30.1423 88.5408 30.1978L88.1495 31.5851L86.3834 30.5624L86.7747 29.1751C86.7902 29.1169 86.7747 29.0482 86.7335 29.0033L84.8799 27.0029V27.0003Z" fill="#F7E486"/>
<path id="Vector_10" d="M88.0854 24.5146C88.106 24.4406 88.0725 24.3534 88.0107 24.3164L89.9982 25.4686C89.9365 25.4342 89.8695 25.4633 89.8489 25.5373L89.8129 25.6668L88.0468 24.6441L88.0828 24.5146H88.0854Z" fill="#232739"/>
<path id="Vector_11" d="M91.2049 30.0726C91.2667 30.107 91.3337 30.0779 91.3543 30.0039L90.775 32.0598C90.5948 32.6993 90.0129 32.9662 89.48 32.657L88.1851 31.9066C88.2468 31.9409 88.3086 31.9118 88.3292 31.8405L88.3678 31.7084L89.5547 32.3954C89.9666 32.6359 90.4146 32.4271 90.5562 31.933L90.8754 30.7967L91.035 30.8257C91.0994 30.8363 91.1534 30.7808 91.1534 30.6989C91.1534 30.6355 91.12 30.5721 91.0711 30.5456C91.0608 30.5403 91.0479 30.5351 91.0376 30.5324L90.9552 30.5192L91.0994 30.0092L91.2075 30.0726H91.2049Z" fill="#232739"/>
<path id="Vector_12" d="M89.4213 27.0546C89.4059 27.1127 89.4213 27.1814 89.4625 27.2263L91.3161 29.2294L91.172 29.7394L85.0962 26.2169L85.2404 25.7068L87.542 26.1138C87.5934 26.1217 87.6372 26.0874 87.6552 26.0319L88.0466 24.6445L89.8126 25.6672L89.4213 27.0546Z" fill="#F7E486"/>
<path id="Vector_13" d="M91.2928 26.2271C91.8283 26.5362 92.1141 27.3079 91.9338 27.9474L91.3546 30.0033C91.3752 29.9293 91.3417 29.8421 91.2799 29.8051L91.1718 29.7417L91.316 29.2317L91.3829 29.303C91.3829 29.303 91.4035 29.3215 91.4138 29.3294C91.4601 29.3559 91.5142 29.3479 91.5451 29.3004C91.5837 29.2422 91.5734 29.1471 91.5219 29.0916L91.3932 28.9542L91.7124 27.8179C91.8489 27.3237 91.6275 26.7318 91.2156 26.4887L90.0287 25.8016L90.0648 25.6721C90.0854 25.5981 90.0545 25.5109 89.9927 25.4766L91.2876 26.2271H91.2928Z" fill="#232739"/>
<path id="Vector_14" d="M89.9977 25.4747C90.0595 25.5091 90.0904 25.5989 90.0698 25.6703L90.0338 25.7997L89.6682 27.092L91.3931 28.9523L91.5218 29.0897C91.5733 29.1452 91.5836 29.2404 91.545 29.2985C91.5141 29.3461 91.46 29.3566 91.4137 29.3276C91.4034 29.3223 91.3905 29.3117 91.3828 29.3012L91.3159 29.2298L89.4622 27.2267C89.4236 27.1818 89.4056 27.1131 89.421 27.055L89.8124 25.6676L89.8484 25.5381C89.869 25.4641 89.9359 25.4351 89.9977 25.4694V25.4747Z" fill="#232739"/>
<path id="Vector_15" d="M91.2177 26.4878C91.6296 26.731 91.851 27.3229 91.7146 27.8171L91.3953 28.9534L89.6704 27.093L90.036 25.8008L91.2228 26.4878H91.2177Z" fill="#F7E486"/>
<path id="Vector_16" d="M118.142 64.6212C118.649 64.9145 119.069 65.369 119.373 65.9108C118.616 66.1618 117.993 66.833 117.712 67.824C117.432 68.815 117.558 69.9195 117.977 70.8524C117.496 70.9369 116.973 70.8471 116.466 70.5511C115.781 70.1547 115.256 69.4624 114.96 68.6643C114.661 67.8689 114.592 66.9678 114.824 66.146C115.055 65.3268 115.542 64.748 116.142 64.4732C116.742 64.1957 117.455 64.2222 118.14 64.6186L118.142 64.6212Z" fill="#F05E63"/>
<path id="Vector_17" d="M118.217 64.3566C118.796 64.6922 119.27 65.2208 119.604 65.847C119.527 65.8629 119.45 65.884 119.373 65.9105C119.069 65.3714 118.649 64.9142 118.142 64.6209C117.457 64.2245 116.744 64.1954 116.144 64.4756C115.544 64.7504 115.055 65.3291 114.826 66.1483C114.594 66.9675 114.664 67.8686 114.963 68.6667C115.259 69.4647 115.784 70.1544 116.469 70.5535C116.976 70.8468 117.498 70.9393 117.98 70.8547C118.021 70.9472 118.067 71.0397 118.116 71.1295C117.573 71.2458 116.976 71.1533 116.397 70.8177C114.906 69.9536 114.105 67.8052 114.607 66.0241C115.109 64.243 116.729 63.4978 118.217 64.3619V64.3566Z" fill="#232739"/>
<path id="Vector_18" d="M132.207 41.129L86.095 14.3994C84.0741 13.2261 81.8806 14.2356 81.1984 16.6535L72.6845 46.8237C72.0023 49.2417 73.0861 52.1538 75.1097 53.3271L121.221 80.0567C123.242 81.23 125.436 80.2179 126.118 77.7999L134.632 47.6297C135.314 45.2118 134.228 42.3023 132.207 41.1316V41.129ZM134.413 47.5002L125.899 77.6705C125.577 78.8094 124.905 79.6127 124.069 79.9986C123.237 80.3817 122.246 80.3421 121.296 79.7898L75.1844 53.0602C74.2344 52.5105 73.5058 51.5539 73.0913 50.4467C72.6794 49.3395 72.5841 48.0895 72.9034 46.9506L81.4198 16.7803C81.7416 15.644 82.4161 14.8407 83.2476 14.4575C84.0844 14.0717 85.0704 14.1114 86.0204 14.661L132.132 41.3906C133.082 41.9403 133.813 42.8995 134.225 44.0068C134.64 45.1113 134.732 46.3639 134.413 47.5002Z" fill="#232739"/>
<path id="Vector_19" d="M84.481 28.4117L84.8002 27.2754L86.5225 29.1358L86.157 30.428L84.9727 29.7409C84.5608 29.5004 84.3394 28.9059 84.4758 28.4117H84.481Z" fill="#F7E486"/>
<path id="Vector_20" d="M88.3652 31.7043L88.7308 30.4121L90.8754 30.7953L90.5561 31.9316C90.4145 32.4231 89.9666 32.6319 89.5546 32.394L88.3678 31.707L88.3652 31.7043Z" fill="#F7E486"/>
<path id="Vector_21" d="M121.249 66.4239C121.934 66.8203 122.459 67.5127 122.756 68.3107C123.054 69.1061 123.124 70.0073 122.892 70.8265C122.66 71.6456 122.174 72.2244 121.574 72.4992C120.974 72.7767 120.261 72.7502 119.576 72.3539C118.891 71.9575 118.366 71.2651 118.07 70.4671C117.771 69.6716 117.702 68.7705 117.933 67.9487C118.165 67.1295 118.652 66.5508 119.252 66.2759C119.851 65.9985 120.565 66.0249 121.249 66.4213V66.4239Z" fill="#F05E63"/>
<path id="Vector_22" d="M134.412 47.5002C134.551 47.0034 134.613 46.4828 134.603 45.9649C134.603 45.8909 134.598 45.8169 134.595 45.7429C134.577 45.4469 134.536 45.151 134.474 44.8603C134.443 44.7149 134.407 44.5722 134.366 44.4295C134.325 44.2868 134.279 44.1468 134.227 44.0094C134.098 43.6632 133.939 43.3329 133.751 43.0237C133.563 42.7145 133.347 42.4291 133.105 42.1728C133.009 42.0697 132.909 41.9719 132.803 41.8795C132.752 41.8345 132.698 41.7896 132.644 41.7447C132.482 41.6152 132.312 41.4963 132.134 41.3932L86.0198 14.661C85.7237 14.4892 85.4225 14.3677 85.1239 14.291C85.0054 14.262 84.8844 14.2382 84.766 14.225C84.6476 14.2091 84.5292 14.2038 84.4133 14.2012C84.1224 14.2012 83.8366 14.2435 83.5663 14.3307C83.4582 14.365 83.3501 14.4073 83.2471 14.4549C83.1441 14.5024 83.0411 14.5579 82.9433 14.6187C82.8455 14.6795 82.7476 14.7455 82.6549 14.8195C82.5623 14.8935 82.4722 14.9728 82.3872 15.0574C82.3357 15.1102 82.2868 15.1631 82.2379 15.2186C82.1761 15.2899 82.1169 15.3613 82.0602 15.4405C81.7848 15.8131 81.5659 16.2597 81.4192 16.7777L72.9054 46.9479C72.7844 47.376 72.7226 47.8173 72.7148 48.2639C72.7148 48.3379 72.7148 48.4119 72.7148 48.4859C72.7174 48.6339 72.7277 48.7819 72.7406 48.9298C72.7921 49.4478 72.9105 49.9604 73.0907 50.444C73.3507 51.1364 73.7318 51.768 74.2132 52.2806C74.5015 52.5872 74.8285 52.8514 75.1838 53.0575L121.295 79.7871C121.831 80.0963 122.377 80.2443 122.902 80.2469C123.193 80.2469 123.479 80.2047 123.749 80.1175C123.857 80.0831 123.965 80.0408 124.068 79.9933C124.382 79.8479 124.671 79.6471 124.928 79.3881C125.358 78.96 125.695 78.3786 125.896 77.6651L134.41 47.4949L134.412 47.5002ZM81.3703 32.9502L80.7138 35.2757C80.6983 35.3259 80.6623 35.3602 80.6159 35.3602C80.5979 35.3602 80.5825 35.355 80.5645 35.347C80.5413 35.3338 80.5181 35.31 80.5027 35.2783L79.5887 33.3942C79.5681 33.3572 79.563 33.307 79.5759 33.2673C79.5887 33.225 79.6145 33.1986 79.6479 33.188L81.2184 32.7441C81.2441 32.7362 81.2699 32.7441 81.293 32.7547C81.3111 32.7652 81.3265 32.7784 81.3394 32.7969C81.3728 32.8419 81.3831 32.9 81.3703 32.9502ZM91.936 27.9425L91.3567 29.9985L90.7774 32.0544C90.5972 32.6939 90.0154 32.9608 89.4825 32.6516L84.905 29.9985C84.3695 29.6893 84.0838 28.9176 84.264 28.2781L85.4251 24.1637C85.6053 23.5242 86.1871 23.2573 86.7201 23.5664L88.015 24.3169L90.0025 25.4691L91.2975 26.2196C91.833 26.5288 92.1188 27.3004 91.9385 27.9399M123.118 70.9477C122.616 72.7288 120.997 73.474 119.509 72.6099C118.929 72.2743 118.456 71.7458 118.121 71.1221C117.578 71.2384 116.981 71.1459 116.401 70.8103C114.911 69.9462 114.11 67.7978 114.612 66.0167C115.114 64.2356 116.733 63.4904 118.221 64.3545C118.801 64.6901 119.274 65.2186 119.609 65.8423C120.152 65.726 120.75 65.8185 121.329 66.1541C122.82 67.0182 123.62 69.1666 123.118 70.9477Z" fill="#73CBE2"/>
<path id="Vector_23" d="M86.1211 30.5611L86.1597 30.4289L84.9755 29.7419C84.5635 29.5014 84.3421 28.9068 84.4786 28.4127L84.7978 27.2764L84.6691 27.1389C84.6176 27.0834 84.6073 26.9883 84.6459 26.9302C84.6768 26.8853 84.7309 26.872 84.7772 26.8985C84.7875 26.9037 84.7978 26.9117 84.8081 26.9222L84.8776 26.9962L85.0218 26.4862L84.9137 26.4228C84.8519 26.3884 84.8184 26.2986 84.839 26.2246L84.2598 28.2805C84.0795 28.92 84.3679 29.6917 84.9008 30.0008L86.1958 30.7513C86.134 30.717 86.1005 30.6298 86.1211 30.5558V30.5611Z" fill="#232739"/>
<path id="Vector_24" d="M84.7789 26.8983C84.7789 26.8983 84.7995 26.9115 84.8098 26.9221L84.8793 26.9961L86.7329 28.9965C86.7716 29.0414 86.7896 29.1101 86.7741 29.1683L86.3828 30.5556L86.3442 30.6877C86.3236 30.7617 86.2567 30.7882 86.1975 30.7538C86.1357 30.7194 86.1022 30.6322 86.1228 30.5609L86.1614 30.4288L86.527 29.1365L84.8047 27.2762L84.6759 27.1388C84.6244 27.0833 84.6141 26.9881 84.6528 26.93C84.6837 26.8851 84.7377 26.8719 84.7841 26.8983H84.7789Z" fill="#232739"/>
<path id="Vector_25" d="M84.9882 26.1545C84.9264 26.1202 84.8595 26.1492 84.8389 26.2232L85.4181 24.1673C85.5983 23.5278 86.1802 23.2609 86.7131 23.5701L88.0081 24.3206C87.9463 24.2862 87.8793 24.3153 87.8587 24.3893L87.8227 24.5188L86.6384 23.8317C86.2239 23.5965 85.7786 23.8 85.637 24.2942L85.3177 25.4305L85.1581 25.4014C85.0937 25.3908 85.0397 25.4463 85.0397 25.5282C85.0397 25.5943 85.0706 25.6524 85.1169 25.6815C85.1272 25.6868 85.1401 25.6921 85.153 25.6947L85.2379 25.7106L85.0937 26.2206L84.9856 26.1572L84.9882 26.1545Z" fill="#232739"/>
<path id="Vector_26" d="M91.0684 30.5427C91.1173 30.5691 91.1508 30.6325 91.1508 30.696C91.1508 30.7752 91.0968 30.8334 91.0324 30.8228L90.8728 30.7937L88.7282 30.4106L88.3626 31.7028L88.324 31.8349C88.3034 31.9089 88.2391 31.938 88.1799 31.901C88.1181 31.8666 88.0846 31.7794 88.1052 31.7081L88.1438 31.5759L88.5351 30.1886C88.5506 30.1305 88.5969 30.0987 88.6484 30.1067L90.95 30.5136L91.0324 30.5295C91.0324 30.5295 91.0556 30.5348 91.0659 30.5427H91.0684Z" fill="#232739"/>
<path id="Vector_27" d="M91.28 29.8044C91.3417 29.8387 91.3752 29.9286 91.3546 30.0026C91.334 30.0765 91.2671 30.1056 91.2053 30.0713L91.0972 30.0078L85.0214 26.4853L84.9133 26.4219C84.8515 26.3875 84.818 26.2977 84.8386 26.2237C84.8592 26.1497 84.9261 26.1206 84.9879 26.155L85.096 26.2184L91.1718 29.7409L91.28 29.8044Z" fill="#232739"/>
<path id="Vector_28" d="M121.324 66.1605C122.814 67.0246 123.615 69.173 123.113 70.9541C122.611 72.7352 120.992 73.4804 119.504 72.6163C118.924 72.2806 118.451 71.7521 118.116 71.1285C118.067 71.0386 118.023 70.9462 117.98 70.8537C117.557 69.9208 117.434 68.8162 117.714 67.8253C117.995 66.8343 118.618 66.1631 119.375 65.9121C119.45 65.8856 119.527 65.8671 119.607 65.8486C120.15 65.7324 120.747 65.8249 121.326 66.1605H121.324ZM121.574 72.5C122.173 72.2252 122.663 71.6464 122.892 70.8272C123.123 70.008 123.054 69.1069 122.755 68.3115C122.459 67.5135 121.934 66.8237 121.249 66.4247C120.564 66.0283 119.851 65.9993 119.251 66.2794C118.651 66.5542 118.162 67.1329 117.933 67.9521C117.701 68.7713 117.771 69.6724 118.07 70.4705C118.366 71.2685 118.891 71.9583 119.576 72.3573C120.261 72.7537 120.974 72.7827 121.574 72.5026" fill="#232739"/>
</g>
<g id="&#236;&#185;&#180;&#235;&#147;&#156;1">
<path id="Vector_29" d="M72.1099 41.2436C72.1434 41.2885 72.1537 41.3466 72.1408 41.3968L71.4843 43.7223C71.4688 43.7725 71.4328 43.8069 71.3865 43.8069C71.3684 43.8069 71.353 43.8016 71.335 43.7937C71.3118 43.7804 71.2886 43.7567 71.2732 43.7249L70.3592 41.8408C70.3387 41.8038 70.3335 41.7536 70.3464 41.714C70.3592 41.6717 70.385 41.6452 70.4185 41.6347L71.9889 41.1907C72.0146 41.1828 72.0404 41.1907 72.0636 41.2013C72.0816 41.2119 72.097 41.2251 72.1099 41.2436ZM71.3401 43.3259L71.8447 41.5422L70.6373 41.8804L71.3401 43.3259Z" fill="#232739"/>
<path id="Vector_30" d="M71.8456 41.5391L71.341 43.3228L70.6382 41.8773L71.8456 41.5391Z" fill="#232739"/>
<path id="Vector_31" d="M78.8811 40.1529C78.8605 40.2268 78.894 40.3114 78.9558 40.3484L76.9683 39.1962C77.03 39.2306 77.0944 39.2042 77.115 39.1302L77.1536 38.998L78.9197 40.0207L78.8811 40.1529Z" fill="#232739"/>
<path id="Vector_32" d="M78.5984 32.9639L78.2328 34.2562L76.0908 33.8756L76.4101 32.7393C76.5517 32.2478 76.997 32.0417 77.4115 32.2769L78.5958 32.9639H78.5984Z" fill="#F7E486"/>
<path id="Vector_33" d="M78.7833 32.7624C78.8451 32.7967 78.8786 32.8866 78.858 32.9606L78.8219 33.0901L78.4306 34.4774C78.4152 34.5356 78.3688 34.5673 78.3174 34.5593L76.0158 34.1524L75.9308 34.1365C75.9308 34.1365 75.9076 34.1286 75.8948 34.1233C75.8484 34.0969 75.8149 34.0361 75.8175 33.97C75.8175 33.8908 75.8716 33.8326 75.9359 33.8432L76.0956 33.8723L78.2375 34.2528L78.6031 32.9606L78.6392 32.8311C78.6598 32.7571 78.7267 32.728 78.7885 32.7624H78.7833Z" fill="#232739"/>
<path id="Vector_34" d="M75.6494 35.4417L75.7936 34.9316L81.8694 38.4542L81.7252 38.9642L79.4236 38.5572C79.3721 38.5493 79.3284 38.5837 79.3103 38.6392L78.919 40.0265L77.1529 39.0038L77.5442 37.6165C77.5597 37.5584 77.5442 37.4896 77.503 37.4447L75.6494 35.4443V35.4417Z" fill="#F7E486"/>
<path id="Vector_35" d="M78.8554 32.9599C78.876 32.8859 78.8425 32.7987 78.7808 32.7617L80.7683 33.9139C80.7065 33.8795 80.6395 33.9086 80.6189 33.9826L80.5829 34.1121L78.8168 33.0894L78.8528 32.9599H78.8554Z" fill="#232739"/>
<path id="Vector_36" d="M81.9784 38.516C82.0402 38.5503 82.1071 38.5213 82.1277 38.4473L81.5484 40.5032C81.3682 41.1427 80.7864 41.4096 80.2535 41.1004L78.9585 40.3499C79.0203 40.3843 79.0821 40.3552 79.1027 40.2839L79.1413 40.1517L80.3281 40.8388C80.74 41.0793 81.188 40.8705 81.3296 40.3763L81.6488 39.24L81.8085 39.2691C81.8728 39.2797 81.9269 39.2242 81.9269 39.1423C81.9269 39.0788 81.8934 39.0154 81.8445 38.989C81.8342 38.9837 81.8213 38.9784 81.811 38.9758L81.7286 38.9626L81.8728 38.4525L81.9809 38.516H81.9784Z" fill="#232739"/>
<path id="Vector_37" d="M80.1948 35.4999C80.1793 35.558 80.1948 35.6267 80.236 35.6716L82.0896 37.6747L81.9454 38.1847L75.8696 34.6622L76.0138 34.1522L78.3154 34.5591C78.3669 34.567 78.4106 34.5327 78.4287 34.4772L78.82 33.0898L80.5861 34.1125L80.1948 35.4999Z" fill="#F7E486"/>
<path id="Vector_38" d="M82.0662 34.6665C82.6017 34.9757 82.8875 35.7473 82.7073 36.3868L82.128 38.4427C82.1486 38.3687 82.1151 38.2815 82.0534 38.2445L81.9452 38.1811L82.0894 37.6711L82.1563 37.7425C82.1563 37.7425 82.1769 37.761 82.1872 37.7689C82.2336 37.7953 82.2876 37.7874 82.3185 37.7398C82.3571 37.6817 82.3468 37.5865 82.2954 37.5311L82.1666 37.3936L82.4859 36.2573C82.6223 35.7632 82.4009 35.1712 81.989 34.9281L80.8022 34.2411L80.8382 34.1116C80.8588 34.0376 80.8279 33.9504 80.7661 33.916L82.0611 34.6665H82.0662Z" fill="#232739"/>
<path id="Vector_39" d="M80.7712 33.9161C80.833 33.9505 80.8638 34.0403 80.8433 34.1117L80.8072 34.2412L80.4416 35.5334L82.1665 37.3937L82.2953 37.5312C82.3468 37.5866 82.3571 37.6818 82.3184 37.7399C82.2875 37.7875 82.2335 37.7981 82.1871 37.769C82.1768 37.7637 82.164 37.7531 82.1562 37.7426L82.0893 37.6712L80.2357 35.6681C80.1971 35.6232 80.179 35.5545 80.1945 35.4964L80.5858 34.109L80.6218 33.9795C80.6424 33.9055 80.7094 33.8765 80.7712 33.9108V33.9161Z" fill="#232739"/>
<path id="Vector_40" d="M81.9911 34.9312C82.403 35.1743 82.6244 35.7663 82.488 36.2604L82.1688 37.3967L80.4438 35.5364L80.8094 34.2441L81.9963 34.9312H81.9911Z" fill="#F7E486"/>
<path id="Vector_41" d="M108.915 73.0626C109.422 73.3559 109.842 73.8104 110.146 74.3522C109.389 74.6032 108.766 75.2744 108.485 76.2654C108.205 77.2564 108.331 78.361 108.75 79.2938C108.269 79.3783 107.746 79.2885 107.239 78.9925C106.554 78.5961 106.029 77.9038 105.733 77.1057C105.434 76.3103 105.365 75.4092 105.597 74.5874C105.828 73.7682 106.315 73.1894 106.915 72.9146C107.515 72.6371 108.228 72.6636 108.913 73.06L108.915 73.0626Z" fill="#F05E63"/>
<path id="Vector_42" d="M108.989 72.8039C109.568 73.1395 110.042 73.668 110.377 74.2943C110.3 74.3102 110.222 74.3313 110.145 74.3577C109.841 73.8186 109.422 73.3615 108.915 73.0682C108.23 72.6718 107.517 72.6427 106.917 72.9228C106.317 73.1976 105.828 73.7764 105.599 74.5956C105.367 75.4148 105.436 76.3159 105.735 77.1139C106.031 77.912 106.556 78.6017 107.241 79.0007C107.748 79.2941 108.271 79.3865 108.752 79.302C108.794 79.3945 108.84 79.487 108.889 79.5768C108.346 79.6931 107.748 79.6006 107.169 79.265C105.678 78.4009 104.878 76.2525 105.38 74.4714C105.882 72.6903 107.501 71.9451 108.989 72.8092V72.8039Z" fill="#232739"/>
<path id="Vector_43" d="M123.03 49.573L76.8804 22.8408C74.8577 21.6675 72.6623 22.677 71.9794 25.0949L63.4581 55.2651C62.7753 57.6831 63.8601 60.5952 65.8854 61.7685L112.038 88.4981C114.06 89.6714 116.256 88.6593 116.938 86.2413L125.46 56.0711C126.143 53.6532 125.055 50.7437 123.032 49.573H123.03ZM125.238 55.9443L116.717 86.1145C116.395 87.2534 115.722 88.0568 114.885 88.4426C114.053 88.8258 113.06 88.7861 112.11 88.2338L65.9576 61.5042C65.0068 60.9546 64.2775 59.998 63.8627 58.8907C63.4504 57.7835 63.3551 56.5336 63.6746 55.3946L72.1959 25.2244C72.518 24.0881 73.1931 23.2848 74.0254 22.9016C74.8602 22.5158 75.8497 22.5554 76.8005 23.1051L122.953 49.8347C123.903 50.3843 124.635 51.3436 125.048 52.4508C125.462 53.5554 125.555 54.808 125.236 55.9443" fill="#232739"/>
<path id="Vector_44" d="M75.251 36.8531L75.5702 35.7168L77.2925 37.5772L76.927 38.8694L75.7427 38.1823C75.3308 37.9418 75.1094 37.3473 75.2458 36.8531H75.251Z" fill="#F7E486"/>
<path id="Vector_45" d="M79.1387 40.1477L79.5042 38.8555L81.6488 39.2386L81.3296 40.3749C81.188 40.8665 80.74 41.0752 80.3281 40.8374L79.1412 40.1503L79.1387 40.1477Z" fill="#F7E486"/>
<path id="Vector_46" d="M112.022 74.8692C112.707 75.2656 113.232 75.958 113.528 76.756C113.827 77.5515 113.897 78.4526 113.665 79.2718C113.433 80.091 112.947 80.6697 112.347 80.9445C111.747 81.222 111.034 81.1956 110.349 80.7992C109.664 80.4028 109.139 79.7104 108.843 78.9124C108.544 78.117 108.475 77.2158 108.706 76.394C108.938 75.5748 109.425 74.9961 110.025 74.7213C110.624 74.4438 111.338 74.4702 112.022 74.8666V74.8692Z" fill="#F05E63"/>
<path id="Vector_47" d="M125.183 55.9455C125.322 55.4487 125.384 54.9281 125.373 54.4102C125.373 54.3362 125.368 54.2622 125.366 54.1882C125.348 53.8922 125.306 53.5963 125.245 53.3056C125.214 53.1602 125.178 53.0176 125.136 52.8749C125.095 52.7322 125.049 52.5921 124.997 52.4547C124.869 52.1085 124.709 51.7782 124.521 51.469C124.333 51.1598 124.117 50.8744 123.875 50.6181C123.78 50.515 123.679 50.4173 123.574 50.3248C123.522 50.2798 123.468 50.2349 123.414 50.19C123.252 50.0605 123.082 49.9416 122.904 49.8385L76.7927 23.1063C76.4967 22.9345 76.1955 22.813 75.8968 22.7363C75.7784 22.7073 75.6574 22.6835 75.539 22.6703C75.4205 22.6544 75.3021 22.6491 75.1863 22.6465C74.8953 22.6465 74.6096 22.6888 74.3393 22.776C74.2311 22.8103 74.123 22.8526 74.02 22.9002C73.917 22.9477 73.8141 23.0032 73.7162 23.064C73.6184 23.1248 73.5206 23.1909 73.4279 23.2648C73.3352 23.3388 73.2451 23.4181 73.1601 23.5027C73.1087 23.5555 73.0597 23.6084 73.0108 23.6639C72.949 23.7352 72.8898 23.8066 72.8332 23.8832C72.5577 24.2558 72.3389 24.7024 72.1921 25.2203L63.6783 55.3906C63.5573 55.8187 63.4955 56.26 63.4878 56.7066C63.4878 56.7806 63.4878 56.8546 63.4878 56.9286C63.4904 57.0765 63.5007 57.2245 63.5135 57.3725C63.565 57.8904 63.6835 58.4031 63.8637 58.8867C64.1237 59.5791 64.5047 60.2106 64.9861 60.7233C65.2745 61.0298 65.6014 61.2941 65.9567 61.5002L112.068 88.2298C112.604 88.539 113.15 88.687 113.675 88.6896C113.966 88.6896 114.252 88.6473 114.522 88.5601C114.63 88.5258 114.738 88.4835 114.841 88.4359C115.155 88.2906 115.444 88.0897 115.701 87.8308C116.131 87.4027 116.468 86.8213 116.669 86.1078L125.183 55.9376V55.9455ZM72.1381 41.3955L71.4816 43.721C71.4661 43.7712 71.4301 43.8055 71.3837 43.8055C71.3657 43.8055 71.3503 43.8003 71.3323 43.7923C71.3091 43.7791 71.2859 43.7553 71.2705 43.7236L70.3565 41.8395C70.3359 41.8025 70.3308 41.7523 70.3437 41.7126C70.3565 41.6704 70.3823 41.6439 70.4157 41.6334L71.9862 41.1894C72.0119 41.1815 72.0377 41.1894 72.0608 41.2C72.0789 41.2105 72.0943 41.2238 72.1072 41.2423C72.1406 41.2872 72.1509 41.3453 72.1381 41.3955ZM82.7038 36.3879L82.1245 38.4438L81.5452 40.4997C81.365 41.1392 80.7832 41.4061 80.2503 41.0969L75.6728 38.4438C75.1373 38.1346 74.8516 37.363 75.0318 36.7235L76.1929 32.609C76.3731 31.9695 76.9549 31.7026 77.4879 32.0118L78.7828 32.7622L80.7703 33.9144L82.0653 34.6649C82.6008 34.9741 82.8866 35.7457 82.7063 36.3852M113.886 79.393C113.384 81.1741 111.765 81.9193 110.277 81.0552C109.697 80.7196 109.224 80.1911 108.889 79.5675C108.346 79.6837 107.748 79.5912 107.169 79.2556C105.678 78.3915 104.878 76.2431 105.38 74.462C105.882 72.6809 107.501 71.9357 108.989 72.7998C109.569 73.1354 110.042 73.664 110.377 74.2876C110.92 74.1713 111.517 74.2638 112.097 74.5994C113.587 75.4636 114.388 77.612 113.886 79.393Z" fill="#F6B2C8"/>
<path id="Vector_48" d="M76.8941 39.0005L76.9327 38.8684L75.7484 38.1813C75.3365 37.9408 75.1151 37.3463 75.2515 36.8521L75.5708 35.7158L75.442 35.5784C75.3906 35.5229 75.3803 35.4278 75.4189 35.3696C75.4498 35.3247 75.5038 35.3115 75.5502 35.3379C75.5605 35.3432 75.5708 35.3511 75.5811 35.3617L75.6506 35.4357L75.7948 34.9257L75.6866 34.8623C75.6248 34.8279 75.5914 34.7381 75.612 34.6641L75.0327 36.72C74.8525 37.3595 75.1408 38.1311 75.6738 38.4403L76.9687 39.1908C76.9069 39.1564 76.8735 39.0692 76.8941 38.9952V39.0005Z" fill="#232739"/>
<path id="Vector_49" d="M75.5523 35.3423C75.5523 35.3423 75.5729 35.3555 75.5832 35.3661L75.6528 35.4401L77.5064 37.4405C77.545 37.4855 77.563 37.5542 77.5476 37.6123L77.1563 38.9997L77.1176 39.1318C77.097 39.2058 77.0301 39.2322 76.9709 39.1978C76.9091 39.1635 76.8756 39.0763 76.8962 39.0023L76.9348 38.8702L77.3004 37.578L75.5781 35.7176L75.4494 35.5802C75.3979 35.5247 75.3876 35.4295 75.4262 35.3714C75.4571 35.3265 75.5112 35.3133 75.5575 35.3397L75.5523 35.3423Z" fill="#232739"/>
<path id="Vector_50" d="M75.7621 34.5998C75.7003 34.5655 75.6334 34.5946 75.6128 34.6686L76.1921 32.6126C76.3723 31.9731 76.9541 31.7062 77.487 32.0154L78.782 32.7659C78.7202 32.7316 78.6533 32.7606 78.6327 32.8346L78.5966 32.9641L77.4124 32.277C76.9979 32.0418 76.5525 32.2453 76.4109 32.7395L76.0916 33.8758L75.932 33.8467C75.8677 33.8361 75.8136 33.8916 75.8136 33.9736C75.8136 34.0396 75.8445 34.0978 75.8908 34.1268C75.9011 34.1321 75.914 34.1374 75.9269 34.14L76.0118 34.1559L75.8677 34.6659L75.7595 34.6025L75.7621 34.5998Z" fill="#232739"/>
<path id="Vector_51" d="M81.8424 38.988C81.8887 39.0144 81.9247 39.0779 81.9247 39.1413C81.9247 39.2206 81.8707 39.2787 81.8063 39.2681L81.6467 39.2391L79.5021 38.8559L79.1366 40.1481L79.098 40.2802C79.0774 40.3542 79.013 40.3833 78.9538 40.3463C78.892 40.3119 78.8585 40.2247 78.8791 40.1534L78.9177 40.0213L79.3091 38.6339C79.3245 38.5758 79.3708 38.5441 79.4223 38.552L81.7239 38.9589L81.8063 38.9748C81.8063 38.9748 81.8295 38.9801 81.8398 38.988H81.8424Z" fill="#232739"/>
<path id="Vector_52" d="M82.0534 38.2477C82.1152 38.2821 82.1487 38.3719 82.1281 38.4459C82.1075 38.5199 82.0405 38.549 81.9787 38.5146L81.8706 38.4512L75.7948 34.9287L75.6867 34.8652C75.6249 34.8309 75.5914 34.741 75.612 34.667C75.6326 34.593 75.6996 34.564 75.7614 34.5983L75.8695 34.6618L81.9453 38.1843L82.0534 38.2477Z" fill="#232739"/>
<path id="Vector_53" d="M112.097 74.6019C113.588 75.466 114.389 77.6144 113.886 79.3955C113.384 81.1766 111.765 81.9218 110.277 81.0577C109.698 80.7221 109.224 80.1935 108.889 79.5699C108.84 79.4801 108.797 79.3876 108.753 79.2951C108.331 78.3622 108.207 77.2576 108.488 76.2667C108.768 75.2757 109.391 74.6045 110.148 74.3535C110.223 74.327 110.3 74.3085 110.38 74.29C110.923 74.1738 111.521 74.2663 112.1 74.6019H112.097ZM112.347 80.9414C112.947 80.6666 113.436 80.0878 113.665 79.2686C113.897 78.4494 113.827 77.5483 113.529 76.7529C113.233 75.9549 112.707 75.2651 112.023 74.8661C111.338 74.4697 110.625 74.4407 110.025 74.7208C109.425 74.9956 108.936 75.5743 108.707 76.3935C108.475 77.2127 108.544 78.1138 108.843 78.9119C109.139 79.71 109.664 80.3997 110.349 80.7987C111.034 81.1951 111.747 81.2241 112.347 80.944" fill="#232739"/>
</g>
<g id="&#236;&#152;&#129;&#236;&#136;&#152;&#236;&#166;&#157;">
<g id="Group">
<path id="Vector_54" d="M85.4388 63.6179C85.434 61.5168 84.7066 60.0359 83.5393 59.3388L54.3691 41.9395C55.5388 42.6365 56.2639 44.1175 56.2687 46.2186L56.2735 47.7839L85.4437 65.1832L85.4388 63.6179Z" fill="white" stroke="#232739" stroke-width="0.75" stroke-linecap="round" stroke-linejoin="round"/>
<path id="Vector_55" d="M54.7146 41.3278C53.441 40.5687 51.6792 40.6729 49.7385 41.8239C45.8814 44.1111 42.7517 49.6703 42.7638 54.2223L42.8145 72.8545C42.8242 76.3671 40.4075 80.6636 37.43 82.4274C35.9316 83.3154 34.571 83.3973 33.5874 82.8094L62.7575 100.209C63.7412 100.794 65.1018 100.715 66.6002 99.8267C69.5776 98.063 71.9944 93.7664 71.9847 90.2538L71.9339 71.6216C71.9218 67.0721 75.0491 61.5104 78.9087 59.2233C80.8493 58.0722 82.6111 57.9681 83.8847 58.7271L54.7146 41.3278Z" fill="white" stroke="#232739" stroke-width="0.75" stroke-linecap="round" stroke-linejoin="round"/>
<path id="Vector_56" d="M61.3798 97.3098L61.358 92.0309C61.3532 90.4309 60.8022 89.3047 59.9128 88.7763L30.7427 71.377C31.632 71.9078 32.1831 73.034 32.1879 74.6316L32.2024 79.5606C32.2072 81.4633 32.8646 82.8053 33.9231 83.4354L63.0933 100.835C62.1024 100.244 61.462 99.0289 61.3822 97.3098H61.3798Z" fill="white" stroke="#232739" stroke-width="0.5" stroke-linecap="round" stroke-linejoin="round"/>
<path id="Vector_57" d="M30.4115 70.747C29.423 70.1566 28.0527 70.2385 26.5447 71.1315C23.5455 72.9101 21.1142 77.2314 21.1239 80.7689L21.1819 102.107C21.1891 104.995 19.205 108.525 16.7544 109.976C15.5243 110.705 14.4053 110.772 13.5981 110.291L42.7683 127.691C43.5755 128.172 44.6944 128.105 45.9246 127.375C48.3727 125.924 50.3593 122.394 50.352 119.507L50.294 98.1682C50.2844 94.6308 52.7156 90.307 55.7148 88.5308C57.2229 87.6378 58.5931 87.5559 59.5816 88.1463L30.4115 70.747Z" fill="white" stroke="#232739" stroke-width="0.75" stroke-linecap="round" stroke-linejoin="round"/>
<path id="Vector_58" d="M85.934 64.8909L85.9291 63.3256C85.9171 58.7736 82.768 56.9355 78.9109 59.2202L78.9157 59.2177C75.0562 61.5048 71.9289 67.0665 71.941 71.616L71.9918 90.2482C72.0014 93.7609 69.5847 98.0574 66.6072 99.8211C62.7903 102.082 61.1961 100.163 61.1865 96.6508L61.172 91.7218C61.1623 88.1843 58.7166 86.753 55.7174 88.5291C52.7182 90.3053 50.2869 94.6291 50.2966 98.1665L50.3546 119.505C50.3619 122.393 48.3753 125.923 45.9271 127.374C43.479 128.825 41.4803 127.654 41.4731 124.767L41.4658 122.154" stroke="#232739" stroke-width="0.5" stroke-linecap="round" stroke-linejoin="round"/>
<path id="Vector_59" d="M41.2846 124.744V122.141L11.8076 105.049L11.8149 107.661C11.8197 109.254 12.3683 110.377 13.2552 110.903L42.9714 127.781C42.0868 127.253 41.2846 126.045 41.2846 125.178V124.744Z" fill="white" stroke="#232739" stroke-width="0.75" stroke-linecap="round" stroke-linejoin="round"/>
</g>
<path id="Vector_60" d="M26.5086 96.6308L26.482 105.747L25.8657 105.38L25.8899 96.2637L26.5086 96.6308Z" fill="#232739"/>
<path id="Vector_61" d="M26.7934 96.7951L26.7668 105.911L26.5952 105.807L26.6194 96.6934L26.7934 96.7951Z" fill="#232739"/>
<path id="Vector_62" d="M40.1103 104.688L40.0862 113.804L39.3418 113.363L39.366 104.246L40.1103 104.688Z" fill="#232739"/>
<path id="Vector_63" d="M40.8597 105.131L40.8356 114.247L40.4634 114.027L40.4875 104.91L40.8597 105.131Z" fill="#232739"/>
<path id="Vector_64" d="M27.6697 97.3144L27.6431 106.431L27.0244 106.064L27.051 96.9473L27.6697 97.3144Z" fill="#232739"/>
<path id="Vector_65" d="M35.8221 102.148L35.7955 111.265L35.1792 110.898L35.2034 101.781L35.8221 102.148Z" fill="#232739"/>
<path id="Vector_66" d="M36.9827 102.834L36.9561 111.95L36.3374 111.583L36.364 102.467L36.9827 102.834Z" fill="#232739"/>
<path id="Vector_67" d="M32.4978 100.174L32.4737 109.29L31.855 108.923L31.8816 99.8066L32.4978 100.174Z" fill="#232739"/>
<path id="Vector_68" d="M28.23 97.6465L28.2034 106.763L27.8965 106.579L27.9207 97.4629L28.23 97.6465Z" fill="#232739"/>
<path id="Vector_69" d="M29.2158 98.2285L29.1892 107.345L28.8799 107.161L28.9041 98.0449L29.2158 98.2285Z" fill="#232739"/>
<path id="Vector_70" d="M30.6441 99.0801L30.6175 108.194L30.3105 108.013L30.3347 98.8965L30.6441 99.0801Z" fill="#232739"/>
<path id="Vector_71" d="M31.6103 99.6479L31.5838 108.764L31.2744 108.581L31.301 99.4668L31.6103 99.6479Z" fill="#232739"/>
<path id="Vector_72" d="M34.9334 101.619L34.9068 110.735L34.2905 110.37L34.3147 101.254L34.9334 101.619Z" fill="#232739"/>
<path id="Vector_73" d="M33.0777 100.517L33.0535 109.633L32.7441 109.45L32.7707 100.336L33.0777 100.517Z" fill="#232739"/>
<path id="Vector_74" d="M34.0435 101.09L34.0193 110.206L33.71 110.023L33.7341 100.906L34.0435 101.09Z" fill="#232739"/>
<path id="Vector_75" d="M29.8328 98.5948L29.8086 107.711L29.3833 107.458L29.4075 98.3418L29.8328 98.5948Z" fill="#232739"/>
<path id="Vector_76" d="M37.5611 103.174L37.5369 112.29L37.2275 112.107L37.2517 102.99L37.5611 103.174Z" fill="#232739"/>
<path id="Vector_77" d="M38.9912 104.023L38.9671 113.14L38.6577 112.956L38.6819 103.84L38.9912 104.023Z" fill="#232739"/>
<path id="Vector_78" d="M38.1795 103.544L38.1553 112.66L37.73 112.407L37.7566 103.293L38.1795 103.544Z" fill="#232739"/>
<path id="Vector_79" d="M41.657 105.605L41.6328 114.722L41.0142 114.355L41.0383 105.238L41.657 105.605Z" fill="#232739"/>
<path id="Vector_80" d="M42.2368 105.947L42.2127 115.064L41.9033 114.88L41.9275 105.764L42.2368 105.947Z" fill="#232739"/>
<path id="Vector_81" d="M42.8563 106.313L42.8321 115.429L42.4067 115.176L42.4309 106.062L42.8563 106.313Z" fill="#232739"/>
<path id="Vector_82" d="M43.5176 106.706L43.4934 115.823L43.1841 115.639L43.2107 106.525L43.5176 106.706Z" fill="#232739"/>
<path id="Vector_83" d="M44.6973 107.404L44.6731 116.521L44.3638 116.337L44.3879 107.221L44.6973 107.404Z" fill="#232739"/>
<path id="Vector_84" d="M45.4899 107.874L45.4658 116.99L44.8857 116.648L44.9099 107.531L45.4899 107.874Z" fill="#232739"/>
<path id="Vector_85" d="M44.1365 107.071L44.1124 116.187L43.687 115.937L43.7136 106.82L44.1365 107.071Z" fill="#232739"/>
<path id="Vector_86" d="M28.6885 76.2324L47.6696 87.5541" stroke="#232739" stroke-width="0.75" stroke-linecap="round" stroke-linejoin="round"/>
<path id="Vector_87" d="M26.8477 79.1641L41.4883 87.896" stroke="#232739" stroke-width="0.75" stroke-linecap="round" stroke-linejoin="round"/>
<path id="Vector_88" d="M26.332 82.8184L35.5012 88.2882" stroke="#232739" stroke-width="0.75" stroke-linecap="round" stroke-linejoin="round"/>
<path id="Vector_89" d="M26.332 87.1758L40.4628 95.6051" stroke="#232739" stroke-width="0.75" stroke-linecap="round" stroke-linejoin="round"/>
<path id="Vector_90" d="M26.332 91.0312L37.5602 97.729" stroke="#232739" stroke-width="0.75" stroke-linecap="round" stroke-linejoin="round"/>
<path id="Vector_91" d="M49.4756 48.3516L68.4567 59.6733" stroke="#232739" stroke-width="0.75" stroke-linecap="round" stroke-linejoin="round"/>
<path id="Vector_92" d="M47.6338 51.2832L62.272 60.0151" stroke="#232739" stroke-width="0.75" stroke-linecap="round" stroke-linejoin="round"/>
<path id="Vector_93" d="M52.2617 45.9102L66.9024 54.6421" stroke="#232739" stroke-width="0.75" stroke-linecap="round" stroke-linejoin="round"/>
<path id="Vector_94" d="M47.1162 54.9414L56.2854 60.4113" stroke="#232739" stroke-width="0.75" stroke-linecap="round" stroke-linejoin="round"/>
<path id="Vector_95" d="M47.1162 68.4102L56.2854 73.88" stroke="#232739" stroke-width="0.75" stroke-linecap="round" stroke-linejoin="round"/>
<path id="Vector_96" d="M47.1162 72.084L56.2854 77.5538" stroke="#232739" stroke-width="0.75" stroke-linecap="round" stroke-linejoin="round"/>
<path id="Vector_97" d="M47.1162 59.2949L61.2494 67.7242" stroke="#232739" stroke-width="0.75" stroke-linecap="round" stroke-linejoin="round"/>
<path id="Vector_98" d="M47.1162 63.1543L58.3468 69.8521" stroke="#232739" stroke-width="0.75" stroke-linecap="round" stroke-linejoin="round"/>
</g>
</g>
</svg>
