<svg width="288" height="105" viewBox="0 0 288 105" fill="none" xmlns="http://www.w3.org/2000/svg">
<rect x="0.5" y="0.5" width="287" height="104" fill="#F4F4F4"/>
<rect x="0.5" y="0.5" width="287" height="104" stroke="#EEEEEE"/>
<path fill-rule="evenodd" clip-rule="evenodd" d="M37.282 39.2556V28.9344H28.3535L28.9787 32.8346H32.6784V36.61C31.815 37.0759 30.9796 37.291 29.806 37.291C26.1295 37.291 24.2809 34.4904 24.2809 30.5023C24.2809 26.5142 26.0668 23.8315 29.7444 23.8315C31.9405 23.8315 33.8206 24.6306 35.4241 25.6435L36.1364 21.0668C34.4387 20.1117 32.2473 19.5 29.6224 19.5C23.0434 19.5 18.9998 23.9495 18.9998 30.5289C18.9998 37.1083 22.7366 41.5 29.4981 41.5C32.4332 41.5 35.0581 40.7021 37.282 39.2556Z" fill="#007CFF"/>
<path fill-rule="evenodd" clip-rule="evenodd" d="M54.6429 34.7083C54.6429 31.3296 52.7954 29.7327 48.165 28.0399C45.5052 27.0281 44.9161 26.5054 44.9161 25.4243C44.9161 24.4414 45.69 23.7754 47.2993 23.7754C48.9086 23.7754 50.9397 24.3848 52.8535 25.489L53.6564 21.0685C51.7996 20.177 50.0125 19.6543 47.2331 19.6543C43.1592 19.6543 39.9487 21.8305 39.9487 25.9204C39.9487 29.4217 41.7986 30.8081 46.0606 32.4327C49.0573 33.574 49.6732 34.129 49.6732 35.3235C49.6732 36.5839 48.6239 37.2291 47.1076 37.2291C44.9789 37.2291 42.5434 36.4301 40.3473 35.2657L39.5769 39.7498C41.7405 40.7316 44.1481 41.3432 47.0146 41.3432C51.2488 41.3432 54.6429 39.3197 54.6429 34.7083Z" fill="#007CFF"/>
<path d="M65.4144 33.7133C67.8731 32.106 71.2114 30.0131 71.2114 26.0296C71.2114 21.6552 67.4873 19.6641 64.0282 19.6641C58.8667 19.6641 56.7857 23.747 56.4917 24.3841L60.4749 26.2389C60.7224 25.7971 61.8297 24.0326 63.6842 24.0326C64.8799 24.0326 66.0477 25.0109 66.0477 26.5314C66.0477 27.7571 64.6614 28.681 62.9348 29.8512C60.1995 31.7071 56.7938 34.0151 56.7938 38.7617C56.7938 39.3838 56.8647 40.0753 57.0169 40.931H71.2172V36.6827H62.4572C62.4572 35.7507 63.8155 34.7597 65.4144 33.7133Z" fill="#00D4EA"/>
<path d="M82.2965 30.3827C81.1694 30.3827 80.2515 29.4704 80.2515 28.3476C80.2515 27.2248 81.1682 26.3125 82.2965 26.3125C83.4248 26.3125 84.3427 27.226 84.3427 28.3476C84.3427 29.4692 83.4248 30.3827 82.2965 30.3827Z" fill="white"/>
<path d="M83.5432 26.122C83.269 26.033 82.7868 25.9023 82.2964 25.9023C80.9404 25.9023 79.84 26.9974 79.84 28.3468C79.84 29.2649 80.3281 30.0489 81.0996 30.4825C81.4401 30.6721 82.3034 30.9311 82.5474 31.0607C83.5804 31.6099 84.2822 32.6934 84.2822 33.9387C84.2822 35.7426 82.8135 37.2041 81.0008 37.2041C79.2835 37.2041 77.8728 35.8894 77.7346 34.2139L73.3389 35.1656C74.0546 38.7756 77.2535 41.501 81.0938 41.501C85.4593 41.501 88.9998 37.9789 88.9998 33.6346C88.9998 30.1391 86.7119 27.1477 83.5432 26.122ZM82.2964 29.9726C81.3959 29.9726 80.6627 29.2429 80.6627 28.3468C80.6627 27.4506 81.3959 26.721 82.2964 26.721C83.1969 26.721 83.9313 27.4506 83.9313 28.3468C83.9313 29.2429 83.1969 29.9726 82.2964 29.9726Z" fill="#00D4EA"/>
<path d="M74.7111 19.9551L73.8455 29.7756H78.2667L78.8303 24.1953H83.908C86.9129 24.1953 88.0051 21.7716 88.0051 19.9551H74.7111Z" fill="#00D4EA"/>
<path d="M139.064 24.5449C138.14 24.5449 137.389 25.399 137.389 26.4491V30.8475C137.389 32.6653 136.354 34.0195 134.982 34.0195C133.611 34.0195 132.575 32.6653 132.575 30.8475V26.4491C132.575 25.3807 131.859 24.5449 130.944 24.5449C130.028 24.5449 129.268 25.399 129.268 26.4491V30.9305C129.268 34.8337 131.724 37.6933 134.981 37.6933C136.56 37.6933 138.019 36.9888 139.089 35.7094C140.152 34.4366 140.739 32.7101 140.739 30.8475V26.4491C140.739 25.399 139.987 24.5449 139.063 24.5449" fill="#652D8D"/>
<path d="M147.681 44.571C147.541 44.571 147.397 44.5461 147.26 44.4929L142.74 43.1919C140.898 44.3766 138.816 44.9997 136.681 44.9997H121.32C114.527 44.9997 109 38.7188 109 31.0005C109 23.2823 114.527 16.9997 121.32 16.9997H126.624C127.354 16.9997 127.945 17.671 127.945 18.5002C127.945 19.3293 127.354 20.0006 126.624 20.0006H121.32C115.983 20.0006 111.64 24.9356 111.64 31.0005C111.64 37.0655 115.983 42.0005 121.32 42.0005H136.681C138.528 42.0005 140.325 41.4073 141.873 40.284C142.21 40.0398 142.625 39.9833 143.003 40.1278L145.963 41.1198L144.713 38.1854C144.586 37.755 144.635 37.2831 144.85 36.901C145.839 35.1396 146.359 33.0992 146.359 30.9989C146.359 24.934 142.017 19.9989 136.68 19.9989H131.375C130.645 19.9989 130.055 19.3276 130.055 18.4985C130.055 17.6693 130.645 16.998 131.375 16.998H136.68C143.473 16.998 149 23.279 149 30.9989C149 33.4248 148.451 35.7893 147.409 37.8846L148.931 42.592C149.092 43.132 148.968 43.7286 148.614 44.1307C148.362 44.4165 148.024 44.5693 147.681 44.5693" fill="#AACE37"/>
<path d="M125.901 32.5901C125.453 32.5901 125.032 32.7878 124.716 33.1484C124.212 33.7216 123.541 34.0357 122.827 34.0357C122.114 34.0357 121.441 33.72 120.938 33.1467C120.413 32.5518 120.112 31.7676 120.112 30.9999C120.112 30.2322 120.413 29.4479 120.938 28.8514C121.443 28.2782 122.114 27.9624 122.827 27.9624C123.541 27.9624 124.212 28.2782 124.716 28.8514C125.032 29.212 125.453 29.4097 125.901 29.4097C126.348 29.4097 126.769 29.212 127.085 28.8514C127.739 28.1087 127.739 26.9007 127.085 26.1579C125.948 24.8652 124.436 24.1523 122.826 24.1523C121.216 24.1523 119.704 24.8652 118.567 26.1579C116.218 28.8265 116.218 33.17 118.567 35.8402C119.703 37.1313 121.216 37.8408 122.826 37.8408C124.436 37.8408 125.949 37.1296 127.085 35.8385C127.739 35.0958 127.739 33.8878 127.085 33.145C126.768 32.7861 126.348 32.5884 125.901 32.5884" fill="#652D8D"/>
<path d="M238.804 39.5958C238.58 39.6663 237.364 39.9995 236.071 39.9995C233.186 39.9995 231.65 38.7607 231.65 36.1272V20.2793H233.267C234.952 20.2793 235.502 21.2639 235.502 22.633V23.8355H238.804V24.7667C238.804 26.0909 237.89 26.8427 236.526 26.8427H235.502V35.4459C235.502 36.3878 235.819 37.0585 237.151 37.0585C237.941 37.0585 238.676 36.8321 238.802 36.7957C238.802 37.1161 238.802 39.5958 238.802 39.5958M228.787 26.4049C229.603 26.4049 230.451 26.6505 230.551 26.6783V23.8355C230.414 23.8098 228.834 23.466 227.332 23.466C224.788 23.466 222.992 24.5189 222.992 27.2827V39.6193H226.844V28.0473C226.844 27.0264 227.491 26.407 228.787 26.407M206.666 27.9406C206.666 26.3536 205.774 23.4809 200.622 23.4809C197.983 23.4809 196.924 24.1793 196.545 24.4356C196.155 24.2135 194.924 23.4809 192.467 23.4809C187.708 23.4809 186.425 25.856 186.425 27.8274V39.6215H190.309V28.0815C190.309 27.4151 190.686 26.4049 192.465 26.4049C193.85 26.4049 194.602 27.1054 194.602 28.0815V39.6215H198.488V28.0815C198.488 27.1097 199.225 26.4049 200.622 26.4049C202.148 26.4049 202.781 27.1866 202.781 28.0815V36.9773C202.781 38.7223 203.795 39.7048 205.401 39.7048H206.666V27.9406ZM214.879 23.4724C219.741 23.4724 221.501 25.7791 221.501 28.8526V33.8483C221.501 37.3575 219.255 40.0038 214.607 40.0038C209.958 40.0038 207.73 37.9107 207.73 35.0871C207.73 32.8359 209.255 31.3536 212.57 30.4395C213.051 30.3071 214.666 29.8244 215.399 29.6065C217.071 29.1174 217.61 28.7351 217.61 28.011C217.61 27.2464 216.682 26.4092 214.788 26.4092C212.525 26.4092 211.814 27.8103 211.801 28.8205H208.273C208.273 25.6979 210.131 23.4745 214.877 23.4745M214.298 37.067C215.793 37.067 217.619 36.1208 217.619 33.7137V31.8214C217.619 31.8214 214.679 32.665 213.852 32.9171C212.385 33.3634 211.677 34.1131 211.677 35.0956C211.677 36.0781 212.485 37.0649 214.296 37.0649" fill="#595757"/>
<path d="M176.702 39.9915C171.342 39.9915 169 36.7001 169 32.5352V28.0393C169 22.2533 172.848 20 177.362 20C182.814 20 185.198 22.9731 185.198 25.9462C185.198 30.2883 180.769 31.352 178.813 31.9201C178.251 32.0824 176.176 32.7018 175.707 32.8385C173.879 33.3682 173.357 33.962 173.357 34.6348C173.357 35.7839 174.359 36.7813 176.704 36.7813C178.743 36.7813 180.234 36.085 180.483 33.9492H184.749C184.31 37.3281 182.282 39.9915 176.704 39.9915M177.186 23.2166C174.814 23.2166 173.263 24.8056 173.263 27.5139V30.3588C173.263 30.3588 176.47 29.4191 177.81 29.0132C178.93 28.6715 180.939 27.9581 180.939 26.1833C180.939 24.6369 179.689 23.2166 177.188 23.2166" fill="#F7B52C"/>
<path d="M245.342 27.1167V25.4977C245.342 25.4977 245.402 23.6054 247.681 23.6054C249.705 23.6054 250.374 24.857 250.374 25.9334C250.374 27.0099 249.886 27.8044 248.706 28.9877L242.524 35.314C241.963 35.8758 241.646 36.6383 241.642 37.4349C241.642 38.5114 242.479 39.511 243.444 39.511H252.615C252.615 39.511 254.411 39.4981 254.411 36.1363H246.584L252.626 29.904C253.6 28.8852 253.979 27.5374 253.987 26.1278C253.987 26.1086 253.987 26.0872 253.987 26.068C253.987 23.1846 252.032 20.3418 248.009 20.3418C243.619 20.3418 241.801 23.6267 241.801 25.1944V27.1167H245.342Z" fill="#F7B52C"/>
<path d="M265.669 32.2532V22.1635C265.669 21.1789 264.989 20.3438 263.849 20.3438C262.709 20.3438 262.064 20.8798 261.719 21.3241C261.418 21.715 254.277 31.3561 254.168 31.5078C254.062 31.6616 253.461 32.4091 253.461 33.5432C253.461 34.8205 254.373 35.4527 255.366 35.4527C256.118 35.4527 262.215 35.4804 262.215 35.4804V40.002C262.215 40.002 265.669 40.002 265.669 38.2229V35.4804H266.704C267.254 35.4804 267.801 35.3138 268.225 34.9614C268.632 34.624 269 34.0815 269 33.2207V32.2532H265.669ZM262.458 32.3344H257.496L262.458 25.5595V32.3344Z" fill="#F7B52C"/>
<g clip-path="url(#clip0_1577_36622)">
<path d="M96.6706 77.3812C96.6706 77.3812 96.672 77.3812 96.6747 77.3812C98.3058 77.5343 99.5816 78.8969 99.5816 80.5294C99.5816 82.1619 98.3548 83.4561 96.7659 83.6467C96.2145 83.7138 95.7883 84.1582 95.7883 84.7167V86.9922C95.7883 87.0406 95.7488 87.0795 95.7012 87.0795H27.4717C27.4227 87.0795 27.3832 87.0406 27.3832 86.9922V77.0402C27.3819 76.4911 26.9285 76.0441 26.3716 76.0441H24.8153C24.8045 76.0441 24.7949 76.04 24.7868 76.0333C24.7718 76.0186 24.7718 75.9931 24.7868 75.9783L33.1834 67.4024C33.1997 67.3876 33.2242 67.3876 33.2392 67.4024L35.7853 69.8189C36.1338 70.1626 36.7846 70.1948 37.1659 69.8189C37.5471 69.4416 37.5444 68.8294 37.1632 68.4549L33.8955 65.3174C33.5142 64.9415 32.8961 64.9415 32.5149 65.3174L21.7328 76.3448C21.5871 76.5166 21.5 76.7408 21.5 76.9838C21.5 77.5343 21.9711 77.9639 22.5103 77.9639H25.3463C25.3954 77.9639 25.4348 78.0028 25.4348 78.0511V88.0058C25.4348 88.5562 25.8869 89.002 26.4451 89.002H96.7292C97.2874 89.002 97.7394 88.5562 97.7394 88.0058V85.455C97.7394 85.4282 97.7558 85.4081 97.7803 85.4014C99.9288 84.7959 101.501 82.8452 101.501 80.5321C101.501 78.5465 100.343 76.8281 98.6557 75.9984C98.6217 75.981 98.5877 75.9662 98.5536 75.9488C98.5182 75.9326 98.4937 75.8964 98.4937 75.8548C98.4692 73.2168 96.8966 70.9452 94.6269 69.882C94.5915 69.8645 94.5725 69.8296 94.567 69.788C94.2239 67.0896 91.8889 65.002 89.0582 65.002C87.822 65.002 86.6783 65.3993 85.7565 66.0746C85.3208 66.3928 85.2037 66.9808 85.5142 67.4185C85.8246 67.8561 86.4482 67.981 86.8771 67.6574C87.4816 67.201 88.2386 66.9311 89.0582 66.9311C90.4661 66.9311 91.6847 67.7286 92.2756 68.8912C92.5166 69.3691 92.733 70.0458 92.733 71.1842C92.733 71.2258 92.7616 71.2607 92.8025 71.2688C92.8665 71.2822 92.9277 71.2983 92.9904 71.3158C94.7876 71.7964 96.1668 73.3013 96.4718 75.1419C96.5127 75.393 96.5957 76.0629 96.5957 77.298C96.5957 77.3423 96.6298 77.3785 96.6733 77.3826" fill="#003894"/>
<path d="M43.9789 83.5936C44.9647 83.5936 45.7625 82.8056 45.7625 81.8349V75.4325C45.7625 74.4605 44.9647 73.6738 43.9789 73.6738C42.9932 73.6738 42.1953 74.4605 42.1953 75.4325V81.8349C42.1953 82.8069 42.9932 83.5936 43.9789 83.5936Z" fill="#003894"/>
<path d="M58.1881 83.5936C59.1724 83.5936 59.9717 82.8056 59.9717 81.8349V75.4325C59.9717 74.4605 59.1724 73.6738 58.1881 73.6738C57.2037 73.6738 56.4031 74.4605 56.4031 75.4325V81.8349C56.4031 82.8069 57.2009 83.5936 58.1881 83.5936Z" fill="#003894"/>
<path d="M70.0865 76.7302C70.0865 76.6765 70.0415 76.6322 69.9871 76.6322H69.5201C68.6963 76.6322 68.0278 75.9731 68.0278 75.1608C68.0278 74.3486 68.695 73.6895 69.5201 73.6895H73.73C74.5537 73.6895 75.2208 74.3473 75.2208 75.1608C75.2208 75.9744 74.5537 76.6309 73.73 76.6309H73.4876C73.4331 76.6309 73.3882 76.6752 73.3882 76.7302V81.9687C73.3882 82.8668 72.6489 83.5945 71.738 83.5945C70.8272 83.5945 70.0906 82.8668 70.0906 81.9687L70.0878 76.7302H70.0865Z" fill="#003894"/>
<path d="M53.4554 73.6732C52.5051 73.6732 51.7358 74.4331 51.7358 75.3701L51.7208 76.616V76.6066C51.7208 76.6267 51.7045 76.6428 51.6841 76.6428C51.6718 76.6428 51.6609 76.6361 51.6541 76.6267L50.1183 74.4331C49.8065 73.9941 49.2905 73.7041 48.7037 73.7041C47.7547 73.7041 46.9827 74.4626 46.9827 75.3997V81.88C46.9827 82.8157 47.7533 83.5755 48.7037 83.5755C49.654 83.5755 50.4233 82.817 50.4233 81.88L50.441 80.6059V80.61C50.441 80.5898 50.4573 80.575 50.4764 80.575C50.49 80.575 50.4995 80.5804 50.5063 80.5885L52.0095 82.7687C52.3158 83.2346 52.8482 83.5447 53.4541 83.5447C54.4044 83.5447 55.1737 82.7848 55.1737 81.8477V75.3688C55.1737 74.4317 54.4031 73.6719 53.4541 73.6719" fill="#003894"/>
<path d="M39.2026 73.6738C38.6526 73.6738 38.1597 73.9208 37.8329 74.3088V74.3061L35.9213 76.4434C35.9213 76.4434 35.8995 76.4931 35.8492 76.4931C35.7988 76.4931 35.7593 76.4434 35.7593 76.4434L33.8164 74.3236C33.491 73.9262 32.9927 73.6738 32.4358 73.6738C31.4528 73.6738 30.6562 74.4592 30.6562 75.4271V81.8873C30.6562 82.823 31.4269 83.5829 32.3772 83.5829C33.3276 83.5829 34.0955 82.823 34.0955 81.8873L34.1391 79.5621C34.1418 79.5366 34.1636 79.5164 34.1908 79.5164C34.2044 79.5164 34.2167 79.5231 34.2262 79.5312L35.7716 81.2348C35.7716 81.2348 35.811 81.2952 35.8655 81.2952C35.92 81.2952 35.9594 81.2348 35.9594 81.2348L37.4122 79.5017C37.4217 79.4936 37.4354 79.4882 37.449 79.4882C37.4776 79.4882 37.5007 79.5097 37.5007 79.5379L37.5429 81.8886C37.5429 82.8244 38.3136 83.5842 39.2639 83.5842C40.2143 83.5842 40.9835 82.8244 40.9835 81.8886V75.4285C40.9835 74.4605 40.1884 73.6752 39.204 73.6752" fill="#003894"/>
<path d="M90.2345 77.7344H89.3468C89.3182 77.7344 89.2964 77.7116 89.2964 77.6834V76.2429C89.2964 76.2147 89.3182 76.1919 89.3468 76.1919H90.2345C90.6661 76.1919 91.016 76.5383 91.016 76.9638C91.016 77.3894 90.6661 77.7344 90.2345 77.7344ZM90.2386 73.6908H86.862C86.2915 73.6908 85.8313 74.1432 85.8313 74.7057L85.8381 81.8881C85.8381 82.8292 86.6115 83.5931 87.5659 83.5931C88.5203 83.5931 89.2951 82.8292 89.2951 81.8881V80.2221C89.2951 80.1952 89.3182 80.1711 89.3468 80.1711H90.1283C92.5464 80.1711 93.701 78.5628 93.701 76.9625C93.701 75.1555 92.1516 73.6895 90.2386 73.6895" fill="#003894"/>
<path d="M67.8224 80.4778C67.8224 82.3251 66.3083 83.822 64.4335 83.822C63.1251 83.822 62.1298 83.3132 61.3632 82.5023C61.1304 82.254 60.9956 81.9143 60.9956 81.5492C60.9956 80.7638 61.6396 80.1275 62.4375 80.1275C62.752 80.1275 63.1455 80.2818 63.3443 80.3866C63.4477 80.4403 63.9583 80.7866 64.168 80.7866C64.3259 80.7866 64.4526 80.6618 64.4526 80.5074C64.4526 80.306 64.1734 80.1301 64.0468 80.067C62.5981 79.3528 61.2679 78.3822 61.2679 76.6061C61.2679 74.8299 62.5614 73.4297 64.605 73.4297C65.7052 73.4297 66.6705 73.9184 67.3594 74.6581C67.5678 74.8823 67.6917 75.1763 67.6917 75.5039C67.6917 76.1993 67.1212 76.7631 66.4159 76.7631C65.9326 76.7631 65.2899 76.3684 65.2314 76.3389C65.0639 76.2463 64.9917 76.1603 64.8229 76.1603C64.6541 76.1603 64.5193 76.2946 64.5193 76.4597C64.5193 76.6839 64.7889 76.8678 65.4233 77.1739C67.1702 78.0184 67.8251 79.2374 67.8251 80.4778" fill="#003894"/>
<path d="M79.8296 80.6291C78.7037 80.6291 77.7901 79.7282 77.7901 78.618C77.7901 77.5077 78.7037 76.6056 79.8296 76.6056C80.9556 76.6056 81.8692 77.5064 81.8692 78.618C81.8692 79.7296 80.957 80.6291 79.8296 80.6291ZM79.8324 73.4453C76.9718 73.4453 74.6531 75.7611 74.6531 78.618C74.6531 81.4748 76.9704 83.7907 79.8324 83.7907C82.6943 83.7907 85.0103 81.4748 85.0103 78.618C85.0103 75.7611 82.6916 73.4453 79.8324 73.4453Z" fill="#003894"/>
</g>
<path d="M131.048 71.7881H122.333V67.4531H138.071C138.071 67.4531 133.737 69.2185 131.172 71.7881H131.048Z" fill="#F08300"/>
<path d="M140.566 67.1094V71.9715C140.566 71.9715 135.949 73.1925 135.346 76.6791C135.346 76.6791 134.378 80.8963 134.615 86.3665H127.713C127.713 86.3665 127.474 79.0647 129.56 74.9064C129.56 74.9064 131.571 70.0762 140.566 67.1118V67.1094Z" fill="#E60012"/>
<path d="M149.586 75.0469H141.239V78.4722H149.586V75.0469Z" fill="#00903B"/>
<path d="M154.073 67.3867V86.2907H167.773V82.5467H161.793V78.1456H167.787V75.0464H161.793V70.8095H167.787V67.3867H154.073Z" fill="#00903B"/>
<path d="M185.996 67.3867V86.2907H199.703V82.5467H193.716V78.1456H199.715V75.0464H193.716V70.8095H199.715V67.3867H185.996Z" fill="#00903B"/>
<path d="M222.94 67.3867V86.2907H236.638V82.5467H230.656V78.1456H236.657V75.0464H230.656V70.8095H236.657V67.3867H222.94Z" fill="#00903B"/>
<path d="M170.778 67.3867V86.2907H184.052V82.5467H178.283V67.3867H170.778Z" fill="#00903B"/>
<path d="M201.61 67.3867L205.035 86.2907H216.189L220.888 67.3867H215.003L211.629 80.953L208.911 67.3867H201.61Z" fill="#00903B"/>
<path d="M258.784 86.2906V71.724C258.784 71.724 259.822 66.6535 252.352 67.0188C252.352 67.0188 248.816 67.6318 246.732 69.1005V67.3866H239.518V86.2906H246.802V74.1048C246.802 74.1048 246.732 71.7877 248.814 71.6039C250.907 71.4249 251.391 72.2119 251.311 73.3128V86.2906H258.782H258.784Z" fill="#00903B"/>
<path d="M263.138 81.873C261.741 81.873 260.606 83.0279 260.606 84.4402C260.606 85.1267 260.873 85.7666 261.349 86.2497C261.826 86.7302 262.453 86.9999 263.138 86.9999C263.823 86.9999 264.437 86.7302 264.929 86.2497C265.396 85.7666 265.667 85.1267 265.667 84.4402C265.667 83.7536 265.396 83.1137 264.929 82.638C264.437 82.1477 263.813 81.873 263.138 81.873ZM265.323 84.4402C265.323 85.6612 264.338 86.664 263.138 86.664C262.55 86.664 261.996 86.4335 261.587 86.0069C261.175 85.5852 260.948 85.0335 260.948 84.4402C260.948 83.8468 261.175 83.2829 261.587 82.8636C261.993 82.4517 262.55 82.2163 263.138 82.2163C263.726 82.2163 264.275 82.4517 264.687 82.8636C265.101 83.2829 265.323 83.8542 265.323 84.4402Z" fill="#00903B"/>
<path d="M264.254 85.7397L263.61 84.4917C263.753 84.4181 263.862 84.3054 263.953 84.2048C264.062 84.0577 264.113 83.9033 264.113 83.7218C264.113 83.5845 264.089 83.4546 264.016 83.3467C263.958 83.2167 263.874 83.1137 263.772 83.0402C263.687 82.9789 263.583 82.9519 263.474 82.9323C263.353 82.9151 263.169 82.8906 262.923 82.8906H262.167V83.2167L262.184 84.5187V85.8182C262.184 85.9138 262.255 85.9824 262.332 85.9824C262.429 85.9824 262.501 85.9138 262.501 85.8182V84.5187H263.273L263.958 85.8966C264.004 85.9653 264.099 86.0143 264.174 85.9653C264.258 85.9212 264.283 85.8206 264.254 85.7373M262.521 84.2048V83.2167H263.051C263.259 83.2167 263.433 83.2535 263.535 83.3467C263.646 83.4227 263.692 83.5502 263.692 83.7218C263.692 83.8738 263.644 83.9891 263.535 84.0798C263.421 84.1558 263.249 84.2048 263.031 84.2048H262.518H262.521Z" fill="#00903B"/>
<defs>
<clipPath id="clip0_1577_36622">
<rect width="80" height="24" fill="white" transform="translate(21.5 65)"/>
</clipPath>
</defs>
</svg>
