<svg width="492" height="104" viewBox="0 0 492 104" fill="none" xmlns="http://www.w3.org/2000/svg">
<mask id="mask0_1577_35443" style="mask-type:alpha" maskUnits="userSpaceOnUse" x="0" y="0" width="492" height="104">
<rect width="492" height="104" fill="#D9D9D9"/>
</mask>
<g mask="url(#mask0_1577_35443)">
<path d="M0 104C0 83.0132 17.0132 66 38 66H454C474.987 66 492 83.0132 492 104H0Z" fill="#FDEDB0"/>
<path d="M99.7796 53.6504H49.0215V124.882H99.7796V53.6504Z" fill="#E5E6F5" stroke="#426096" stroke-linecap="round" stroke-linejoin="round"/>
<path d="M99.7796 53.6504H49.0215V124.882H99.7796V53.6504Z" stroke="#426096" stroke-linecap="round" stroke-linejoin="round"/>
<path d="M49.0512 59.8457H38V60.8562H49.0512V59.8457Z" fill="#426096" stroke="#426096" stroke-linecap="round" stroke-linejoin="round"/>
<path d="M48.3155 65.1582H38V72.3099H48.3155V65.1582Z" fill="#6D82AF" stroke="#426096" stroke-linecap="round" stroke-linejoin="round"/>
<path d="M40.5998 66.1925C40.5998 66.4377 40.3987 66.6388 40.1534 66.6388C39.9081 66.6388 39.707 66.4377 39.707 66.1925C39.707 65.9472 39.9081 65.7461 40.1534 65.7461C40.3987 65.7461 40.5998 65.9472 40.5998 66.1925Z" fill="white" stroke="#426096" stroke-linecap="round" stroke-linejoin="round"/>
<path d="M46.8048 66.1925C46.8048 66.4377 46.6037 66.6388 46.3585 66.6388C46.1132 66.6388 45.9121 66.4377 45.9121 66.1925C45.9121 65.9472 46.1132 65.7461 46.3585 65.7461C46.6037 65.7461 46.8048 65.9472 46.8048 66.1925Z" fill="white" stroke="#426096" stroke-linecap="round" stroke-linejoin="round"/>
<path d="M40.1533 60.8555V66.0892" stroke="#426096" stroke-linecap="round" stroke-linejoin="round"/>
<path d="M93.1234 68.3555H55.6729V96.138H93.1234V68.3555Z" fill="#6D82AF" stroke="#426096" stroke-linecap="round" stroke-linejoin="round"/>
<path d="M87.9534 88.7363H60.6172V90.7033H87.9534V88.7363Z" fill="white" stroke="#426096" stroke-linecap="round" stroke-linejoin="round"/>
<path d="M64.3845 90.7031H63.5801V96.138H64.3845V90.7031Z" fill="white" stroke="#426096" stroke-linecap="round" stroke-linejoin="round"/>
<path d="M85.6975 90.7031H84.8931V96.138H85.6975V90.7031Z" fill="white" stroke="#426096" stroke-linecap="round" stroke-linejoin="round"/>
<path d="M74.7 68.7324H73.1353V96.1373H74.7V68.7324Z" fill="#426096" stroke="#426096" stroke-linecap="round" stroke-linejoin="round"/>
<path d="M84.1621 86.9365C84.1621 89.3351 79.6592 89.3351 79.6592 86.9365V82.4336H84.1621V86.9365Z" fill="white" stroke="#426096" stroke-linecap="round" stroke-linejoin="round"/>
<path d="M81.9106 82.4378V78.5039" stroke="#426096" stroke-linecap="round" stroke-linejoin="round"/>
<path d="M79.6248 78.7889C80.6304 78.2984 81.7733 78.7742 81.8615 79.9563C81.8763 80.074 81.8125 80.1819 81.7144 80.2359C80.6892 80.8392 79.6493 80.1721 79.4777 79.0685C79.458 78.9508 79.5218 78.8379 79.6248 78.7889Z" fill="white" stroke="#426096" stroke-linecap="round" stroke-linejoin="round"/>
<path d="M82.1115 78.6845C82.0084 77.571 82.8619 76.6734 83.9999 77.0118C84.1127 77.0413 84.1961 77.1394 84.2108 77.2473C84.407 78.4196 83.4162 79.1554 82.3224 78.9199C82.2047 78.8954 82.1213 78.7973 82.1115 78.6845Z" fill="white" stroke="#426096" stroke-linecap="round" stroke-linejoin="round"/>
<path d="M82.0677 80.8235C82.5239 79.8032 83.7011 79.4353 84.535 80.2839C84.6183 80.3673 84.6429 80.4899 84.6036 80.5929C84.2063 81.7113 82.98 81.8731 82.1364 81.1325C82.0432 81.054 82.0186 80.9265 82.0677 80.8235Z" fill="white" stroke="#426096" stroke-linecap="round" stroke-linejoin="round"/>
<path d="M97.2685 70.4246H51.5332L55.5358 64.2441H93.2659L97.2685 70.4246Z" fill="#C6CCE3" stroke="#426096" stroke-linecap="round" stroke-linejoin="round"/>
<path d="M57.125 72.2446C58.989 72.2446 60.5243 71.8718 61.2404 71.3126C62.2018 71.8718 63.899 72.2446 65.7629 72.2446C67.6269 72.2446 69.2161 71.8718 70.0157 71.3126C70.8937 71.8718 72.5369 72.2446 74.4009 72.2446C76.2648 72.2446 77.908 71.8718 78.786 71.3126C79.5856 71.8718 81.1748 72.2446 83.0388 72.2446C84.9027 72.2446 86.5999 71.8718 87.5613 71.3126C88.2774 71.8718 89.8127 72.2446 91.6767 72.2446C94.3941 72.2446 96.8908 71.445 97.2685 70.4297H51.5332C51.9109 71.445 54.4125 72.2446 57.125 72.2446Z" fill="#C6CCE3" stroke="#426096" stroke-linecap="round" stroke-linejoin="round"/>
<path d="M46.3584 60.8555V66.0892" stroke="#426096" stroke-linecap="round" stroke-linejoin="round"/>
<path d="M97.5532 74.1035H95.2036V77.6597H97.5532V74.1035Z" fill="#426096" stroke="#426096" stroke-linecap="round" stroke-linejoin="round"/>
<path d="M54.1083 74.1035H51.7588V77.6597H54.1083V74.1035Z" fill="#426096" stroke="#426096" stroke-linecap="round" stroke-linejoin="round"/>
<path d="M67.1138 42.4803C64.4503 43.682 63.2682 46.8164 64.47 49.4799L69.1691 59.8738C69.1838 59.9032 69.2034 59.9278 69.2377 59.9425C69.3064 59.9719 69.3849 59.9425 69.4143 59.8738L74.1134 49.4799C76.0902 45.08 71.5775 40.4839 67.1138 42.4803Z" fill="#E56F75" stroke="#293159" stroke-linecap="round" stroke-linejoin="round"/>
<path d="M69.2963 49.3728C70.5858 49.3728 71.6311 48.3275 71.6311 47.038C71.6311 45.7485 70.5858 44.7031 69.2963 44.7031C68.0068 44.7031 66.9614 45.7485 66.9614 47.038C66.9614 48.3275 68.0068 49.3728 69.2963 49.3728Z" fill="white" stroke="#293159" stroke-linecap="round" stroke-linejoin="round"/>
<path d="M142.291 49.084V61.1435H111.777V134.961H167.515V61.1435V49.084H142.291Z" fill="#94A3C5" stroke="#426096" stroke-linecap="round" stroke-linejoin="round"/>
<path d="M121.994 65.9746H116.771V71.1984H121.994V65.9746Z" fill="#426096" stroke="white" stroke-linecap="round" stroke-linejoin="round"/>
<path d="M130.382 65.9746H125.159V71.1984H130.382V65.9746Z" fill="#426096" stroke="white" stroke-linecap="round" stroke-linejoin="round"/>
<path d="M138.778 65.9746H133.554V71.1984H138.778V65.9746Z" fill="#426096" stroke="white" stroke-linecap="round" stroke-linejoin="round"/>
<path d="M147.173 65.9746H141.949V71.1984H147.173V65.9746Z" fill="#426096" stroke="white" stroke-linecap="round" stroke-linejoin="round"/>
<path d="M155.567 65.9746H150.343V71.1984H155.567V65.9746Z" fill="#426096" stroke="white" stroke-linecap="round" stroke-linejoin="round"/>
<path d="M163.963 65.9746H158.739V71.1984H163.963V65.9746Z" fill="#426096" stroke="white" stroke-linecap="round" stroke-linejoin="round"/>
<path d="M121.994 76.3613H116.771V81.5851H121.994V76.3613Z" fill="#426096" stroke="white" stroke-linecap="round" stroke-linejoin="round"/>
<path d="M130.382 76.3613H125.159V81.5851H130.382V76.3613Z" fill="#426096" stroke="white" stroke-linecap="round" stroke-linejoin="round"/>
<path d="M138.778 76.3613H133.554V81.5851H138.778V76.3613Z" fill="#426096" stroke="white" stroke-linecap="round" stroke-linejoin="round"/>
<path d="M147.173 76.3613H141.949V81.5851H147.173V76.3613Z" fill="#426096" stroke="white" stroke-linecap="round" stroke-linejoin="round"/>
<path d="M155.567 76.3613H150.343V81.5851H155.567V76.3613Z" fill="#426096" stroke="white" stroke-linecap="round" stroke-linejoin="round"/>
<path d="M163.963 76.3613H158.739V81.5851H163.963V76.3613Z" fill="#426096" stroke="white" stroke-linecap="round" stroke-linejoin="round"/>
<path d="M121.994 86.75H116.771V91.9738H121.994V86.75Z" fill="#426096" stroke="white" stroke-linecap="round" stroke-linejoin="round"/>
<path d="M130.382 86.75H125.159V91.9738H130.382V86.75Z" fill="#426096" stroke="white" stroke-linecap="round" stroke-linejoin="round"/>
<path d="M138.778 86.75H133.554V91.9738H138.778V86.75Z" fill="#426096" stroke="white" stroke-linecap="round" stroke-linejoin="round"/>
<path d="M147.173 86.75H141.949V91.9738H147.173V86.75Z" fill="#426096" stroke="white" stroke-linecap="round" stroke-linejoin="round"/>
<path d="M155.567 86.75H150.343V91.9738H155.567V86.75Z" fill="#426096" stroke="white" stroke-linecap="round" stroke-linejoin="round"/>
<path d="M163.963 86.75H158.739V91.9738H163.963V86.75Z" fill="#426096" stroke="white" stroke-linecap="round" stroke-linejoin="round"/>
<path d="M121.994 97.1465H116.771V102.37H121.994V97.1465Z" fill="#426096" stroke="white" stroke-linecap="round" stroke-linejoin="round"/>
<path d="M130.382 97.1465H125.159V102.37H130.382V97.1465Z" fill="#426096" stroke="white" stroke-linecap="round" stroke-linejoin="round"/>
<path d="M138.778 97.1465H133.554V102.37H138.778V97.1465Z" fill="#426096" stroke="white" stroke-linecap="round" stroke-linejoin="round"/>
<path d="M147.173 97.1465H141.949V102.37H147.173V97.1465Z" fill="#426096" stroke="white" stroke-linecap="round" stroke-linejoin="round"/>
<path d="M155.567 97.1465H150.343V102.37H155.567V97.1465Z" fill="#426096" stroke="white" stroke-linecap="round" stroke-linejoin="round"/>
<path d="M163.963 97.1465H158.739V102.37H163.963V97.1465Z" fill="#426096" stroke="white" stroke-linecap="round" stroke-linejoin="round"/>
<path d="M149.791 37.6442C146.219 39.256 144.633 43.4601 146.245 47.0325L152.548 60.9736C152.568 61.0131 152.594 61.046 152.64 61.0657C152.732 61.1052 152.837 61.0657 152.877 60.9736L159.18 47.0325C161.831 41.1311 155.778 34.9665 149.791 37.6442Z" fill="#E56F75" stroke="#293159" stroke-linecap="round" stroke-linejoin="round"/>
<path d="M152.719 46.8883C150.988 46.8883 149.587 45.4869 149.587 43.7566C149.587 42.0263 150.988 40.625 152.719 40.625C154.449 40.625 155.85 42.0263 155.85 43.7566C155.85 45.4869 154.449 46.8883 152.719 46.8883Z" fill="white" stroke="#293159" stroke-linecap="round" stroke-linejoin="round"/>
<path d="M112.955 74.5859H86.6914V103.691H112.955V74.5859Z" fill="#E0E0F2" stroke="#426096" stroke-linecap="round" stroke-linejoin="round"/>
<path d="M106.03 70.8438H92.0913V76.8901H106.03V70.8438Z" fill="white" stroke="#426096" stroke-linecap="round" stroke-linejoin="round"/>
<path d="M108.332 87.3242H90.4243V103.686H108.332V87.3242Z" fill="#EAEAF8" stroke="#426096" stroke-linecap="round" stroke-linejoin="round"/>
<path d="M113.674 87.3241H85L90.6601 80.7695H108.014L113.674 87.3241Z" fill="#C6CCE3" stroke="#426096" stroke-linecap="round" stroke-linejoin="round"/>
<path d="M100.056 87.3242H98.6943V103.686H100.056V87.3242Z" fill="#426096" stroke="#426096" stroke-linecap="round" stroke-linejoin="round"/>
<path d="M88.1757 88.7148C89.3792 88.7148 90.4283 88.4221 90.965 87.987C91.5018 88.418 92.5508 88.7148 93.7544 88.7148C94.958 88.7148 96.007 88.4221 96.5438 87.987C97.0805 88.418 98.1296 88.7148 99.3331 88.7148C100.537 88.7148 101.586 88.4221 102.123 87.987C102.659 88.418 103.708 88.7148 104.912 88.7148C106.115 88.7148 107.165 88.4221 107.701 87.987C108.238 88.418 109.287 88.7148 110.491 88.7148C112.243 88.7148 113.666 88.0927 113.666 87.3242H85C85 88.0927 86.4231 88.7148 88.1757 88.7148Z" fill="#C6CCE3" stroke="#426096" stroke-linecap="round" stroke-linejoin="round"/>
<path d="M90.8022 87.3241L94.0226 80.7695" stroke="#426096" stroke-linecap="round" stroke-linejoin="round"/>
<path d="M108.031 87.3241L104.811 80.7695" stroke="#426096" stroke-linecap="round" stroke-linejoin="round"/>
<path d="M97.7556 80.7695L96.6821 87.3241" stroke="#426096" stroke-linecap="round" stroke-linejoin="round"/>
<path d="M101.281 80.7695L102.354 87.3241" stroke="#426096" stroke-linecap="round" stroke-linejoin="round"/>
<path d="M114.211 99.9907H101.122L102.338 97.5957H112.991L114.211 99.9907Z" fill="#426096" stroke="#426096" stroke-linecap="round" stroke-linejoin="round"/>
<path d="M114.211 99.9902H101.122V104.113H114.211V99.9902Z" fill="white" stroke="#426096" stroke-linecap="round" stroke-linejoin="round"/>
<path d="M107.205 99.9907H108.128L108.051 97.5957H107.278L107.205 99.9907Z" fill="white" stroke="#426096" stroke-linecap="round" stroke-linejoin="round"/>
<path d="M96.7223 52.6846C93.6565 54.0711 92.2943 57.6778 93.6809 60.7437L99.0888 72.7103C99.1051 72.7428 99.1295 72.7713 99.1661 72.7876C99.2433 72.8242 99.3369 72.7876 99.3694 72.7103L104.777 60.7437C107.054 55.6813 101.862 50.3831 96.7223 52.6846Z" fill="#E56F75" stroke="#293159" stroke-linecap="round" stroke-linejoin="round"/>
<path d="M99.2356 60.6215C97.7514 60.6215 96.5479 59.418 96.5479 57.9338C96.5479 56.4497 97.7514 55.2461 99.2356 55.2461C100.72 55.2461 101.923 56.4497 101.923 57.9338C101.923 59.418 100.72 60.6215 99.2356 60.6215Z" fill="white" stroke="#293159" stroke-linecap="round" stroke-linejoin="round"/>
<path d="M189.766 75.2559L167.387 90.1248V104.438H212.141V90.1248L189.766 75.2559Z" fill="white" stroke="#426096" stroke-linecap="round" stroke-linejoin="round"/>
<path d="M203.621 85.4199H175.96V88.8827H203.621V85.4199Z" fill="white" stroke="#426096" stroke-linecap="round" stroke-linejoin="round"/>
<path d="M210.461 90.6074H170.229V92.8887H210.461V90.6074Z" fill="#426096" stroke="#426096" stroke-linecap="round" stroke-linejoin="round"/>
<path d="M208.474 92.8887H172.215V104.438H208.474V92.8887Z" fill="#6D82AF" stroke="#426096" stroke-linecap="round" stroke-linejoin="round"/>
<path d="M179.034 92.8887H178.384V104.438H179.034V92.8887Z" fill="#426096" stroke="#426096" stroke-linecap="round" stroke-linejoin="round"/>
<path d="M186.324 92.8887H185.674V104.438H186.324V92.8887Z" fill="#426096" stroke="#426096" stroke-linecap="round" stroke-linejoin="round"/>
<path d="M193.613 92.8887H192.963V104.438H193.613V92.8887Z" fill="#426096" stroke="#426096" stroke-linecap="round" stroke-linejoin="round"/>
<path d="M200.902 92.8887H200.252V104.438H200.902V92.8887Z" fill="#426096" stroke="#426096" stroke-linecap="round" stroke-linejoin="round"/>
<path d="M212.141 99.9727H188.078V104.437H212.141V99.9727Z" fill="#426096" stroke="#426096" stroke-linecap="round" stroke-linejoin="round"/>
<path d="M166.226 91.3433L165.008 89.5281L189.157 73.3101C189.525 73.0607 190.003 73.0607 190.375 73.3101L214.23 89.2501L213.016 91.0694L189.766 75.5341L166.226 91.3433Z" fill="#426096" stroke="#426096" stroke-linecap="round" stroke-linejoin="round"/>
<path d="M190.948 100.863H188.078V102.368H190.948V100.863Z" fill="#C6CCE3" stroke="#426096" stroke-linecap="round" stroke-linejoin="round"/>
<path d="M195.592 99.9727H192.554V101.093H195.592V99.9727Z" fill="#C6CCE3" stroke="#426096" stroke-linecap="round" stroke-linejoin="round"/>
<path d="M195.592 102.055H192.554V103.559H195.592V102.055Z" fill="#C6CCE3" stroke="#426096" stroke-linecap="round" stroke-linejoin="round"/>
<path d="M212.141 101.535H209.684V103.04H212.141V101.535Z" fill="#C6CCE3" stroke="#426096" stroke-linecap="round" stroke-linejoin="round"/>
<path d="M212.141 103.6H209.684V104.434H212.141V103.6Z" fill="#C6CCE3" stroke="#426096" stroke-linecap="round" stroke-linejoin="round"/>
<path d="M208.364 100.701H205.326V102.206H208.364V100.701Z" fill="#C6CCE3" stroke="#426096" stroke-linecap="round" stroke-linejoin="round"/>
<path d="M204.157 102.568H201.119V104.073H204.157V102.568Z" fill="#C6CCE3" stroke="#426096" stroke-linecap="round" stroke-linejoin="round"/>
<path d="M183.262 86.6621H178.384V87.9581H183.262V86.6621Z" fill="#426096"/>
<path d="M189.198 86.6621H184.32V87.9581H189.198V86.6621Z" fill="#426096"/>
<path d="M196.16 86.6621H191.283V87.9581H196.16V86.6621Z" fill="#426096"/>
<path d="M202.1 86.6621H197.223V87.9581H202.1V86.6621Z" fill="#426096"/>
<path d="M187.246 57.4254C183.673 59.0373 182.088 63.2413 183.7 66.8138L190.002 80.7549C190.022 80.7944 190.049 80.8273 190.095 80.847C190.187 80.8865 190.292 80.847 190.331 80.7549L196.634 66.8138C199.286 60.9123 193.233 54.7477 187.246 57.4254Z" fill="#E56F75" stroke="#293159" stroke-linecap="round" stroke-linejoin="round"/>
<path d="M190.174 66.6695C188.443 66.6695 187.042 65.2682 187.042 63.5379C187.042 61.8076 188.443 60.4062 190.174 60.4062C191.904 60.4062 193.305 61.8076 193.305 63.5379C193.305 65.2682 191.904 66.6695 190.174 66.6695Z" fill="white" stroke="#293159" stroke-linecap="round" stroke-linejoin="round"/>
<path d="M393.821 77.9961C393.821 77.9961 396.294 51.3513 384.731 33.937C378.838 25.0648 371.272 24.6644 367.359 28.7106C367.359 28.7106 360.58 27.6991 356.323 32.6445C352.066 37.5899 349.327 55.517 355.48 64.9582C361.128 73.6267 354.715 84.9085 354.715 84.9085L393.821 78.0032V77.9961Z" fill="#293159" stroke="#293159" stroke-linecap="round" stroke-linejoin="round"/>
<path d="M355.473 64.9589C349.32 55.5107 352.066 37.5836 356.316 32.6452C360.573 27.6998 367.352 28.7113 367.352 28.7113C369.832 26.1473 373.787 25.3746 377.847 27.4118C374.335 26.2316 371.04 27.1027 368.87 29.3436C368.87 29.3436 362.091 28.332 357.834 33.2774C353.577 38.2228 350.837 56.1499 356.991 65.5912C361.641 72.7213 358.122 81.6146 356.731 84.5439L354.715 84.9022C354.715 84.9022 361.128 73.6275 355.48 64.9519L355.473 64.9589Z" fill="#3F4F82" stroke="#293159" stroke-linecap="round" stroke-linejoin="round"/>
<path d="M365.695 70.6356C365.695 70.6356 360.11 71.3732 356.485 72.8202C349.692 75.5248 337.792 102.029 335.151 111.246C334.224 114.484 335.39 117.947 338.073 119.977L361.845 135.031L369.741 122.956L349.699 111.091L359.906 95.2643C369.186 91.9416 381.486 76.3326 379.379 68.1839C378.831 66.0695 365.681 70.6356 365.681 70.6356H365.695Z" fill="#CAE4E9" stroke="#293159" stroke-linecap="round" stroke-linejoin="round"/>
<path d="M335.151 111.246C337.785 102.022 349.692 75.5249 356.485 72.8204C360.11 71.3803 365.695 70.6357 365.695 70.6357C365.695 70.6357 375.592 67.2006 378.571 67.6712C374.511 68.3737 368.533 70.446 368.533 70.446C368.533 70.446 362.948 71.1836 359.323 72.6307C352.53 75.3352 340.63 101.84 337.989 111.056C337.062 114.294 338.228 117.758 340.911 119.788L362.765 133.626L361.845 135.031L338.073 119.977C335.39 117.947 334.224 114.484 335.151 111.246Z" fill="white"/>
<path d="M365.695 70.6356C365.695 70.6356 360.11 71.3732 356.485 72.8202C349.692 75.5248 337.792 102.029 335.151 111.246C334.224 114.484 335.39 117.947 338.073 119.977L361.845 135.031L369.741 122.956L349.699 111.091L359.906 95.2643C369.186 91.9416 381.486 76.3326 379.379 68.1839C378.831 66.0695 365.681 70.6356 365.681 70.6356H365.695Z" stroke="#293159" stroke-linecap="round" stroke-linejoin="round"/>
<path d="M378.718 67.7124L390.541 65.9141L404.106 78.6078C402.961 78.685 401.689 107.451 410.885 138.473C410.885 138.473 378.058 146.01 364.219 140.369C364.219 140.369 365.519 131.673 361.079 118.789C355.305 102.028 355.86 89.18 358.48 81.8251" fill="#CAE4E9"/>
<path d="M378.718 67.7124L390.541 65.9141L404.106 78.6078C402.961 78.685 401.689 107.451 410.885 138.473C410.885 138.473 378.058 146.01 364.219 140.369C364.219 140.369 365.519 131.673 361.079 118.789C355.305 102.028 355.86 89.18 358.48 81.8251" stroke="#293159" stroke-linecap="round" stroke-linejoin="round"/>
<path d="M377.636 55.9258L379.357 67.7273C372.087 80.2946 361.184 79.4516 365.687 70.6356L364.261 59.1642L377.636 55.9258Z" fill="#FFE3DA" stroke="#293159" stroke-linecap="round" stroke-linejoin="round"/>
<path d="M369.972 35.4566C369.972 35.4566 368.673 32.1761 363.39 34.3678C358.108 36.5595 351.687 52.8218 357.539 61.0126C363.39 69.2034 373.745 59.9519 373.745 59.9519C373.745 59.9519 384.162 58.5258 382.736 53.0676C382.111 50.6792 380.186 49.9065 378.908 50.1172C377.257 50.3842 376.274 52.0842 376.274 52.0842C376.274 52.0842 374.208 50.3771 374.918 46.3098C375.627 42.2495 376.484 35.4636 369.972 35.4566Z" fill="#FFE3DA"/>
<path d="M363.383 34.3662C364.957 33.7129 366.165 33.5513 367.1 33.6426C366.509 33.762 365.856 33.9517 365.119 34.2538C359.836 36.4455 353.415 52.7077 359.267 60.8986C360.995 63.3151 363.117 64.2072 365.252 64.2705C362.569 64.706 359.731 64.0878 357.532 61.011C351.68 52.8201 358.101 36.5579 363.383 34.3662Z" fill="#FFF8F5"/>
<mask id="mask1_1577_35443" style="mask-type:luminance" maskUnits="userSpaceOnUse" x="355" y="33" width="28" height="32">
<path d="M369.973 35.4547C369.973 35.4547 368.673 32.1741 363.391 34.3658C358.108 36.5575 351.688 52.8198 357.539 61.0106C363.391 69.2015 373.745 59.9499 373.745 59.9499C373.745 59.9499 384.163 58.5239 382.737 53.0657C382.112 50.6773 380.187 49.9045 378.908 50.1153C377.258 50.3822 376.274 52.0822 376.274 52.0822C376.274 52.0822 374.209 50.3752 374.918 46.3079C375.628 42.2476 376.485 35.4617 369.973 35.4547Z" fill="white"/>
</mask>
<g mask="url(#mask1_1577_35443)">
<path d="M354.336 48.3246C354.427 49.7717 355.685 50.8676 357.132 50.7762C358.579 50.6849 359.675 49.4275 359.583 47.9804C359.492 46.5333 358.235 45.4374 356.788 45.5288C355.34 45.6201 354.245 46.8775 354.336 48.3246Z" fill="#EFB4A4"/>
</g>
<path d="M369.972 35.4566C369.972 35.4566 368.673 32.1761 363.39 34.3678C358.108 36.5595 351.687 52.8218 357.539 61.0126C363.39 69.2034 373.745 59.9519 373.745 59.9519C373.745 59.9519 384.162 58.5258 382.736 53.0676C382.111 50.6792 380.186 49.9065 378.908 50.1172C377.257 50.3842 376.274 52.0842 376.274 52.0842C376.274 52.0842 374.208 50.3771 374.918 46.3098C375.627 42.2495 376.484 35.4636 369.972 35.4566Z" stroke="#293159" stroke-linecap="round" stroke-linejoin="round"/>
<path d="M368.266 42.6128C368.266 42.6128 370.696 42.1562 371.961 44.2355" stroke="#293159" stroke-linecap="round" stroke-linejoin="round"/>
<path d="M360.271 43.7793L359.772 44.8541" stroke="#293159" stroke-linecap="round" stroke-linejoin="round"/>
<path d="M367.76 45.1777L367.261 46.2525" stroke="#293159" stroke-linecap="round" stroke-linejoin="round"/>
<path d="M363.524 46.2109C363.524 46.2109 362.084 48.5221 360.939 49.365C360.939 49.365 361.086 50.1729 363.166 50.6646" stroke="#293159" stroke-linecap="round" stroke-linejoin="round"/>
<path d="M367.472 50.7973C367.563 52.2443 368.82 53.3402 370.267 53.2489C371.715 53.1576 372.81 51.9001 372.719 50.453C372.628 49.0059 371.37 47.9101 369.923 48.0014C368.476 48.0927 367.38 49.3502 367.472 50.7973Z" fill="#EFB4A4"/>
<path d="M360.187 56.6135C360.377 58.4891 361.367 59.9221 362.386 59.8167C363.404 59.7114 364.079 58.1097 363.889 56.2341C363.699 54.3585 362.709 52.9255 361.69 53.0308C360.665 53.1362 359.99 54.7379 360.187 56.6135Z" fill="#293159" stroke="#293159" stroke-linecap="round" stroke-linejoin="round"/>
<path d="M389.262 38.6527L374.967 30.778C374.005 30.2511 372.867 30.1457 371.827 30.4829L356.253 35.611C356.253 35.611 355.635 36.3696 356.583 36.6296C356.836 36.6998 357.3 36.6296 357.707 36.5944C357.707 36.5944 355.277 37.2618 355.291 38.2101C355.305 39.1585 357.693 38.3787 357.693 38.3787C357.693 38.3787 354.645 39.306 355.277 40.2122C355.909 41.1184 358.894 41.8279 369.811 37.88C369.811 37.88 374.728 45.5931 382.224 44.2444L389.255 38.6527H389.262Z" fill="#FFE3DA" stroke="#293159" stroke-linecap="round" stroke-linejoin="round"/>
<path d="M357.714 36.5924L366.39 34.2461" stroke="#293159" stroke-linecap="round" stroke-linejoin="round"/>
<path d="M357.7 38.3763L366.811 36.002" stroke="#293159" stroke-linecap="round" stroke-linejoin="round"/>
<path d="M398.858 93.2205L430.189 82.4445C443.866 77.2743 437.361 58.0406 423.044 60.5133L390.541 65.9153" fill="#CAE4E9"/>
<path d="M398.858 93.2205L430.189 82.4445C443.866 77.2743 437.361 58.0406 423.044 60.5133L390.541 65.9153" stroke="#293159" stroke-linecap="round" stroke-linejoin="round"/>
<path d="M433.336 63.0487L391.729 34.5705C388.027 32.2242 378.318 44.1522 381.683 48.2125L415.107 74.9486" fill="#CAE4E9"/>
<path d="M433.336 63.0487L391.729 34.5705C388.027 32.2242 378.318 44.1522 381.683 48.2125L415.107 74.9486" stroke="#293159" stroke-linecap="round" stroke-linejoin="round"/>
<path d="M420.368 79.9298C417.305 78.8479 415.1 74.9492 415.1 74.9492C415.1 74.9492 414.889 77.9347 416.181 79.6698" stroke="#293159" stroke-linecap="round" stroke-linejoin="round"/>
<path d="M262.705 61.1508L258.954 59.6756L266.471 40.5754C266.906 39.4795 270.657 40.9547 270.222 42.0506L262.705 61.1508Z" fill="#2A1D22" stroke="#293159" stroke-linecap="round" stroke-linejoin="round"/>
<path d="M318.671 53.0817L321.045 66.5692C323.118 74.4017 335.973 69.5196 335.973 69.5196L333.402 52.2949L318.671 53.0817Z" fill="#FFE3DA" stroke="#293159" stroke-linecap="round" stroke-linejoin="round"/>
<path d="M337.027 44.4479C335.762 42.5934 334.399 42.3265 333.402 42.488C335.875 35.2385 336.57 26.7456 330.529 23.4581C330.529 23.4581 327.705 22.3341 325.436 23.725C325.436 23.725 322.949 20.606 318.249 25.6849C318.249 25.6849 301.067 45.4946 310.712 55.5962C310.712 55.5962 315.995 60.654 323.286 56.6991C323.286 56.6991 325.927 55.1185 327.67 53.5169C335.692 55.3293 339.267 47.7355 337.034 44.4479H337.027Z" fill="#FFE3DA" stroke="#293159" stroke-linecap="round" stroke-linejoin="round"/>
<path d="M319.732 27.1097C324.424 22.0309 326.918 25.1498 326.918 25.1498C329.194 23.759 332.011 24.8829 332.011 24.8829C332.369 25.0796 332.699 25.2903 333.015 25.5222C332.355 24.7073 331.54 24.0118 330.529 23.4639C330.529 23.4639 327.705 22.34 325.436 23.7309C325.436 23.7309 322.949 20.6119 318.249 25.6908C318.249 25.6908 301.067 45.5005 310.712 55.6021C310.712 55.6021 311 55.876 311.52 56.2413C303.413 45.936 319.732 27.1168 319.732 27.1168V27.1097Z" fill="#FFF8F5"/>
<path d="M337.027 44.4479C335.762 42.5934 334.399 42.3265 333.402 42.488C335.875 35.2385 336.57 26.7456 330.529 23.4581C330.529 23.4581 327.705 22.3341 325.436 23.725C325.436 23.725 322.949 20.606 318.249 25.6849C318.249 25.6849 301.067 45.4946 310.712 55.5962C310.712 55.5962 315.995 60.654 323.286 56.6991C323.286 56.6991 325.927 55.1185 327.67 53.5169C335.692 55.3293 339.267 47.7355 337.034 44.4479H337.027Z" stroke="#293159" stroke-linecap="round" stroke-linejoin="round"/>
<path d="M321.628 35.125C321.628 35.125 325.141 35.1601 326.468 37.7944" stroke="#293159" stroke-linecap="round" stroke-linejoin="round"/>
<path d="M314.589 30.6368C314.589 30.6368 317.076 30.4753 317.835 32.9972" stroke="#293159" stroke-linecap="round" stroke-linejoin="round"/>
<path d="M321.481 38.9473L320.659 39.9799" stroke="#293159" stroke-linecap="round" stroke-linejoin="round"/>
<path d="M315.559 37.3672C315.559 37.3672 313.48 39.6924 312.012 40.4229C312.012 40.4229 312.019 41.3643 314.274 42.3266" stroke="#293159" stroke-linecap="round" stroke-linejoin="round"/>
<path d="M317.87 47.4895C317.87 47.4895 312.777 49.8709 311.337 45.4102" stroke="#293159" stroke-linecap="round" stroke-linejoin="round"/>
<path d="M319.928 44.9248C319.753 46.5756 320.947 48.0649 322.598 48.2405C324.248 48.4161 325.738 47.2219 325.913 45.5711C326.089 43.9203 324.895 42.431 323.244 42.2554C321.593 42.0798 320.104 43.274 319.928 44.9248Z" fill="#EFB4A4"/>
<path d="M337.146 26.2944C337.146 26.2944 337.392 17.9771 328.14 18.2651C318.896 18.5531 322.731 22.8944 313.381 23.4845C313.381 23.4845 311.906 23.639 311.892 24.8122C311.878 25.9923 317.392 26.7229 317.392 26.7229C317.392 26.7229 314.793 27.6431 316.458 28.732C318.123 29.8208 324.628 27.4745 324.628 27.4745C324.628 27.4745 322.169 28.3105 323.708 29.9192C325.246 31.5278 330.782 30.72 332.742 28.4931C332.742 28.4931 331.688 34.0146 334.357 39.2269L333.402 42.4794C333.402 42.4794 336.837 41.7347 337.68 46.919C337.68 46.919 343.166 41.0885 343.784 35.855C344.241 31.9844 342.934 26.0696 337.146 26.2874V26.2944Z" fill="#293159" stroke="#293159" stroke-linecap="round" stroke-linejoin="round"/>
<path d="M313.719 25.4027C323.075 24.8127 319.233 20.4643 328.477 20.1834C334.406 20.0007 336.429 23.3515 337.125 25.7821C336.998 23.9697 335.98 18.0338 328.14 18.2726C318.896 18.5606 322.731 22.9019 313.381 23.492C313.381 23.492 311.906 23.6465 311.892 24.8267C311.892 25.1498 312.3 25.4379 312.897 25.6837C313.297 25.4589 313.726 25.4098 313.726 25.4098L313.719 25.4027Z" fill="#3F4F82" stroke="#293159" stroke-linecap="round" stroke-linejoin="round"/>
<path d="M337.483 28.2057C341.199 28.0652 343.061 30.4536 343.798 33.2003C343.475 29.7862 341.726 26.1966 337.258 26.2949C337.504 27.3978 337.483 28.2057 337.483 28.2057Z" fill="#3F4F82" stroke="#293159" stroke-linecap="round" stroke-linejoin="round"/>
<path d="M312.595 33.6777C312.595 33.6777 313.058 33.6567 313.62 35.5533" stroke="#293159" stroke-linecap="round" stroke-linejoin="round"/>
<path d="M318.081 84.4881C314.674 79.9782 308.253 79.0861 303.743 82.4931C301.727 84.0174 298.095 86.7571 294.717 89.3141C290.544 82.5352 275.96 63.9548 275.04 62.4585C270.608 55.6656 260.38 60.899 263.351 68.4928C264.616 71.4502 282.999 103.04 284.074 105.457C286.076 109.398 290.923 111.533 295.229 110.297C296.381 110.009 297.407 109.426 298.412 108.829L303.912 105.745C304.277 105.506 316.325 98.8958 316.079 98.8185C320.589 95.4115 321.481 88.9909 318.074 84.481L318.081 84.4881Z" fill="#FFE3DA" stroke="#293159" stroke-linecap="round" stroke-linejoin="round"/>
<path d="M274.022 63.0634C274.022 63.0634 275.455 58.4762 272.799 54.423C270.144 50.3697 264.981 39.3057 261.181 40.6194C257.703 41.8136 259.459 45.2416 259.459 45.2416C259.459 45.2416 257.577 44.7148 256.509 46.492C255.441 48.2623 257.113 49.6883 257.113 49.6883C257.113 49.6883 255.062 48.74 253.882 51.0862C252.702 53.4325 254.022 54.8866 254.022 54.8866C253.566 54.6618 251.606 55.3924 252.245 57.837C252.751 59.7828 260.513 68.6902 264.714 69.5964" fill="#FFE3DA"/>
<path d="M274.022 63.0634C274.022 63.0634 275.455 58.4762 272.799 54.423C270.144 50.3697 264.981 39.3057 261.181 40.6194C257.703 41.8136 259.459 45.2416 259.459 45.2416C259.459 45.2416 257.577 44.7148 256.509 46.492C255.441 48.2623 257.113 49.6883 257.113 49.6883C257.113 49.6883 255.062 48.74 253.882 51.0862C252.702 53.4325 254.022 54.8866 254.022 54.8866C253.566 54.6618 251.606 55.3924 252.245 57.837C252.751 59.7828 260.513 68.6902 264.714 69.5964" stroke="#293159" stroke-linecap="round" stroke-linejoin="round"/>
<path d="M333.683 150.612C334.034 151.771 336.12 155.662 336.12 155.662L376.203 140.032L354.328 78.2288C350.942 67.1227 339.921 57.2038 328.815 60.5897C317.708 63.9756 311.449 75.728 314.835 86.8341L333.683 150.605V150.612Z" fill="#F79BA1" stroke="#293159" stroke-linecap="round" stroke-linejoin="round"/>
<path d="M333.683 150.612C334.034 151.771 336.12 155.662 336.12 155.662L376.203 140.032L354.328 78.2288C350.942 67.1227 339.921 57.2038 328.815 60.5897C317.708 63.9756 311.449 75.728 314.835 86.8341L333.683 150.605V150.612Z" stroke="#293159" stroke-linecap="round" stroke-linejoin="round"/>
<path d="M332.819 92.9533C332.819 92.9533 335.369 94.4847 340.047 90.9583C346.637 85.9918 349.201 71.4084 342.78 62.8102C338.572 60.1829 333.704 59.1011 328.822 60.5903C321.973 62.6767 316.964 67.9523 314.934 74.2956L332.819 92.9533Z" fill="white" stroke="#293159" stroke-linecap="round" stroke-linejoin="round"/>
<path d="M269.519 41.5961C269.343 41.8842 267.095 41.0201 267.264 40.711L270.439 32.3867L272.694 33.2718L269.519 41.5961Z" fill="#2A1D22" stroke="#293159" stroke-linecap="round" stroke-linejoin="round"/>
<path d="M267.671 37.0996L272.434 39.0806L284.502 10.1106L279.74 8.1296C274.211 5.83251 262.15 34.8025 267.678 37.1066L267.671 37.0996Z" fill="#426096" stroke="#293159" stroke-linecap="round" stroke-linejoin="round"/>
<path d="M274.443 22.9153C271.114 30.9165 270.215 38.1519 272.441 39.0792C274.668 40.0065 279.171 34.2673 282.501 26.2661C285.831 18.2649 286.73 11.0294 284.503 10.1022C282.276 9.17491 277.773 14.9141 274.443 22.9153Z" fill="white" stroke="#293159" stroke-linecap="round" stroke-linejoin="round"/>
<path d="M283.856 11.6484C284.404 12.674 284.341 17.6475 281.004 25.6487C277.668 33.6499 274.19 37.2044 273.073 37.5345C272.525 36.5089 272.589 31.5354 275.925 23.5342C279.262 15.5331 282.739 11.9786 283.856 11.6484ZM284.496 10.11C282.269 9.18272 277.766 14.9219 274.436 22.9231C271.106 30.9243 270.207 38.1597 272.434 39.087C274.661 40.0143 279.164 34.2751 282.494 26.2739C285.823 18.2727 286.722 11.0373 284.496 10.11Z" fill="#D7D5F1" stroke="#293159" stroke-linecap="round" stroke-linejoin="round"/>
<path d="M335.917 90.7266L338.108 92.2158" stroke="#C6CCE3" stroke-linecap="round" stroke-linejoin="round"/>
<path d="M338.979 85.1562L342.815 87.9942" stroke="#C6CCE3" stroke-linecap="round" stroke-linejoin="round"/>
<path d="M340.848 79.5918L345.196 82.7248" stroke="#C6CCE3" stroke-linecap="round" stroke-linejoin="round"/>
<path d="M341.368 73.8535L346.398 76.825" stroke="#C6CCE3" stroke-linecap="round" stroke-linejoin="round"/>
<path d="M334.54 61.4681L338.438 60.7656" stroke="#C6CCE3" stroke-linecap="round" stroke-linejoin="round"/>
<path d="M338.663 65.058L343.32 64.0254" stroke="#C6CCE3" stroke-linecap="round" stroke-linejoin="round"/>
<path d="M340.574 68.7324L345.73 69.0766" stroke="#C6CCE3" stroke-linecap="round" stroke-linejoin="round"/>
<path d="M321.032 64.1589L295.398 85.1839C294.745 92.04 303.133 107.607 308.556 109.56C308.556 109.56 317.519 103.603 326.349 97.4842C329.728 95.1449 333.093 92.7776 335.924 90.7194C348.821 71.4997 336.619 52.3714 321.039 64.1518L321.032 64.1589Z" fill="#D8D2FF" stroke="#293159" stroke-linecap="round" stroke-linejoin="round"/>
<path d="M296.768 87.3745L322.401 66.3495C329.552 60.9405 335.987 62.0504 339.619 66.6797C336.436 60.3012 329.201 57.976 321.031 64.1578L295.398 85.1828C294.983 89.5241 298.194 97.3567 301.987 103.012C298.833 97.6587 296.41 91.1749 296.775 87.3745H296.768Z" fill="white"/>
<path d="M332.819 92.9533C332.819 92.9533 335.369 94.4847 340.047 90.9583C346.636 85.9918 349.201 71.4084 342.78 62.8102C338.572 60.1829 333.704 59.1011 328.822 60.5903" stroke="#293159" stroke-linecap="round" stroke-linejoin="round"/>
<path d="M321.032 64.1589L295.398 85.1839C294.745 92.04 303.133 107.607 308.556 109.56C308.556 109.56 317.519 103.603 326.349 97.4842C329.728 95.1449 333.093 92.7776 335.924 90.7194C348.821 71.4997 336.619 52.3714 321.039 64.1518L321.032 64.1589Z" stroke="#293159" stroke-linecap="round" stroke-linejoin="round"/>
<path d="M329.292 87.7129C329.292 87.7129 329.538 91.8153 324.838 98.3975" stroke="#293159" stroke-linecap="round" stroke-linejoin="round"/>
</g>
</svg>
