<svg width="492" height="106" viewBox="0 0 492 106" fill="none" xmlns="http://www.w3.org/2000/svg">
<rect x="0.5" y="0.5" width="491" height="105" fill="#F4F4F4"/>
<rect x="0.5" y="0.5" width="491" height="105" stroke="#EEEEEE"/>
<path fill-rule="evenodd" clip-rule="evenodd" d="M119.282 39.2556V28.9344H110.353L110.978 32.8346H114.678V36.61C113.815 37.0759 112.979 37.291 111.806 37.291C108.129 37.291 106.281 34.4904 106.281 30.5023C106.281 26.5142 108.067 23.8315 111.744 23.8315C113.94 23.8315 115.82 24.6306 117.424 25.6435L118.136 21.0668C116.438 20.1117 114.247 19.5 111.622 19.5C105.043 19.5 101 23.9495 101 30.5289C101 37.1083 104.736 41.5 111.498 41.5C114.433 41.5 117.058 40.7021 119.282 39.2556Z" fill="#007CFF"/>
<path fill-rule="evenodd" clip-rule="evenodd" d="M136.643 34.7083C136.643 31.3296 134.795 29.7327 130.165 28.0399C127.505 27.0281 126.916 26.5054 126.916 25.4243C126.916 24.4414 127.69 23.7754 129.299 23.7754C130.908 23.7754 132.939 24.3848 134.853 25.489L135.656 21.0685C133.799 20.177 132.012 19.6543 129.233 19.6543C125.159 19.6543 121.948 21.8305 121.948 25.9204C121.948 29.4217 123.798 30.8081 128.06 32.4327C131.057 33.574 131.673 34.129 131.673 35.3235C131.673 36.5839 130.624 37.2291 129.107 37.2291C126.979 37.2291 124.543 36.4301 122.347 35.2657L121.577 39.7498C123.74 40.7316 126.148 41.3432 129.014 41.3432C133.249 41.3432 136.643 39.3197 136.643 34.7083Z" fill="#007CFF"/>
<path d="M147.414 33.7133C149.873 32.106 153.211 30.0131 153.211 26.0296C153.211 21.6552 149.487 19.6641 146.028 19.6641C140.866 19.6641 138.785 23.747 138.491 24.3841L142.474 26.2389C142.722 25.7971 143.829 24.0326 145.684 24.0326C146.879 24.0326 148.047 25.0109 148.047 26.5314C148.047 27.7571 146.661 28.681 144.934 29.8512C142.199 31.7071 138.793 34.0151 138.793 38.7617C138.793 39.3838 138.864 40.0753 139.016 40.931H153.217V36.6827H144.457C144.457 35.7507 145.815 34.7597 147.414 33.7133Z" fill="#00D4EA"/>
<path d="M164.296 30.3827C163.169 30.3827 162.251 29.4704 162.251 28.3476C162.251 27.2248 163.168 26.3125 164.296 26.3125C165.424 26.3125 166.342 27.226 166.342 28.3476C166.342 29.4692 165.424 30.3827 164.296 30.3827Z" fill="white"/>
<path d="M165.543 26.122C165.269 26.033 164.787 25.9023 164.296 25.9023C162.94 25.9023 161.84 26.9974 161.84 28.3468C161.84 29.2649 162.328 30.0489 163.1 30.4825C163.44 30.6721 164.303 30.9311 164.547 31.0607C165.58 31.6099 166.282 32.6934 166.282 33.9387C166.282 35.7426 164.813 37.2041 163.001 37.2041C161.283 37.2041 159.873 35.8894 159.735 34.2139L155.339 35.1656C156.055 38.7756 159.254 41.501 163.094 41.501C167.459 41.501 171 37.9789 171 33.6346C171 30.1391 168.712 27.1477 165.543 26.122ZM164.296 29.9726C163.396 29.9726 162.663 29.2429 162.663 28.3468C162.663 27.4506 163.396 26.721 164.296 26.721C165.197 26.721 165.931 27.4506 165.931 28.3468C165.931 29.2429 165.197 29.9726 164.296 29.9726Z" fill="#00D4EA"/>
<path d="M156.711 19.9551L155.845 29.7756H160.266L160.83 24.1953H165.908C168.913 24.1953 170.005 21.7716 170.005 19.9551H156.711Z" fill="#00D4EA"/>
<path d="M241.064 24.5449C240.14 24.5449 239.388 25.399 239.388 26.4491V30.8475C239.388 32.6653 238.353 34.0195 236.982 34.0195C235.61 34.0195 234.575 32.6653 234.575 30.8475V26.4491C234.575 25.3807 233.859 24.5449 232.943 24.5449C232.028 24.5449 231.268 25.399 231.268 26.4491V30.9305C231.268 34.8337 233.724 37.6933 236.98 37.6933C238.559 37.6933 240.019 36.9888 241.089 35.7094C242.152 34.4366 242.738 32.7101 242.738 30.8475V26.4491C242.738 25.399 241.987 24.5449 241.063 24.5449" fill="#652D8D"/>
<path d="M249.681 44.571C249.54 44.571 249.397 44.5461 249.26 44.4929L244.74 43.1919C242.898 44.3766 240.816 44.9997 238.681 44.9997H223.32C216.526 44.9997 211 38.7188 211 31.0005C211 23.2823 216.526 16.9997 223.32 16.9997H228.624C229.354 16.9997 229.945 17.671 229.945 18.5002C229.945 19.3293 229.354 20.0006 228.624 20.0006H223.32C217.983 20.0006 213.64 24.9356 213.64 31.0005C213.64 37.0655 217.983 42.0005 223.32 42.0005H238.681C240.528 42.0005 242.325 41.4073 243.873 40.284C244.209 40.0398 244.625 39.9833 245.003 40.1278L247.963 41.1198L246.712 38.1854C246.585 37.755 246.635 37.2831 246.85 36.901C247.838 35.1396 248.359 33.0992 248.359 30.9989C248.359 24.934 244.016 19.9989 238.679 19.9989H233.375C232.645 19.9989 232.054 19.3276 232.054 18.4985C232.054 17.6693 232.645 16.998 233.375 16.998H238.679C245.473 16.998 251 23.279 251 30.9989C251 33.4248 250.451 35.7893 249.409 37.8846L250.931 42.592C251.092 43.132 250.967 43.7286 250.614 44.1307C250.362 44.4165 250.024 44.5693 249.681 44.5693" fill="#AACE37"/>
<path d="M227.9 32.5901C227.453 32.5901 227.032 32.7878 226.716 33.1484C226.212 33.7216 225.541 34.0357 224.827 34.0357C224.114 34.0357 223.441 33.72 222.938 33.1467C222.413 32.5518 222.112 31.7676 222.112 30.9999C222.112 30.2322 222.413 29.4479 222.938 28.8514C223.442 28.2782 224.114 27.9624 224.827 27.9624C225.541 27.9624 226.212 28.2782 226.716 28.8514C227.032 29.212 227.453 29.4097 227.9 29.4097C228.348 29.4097 228.769 29.212 229.085 28.8514C229.738 28.1087 229.738 26.9007 229.085 26.1579C227.947 24.8652 226.435 24.1523 224.826 24.1523C223.216 24.1523 221.704 24.8652 220.566 26.1579C218.218 28.8265 218.218 33.17 220.566 35.8402C221.702 37.1313 223.216 37.8408 224.826 37.8408C226.435 37.8408 227.949 37.1296 229.085 35.8385C229.738 35.0958 229.738 33.8878 229.085 33.145C228.768 32.7861 228.348 32.5884 227.9 32.5884" fill="#652D8D"/>
<path d="M360.804 39.5958C360.58 39.6663 359.364 39.9995 358.071 39.9995C355.186 39.9995 353.65 38.7607 353.65 36.1272V20.2793H355.267C356.952 20.2793 357.502 21.2639 357.502 22.633V23.8355H360.804V24.7667C360.804 26.0909 359.89 26.8427 358.526 26.8427H357.502V35.4459C357.502 36.3878 357.819 37.0585 359.151 37.0585C359.941 37.0585 360.676 36.8321 360.802 36.7957C360.802 37.1161 360.802 39.5958 360.802 39.5958M350.787 26.4049C351.603 26.4049 352.451 26.6505 352.551 26.6783V23.8355C352.414 23.8098 350.834 23.466 349.332 23.466C346.788 23.466 344.992 24.5189 344.992 27.2827V39.6193H348.844V28.0473C348.844 27.0264 349.491 26.407 350.787 26.407M328.666 27.9406C328.666 26.3536 327.774 23.4809 322.622 23.4809C319.983 23.4809 318.924 24.1793 318.545 24.4356C318.155 24.2135 316.924 23.4809 314.467 23.4809C309.708 23.4809 308.425 25.856 308.425 27.8274V39.6215H312.309V28.0815C312.309 27.4151 312.686 26.4049 314.465 26.4049C315.85 26.4049 316.602 27.1054 316.602 28.0815V39.6215H320.488V28.0815C320.488 27.1097 321.225 26.4049 322.622 26.4049C324.148 26.4049 324.781 27.1866 324.781 28.0815V36.9773C324.781 38.7223 325.795 39.7048 327.401 39.7048H328.666V27.9406ZM336.879 23.4724C341.741 23.4724 343.501 25.7791 343.501 28.8526V33.8483C343.501 37.3575 341.255 40.0038 336.607 40.0038C331.958 40.0038 329.73 37.9107 329.73 35.0871C329.73 32.8359 331.255 31.3536 334.57 30.4395C335.051 30.3071 336.666 29.8244 337.399 29.6065C339.071 29.1174 339.61 28.7351 339.61 28.011C339.61 27.2464 338.682 26.4092 336.788 26.4092C334.525 26.4092 333.814 27.8103 333.801 28.8205H330.273C330.273 25.6979 332.131 23.4745 336.877 23.4745M336.298 37.067C337.793 37.067 339.619 36.1208 339.619 33.7137V31.8214C339.619 31.8214 336.679 32.665 335.852 32.9171C334.385 33.3634 333.677 34.1131 333.677 35.0956C333.677 36.0781 334.485 37.0649 336.296 37.0649" fill="#595757"/>
<path d="M298.702 39.9915C293.342 39.9915 291 36.7001 291 32.5352V28.0393C291 22.2533 294.848 20 299.362 20C304.814 20 307.198 22.9731 307.198 25.9462C307.198 30.2883 302.769 31.352 300.813 31.9201C300.251 32.0824 298.176 32.7018 297.707 32.8385C295.879 33.3682 295.357 33.962 295.357 34.6348C295.357 35.7839 296.359 36.7813 298.704 36.7813C300.743 36.7813 302.234 36.085 302.483 33.9492H306.749C306.31 37.3281 304.282 39.9915 298.704 39.9915M299.186 23.2166C296.814 23.2166 295.263 24.8056 295.263 27.5139V30.3588C295.263 30.3588 298.47 29.4191 299.81 29.0132C300.93 28.6715 302.939 27.9581 302.939 26.1833C302.939 24.6369 301.689 23.2166 299.188 23.2166" fill="#F7B52C"/>
<path d="M367.342 27.1167V25.4977C367.342 25.4977 367.402 23.6054 369.681 23.6054C371.705 23.6054 372.374 24.857 372.374 25.9334C372.374 27.0099 371.886 27.8044 370.706 28.9877L364.524 35.314C363.963 35.8758 363.646 36.6383 363.642 37.4349C363.642 38.5114 364.479 39.511 365.444 39.511H374.615C374.615 39.511 376.411 39.4981 376.411 36.1363H368.584L374.626 29.904C375.6 28.8852 375.979 27.5374 375.987 26.1278C375.987 26.1086 375.987 26.0872 375.987 26.068C375.987 23.1846 374.032 20.3418 370.009 20.3418C365.619 20.3418 363.801 23.6267 363.801 25.1944V27.1167H367.342Z" fill="#F7B52C"/>
<path d="M387.668 32.2532V22.1635C387.668 21.1789 386.989 20.3438 385.849 20.3438C384.709 20.3438 384.064 20.8798 383.718 21.3241C383.418 21.715 376.277 31.3561 376.168 31.5078C376.062 31.6616 375.461 32.4091 375.461 33.5432C375.461 34.8205 376.373 35.4527 377.366 35.4527C378.118 35.4527 384.215 35.4804 384.215 35.4804V40.002C384.215 40.002 387.668 40.002 387.668 38.2229V35.4804H388.704C389.253 35.4804 389.801 35.3138 390.225 34.9614C390.632 34.624 391 34.0815 391 33.2207V32.2532H387.668ZM384.458 32.3344H379.496L384.458 25.5595V32.3344Z" fill="#F7B52C"/>
<path d="M189.004 77.3812C189.004 77.3812 189.005 77.3812 189.008 77.3812C190.639 77.5343 191.915 78.8969 191.915 80.5294C191.915 82.1619 190.688 83.4561 189.099 83.6467C188.548 83.7138 188.122 84.1582 188.122 84.7167V86.9922C188.122 87.0406 188.082 87.0795 188.035 87.0795H119.805C119.756 87.0795 119.717 87.0406 119.717 86.9922V77.0402C119.715 76.4911 119.262 76.0441 118.705 76.0441H117.149C117.138 76.0441 117.128 76.04 117.12 76.0333C117.105 76.0186 117.105 75.9931 117.12 75.9783L125.517 67.4024C125.533 67.3876 125.558 67.3876 125.573 67.4024L128.119 69.8189C128.467 70.1626 129.118 70.1948 129.499 69.8189C129.881 69.4416 129.878 68.8294 129.497 68.4549L126.229 65.3174C125.848 64.9415 125.23 64.9415 124.848 65.3174L114.066 76.3448C113.921 76.5166 113.833 76.7408 113.833 76.9838C113.833 77.5343 114.305 77.9639 114.844 77.9639H117.68C117.729 77.9639 117.768 78.0028 117.768 78.0511V88.0058C117.768 88.5562 118.22 89.002 118.779 89.002H189.063C189.621 89.002 190.073 88.5562 190.073 88.0058V85.455C190.073 85.4282 190.089 85.4081 190.114 85.4014C192.262 84.7959 193.835 82.8452 193.835 80.5321C193.835 78.5465 192.676 76.8281 190.989 75.9984C190.955 75.981 190.921 75.9662 190.887 75.9488C190.852 75.9326 190.827 75.8964 190.827 75.8548C190.803 73.2168 189.23 70.9452 186.96 69.882C186.925 69.8645 186.906 69.8296 186.901 69.788C186.557 67.0896 184.222 65.002 181.392 65.002C180.155 65.002 179.012 65.3993 178.09 66.0746C177.654 66.3928 177.537 66.9808 177.848 67.4185C178.158 67.8561 178.782 67.981 179.211 67.6574C179.815 67.201 180.572 66.9311 181.392 66.9311C182.8 66.9311 184.018 67.7286 184.609 68.8912C184.85 69.3691 185.067 70.0458 185.067 71.1842C185.067 71.2258 185.095 71.2607 185.136 71.2688C185.2 71.2822 185.261 71.2983 185.324 71.3158C187.121 71.7964 188.5 73.3013 188.805 75.1419C188.846 75.393 188.929 76.0629 188.929 77.298C188.929 77.3423 188.963 77.3785 189.007 77.3826" fill="#003894"/>
<path d="M136.312 83.5936C137.298 83.5936 138.096 82.8056 138.096 81.8349V75.4325C138.096 74.4605 137.298 73.6738 136.312 73.6738C135.327 73.6738 134.529 74.4605 134.529 75.4325V81.8349C134.529 82.8069 135.327 83.5936 136.312 83.5936Z" fill="#003894"/>
<path d="M150.521 83.5936C151.506 83.5936 152.305 82.8056 152.305 81.8349V75.4325C152.305 74.4605 151.506 73.6738 150.521 73.6738C149.537 73.6738 148.736 74.4605 148.736 75.4325V81.8349C148.736 82.8069 149.534 83.5936 150.521 83.5936Z" fill="#003894"/>
<path d="M162.42 76.7302C162.42 76.6765 162.375 76.6322 162.321 76.6322H161.854C161.03 76.6322 160.361 75.9731 160.361 75.1608C160.361 74.3486 161.028 73.6895 161.854 73.6895H166.063C166.887 73.6895 167.554 74.3473 167.554 75.1608C167.554 75.9744 166.887 76.6309 166.063 76.6309H165.821C165.767 76.6309 165.722 76.6752 165.722 76.7302V81.9687C165.722 82.8668 164.982 83.5945 164.072 83.5945C163.161 83.5945 162.424 82.8668 162.424 81.9687L162.421 76.7302H162.42Z" fill="#003894"/>
<path d="M145.789 73.6752C144.838 73.6752 144.069 74.435 144.069 75.3721L144.054 76.6179V76.6085C144.054 76.6287 144.038 76.6448 144.017 76.6448C144.005 76.6448 143.994 76.6381 143.987 76.6287L142.452 74.435C142.14 73.996 141.624 73.706 141.037 73.706C140.088 73.706 139.316 74.4646 139.316 75.4016V81.8819C139.316 82.8176 140.087 83.5775 141.037 83.5775C141.987 83.5775 142.757 82.819 142.757 81.8819L142.774 80.6079V80.6119C142.774 80.5918 142.791 80.577 142.81 80.577C142.823 80.577 142.833 80.5824 142.84 80.5904L144.343 82.7707C144.649 83.2365 145.181 83.5466 145.787 83.5466C146.738 83.5466 147.507 82.7868 147.507 81.8497V75.3708C147.507 74.4337 146.736 73.6738 145.787 73.6738" fill="#003894"/>
<path d="M131.536 73.6738C130.986 73.6738 130.493 73.9208 130.166 74.3088V74.3061L128.255 76.4434C128.255 76.4434 128.233 76.4931 128.183 76.4931C128.132 76.4931 128.093 76.4434 128.093 76.4434L126.15 74.3236C125.824 73.9262 125.326 73.6738 124.769 73.6738C123.786 73.6738 122.99 74.4592 122.99 75.4271V81.8873C122.99 82.823 123.76 83.5829 124.711 83.5829C125.661 83.5829 126.429 82.823 126.429 81.8873L126.473 79.5621C126.475 79.5366 126.497 79.5164 126.524 79.5164C126.538 79.5164 126.55 79.5231 126.56 79.5312L128.105 81.2348C128.105 81.2348 128.145 81.2952 128.199 81.2952C128.253 81.2952 128.293 81.2348 128.293 81.2348L129.746 79.5017C129.755 79.4936 129.769 79.4882 129.782 79.4882C129.811 79.4882 129.834 79.5097 129.834 79.5379L129.876 81.8886C129.876 82.8244 130.647 83.5842 131.597 83.5842C132.548 83.5842 133.317 82.8244 133.317 81.8886V75.4285C133.317 74.4605 132.522 73.6752 131.537 73.6752" fill="#003894"/>
<path d="M182.568 77.7364H181.681C181.652 77.7364 181.63 77.7136 181.63 77.6854V76.2449C181.63 76.2167 181.652 76.1938 181.681 76.1938H182.568C183 76.1938 183.35 76.5402 183.35 76.9658C183.35 77.3914 183 77.7364 182.568 77.7364ZM182.572 73.6927H179.196C178.625 73.6927 178.165 74.1452 178.165 74.7077L178.172 81.8901C178.172 82.8312 178.945 83.5951 179.9 83.5951C180.854 83.5951 181.629 82.8312 181.629 81.8901V80.224C181.629 80.1972 181.652 80.173 181.681 80.173H182.462C184.88 80.173 186.035 78.5647 186.035 76.9644C186.035 75.1574 184.485 73.6914 182.572 73.6914" fill="#003894"/>
<path d="M160.156 80.4778C160.156 82.3251 158.642 83.822 156.767 83.822C155.459 83.822 154.463 83.3132 153.697 82.5023C153.464 82.254 153.329 81.9143 153.329 81.5492C153.329 80.7638 153.973 80.1275 154.771 80.1275C155.085 80.1275 155.479 80.2818 155.678 80.3866C155.781 80.4403 156.292 80.7866 156.501 80.7866C156.659 80.7866 156.786 80.6618 156.786 80.5074C156.786 80.306 156.507 80.1301 156.38 80.067C154.932 79.3528 153.601 78.3822 153.601 76.6061C153.601 74.8299 154.895 73.4297 156.939 73.4297C158.039 73.4297 159.004 73.9184 159.693 74.6581C159.901 74.8823 160.025 75.1763 160.025 75.5039C160.025 76.1993 159.455 76.7631 158.749 76.7631C158.266 76.7631 157.623 76.3684 157.565 76.3389C157.397 76.2463 157.325 76.1603 157.156 76.1603C156.988 76.1603 156.853 76.2946 156.853 76.4597C156.853 76.6839 157.122 76.8678 157.757 77.1739C159.504 78.0184 160.159 79.2374 160.159 80.4778" fill="#003894"/>
<path d="M172.163 80.6291C171.037 80.6291 170.124 79.7282 170.124 78.618C170.124 77.5077 171.037 76.6056 172.163 76.6056C173.289 76.6056 174.203 77.5064 174.203 78.618C174.203 79.7296 173.291 80.6291 172.163 80.6291ZM172.166 73.4453C169.306 73.4453 166.987 75.7611 166.987 78.618C166.987 81.4748 169.304 83.7907 172.166 83.7907C175.028 83.7907 177.344 81.4748 177.344 78.618C177.344 75.7611 175.025 73.4453 172.166 73.4453Z" fill="#003894"/>
<path d="M243.548 72.2881H234.833V67.9531H250.571C250.571 67.9531 246.237 69.7185 243.672 72.2881H243.548Z" fill="#F08300"/>
<path d="M253.066 67.6094V72.4715C253.066 72.4715 248.449 73.6925 247.846 77.1791C247.846 77.1791 246.878 81.3963 247.115 86.8665H240.213C240.213 86.8665 239.974 79.5647 242.06 75.4064C242.06 75.4064 244.071 70.5762 253.066 67.6118V67.6094Z" fill="#E60012"/>
<path d="M262.086 75.5469H253.739V78.9722H262.086V75.5469Z" fill="#00903B"/>
<path d="M266.573 67.8867V86.7907H280.273V83.0467H274.293V78.6456H280.287V75.5464H274.293V71.3095H280.287V67.8867H266.573Z" fill="#00903B"/>
<path d="M298.496 67.8867V86.7907H312.203V83.0467H306.216V78.6456H312.215V75.5464H306.216V71.3095H312.215V67.8867H298.496Z" fill="#00903B"/>
<path d="M335.44 67.8867V86.7907H349.138V83.0467H343.156V78.6456H349.157V75.5464H343.156V71.3095H349.157V67.8867H335.44Z" fill="#00903B"/>
<path d="M283.278 67.8867V86.7907H296.552V83.0467H290.783V67.8867H283.278Z" fill="#00903B"/>
<path d="M314.11 67.8867L317.535 86.7907H328.689L333.389 67.8867H327.503L324.129 81.453L321.412 67.8867H314.11Z" fill="#00903B"/>
<path d="M371.284 86.7906V72.224C371.284 72.224 372.322 67.1535 364.852 67.5188C364.852 67.5188 361.316 68.1318 359.232 69.6005V67.8866H352.018V86.7906H359.302V74.6048C359.302 74.6048 359.232 72.2877 361.314 72.1039C363.407 71.9249 363.891 72.7119 363.811 73.8128V86.7906H371.282H371.284Z" fill="#00903B"/>
<path d="M375.638 82.373C374.241 82.373 373.106 83.5279 373.106 84.9402C373.106 85.6267 373.373 86.2666 373.849 86.7497C374.326 87.2302 374.953 87.4999 375.638 87.4999C376.323 87.4999 376.937 87.2302 377.429 86.7497C377.896 86.2666 378.167 85.6267 378.167 84.9402C378.167 84.2536 377.896 83.6137 377.429 83.138C376.937 82.6477 376.313 82.373 375.638 82.373ZM377.823 84.9402C377.823 86.1612 376.838 87.164 375.638 87.164C375.05 87.164 374.496 86.9335 374.087 86.5069C373.675 86.0852 373.448 85.5335 373.448 84.9402C373.448 84.3468 373.675 83.7829 374.087 83.3636C374.493 82.9517 375.05 82.7163 375.638 82.7163C376.226 82.7163 376.775 82.9517 377.187 83.3636C377.601 83.7829 377.823 84.3542 377.823 84.9402Z" fill="#00903B"/>
<path d="M376.754 86.2397L376.11 84.9917C376.253 84.9181 376.362 84.8054 376.453 84.7048C376.562 84.5577 376.613 84.4033 376.613 84.2218C376.613 84.0845 376.589 83.9546 376.516 83.8467C376.458 83.7167 376.374 83.6137 376.272 83.5402C376.187 83.4789 376.083 83.4519 375.974 83.4323C375.853 83.4151 375.669 83.3906 375.423 83.3906H374.667V83.7167L374.684 85.0187V86.3182C374.684 86.4138 374.755 86.4824 374.832 86.4824C374.929 86.4824 375.001 86.4138 375.001 86.3182V85.0187H375.773L376.458 86.3966C376.504 86.4653 376.599 86.5143 376.674 86.4653C376.758 86.4212 376.783 86.3206 376.754 86.2373M375.021 84.7048V83.7167H375.551C375.759 83.7167 375.933 83.7535 376.035 83.8467C376.146 83.9227 376.192 84.0502 376.192 84.2218C376.192 84.3738 376.144 84.4891 376.035 84.5798C375.921 84.6558 375.749 84.7048 375.531 84.7048H375.018H375.021Z" fill="#00903B"/>
</svg>
