<svg width="288" height="104" viewBox="0 0 288 104" fill="none" xmlns="http://www.w3.org/2000/svg">
<mask id="mask0_1577_36421" style="mask-type:alpha" maskUnits="userSpaceOnUse" x="0" y="0" width="288" height="104">
<rect width="288" height="104" fill="#D9D9D9"/>
</mask>
<g mask="url(#mask0_1577_36421)">
<path d="M0 104C0 83.0132 17.0132 66 38 66H250C270.987 66 288 83.0132 288 104H0Z" fill="#FDEDB0"/>
<path d="M96.0005 34.3867H36.9751V120.986H96.0005V34.3867Z" fill="#E5E6F5" stroke="#426096" stroke-linecap="round" stroke-linejoin="round"/>
<path d="M96.0005 34.3867H36.9751V120.986H96.0005V34.3867Z" stroke="#426096" stroke-linecap="round" stroke-linejoin="round"/>
<path d="M37.0094 41.9199H24.1582V43.1484H37.0094V41.9199Z" fill="#426096" stroke="#426096" stroke-linecap="round" stroke-linejoin="round"/>
<path d="M36.1538 48.3828H24.1582V57.0773H36.1538V48.3828Z" fill="#6D82AF" stroke="#426096" stroke-linecap="round" stroke-linejoin="round"/>
<path d="M27.1817 49.6364C27.1817 49.9346 26.9478 50.1791 26.6626 50.1791C26.3774 50.1791 26.1436 49.9346 26.1436 49.6364C26.1436 49.3382 26.3774 49.0938 26.6626 49.0938C26.9478 49.0938 27.1817 49.3382 27.1817 49.6364Z" fill="white" stroke="#426096" stroke-linecap="round" stroke-linejoin="round"/>
<path d="M34.397 49.6364C34.397 49.9346 34.1632 50.1791 33.878 50.1791C33.5928 50.1791 33.3589 49.9346 33.3589 49.6364C33.3589 49.3382 33.5928 49.0938 33.878 49.0938C34.1632 49.0938 34.397 49.3382 34.397 49.6364Z" fill="white" stroke="#426096" stroke-linecap="round" stroke-linejoin="round"/>
<path d="M26.6626 43.1504V49.5132" stroke="#426096" stroke-linecap="round" stroke-linejoin="round"/>
<path d="M88.2598 52.2676H44.7095V86.0437H88.2598V52.2676Z" fill="#6D82AF" stroke="#426096" stroke-linecap="round" stroke-linejoin="round"/>
<path d="M82.2476 77.0449H50.459V79.4362H82.2476V77.0449Z" fill="white" stroke="#426096" stroke-linecap="round" stroke-linejoin="round"/>
<path d="M54.8402 79.4375H53.9048V86.0448H54.8402V79.4375Z" fill="white" stroke="#426096" stroke-linecap="round" stroke-linejoin="round"/>
<path d="M79.6249 79.4375H78.6895V86.0448H79.6249V79.4375Z" fill="white" stroke="#426096" stroke-linecap="round" stroke-linejoin="round"/>
<path d="M66.8357 52.7305H65.0161V86.0474H66.8357V52.7305Z" fill="#426096" stroke="#426096" stroke-linecap="round" stroke-linejoin="round"/>
<path d="M77.8393 74.8571C77.8393 77.7732 72.603 77.7732 72.603 74.8571V69.3828H77.8393V74.8571Z" fill="white" stroke="#426096" stroke-linecap="round" stroke-linejoin="round"/>
<path d="M75.2207 69.3861V64.6035" stroke="#426096" stroke-linecap="round" stroke-linejoin="round"/>
<path d="M72.5629 64.9512C73.7323 64.3549 75.0613 64.9333 75.164 66.3705C75.1811 66.5136 75.1069 66.6448 74.9929 66.7104C73.8007 67.4439 72.5915 66.6329 72.3918 65.2911C72.369 65.148 72.4431 65.0109 72.5629 64.9512Z" fill="white" stroke="#426096" stroke-linecap="round" stroke-linejoin="round"/>
<path d="M75.4546 64.8265C75.3348 63.4729 76.3273 62.3816 77.6507 62.7931C77.7819 62.8288 77.8788 62.9481 77.896 63.0793C78.1241 64.5045 76.9719 65.399 75.6999 65.1128C75.563 65.083 75.466 64.9637 75.4546 64.8265Z" fill="white" stroke="#426096" stroke-linecap="round" stroke-linejoin="round"/>
<path d="M75.4032 67.4263C75.9337 66.1859 77.3027 65.7387 78.2724 66.7703C78.3693 66.8717 78.3979 67.0208 78.3522 67.146C77.8902 68.5057 76.4642 68.7025 75.4831 67.802C75.3747 67.7066 75.3462 67.5515 75.4032 67.4263Z" fill="white" stroke="#426096" stroke-linecap="round" stroke-linejoin="round"/>
<path d="M93.08 54.7872H39.8955L44.55 47.2734H88.4255L93.08 54.7872Z" fill="#C6CCE3" stroke="#426096" stroke-linecap="round" stroke-linejoin="round"/>
<path d="M46.3981 56.9955C48.5657 56.9955 50.351 56.5423 51.1838 55.8625C52.3018 56.5423 54.2754 56.9955 56.4429 56.9955C58.6105 56.9955 60.4586 56.5423 61.3883 55.8625C62.4094 56.5423 64.3202 56.9955 66.4878 56.9955C68.6553 56.9955 70.5661 56.5423 71.5872 55.8625C72.5169 56.5423 74.365 56.9955 76.5326 56.9955C78.7001 56.9955 80.6737 56.5423 81.7917 55.8625C82.6245 56.5423 84.4099 56.9955 86.5774 56.9955C89.7374 56.9955 92.6408 56.0235 93.08 54.7891H39.8955C40.3347 56.0235 43.2438 56.9955 46.3981 56.9955Z" fill="#C6CCE3" stroke="#426096" stroke-linecap="round" stroke-linejoin="round"/>
<path d="M33.8779 43.1504V49.5132" stroke="#426096" stroke-linecap="round" stroke-linejoin="round"/>
<path d="M93.4114 59.2559H90.6792V63.5792H93.4114V59.2559Z" fill="#426096" stroke="#426096" stroke-linecap="round" stroke-linejoin="round"/>
<path d="M42.8899 59.2559H40.1577V63.5792H42.8899V59.2559Z" fill="#426096" stroke="#426096" stroke-linecap="round" stroke-linejoin="round"/>
<path d="M58.0141 20.8104C54.9168 22.2714 53.5421 26.082 54.9396 29.3201L60.404 41.9563C60.4212 41.9921 60.444 42.0219 60.4839 42.0398C60.5638 42.0755 60.655 42.0398 60.6893 41.9563L66.1537 29.3201C68.4525 23.971 63.2047 18.3834 58.0141 20.8104Z" fill="#E56F75" stroke="#293159" stroke-linecap="round" stroke-linejoin="round"/>
<path d="M60.5516 29.1888C62.0511 29.1888 63.2667 27.9179 63.2667 26.3502C63.2667 24.7826 62.0511 23.5117 60.5516 23.5117C59.052 23.5117 57.8364 24.7826 57.8364 26.3502C57.8364 27.9179 59.052 29.1888 60.5516 29.1888Z" fill="white" stroke="#293159" stroke-linecap="round" stroke-linejoin="round"/>
<path d="M42.4176 62.1211V70.144H23V119.253H58.4691V70.144V62.1211H42.4176Z" fill="#94A3C5" stroke="#426096" stroke-linecap="round" stroke-linejoin="round"/>
<path d="M29.5019 73.3535H26.1777V76.8288H29.5019V73.3535Z" fill="#426096" stroke="white" stroke-linecap="round" stroke-linejoin="round"/>
<path d="M34.8398 73.3535H31.5156V76.8288H34.8398V73.3535Z" fill="#426096" stroke="white" stroke-linecap="round" stroke-linejoin="round"/>
<path d="M40.1821 73.3535H36.8579V76.8288H40.1821V73.3535Z" fill="#426096" stroke="white" stroke-linecap="round" stroke-linejoin="round"/>
<path d="M45.5244 73.3535H42.2002V76.8288H45.5244V73.3535Z" fill="#426096" stroke="white" stroke-linecap="round" stroke-linejoin="round"/>
<path d="M50.8657 73.3535H47.5415V76.8288H50.8657V73.3535Z" fill="#426096" stroke="white" stroke-linecap="round" stroke-linejoin="round"/>
<path d="M56.2085 73.3535H52.8843V76.8288H56.2085V73.3535Z" fill="#426096" stroke="white" stroke-linecap="round" stroke-linejoin="round"/>
<path d="M29.5019 80.2715H26.1777V83.7468H29.5019V80.2715Z" fill="#426096" stroke="white" stroke-linecap="round" stroke-linejoin="round"/>
<path d="M34.8398 80.2715H31.5156V83.7468H34.8398V80.2715Z" fill="#426096" stroke="white" stroke-linecap="round" stroke-linejoin="round"/>
<path d="M40.1821 80.2715H36.8579V83.7468H40.1821V80.2715Z" fill="#426096" stroke="white" stroke-linecap="round" stroke-linejoin="round"/>
<path d="M45.5244 80.2715H42.2002V83.7468H45.5244V80.2715Z" fill="#426096" stroke="white" stroke-linecap="round" stroke-linejoin="round"/>
<path d="M50.8657 80.2715H47.5415V83.7468H50.8657V80.2715Z" fill="#426096" stroke="white" stroke-linecap="round" stroke-linejoin="round"/>
<path d="M56.2085 80.2715H52.8843V83.7468H56.2085V80.2715Z" fill="#426096" stroke="white" stroke-linecap="round" stroke-linejoin="round"/>
<path d="M29.5019 87.1797H26.1777V90.655H29.5019V87.1797Z" fill="#426096" stroke="white" stroke-linecap="round" stroke-linejoin="round"/>
<path d="M34.8398 87.1797H31.5156V90.655H34.8398V87.1797Z" fill="#426096" stroke="white" stroke-linecap="round" stroke-linejoin="round"/>
<path d="M40.1821 87.1797H36.8579V90.655H40.1821V87.1797Z" fill="#426096" stroke="white" stroke-linecap="round" stroke-linejoin="round"/>
<path d="M45.5244 87.1797H42.2002V90.655H45.5244V87.1797Z" fill="#426096" stroke="white" stroke-linecap="round" stroke-linejoin="round"/>
<path d="M50.8657 87.1797H47.5415V90.655H50.8657V87.1797Z" fill="#426096" stroke="white" stroke-linecap="round" stroke-linejoin="round"/>
<path d="M56.2085 87.1797H52.8843V90.655H56.2085V87.1797Z" fill="#426096" stroke="white" stroke-linecap="round" stroke-linejoin="round"/>
<path d="M29.5019 94.0957H26.1777V97.571H29.5019V94.0957Z" fill="#426096" stroke="white" stroke-linecap="round" stroke-linejoin="round"/>
<path d="M34.8398 94.0957H31.5156V97.571H34.8398V94.0957Z" fill="#426096" stroke="white" stroke-linecap="round" stroke-linejoin="round"/>
<path d="M40.1821 94.0957H36.8579V97.571H40.1821V94.0957Z" fill="#426096" stroke="white" stroke-linecap="round" stroke-linejoin="round"/>
<path d="M45.5244 94.0957H42.2002V97.571H45.5244V94.0957Z" fill="#426096" stroke="white" stroke-linecap="round" stroke-linejoin="round"/>
<path d="M50.8657 94.0957H47.5415V97.571H50.8657V94.0957Z" fill="#426096" stroke="white" stroke-linecap="round" stroke-linejoin="round"/>
<path d="M56.2085 94.0957H52.8843V97.571H56.2085V94.0957Z" fill="#426096" stroke="white" stroke-linecap="round" stroke-linejoin="round"/>
<path d="M47.1904 54.5106C44.9171 55.5829 43.9081 58.3798 44.9338 60.7564L48.9446 70.0311C48.9572 70.0574 48.9739 70.0793 49.0032 70.0924C49.0619 70.1187 49.1288 70.0924 49.154 70.0311L53.1648 60.7564C54.852 56.8303 51.0003 52.7292 47.1904 54.5106Z" fill="#E56F75" stroke="#293159" stroke-linecap="round" stroke-linejoin="round"/>
<path d="M49.0534 60.661C47.9523 60.661 47.0605 59.7287 47.0605 58.5776C47.0605 57.4264 47.9523 56.4941 49.0534 56.4941C50.1545 56.4941 51.0462 57.4264 51.0462 58.5776C51.0462 59.7287 50.1545 60.661 49.0534 60.661Z" fill="white" stroke="#293159" stroke-linecap="round" stroke-linejoin="round"/>
<path d="M75.7038 74.9297L58.0361 87.2018V99.0151H93.3682V87.2018L75.7038 74.9297Z" fill="white" stroke="#426096" stroke-linecap="round" stroke-linejoin="round"/>
<path d="M86.6428 83.3164H64.8052V86.1744H86.6428V83.3164Z" fill="white" stroke="#426096" stroke-linecap="round" stroke-linejoin="round"/>
<path d="M92.0427 87.6016H60.2803V89.4844H92.0427V87.6016Z" fill="#426096" stroke="#426096" stroke-linecap="round" stroke-linejoin="round"/>
<path d="M90.4738 89.4824H61.8486V99.0147H90.4738V89.4824Z" fill="#6D82AF" stroke="#426096" stroke-linecap="round" stroke-linejoin="round"/>
<path d="M67.2319 89.4824H66.7188V99.0147H67.2319V89.4824Z" fill="#426096" stroke="#426096" stroke-linecap="round" stroke-linejoin="round"/>
<path d="M72.9868 89.4824H72.4736V99.0147H72.9868V89.4824Z" fill="#426096" stroke="#426096" stroke-linecap="round" stroke-linejoin="round"/>
<path d="M78.7417 89.4824H78.2285V99.0147H78.7417V89.4824Z" fill="#426096" stroke="#426096" stroke-linecap="round" stroke-linejoin="round"/>
<path d="M84.4961 89.4824H83.9829V99.0147H84.4961V89.4824Z" fill="#426096" stroke="#426096" stroke-linecap="round" stroke-linejoin="round"/>
<path d="M93.3685 95.3281H74.3711V99.0128H93.3685V95.3281Z" fill="#426096" stroke="#426096" stroke-linecap="round" stroke-linejoin="round"/>
<path d="M57.12 88.2062L56.1582 86.708L75.2234 73.3223C75.5139 73.1165 75.8915 73.1165 76.1852 73.3223L95.018 86.4785L94.0594 87.9801L75.7043 75.1579L57.12 88.2062Z" fill="#426096" stroke="#426096" stroke-linecap="round" stroke-linejoin="round"/>
<path d="M76.6368 96.0625H74.3711V97.3042H76.6368V96.0625Z" fill="#C6CCE3" stroke="#426096" stroke-linecap="round" stroke-linejoin="round"/>
<path d="M80.3033 95.3281H77.9053V96.2527H80.3033V95.3281Z" fill="#C6CCE3" stroke="#426096" stroke-linecap="round" stroke-linejoin="round"/>
<path d="M80.3033 97.0469H77.9053V98.2886H80.3033V97.0469Z" fill="#C6CCE3" stroke="#426096" stroke-linecap="round" stroke-linejoin="round"/>
<path d="M93.3685 96.6191H91.4287V97.8609H93.3685V96.6191Z" fill="#C6CCE3" stroke="#426096" stroke-linecap="round" stroke-linejoin="round"/>
<path d="M93.3685 98.3242H91.4287V99.0122H93.3685V98.3242Z" fill="#C6CCE3" stroke="#426096" stroke-linecap="round" stroke-linejoin="round"/>
<path d="M90.3868 95.9316H87.9888V97.1734H90.3868V95.9316Z" fill="#C6CCE3" stroke="#426096" stroke-linecap="round" stroke-linejoin="round"/>
<path d="M87.0656 97.4727H84.6675V98.7144H87.0656V97.4727Z" fill="#C6CCE3" stroke="#426096" stroke-linecap="round" stroke-linejoin="round"/>
<path d="M70.5692 84.3438H66.7188V85.4134H70.5692V84.3438Z" fill="#426096"/>
<path d="M75.2553 84.3438H71.4048V85.4134H75.2553V84.3438Z" fill="#426096"/>
<path d="M80.7523 84.3438H76.9019V85.4134H80.7523V84.3438Z" fill="#426096"/>
<path d="M85.4418 84.3438H81.5913V85.4134H85.4418V84.3438Z" fill="#426096"/>
<path d="M73.7147 60.2133C70.8944 61.5437 69.6426 65.0135 70.9151 67.9621L75.891 79.4684C75.9066 79.501 75.9274 79.5282 75.9637 79.5445C76.0364 79.5771 76.1195 79.5445 76.1507 79.4684L81.1266 67.9621C83.2198 63.0913 78.4413 58.0033 73.7147 60.2133Z" fill="#E56F75" stroke="#293159" stroke-linecap="round" stroke-linejoin="round"/>
<path d="M76.0261 67.8433C74.66 67.8433 73.5537 66.6867 73.5537 65.2586C73.5537 63.8304 74.66 62.6738 76.0261 62.6738C77.3921 62.6738 78.4984 63.8304 78.4984 65.2586C78.4984 66.6867 77.3921 67.8433 76.0261 67.8433Z" fill="white" stroke="#293159" stroke-linecap="round" stroke-linejoin="round"/>
<path d="M247.311 70.1014C247.311 70.1014 249.342 47.2226 239.845 32.2696C235.004 24.6514 228.79 24.3076 225.577 27.7819C225.577 27.7819 220.009 26.9133 216.513 31.1598C213.016 35.4062 210.766 50.7995 215.82 58.9063C220.459 66.3496 215.191 76.0368 215.191 76.0368L247.311 70.1075V70.1014Z" fill="#293159" stroke="#293159" stroke-linecap="round" stroke-linejoin="round"/>
<path d="M215.815 58.9058C210.76 50.7929 213.016 35.3996 216.507 31.1593C220.003 26.9128 225.571 27.7814 225.571 27.7814C227.608 25.5798 230.856 24.9163 234.191 26.6655C231.306 25.6522 228.6 26.4001 226.817 28.3243C226.817 28.3243 221.25 27.4557 217.753 31.7021C214.257 35.9485 212.007 51.3418 217.061 59.4487C220.88 65.571 217.99 73.2073 216.847 75.7226L215.192 76.0302C215.192 76.0302 220.459 66.3491 215.82 58.8998L215.815 58.9058Z" fill="#3F4F82" stroke="#293159" stroke-linecap="round" stroke-linejoin="round"/>
<path d="M224.21 63.7823C224.21 63.7823 219.623 64.4157 216.646 65.6582C211.067 67.9805 201.293 90.7387 199.123 98.6525C198.362 101.433 199.32 104.407 201.524 106.15L221.048 119.076L227.533 108.708L211.072 98.5198L219.456 84.93C227.077 82.0769 237.18 68.6741 235.449 61.6772C234.999 59.8616 224.198 63.7823 224.198 63.7823H224.21Z" fill="#CAE4E9" stroke="#293159" stroke-linecap="round" stroke-linejoin="round"/>
<path d="M199.123 98.6509C201.287 90.7311 211.067 67.9789 216.646 65.6567C219.623 64.4201 224.21 63.7807 224.21 63.7807C224.21 63.7807 232.339 60.8312 234.785 61.2353C231.451 61.8385 226.541 63.6179 226.541 63.6179C226.541 63.6179 221.954 64.2512 218.977 65.4938C213.397 67.8161 203.624 90.5743 201.454 98.488C200.693 101.269 201.65 104.242 203.854 105.986L221.804 117.868L221.048 119.075L201.524 106.149C199.32 104.405 198.362 101.432 199.123 98.6509Z" fill="white"/>
<path d="M224.21 63.7823C224.21 63.7823 219.623 64.4157 216.646 65.6582C211.067 67.9805 201.293 90.7387 199.123 98.6525C198.362 101.433 199.32 104.407 201.524 106.15L221.048 119.076L227.533 108.708L211.072 98.5198L219.456 84.93C227.077 82.0769 237.18 68.6741 235.449 61.6772C234.999 59.8616 224.198 63.7823 224.198 63.7823H224.21Z" stroke="#293159" stroke-linecap="round" stroke-linejoin="round"/>
<path d="M234.906 61.2727L244.616 59.7285L255.758 70.6281C254.817 70.6944 253.773 95.3949 261.325 122.032C261.325 122.032 234.364 128.504 222.998 123.66C222.998 123.66 224.065 116.193 220.419 105.13C215.676 90.7383 216.132 79.706 218.284 73.3907" fill="#CAE4E9"/>
<path d="M234.906 61.2727L244.616 59.7285L255.758 70.6281C254.817 70.6944 253.773 95.3949 261.325 122.032C261.325 122.032 234.364 128.504 222.998 123.66C222.998 123.66 224.065 116.193 220.419 105.13C215.676 90.7383 216.132 79.706 218.284 73.3907" stroke="#293159" stroke-linecap="round" stroke-linejoin="round"/>
<path d="M234.018 51.1562L235.431 61.2898C229.46 72.0807 220.505 71.3569 224.204 63.7869L223.032 53.9369L234.018 51.1562Z" fill="#FFE3DA" stroke="#293159" stroke-linecap="round" stroke-linejoin="round"/>
<path d="M227.723 33.575C227.723 33.575 226.656 30.7581 222.317 32.64C217.978 34.522 212.705 48.4857 217.511 55.5189C222.317 62.552 230.822 54.6081 230.822 54.6081C230.822 54.6081 239.378 53.3836 238.207 48.6968C237.693 46.646 236.112 45.9825 235.062 46.1635C233.706 46.3927 232.899 47.8524 232.899 47.8524C232.899 47.8524 231.202 46.3866 231.785 42.8942C232.368 39.4078 233.072 33.581 227.723 33.575Z" fill="#FFE3DA"/>
<path d="M222.311 32.6414C223.604 32.0805 224.596 31.9417 225.363 32.0202C224.879 32.1227 224.342 32.2856 223.736 32.5449C219.398 34.4269 214.124 48.3906 218.93 55.4238C220.35 57.4987 222.092 58.2648 223.846 58.3191C221.642 58.693 219.311 58.1622 217.505 55.5203C212.699 48.4871 217.973 34.5234 222.311 32.6414Z" fill="#FFF8F5"/>
<mask id="mask1_1577_36421" style="mask-type:luminance" maskUnits="userSpaceOnUse" x="215" y="31" width="24" height="28">
<path d="M227.723 33.575C227.723 33.575 226.655 30.7581 222.317 32.64C217.978 34.522 212.704 48.4857 217.511 55.5189C222.317 62.552 230.821 54.6081 230.821 54.6081C230.821 54.6081 239.377 53.3836 238.206 48.6968C237.693 46.646 236.112 45.9825 235.062 46.1635C233.706 46.3927 232.898 47.8524 232.898 47.8524C232.898 47.8524 231.202 46.3866 231.785 42.8942C232.367 39.4078 233.071 33.581 227.723 33.575Z" fill="white"/>
</mask>
<g mask="url(#mask1_1577_36421)">
<path d="M214.88 44.6299C214.955 45.8724 215.988 46.8134 217.176 46.735C218.365 46.6566 219.265 45.5769 219.19 44.3343C219.115 43.0917 218.082 42.1508 216.893 42.2292C215.705 42.3076 214.805 43.3873 214.88 44.6299Z" fill="#EFB4A4"/>
</g>
<path d="M227.723 33.575C227.723 33.575 226.656 30.7581 222.317 32.64C217.978 34.522 212.705 48.4857 217.511 55.5189C222.317 62.552 230.822 54.6081 230.822 54.6081C230.822 54.6081 239.378 53.3836 238.207 48.6968C237.693 46.646 236.112 45.9825 235.062 46.1635C233.706 46.3927 232.899 47.8524 232.899 47.8524C232.899 47.8524 231.202 46.3866 231.785 42.8942C232.368 39.4078 233.072 33.581 227.723 33.575Z" stroke="#293159" stroke-linecap="round" stroke-linejoin="round"/>
<path d="M226.321 39.7201C226.321 39.7201 228.318 39.328 229.356 41.1135" stroke="#293159" stroke-linecap="round" stroke-linejoin="round"/>
<path d="M219.755 40.7227L219.345 41.6455" stroke="#293159" stroke-linecap="round" stroke-linejoin="round"/>
<path d="M225.905 41.9219L225.496 42.8447" stroke="#293159" stroke-linecap="round" stroke-linejoin="round"/>
<path d="M222.427 42.8086C222.427 42.8086 221.244 44.7931 220.304 45.5169C220.304 45.5169 220.425 46.2106 222.133 46.6328" stroke="#293159" stroke-linecap="round" stroke-linejoin="round"/>
<path d="M225.669 46.747C225.744 47.9896 226.777 48.9306 227.966 48.8522C229.154 48.7737 230.054 47.694 229.979 46.4515C229.904 45.2089 228.872 44.2679 227.683 44.3464C226.494 44.4248 225.594 45.5045 225.669 46.747Z" fill="#EFB4A4"/>
<path d="M219.686 51.7411C219.842 53.3516 220.655 54.5821 221.492 54.4916C222.328 54.4011 222.882 53.0259 222.726 51.4154C222.571 49.8049 221.757 48.5744 220.92 48.6648C220.078 48.7553 219.524 50.1306 219.686 51.7411Z" fill="#293159" stroke="#293159" stroke-linecap="round" stroke-linejoin="round"/>
<path d="M243.566 36.3221L231.825 29.5604C231.035 29.108 230.1 29.0176 229.246 29.3071L216.455 33.7103C216.455 33.7103 215.947 34.3618 216.726 34.585C216.934 34.6453 217.315 34.585 217.649 34.5548C217.649 34.5548 215.653 35.1278 215.664 35.9421C215.676 36.7564 217.638 36.0869 217.638 36.0869C217.638 36.0869 215.134 36.8831 215.653 37.6612C216.172 38.4393 218.624 39.0485 227.59 35.6586C227.59 35.6586 231.629 42.2816 237.785 41.1235L243.561 36.3221H243.566Z" fill="#FFE3DA" stroke="#293159" stroke-linecap="round" stroke-linejoin="round"/>
<path d="M217.655 34.5517L224.781 32.5371" stroke="#293159" stroke-linecap="round" stroke-linejoin="round"/>
<path d="M217.643 36.0856L225.126 34.0469" stroke="#293159" stroke-linecap="round" stroke-linejoin="round"/>
<path d="M211.078 98.519C211.078 98.519 207.311 96.9567 203.976 100.316" stroke="#293159" stroke-linecap="round" stroke-linejoin="round"/>
<path d="M251.448 83.1722L277.18 73.9194C288.414 69.4799 283.071 52.9647 271.313 55.0879L244.617 59.7264" fill="#CAE4E9"/>
<path d="M251.448 83.1722L277.18 73.9194C288.414 69.4799 283.071 52.9647 271.313 55.0879L244.617 59.7264" stroke="#293159" stroke-linecap="round" stroke-linejoin="round"/>
<path d="M279.766 57.264L245.592 32.8109C242.552 30.7962 234.578 41.0383 237.342 44.5247L264.793 67.482" fill="#CAE4E9"/>
<path d="M279.766 57.264L245.592 32.8109C242.552 30.7962 234.578 41.0383 237.342 44.5247L264.793 67.482" stroke="#293159" stroke-linecap="round" stroke-linejoin="round"/>
<path d="M269.115 71.759C266.599 70.8301 264.788 67.4824 264.788 67.4824C264.788 67.4824 264.614 70.046 265.676 71.5358" stroke="#293159" stroke-linecap="round" stroke-linejoin="round"/>
<path d="M139.621 55.6393L136.54 54.3726L142.714 37.972C143.071 37.031 146.152 38.2977 145.795 39.2387L139.621 55.6393Z" fill="#2A1D22" stroke="#293159" stroke-linecap="round" stroke-linejoin="round"/>
<path d="M185.588 48.7068L187.538 60.288C189.24 67.0135 199.798 62.8214 199.798 62.8214L197.687 48.0312L185.588 48.7068Z" fill="#FFE3DA" stroke="#293159" stroke-linecap="round" stroke-linejoin="round"/>
<path d="M200.664 41.2971C199.625 39.7047 198.506 39.4755 197.686 39.6142C199.717 33.3894 200.289 26.0969 195.327 23.274C195.327 23.274 193.007 22.3089 191.144 23.5032C191.144 23.5032 189.101 20.825 185.241 25.186C185.241 25.186 171.129 42.1959 179.051 50.8697C179.051 50.8697 183.389 55.2126 189.378 51.8167C189.378 51.8167 191.548 50.4595 192.978 49.0843C199.567 50.6405 202.504 44.12 200.669 41.2971H200.664Z" fill="#FFE3DA" stroke="#293159" stroke-linecap="round" stroke-linejoin="round"/>
<path d="M186.459 26.4084C190.313 22.0474 192.361 24.7255 192.361 24.7255C194.23 23.5312 196.544 24.4963 196.544 24.4963C196.838 24.6652 197.11 24.8461 197.369 25.0452C196.827 24.3455 196.158 23.7483 195.327 23.2779C195.327 23.2779 193.007 22.3128 191.144 23.5071C191.144 23.5071 189.101 20.8289 185.241 25.19C185.241 25.19 171.129 42.1998 179.051 50.8736C179.051 50.8736 179.287 51.1088 179.714 51.4225C173.056 42.5738 186.459 26.4144 186.459 26.4144V26.4084Z" fill="#FFF8F5"/>
<path d="M200.664 41.2971C199.625 39.7047 198.506 39.4755 197.686 39.6142C199.717 33.3894 200.289 26.0969 195.327 23.274C195.327 23.274 193.007 22.3089 191.144 23.5032C191.144 23.5032 189.101 20.825 185.241 25.186C185.241 25.186 171.129 42.1959 179.051 50.8697C179.051 50.8697 183.389 55.2126 189.378 51.8167C189.378 51.8167 191.548 50.4595 192.978 49.0843C199.567 50.6405 202.504 44.12 200.669 41.2971H200.664Z" stroke="#293159" stroke-linecap="round" stroke-linejoin="round"/>
<path d="M188.017 33.291C188.017 33.291 190.901 33.3212 191.992 35.5831" stroke="#293159" stroke-linecap="round" stroke-linejoin="round"/>
<path d="M182.235 29.4373C182.235 29.4373 184.278 29.2986 184.901 31.464" stroke="#293159" stroke-linecap="round" stroke-linejoin="round"/>
<path d="M187.895 36.5723L187.22 37.4584" stroke="#293159" stroke-linecap="round" stroke-linejoin="round"/>
<path d="M183.032 35.2148C183.032 35.2148 181.324 37.2114 180.118 37.8387C180.118 37.8387 180.124 38.647 181.976 39.4733" stroke="#293159" stroke-linecap="round" stroke-linejoin="round"/>
<path d="M184.93 43.9104C184.93 43.9104 180.747 45.9552 179.564 42.125" stroke="#293159" stroke-linecap="round" stroke-linejoin="round"/>
<path d="M186.62 41.7072C186.476 43.1247 187.457 44.4034 188.813 44.5542C190.169 44.705 191.392 43.6796 191.536 42.2621C191.68 40.8447 190.699 39.5659 189.344 39.4151C187.988 39.2643 186.765 40.2897 186.62 41.7072Z" fill="#EFB4A4"/>
<path d="M200.761 25.7073C200.761 25.7073 200.963 18.5656 193.365 18.8129C185.772 19.0602 188.922 22.7879 181.243 23.2946C181.243 23.2946 180.031 23.4273 180.02 24.4346C180.008 25.448 184.537 26.0753 184.537 26.0753C184.537 26.0753 182.402 26.8654 183.77 27.8004C185.137 28.7353 190.48 26.7207 190.48 26.7207C190.48 26.7207 188.461 27.4385 189.724 28.8198C190.988 30.2011 195.534 29.5074 197.144 27.5953C197.144 27.5953 196.278 32.3363 198.471 36.812L197.686 39.6047C197.686 39.6047 200.507 38.9653 201.2 43.4169C201.2 43.4169 205.706 38.4104 206.214 33.9167C206.589 30.5931 205.516 25.5143 200.761 25.7013V25.7073Z" fill="#293159" stroke="#293159" stroke-linecap="round" stroke-linejoin="round"/>
<path d="M181.52 24.9428C189.205 24.4361 186.049 20.7024 193.642 20.4611C198.511 20.3043 200.173 23.1815 200.744 25.2685C200.64 23.7123 199.804 18.6154 193.365 18.8205C185.772 19.0678 188.922 22.7955 181.243 23.3021C181.243 23.3021 180.031 23.4348 180.02 24.4482C180.02 24.7257 180.354 24.973 180.845 25.1841C181.173 24.9911 181.525 24.9488 181.525 24.9488L181.52 24.9428Z" fill="#3F4F82" stroke="#293159" stroke-linecap="round" stroke-linejoin="round"/>
<path d="M201.039 27.3494C204.091 27.2288 205.62 29.2796 206.226 31.638C205.96 28.7066 204.523 25.6243 200.854 25.7087C201.056 26.6557 201.039 27.3494 201.039 27.3494Z" fill="#3F4F82" stroke="#293159" stroke-linecap="round" stroke-linejoin="round"/>
<path d="M180.597 32.0527C180.597 32.0527 180.978 32.0346 181.439 33.6632" stroke="#293159" stroke-linecap="round" stroke-linejoin="round"/>
<path d="M185.103 75.68C182.305 71.8076 177.031 71.0415 173.327 73.967C171.671 75.2759 168.688 77.6283 165.913 79.8239C162.486 74.0032 150.508 58.0489 149.752 56.7641C146.112 50.9313 137.711 55.4251 140.152 61.9455C141.19 64.4849 156.289 91.6102 157.172 93.6851C158.816 97.069 162.797 98.9027 166.334 97.8411C167.28 97.5938 168.123 97.0931 168.948 96.5804L173.465 93.9324C173.765 93.7273 183.66 88.0514 183.458 87.985C187.163 85.0596 187.895 79.5464 185.097 75.674L185.103 75.68Z" fill="#FFE3DA" stroke="#293159" stroke-linecap="round" stroke-linejoin="round"/>
<path d="M148.916 57.2822C148.916 57.2822 150.093 53.3434 147.912 49.863C145.731 46.3826 141.49 36.8825 138.369 38.0104C135.513 39.0358 136.955 41.9794 136.955 41.9794C136.955 41.9794 135.409 41.527 134.532 43.053C133.655 44.5731 135.028 45.7975 135.028 45.7975C135.028 45.7975 133.344 44.9832 132.374 46.9979C131.405 49.0125 132.49 50.2611 132.49 50.2611C132.115 50.0681 130.505 50.6954 131.03 52.7945C131.445 54.4653 137.821 62.1137 141.271 62.8918" fill="#FFE3DA"/>
<path d="M148.916 57.2822C148.916 57.2822 150.093 53.3434 147.912 49.863C145.731 46.3826 141.49 36.8825 138.369 38.0104C135.513 39.0358 136.955 41.9794 136.955 41.9794C136.955 41.9794 135.409 41.527 134.532 43.053C133.655 44.5731 135.028 45.7975 135.028 45.7975C135.028 45.7975 133.344 44.9832 132.374 46.9979C131.405 49.0125 132.49 50.2611 132.49 50.2611C132.115 50.0681 130.505 50.6954 131.03 52.7945C131.445 54.4653 137.821 62.1137 141.271 62.8918" stroke="#293159" stroke-linecap="round" stroke-linejoin="round"/>
<path d="M197.918 132.455C198.206 133.45 199.92 136.792 199.92 136.792L232.841 123.371L214.874 70.3026C212.094 60.7662 203.041 52.2492 193.919 55.1566C184.797 58.0639 179.657 68.1552 182.438 77.6916L197.918 132.449V132.455Z" fill="#F79BA1" stroke="#293159" stroke-linecap="round" stroke-linejoin="round"/>
<path d="M197.918 132.455C198.206 133.45 199.92 136.792 199.92 136.792L232.841 123.371L214.874 70.3026C212.094 60.7662 203.041 52.2492 193.919 55.1566C184.797 58.0639 179.657 68.1552 182.438 77.6916L197.918 132.449V132.455Z" stroke="#293159" stroke-linecap="round" stroke-linejoin="round"/>
<path d="M197.208 82.9459C197.208 82.9459 199.302 84.2608 203.144 81.2328C208.556 76.9683 210.662 64.4462 205.389 57.0632C201.933 54.8073 197.934 53.8784 193.925 55.1571C188.299 56.9486 184.185 61.4785 182.518 66.9253L197.208 82.9459Z" fill="white" stroke="#293159" stroke-linecap="round" stroke-linejoin="round"/>
<path d="M145.218 38.8453C145.073 39.0926 143.227 38.3506 143.366 38.0852L145.973 30.9375L147.825 31.6975L145.218 38.8453Z" fill="#2A1D22" stroke="#293159" stroke-linecap="round" stroke-linejoin="round"/>
<path d="M143.7 34.9866L147.612 36.6876L157.524 11.8123L153.612 10.1113C149.071 8.13886 139.165 33.0142 143.706 34.9927L143.7 34.9866Z" fill="#426096" stroke="#293159" stroke-linecap="round" stroke-linejoin="round"/>
<path d="M149.263 22.8111C146.528 29.6814 145.789 35.8942 147.618 36.6904C149.447 37.4866 153.145 32.5586 155.88 25.6883C158.615 18.818 159.354 12.6052 157.525 11.809C155.696 11.0128 151.997 15.9408 149.263 22.8111Z" fill="white" stroke="#293159" stroke-linecap="round" stroke-linejoin="round"/>
<path d="M156.993 13.1339C157.443 14.0145 157.391 18.2851 154.651 25.1554C151.91 32.0256 149.054 35.0778 148.137 35.3613C147.687 34.4806 147.739 30.2101 150.479 23.3398C153.22 16.4695 156.076 13.4174 156.993 13.1339ZM157.518 11.8129C155.689 11.0167 151.991 15.9447 149.256 22.815C146.521 29.6853 145.783 35.8981 147.612 36.6943C149.441 37.4905 153.139 32.5625 155.874 25.6922C158.609 18.8219 159.347 12.6091 157.518 11.8129Z" fill="#D7D5F1" stroke="#293159" stroke-linecap="round" stroke-linejoin="round"/>
<path d="M199.752 81.0352L201.552 82.3139" stroke="#C6CCE3" stroke-linecap="round" stroke-linejoin="round"/>
<path d="M202.267 76.252L205.418 78.6888" stroke="#C6CCE3" stroke-linecap="round" stroke-linejoin="round"/>
<path d="M203.802 71.4766L207.374 74.1668" stroke="#C6CCE3" stroke-linecap="round" stroke-linejoin="round"/>
<path d="M204.229 66.543L208.36 69.0944" stroke="#C6CCE3" stroke-linecap="round" stroke-linejoin="round"/>
<path d="M198.621 55.9095L201.823 55.3066" stroke="#C6CCE3" stroke-linecap="round" stroke-linejoin="round"/>
<path d="M202.008 58.9936L205.833 58.1074" stroke="#C6CCE3" stroke-linecap="round" stroke-linejoin="round"/>
<path d="M203.577 62.1484L207.812 62.4433" stroke="#C6CCE3" stroke-linecap="round" stroke-linejoin="round"/>
<path d="M187.527 58.2167L166.473 76.2701C165.937 82.1571 172.826 95.5237 177.28 97.2006C177.28 97.2006 184.642 92.0856 191.894 86.8318C194.67 84.8232 197.433 82.7905 199.758 81.0232C210.351 64.52 200.33 48.0953 187.533 58.2107L187.527 58.2167Z" fill="#D8D2FF" stroke="#293159" stroke-linecap="round" stroke-linejoin="round"/>
<path d="M167.598 78.1595L188.651 60.1061C194.525 55.4616 199.81 56.4146 202.793 60.3896C200.179 54.9127 194.236 52.9161 187.526 58.2242L166.473 76.2775C166.133 80.0052 168.769 86.7307 171.885 91.5864C169.294 86.9901 167.304 81.4227 167.604 78.1595H167.598Z" fill="white"/>
<path d="M197.207 82.9459C197.207 82.9459 199.302 84.2608 203.144 81.2328C208.556 76.9683 210.662 64.4462 205.389 57.0632C201.933 54.8073 197.934 53.8784 193.925 55.1571" stroke="#293159" stroke-linecap="round" stroke-linejoin="round"/>
<path d="M187.527 58.2167L166.473 76.2701C165.937 82.1571 172.826 95.5237 177.28 97.2006C177.28 97.2006 184.642 92.0856 191.894 86.8318C194.67 84.8232 197.433 82.7905 199.758 81.0232C210.351 64.52 200.33 48.0953 187.533 58.2107L187.527 58.2167Z" stroke="#293159" stroke-linecap="round" stroke-linejoin="round"/>
<path d="M194.311 78.4434C194.311 78.4434 194.513 81.966 190.653 87.6178" stroke="#293159" stroke-linecap="round" stroke-linejoin="round"/>
</g>
</svg>
