<svg width="40" height="40" viewBox="0 0 40 40" fill="none" xmlns="http://www.w3.org/2000/svg">
<path d="M27.2137 15C27.2137 21.629 21.8397 27 15.2157 27C8.59176 27 3.21375 21.629 3.21375 15C3.21375 8.37102 8.58782 3 15.2157 3C21.8436 3 27.2137 8.37496 27.2137 15Z" fill="white" stroke="black" stroke-width="1.2" stroke-miterlimit="10" stroke-linecap="round"/>
<path d="M15.2137 24C10.2506 24 6.21375 19.964 6.21375 15.0019C6.21375 10.0397 10.2506 6 15.2137 6C20.1769 6 24.2137 10.036 24.2137 14.9981C24.2137 19.9603 20.1769 23.9962 15.2137 23.9962V24Z" fill="#366AEE" stroke="black" stroke-width="1.2" stroke-linecap="round" stroke-linejoin="round"/>
<path d="M24.2137 24L36.2137 36" stroke="black" stroke-width="1.2" stroke-miterlimit="10"/>
<path d="M36.5036 36.5057C35.8445 37.1648 34.773 37.1648 34.1139 36.5057L27.7081 30.0998C27.049 29.4407 27.049 28.3692 27.7081 27.7102L27.9239 27.4943C28.583 26.8352 29.6545 26.8352 30.3136 27.4943L36.7194 33.9002C37.3785 34.5593 37.3785 35.6308 36.7194 36.2898L36.5036 36.5057Z" fill="#366AEE" stroke="black" stroke-width="1.2" stroke-miterlimit="10"/>
<path d="M10.2137 13.7423L14.9899 18L20.2137 12" stroke="white" stroke-width="1.5" stroke-miterlimit="10" stroke-linecap="round"/>
</svg>
