<svg width="40" height="40" viewBox="0 0 40 40" fill="none" xmlns="http://www.w3.org/2000/svg">
<path d="M32.88 3.35547H7.12C6.50144 3.35547 6 3.86506 6 4.49368V36.3636C6 36.9922 6.50144 37.5018 7.12 37.5018H32.88C33.4986 37.5018 34 36.9922 34 36.3636V4.49368C34 3.86506 33.4986 3.35547 32.88 3.35547Z" fill="white" stroke="black" stroke-width="1.2" stroke-miterlimit="10" stroke-linecap="round"/>
<path d="M23.4882 6.76829H16.5066C15.3907 6.76829 14.4849 5.29573 14.4849 3.48171C14.4849 2.93963 14.7553 2.5 15.0888 2.5H24.9113C25.2447 2.5 25.5152 2.93963 25.5152 3.48171C25.5152 5.29573 24.6093 6.76829 23.4934 6.76829H23.4882Z" fill="white" stroke="black" stroke-width="1.2" stroke-linecap="round" stroke-linejoin="round"/>
<path d="M20.4243 11.0371H28.9091" stroke="black" stroke-miterlimit="10"/>
<path d="M20.4243 13.5977H25.5152" stroke="black" stroke-miterlimit="10"/>
<path d="M20.4243 16.1582H27.2121" stroke="black" stroke-miterlimit="10"/>
<path d="M11.9394 25.5494C12.8766 25.5494 13.6364 24.785 13.6364 23.8421C13.6364 22.8992 12.8766 22.1348 11.9394 22.1348C11.0022 22.1348 10.2424 22.8992 10.2424 23.8421C10.2424 24.785 11.0022 25.5494 11.9394 25.5494Z" fill="#366AEE" stroke="black" stroke-linecap="round" stroke-linejoin="round"/>
<path d="M16.1818 22.1348H29.7576" stroke="black" stroke-miterlimit="10"/>
<path d="M16.1818 24.6953H23.8182" stroke="black" stroke-miterlimit="10"/>
<path d="M11.9394 32.3775C12.8766 32.3775 13.6364 31.6131 13.6364 30.6702C13.6364 29.7273 12.8766 28.9629 11.9394 28.9629C11.0022 28.9629 10.2424 29.7273 10.2424 30.6702C10.2424 31.6131 11.0022 32.3775 11.9394 32.3775Z" fill="#366AEE" stroke="black" stroke-linecap="round" stroke-linejoin="round"/>
<path d="M16.1818 28.9629H29.7576" stroke="black" stroke-miterlimit="10"/>
<path d="M16.1818 31.5234H23.8182" stroke="black" stroke-miterlimit="10"/>
<path d="M17.1695 9.8294C16.9744 9.63499 16.6588 9.63499 16.4637 9.8294L12.9436 13.3368L10.809 11.2099C10.6139 11.0155 10.2983 11.0155 10.1032 11.2099L9.04101 12.2682C8.94682 12.3621 8.89389 12.4896 8.89392 12.6225C8.89395 12.7555 8.94694 12.883 9.04117 12.9768L11.7245 15.6479L11.7252 15.6486L12.5902 16.5129C12.7854 16.708 13.1018 16.708 13.297 16.5129L14.162 15.6485L14.1626 15.6479L18.2316 11.5962C18.3258 11.5024 18.3787 11.3749 18.3788 11.242C18.3788 11.109 18.3259 10.9815 18.2317 10.8877L17.1695 9.8294Z" fill="#366AEE" stroke="black" stroke-linecap="round" stroke-linejoin="round"/>
</svg>
