<svg width="40" height="40" viewBox="0 0 40 40" fill="none" xmlns="http://www.w3.org/2000/svg">
<path d="M20.2137 2.20898C30.1371 2.20898 38.2137 10.2856 38.2137 20.209" stroke="black" stroke-width="1.2" stroke-linecap="round" stroke-linejoin="round"/>
<path d="M20.2137 8.20898C26.8287 8.20898 32.2137 13.5973 32.2137 20.209" stroke="black" stroke-width="1.2" stroke-linecap="round" stroke-linejoin="round"/>
<path d="M20.2137 14.209C23.5249 14.209 26.2137 16.8978 26.2137 20.209" stroke="black" stroke-width="1.2" stroke-linecap="round" stroke-linejoin="round"/>
<path d="M32.2107 32.6394C32.1513 33.1067 31.9288 33.5813 31.632 33.8706L29.4511 36.0585C22.0105 42.2885 12.5596 33.0102 12.4632 32.9138L7.52258 27.9743C7.42614 27.8779 -1.85414 18.4365 4.34755 11.0199L6.56562 8.7949C6.85493 8.49823 7.3297 8.28315 7.79705 8.22382C7.88607 8.20898 7.97509 8.20898 8.06411 8.20898C8.40535 8.20898 8.69467 8.3054 8.85045 8.46115L13.4646 13.7863C14.021 14.3425 14.021 15.24 13.4646 15.7962L11.7807 17.4798C11.3653 17.9248 11.0685 18.3475 10.8831 18.7703C10.5121 19.7789 9.9261 22.4193 12.4632 25.1412L15.3044 27.9818C18.0195 30.5034 20.653 29.9175 21.6915 29.5318C22.0773 29.3612 22.5075 29.0646 22.9675 28.6344L24.6366 26.9657C25.1707 26.4317 26.0757 26.402 26.6692 26.9953L31.9436 31.5714C32.1661 31.8013 32.2552 32.1944 32.1958 32.6394H32.2107Z" fill="#366AEE" stroke="black" stroke-width="1.2" stroke-linecap="round" stroke-linejoin="round"/>
</svg>
