<svg width="41" height="40" viewBox="0 0 41 40" fill="none" xmlns="http://www.w3.org/2000/svg">
<path d="M34.1269 4H5.32362C3.48803 4 2 5.46075 2 7.26269V23.5761C2 25.3781 3.48803 26.8388 5.32362 26.8388H34.1269C35.9625 26.8388 37.4505 25.3781 37.4505 23.5761V7.26269C37.4505 5.46075 35.9625 4 34.1269 4Z" fill="white" stroke="black" stroke-width="1.2" stroke-linecap="round" stroke-linejoin="round"/>
<path d="M32.7185 9.52181C33.4912 10.9085 32.9677 12.6499 31.5552 13.4085C30.1427 14.1671 28.3687 13.6532 27.596 12.2666C26.8232 10.8758 27.3467 9.13845 28.7592 8.37987C30.1718 7.6213 31.9457 8.13517 32.7185 9.52181Z" fill="#366AEE" stroke="black" stroke-width="1.2" stroke-linecap="round" stroke-linejoin="round"/>
<path d="M16.9562 21.9453H32.7434" stroke="black" stroke-width="1.2" stroke-linecap="round" stroke-linejoin="round"/>
<path d="M6.98541 21.9453H12.8017" stroke="black" stroke-width="1.2" stroke-linecap="round" stroke-linejoin="round"/>
<path d="M6.98541 19.2246H12.8017" stroke="black" stroke-width="1.2" stroke-linecap="round" stroke-linejoin="round"/>
<path d="M28.6222 9.52181C29.3949 10.9085 28.8714 12.6499 27.4589 13.4085C26.0464 14.1671 24.2724 13.6532 23.4996 12.2666C22.7269 10.8758 23.2504 9.13845 24.6629 8.37987C26.0754 7.6213 27.8494 8.13517 28.6222 9.52181Z" fill="#366AEE" stroke="black" stroke-width="1.2" stroke-linecap="round" stroke-linejoin="round"/>
<path d="M31.8572 16.1797C31.8572 16.1797 29.8762 20.5412 23.7143 19.5975V29.4804C23.8742 30.0535 23.1652 34.6998 31.8572 36.999C40.5491 34.6964 39.8401 30.0535 40 29.4804V19.5975C33.8381 20.5412 31.8572 16.1797 31.8572 16.1797Z" fill="#366AEE" stroke="black" stroke-width="1.2" stroke-linecap="round" stroke-linejoin="round"/>
<path d="M28.8127 26.6874L31.6 29.4395L35.8608 25.2324" fill="#366AEE"/>
<path d="M28.8127 26.6874L31.6 29.4395L35.8608 25.2324" stroke="white" stroke-width="2" stroke-linecap="round" stroke-linejoin="round"/>
</svg>
