<svg width="301" height="80" viewBox="0 0 301 80" fill="none" xmlns="http://www.w3.org/2000/svg">
<path d="M278.407 63.1025C278.407 64.1653 277.813 65.2562 276.789 65.2562H233.711C232.687 65.2562 231.625 64.1606 231.625 63.1025V8.88474C231.625 7.82193 232.687 7.19922 233.711 7.19922H276.789C277.813 7.19922 278.407 7.82661 278.407 8.88474V63.0978V63.1025Z" fill="white" stroke="black" stroke-width="1.5" stroke-miterlimit="10" stroke-linecap="round"/>
<path d="M254.548 13.2852H273.261" stroke="black" stroke-width="1.5" stroke-miterlimit="10"/>
<path d="M254.548 18.4355H266.711" stroke="black" stroke-width="1.5" stroke-miterlimit="10"/>
<path d="M254.548 23.334H266.711" stroke="black" stroke-width="1.5" stroke-miterlimit="10"/>
<path d="M273.064 28.9531H237.51V34.5715H273.064V28.9531Z" fill="#E7E9ED"/>
<path d="M273.064 37.3789H237.51V60.789H273.064V37.3789Z" fill="#E7E9ED"/>
<path d="M248.963 24.6038C248.963 23.1384 247.264 19.964 244.949 19.3179C244.682 19.2242 244.579 18.8777 244.916 18.6764C246.165 18.1193 247.035 16.9113 247.035 15.4552C247.035 13.4841 245.435 11.8828 243.466 11.8828C241.496 11.8828 239.901 13.4794 239.901 15.4552C239.901 16.8785 240.734 18.1052 241.936 18.6764C242.296 18.8497 242.287 19.2336 241.973 19.3179C239.667 19.9687 237.973 23.1852 237.973 24.6038H248.958H248.963Z" fill="#AFDAE9" stroke="black" stroke-width="1.5" stroke-linecap="round" stroke-linejoin="round"/>
<path d="M280.718 70.7271H228.144C227.129 70.7271 226.301 69.8984 226.301 68.8824V32.0068C226.301 30.9908 227.129 30.1621 228.144 30.1621H237.81C239.194 30.1621 240.542 30.5882 241.674 31.3794L250.46 37.5363H280.718C281.733 37.5363 282.562 38.365 282.562 39.381V68.8824C282.562 69.8984 281.733 70.7271 280.718 70.7271Z" fill="#FFEB02" stroke="black" stroke-width="1.5" stroke-miterlimit="10"/>
<path d="M298.965 71.2022H272.018C271.316 71.2022 270.821 70.5139 271.045 69.849L271.714 67.8451C272.275 66.1643 273.843 65.0312 275.616 65.0312H295.381C297.15 65.0312 298.721 66.1643 299.278 67.8451L299.947 69.849C300.167 70.5139 299.676 71.2022 298.974 71.2022H298.965Z" fill="white" stroke="black" stroke-width="1.5" stroke-miterlimit="10" stroke-linecap="round"/>
<path d="M295.765 65.0365V54.4973C295.765 48.818 291.166 44.2109 285.491 44.2109C279.816 44.2109 275.218 48.8134 275.218 54.4973V65.0365H295.769H295.765Z" fill="#F7454A" stroke="black" stroke-width="1.5" stroke-linecap="round" stroke-linejoin="round"/>
<path d="M292.34 54.2749C292.34 50.7541 289.477 47.8887 285.959 47.8887" stroke="black" stroke-width="1.5" stroke-linecap="round" stroke-linejoin="round"/>
<path d="M285.342 38.582V41.218" stroke="black" stroke-width="1.5" stroke-linecap="round" stroke-linejoin="round"/>
<path d="M276.664 40.8984L278.077 42.8227" stroke="black" stroke-width="1.5" stroke-linecap="round" stroke-linejoin="round"/>
<path d="M293.674 40.8984L292.261 42.8227" stroke="black" stroke-width="1.5" stroke-linecap="round" stroke-linejoin="round"/>
<path d="M0 30C0 13.4315 13.4315 0 30 0H163.059C179.628 0 193.059 13.4315 193.059 30V44.9905C193.059 56.5538 203.221 65.4846 214.688 64L196.337 71.8826C183.868 77.2381 170.44 80 156.87 80H30C13.4314 80 0 66.5685 0 50V30Z" fill="#D8E6E9"/>
<path d="M32.4862 20.7145V26.0105C32.4862 26.3838 32.3956 26.6825 32.2142 26.9065C32.0329 27.1198 31.7502 27.2265 31.3662 27.2265H24.7102C24.6142 27.2265 24.5076 27.2051 24.3902 27.1625C24.2836 27.1091 24.1662 27.0505 24.0382 26.9865C23.9209 26.9118 23.8036 26.8318 23.6862 26.7465C23.5796 26.6505 23.4836 26.5545 23.3982 26.4585C23.2382 26.2985 23.0836 26.1171 22.9342 25.9145C22.7849 25.7118 22.7102 25.5198 22.7102 25.3385V20.7145H24.9182V22.2185H30.2782V20.7145H32.4862ZM34.0542 28.6985C34.2676 28.6985 34.4009 28.7785 34.4542 28.9385C34.5182 29.0985 34.5502 29.3331 34.5502 29.6425C34.5502 29.9518 34.5182 30.1865 34.4542 30.3465C34.4009 30.4958 34.2676 30.5705 34.0542 30.5705H28.7102V33.9945C28.7102 34.1758 28.6142 34.2985 28.4222 34.3625C28.2302 34.4265 27.9529 34.4585 27.5902 34.4585C27.2489 34.4585 26.9822 34.4265 26.7902 34.3625C26.5982 34.3091 26.5022 34.1918 26.5022 34.0105V30.5705H20.8062V28.6985H34.0542ZM30.2782 25.3865V24.0585H24.9182V25.0505C24.9182 25.2745 25.0196 25.3865 25.2222 25.3865H30.2782ZM43.6332 35.3385C43.0786 35.3385 42.5559 35.2478 42.0652 35.0665C41.5852 34.8958 41.1639 34.6505 40.8012 34.3305C40.4386 34.0211 40.1506 33.6531 39.9372 33.2265C39.7346 32.7998 39.6332 32.3358 39.6332 31.8345C39.6332 31.3331 39.7346 30.8691 39.9372 30.4425C40.1506 30.0158 40.4386 29.6478 40.8012 29.3385C41.1639 29.0185 41.5852 28.7731 42.0652 28.6025C42.5559 28.4211 43.0786 28.3305 43.6332 28.3305C44.1879 28.3305 44.7052 28.4211 45.1852 28.6025C45.6759 28.7731 46.1026 29.0185 46.4652 29.3385C46.8279 29.6478 47.1106 30.0158 47.3132 30.4425C47.5266 30.8691 47.6332 31.3331 47.6332 31.8345C47.6332 32.3358 47.5266 32.7998 47.3132 33.2265C47.1106 33.6531 46.8279 34.0211 46.4652 34.3305C46.1026 34.6505 45.6759 34.8958 45.1852 35.0665C44.7052 35.2478 44.1879 35.3385 43.6332 35.3385ZM43.0092 20.6345C43.1906 20.6345 43.3079 20.7091 43.3612 20.8585C43.4146 20.9971 43.4412 21.2158 43.4412 21.5145C43.4412 21.8238 43.4146 22.0531 43.3612 22.2025C43.3079 22.3518 43.1906 22.4265 43.0092 22.4265H40.8012C40.8439 22.7998 40.9666 23.1625 41.1692 23.5145C41.3826 23.8558 41.6279 24.1865 41.9052 24.5065C42.1826 24.8158 42.4812 25.1091 42.8012 25.3865C43.1212 25.6531 43.4199 25.8931 43.6972 26.1065C43.8679 26.2345 43.9212 26.3625 43.8572 26.4905C43.8039 26.6185 43.6492 26.8318 43.3932 27.1305C43.1692 27.3971 42.9932 27.5571 42.8652 27.6105C42.7372 27.6638 42.5932 27.6318 42.4332 27.5145C42.2412 27.3865 42.0279 27.2265 41.7932 27.0345C41.5692 26.8318 41.3346 26.6131 41.0892 26.3785C40.8546 26.1331 40.6252 25.8771 40.4012 25.6105C40.1772 25.3438 39.9799 25.0718 39.8092 24.7945C39.6386 25.0931 39.4252 25.3918 39.1692 25.6905C38.9239 25.9785 38.6626 26.2558 38.3852 26.5225C38.1186 26.7891 37.8519 27.0345 37.5852 27.2585C37.3186 27.4825 37.0839 27.6691 36.8812 27.8185C36.7319 27.9358 36.5879 27.9731 36.4492 27.9305C36.3106 27.8771 36.1079 27.6958 35.8412 27.3865C35.5959 27.1091 35.4412 26.9011 35.3772 26.7625C35.3132 26.6238 35.3612 26.4851 35.5212 26.3465C35.8306 26.0905 36.1559 25.8238 36.4972 25.5465C36.8386 25.2691 37.1532 24.9705 37.4412 24.6505C37.7399 24.3305 37.9906 23.9891 38.1932 23.6265C38.4066 23.2531 38.5346 22.8531 38.5772 22.4265H35.9692V20.6345H43.0092ZM47.9852 27.8825C47.9852 28.0745 47.8892 28.2078 47.6972 28.2825C47.5052 28.3465 47.2386 28.3785 46.8972 28.3785C46.5559 28.3785 46.2892 28.3465 46.0972 28.2825C45.9052 28.2078 45.8092 28.0745 45.8092 27.8825V24.6665H43.0572V22.8265H45.8092V20.2665H47.9852V27.8825ZM43.6332 33.5625C44.2092 33.5625 44.6572 33.3918 44.9772 33.0505C45.2972 32.7198 45.4572 32.3145 45.4572 31.8345C45.4572 31.3545 45.2972 30.9491 44.9772 30.6185C44.6572 30.2771 44.2092 30.1065 43.6332 30.1065C43.0572 30.1065 42.6092 30.2771 42.2892 30.6185C41.9692 30.9491 41.8092 31.3545 41.8092 31.8345C41.8092 32.3145 41.9692 32.7198 42.2892 33.0505C42.6092 33.3918 43.0572 33.5625 43.6332 33.5625ZM57.3195 30.7785C57.0635 30.5438 56.7968 30.2878 56.5195 30.0105C56.2528 29.7331 55.9915 29.4451 55.7355 29.1465C55.4901 28.8371 55.2555 28.5171 55.0315 28.1865C54.8181 27.8558 54.6368 27.5251 54.4875 27.1945C54.3275 27.5465 54.1195 27.9038 53.8635 28.2665C53.6181 28.6291 53.3515 28.9758 53.0635 29.3065C52.7861 29.6371 52.4981 29.9465 52.1995 30.2345C51.9008 30.5225 51.6181 30.7731 51.3515 30.9865C51.1915 31.1038 51.0261 31.1251 50.8555 31.0505C50.6848 30.9758 50.4821 30.8158 50.2475 30.5705C50.0448 30.3571 49.9008 30.1705 49.8155 30.0105C49.7301 29.8398 49.7621 29.6798 49.9115 29.5305C50.3275 29.1571 50.7328 28.7518 51.1275 28.3145C51.5221 27.8665 51.8741 27.4025 52.1835 26.9225C52.5035 26.4318 52.7541 25.9305 52.9355 25.4185C53.1275 24.8958 53.2235 24.3678 53.2235 23.8345V21.3705H55.4955V23.8025C55.4955 24.3251 55.5915 24.8478 55.7835 25.3705C55.9861 25.8825 56.2368 26.3785 56.5355 26.8585C56.8448 27.3385 57.1861 27.7918 57.5595 28.2185C57.9328 28.6345 58.2955 29.0078 58.6475 29.3385C58.8075 29.4878 58.8501 29.6371 58.7755 29.7865C58.7115 29.9251 58.5621 30.1171 58.3275 30.3625C58.1141 30.5758 57.9328 30.7358 57.7835 30.8425C57.6341 30.9385 57.4795 30.9171 57.3195 30.7785ZM59.7035 20.4265H61.9115V24.9385H64.3275V26.8105H61.9115V33.6425C61.9115 33.8238 61.8155 33.9465 61.6235 34.0105C61.4315 34.0745 61.1541 34.1065 60.7915 34.1065C60.4501 34.1065 60.1835 34.0745 59.9915 34.0105C59.7995 33.9571 59.7035 33.8398 59.7035 33.6585V20.4265ZM75.8585 22.6025C75.8585 22.9758 75.7891 23.3171 75.6505 23.6265C75.5118 23.9358 75.3198 24.2131 75.0745 24.4585V26.7465H78.2105C78.4238 26.7465 78.5571 26.8158 78.6105 26.9545C78.6745 27.0931 78.7065 27.3171 78.7065 27.6265C78.7065 27.9358 78.6745 28.1598 78.6105 28.2985C78.5571 28.4265 78.4238 28.4905 78.2105 28.4905H64.9625V26.7465H68.3705V24.4105C68.1358 24.1651 67.9545 23.8931 67.8265 23.5945C67.6985 23.2958 67.6345 22.9651 67.6345 22.6025C67.6345 22.1331 67.7411 21.7118 67.9545 21.3385C68.1785 20.9651 68.4771 20.6505 68.8505 20.3945C69.2345 20.1278 69.6718 19.9251 70.1625 19.7865C70.6638 19.6478 71.1918 19.5785 71.7465 19.5785C72.3011 19.5785 72.8238 19.6478 73.3145 19.7865C73.8158 19.9251 74.2531 20.1278 74.6265 20.3945C74.9998 20.6505 75.2985 20.9651 75.5225 21.3385C75.7465 21.7118 75.8585 22.1331 75.8585 22.6025ZM75.9385 32.2345C75.9385 32.7358 75.8211 33.1785 75.5865 33.5625C75.3518 33.9571 75.0371 34.2825 74.6425 34.5385C74.2585 34.8051 73.8158 35.0025 73.3145 35.1305C72.8131 35.2691 72.2905 35.3385 71.7465 35.3385C71.2025 35.3385 70.6798 35.2691 70.1785 35.1305C69.6771 35.0025 69.2291 34.8051 68.8345 34.5385C68.4505 34.2825 68.1411 33.9571 67.9065 33.5625C67.6718 33.1785 67.5545 32.7358 67.5545 32.2345C67.5545 31.7331 67.6718 31.2905 67.9065 30.9065C68.1411 30.5118 68.4505 30.1865 68.8345 29.9305C69.2291 29.6638 69.6771 29.4665 70.1785 29.3385C70.6798 29.1998 71.2025 29.1305 71.7465 29.1305C72.2905 29.1305 72.8131 29.1998 73.3145 29.3385C73.8158 29.4665 74.2585 29.6638 74.6425 29.9305C75.0371 30.1865 75.3518 30.5118 75.5865 30.9065C75.8211 31.2905 75.9385 31.7331 75.9385 32.2345ZM73.7625 32.2345C73.7625 31.8291 73.5758 31.5091 73.2025 31.2745C72.8291 31.0291 72.3491 30.9065 71.7625 30.9065C71.1545 30.9065 70.6638 31.0291 70.2905 31.2745C69.9171 31.5091 69.7305 31.8291 69.7305 32.2345C69.7305 32.6398 69.9171 32.9598 70.2905 33.1945C70.6638 33.4398 71.1545 33.5625 71.7625 33.5625C72.3491 33.5625 72.8291 33.4398 73.2025 33.1945C73.5758 32.9598 73.7625 32.6398 73.7625 32.2345ZM73.6985 22.6025C73.6985 22.1865 73.5065 21.8611 73.1225 21.6265C72.7491 21.3811 72.2905 21.2585 71.7465 21.2585C71.2025 21.2585 70.7385 21.3811 70.3545 21.6265C69.9811 21.8611 69.7945 22.1865 69.7945 22.6025C69.7945 23.0185 69.9811 23.3491 70.3545 23.5945C70.7385 23.8291 71.2025 23.9465 71.7465 23.9465C72.2905 23.9465 72.7491 23.8291 73.1225 23.5945C73.5065 23.3491 73.6985 23.0185 73.6985 22.6025ZM71.7465 25.6265C71.5331 25.6265 71.3198 25.6211 71.1065 25.6105C70.9038 25.5891 70.7011 25.5518 70.4985 25.4985V26.7465H72.9625V25.4985C72.7598 25.5411 72.5571 25.5731 72.3545 25.5945C72.1625 25.6158 71.9598 25.6265 71.7465 25.6265Z" fill="#F84D4D"/>
<path d="M83.4375 35.0025C83.2561 35.0025 83.0695 34.9438 82.8775 34.8265C82.6961 34.7198 82.5308 34.5918 82.3815 34.4425C82.2001 34.2611 82.0455 34.0798 81.9175 33.8985C81.8001 33.7278 81.7415 33.5678 81.7415 33.4185V31.0665H89.3415V30.2665H81.7415V28.6985H90.8455C91.0908 28.6985 91.2615 28.7465 91.3575 28.8425C91.4641 28.9385 91.5175 29.1038 91.5175 29.3385V32.6025H83.9175V33.1945C83.9175 33.3545 83.9921 33.4345 84.1415 33.4345H91.4855C91.6561 33.4345 91.7628 33.4931 91.8055 33.6105C91.8481 33.7385 91.8695 33.9411 91.8695 34.2185C91.8695 34.4958 91.8481 34.6931 91.8055 34.8105C91.7628 34.9385 91.6561 35.0025 91.4855 35.0025H83.4375ZM93.1335 26.2185C93.3148 26.2185 93.4321 26.2771 93.4855 26.3945C93.5495 26.5118 93.5815 26.7251 93.5815 27.0345C93.5815 27.3438 93.5495 27.5571 93.4855 27.6745C93.4321 27.7811 93.3148 27.8345 93.1335 27.8345H79.8375V26.2185H93.1335ZM90.7335 22.5225C90.7335 22.9918 90.6215 23.4131 90.3975 23.7865C90.1735 24.1491 89.8748 24.4585 89.5015 24.7145C89.1281 24.9598 88.6908 25.1465 88.1895 25.2745C87.6988 25.4025 87.1761 25.4665 86.6215 25.4665C86.0668 25.4665 85.5388 25.4025 85.0375 25.2745C84.5468 25.1465 84.1095 24.9598 83.7255 24.7145C83.3521 24.4585 83.0535 24.1491 82.8295 23.7865C82.6161 23.4131 82.5095 22.9918 82.5095 22.5225C82.5095 22.0531 82.6161 21.6371 82.8295 21.2745C83.0535 20.9011 83.3521 20.5918 83.7255 20.3465C84.1095 20.0905 84.5468 19.8985 85.0375 19.7705C85.5388 19.6425 86.0668 19.5785 86.6215 19.5785C87.1761 19.5785 87.6988 19.6425 88.1895 19.7705C88.6908 19.8985 89.1281 20.0905 89.5015 20.3465C89.8748 20.5918 90.1735 20.9011 90.3975 21.2745C90.6215 21.6371 90.7335 22.0531 90.7335 22.5225ZM88.5735 22.5225C88.5735 22.1065 88.3921 21.7811 88.0295 21.5465C87.6668 21.3011 87.1975 21.1785 86.6215 21.1785C86.0455 21.1785 85.5761 21.3011 85.2135 21.5465C84.8508 21.7811 84.6695 22.1065 84.6695 22.5225C84.6695 22.9385 84.8508 23.2691 85.2135 23.5145C85.5761 23.7491 86.0455 23.8665 86.6215 23.8665C87.1975 23.8665 87.6668 23.7491 88.0295 23.5145C88.3921 23.2691 88.5735 22.9385 88.5735 22.5225ZM103.619 35.0025C103.437 35.0025 103.251 34.9438 103.059 34.8265C102.877 34.7198 102.712 34.5918 102.563 34.4425C102.381 34.2611 102.227 34.0798 102.099 33.8985C101.981 33.7278 101.923 33.5678 101.923 33.4185V30.6825H109.107V29.7865H101.923V28.0905H110.611C110.867 28.0905 111.043 28.1331 111.139 28.2185C111.235 28.2931 111.283 28.4531 111.283 28.6985V32.3465H104.099V32.9385C104.099 33.0345 104.125 33.1198 104.179 33.1945C104.232 33.2691 104.328 33.3065 104.467 33.3065H111.395C111.565 33.3065 111.672 33.3865 111.715 33.5465C111.757 33.7065 111.779 33.9091 111.779 34.1545C111.779 34.4318 111.757 34.6398 111.715 34.7785C111.672 34.9278 111.565 35.0025 111.395 35.0025H103.619ZM105.059 20.3945H107.187V25.7865C107.187 26.1598 107.091 26.4585 106.899 26.6825C106.717 26.8958 106.435 27.0025 106.051 27.0025H101.891C101.677 27.0025 101.453 26.9278 101.219 26.7785C100.995 26.6291 100.792 26.4638 100.611 26.2825C100.429 26.1118 100.269 25.9251 100.131 25.7225C100.003 25.5091 99.9387 25.3278 99.9387 25.1785V20.3945H102.067V21.9625H105.059V20.3945ZM109.267 20.2665H111.443V22.6505H113.859V24.4905H111.443V27.0025C111.443 27.1945 111.347 27.3278 111.155 27.4025C110.963 27.4665 110.696 27.4985 110.355 27.4985C110.013 27.4985 109.747 27.4665 109.555 27.4025C109.363 27.3278 109.267 27.1945 109.267 27.0025V20.2665ZM102.067 25.0505C102.067 25.2105 102.136 25.2905 102.275 25.2905H105.059V23.6745H102.067V25.0505ZM126.318 29.9945C126.318 30.2078 126.211 30.3411 125.998 30.3945C125.784 30.4478 125.528 30.4745 125.23 30.4745C124.888 30.4745 124.622 30.4425 124.43 30.3785C124.238 30.3038 124.142 30.1758 124.142 29.9945V26.8105H121.294V25.0505H124.142V23.5625H121.934V21.8025H124.142V20.2665H126.318V29.9945ZM114.846 27.0345C115.624 26.7358 116.296 26.4105 116.862 26.0585C117.427 25.6958 117.891 25.3331 118.254 24.9705C118.627 24.6078 118.899 24.2558 119.07 23.9145C119.24 23.5625 119.326 23.2371 119.326 22.9385C119.326 22.7785 119.256 22.6985 119.118 22.6985H114.718V20.7945H119.662C119.886 20.7945 120.083 20.8798 120.254 21.0505C120.435 21.2105 120.632 21.4291 120.846 21.7065C121.027 21.9518 121.166 22.1651 121.262 22.3465C121.358 22.5278 121.406 22.6931 121.406 22.8425C121.406 23.4825 121.251 24.1011 120.942 24.6985C120.632 25.2851 120.216 25.8345 119.694 26.3465C119.182 26.8585 118.579 27.3171 117.886 27.7225C117.203 28.1278 116.478 28.4638 115.71 28.7305C115.614 28.7625 115.528 28.7838 115.454 28.7945C115.39 28.7945 115.326 28.7731 115.262 28.7305C115.208 28.6878 115.15 28.6131 115.086 28.5065C115.032 28.3998 114.963 28.2505 114.878 28.0585C114.728 27.7385 114.638 27.5091 114.606 27.3705C114.584 27.2211 114.664 27.1091 114.846 27.0345ZM126.222 33.0345C126.403 33.0345 126.515 33.1145 126.558 33.2745C126.611 33.4451 126.638 33.6691 126.638 33.9465C126.638 34.2451 126.611 34.4691 126.558 34.6185C126.515 34.7678 126.403 34.8425 126.222 34.8425H118.974C118.76 34.8425 118.526 34.7625 118.27 34.6025C118.024 34.4531 117.816 34.2878 117.646 34.1065C117.464 33.9358 117.304 33.7385 117.166 33.5145C117.038 33.3011 116.974 33.1198 116.974 32.9705V29.5625H119.15V32.6825C119.15 32.9171 119.272 33.0345 119.518 33.0345H126.222ZM139.36 20.2665H141.424V28.7465C141.424 28.9278 141.333 29.0451 141.152 29.0985C140.97 29.1518 140.709 29.1785 140.368 29.1785C140.037 29.1785 139.786 29.1518 139.616 29.0985C139.445 29.0451 139.36 28.9278 139.36 28.7465V25.7065H138.224V28.5865C138.224 28.7678 138.138 28.8851 137.968 28.9385C137.797 28.9918 137.541 29.0185 137.2 29.0185C136.869 29.0185 136.613 28.9918 136.432 28.9385C136.261 28.8851 136.176 28.7678 136.176 28.5865V20.4265H138.224V23.8665H139.36V20.2665ZM140.592 34.8905C140.304 34.6665 139.989 34.3625 139.648 33.9785C139.306 33.6051 139.018 33.2318 138.784 32.8585C138.613 33.1038 138.41 33.3758 138.176 33.6745C137.952 33.9731 137.717 34.2398 137.472 34.4745C137.269 34.6665 137.056 34.8211 136.832 34.9385C136.618 35.0665 136.421 35.1305 136.24 35.1305C136.058 35.1305 135.872 35.0771 135.68 34.9705C135.488 34.8638 135.301 34.7198 135.12 34.5385C134.874 34.2931 134.629 34.0158 134.384 33.7065C134.149 33.4078 133.941 33.1198 133.76 32.8425C133.504 33.2691 133.189 33.6691 132.816 34.0425C132.442 34.4158 132.101 34.7251 131.792 34.9705C131.642 35.0878 131.504 35.1091 131.376 35.0345C131.258 34.9598 131.077 34.7998 130.832 34.5545C130.586 34.3091 130.432 34.1225 130.368 33.9945C130.314 33.8771 130.357 33.7598 130.496 33.6425C130.73 33.4291 131.018 33.1571 131.36 32.8265C131.701 32.4958 131.994 32.1331 132.24 31.7385C132.368 31.5251 132.469 31.3118 132.544 31.0985C132.629 30.8745 132.672 30.6558 132.672 30.4425V29.8345H134.832V30.3945C134.832 30.6078 134.837 30.8211 134.848 31.0345C134.869 31.2478 134.912 31.4345 134.976 31.5945C135.125 31.9358 135.322 32.2558 135.568 32.5545C135.824 32.8638 136.058 33.1251 136.272 33.3385C136.485 33.1145 136.709 32.8638 136.944 32.5865C137.189 32.3091 137.381 32.0105 137.52 31.6905C137.594 31.5198 137.637 31.3225 137.648 31.0985C137.669 30.8745 137.68 30.6398 137.68 30.3945V29.8345H139.84V30.4425C139.84 30.8691 139.941 31.2745 140.144 31.6585C140.25 31.8718 140.378 32.0745 140.528 32.2665C140.688 32.4585 140.842 32.6398 140.992 32.8105C141.152 32.9918 141.306 33.1571 141.456 33.3065C141.605 33.4558 141.733 33.5838 141.84 33.6905C141.957 33.8078 141.984 33.9198 141.92 34.0265C141.866 34.1331 141.733 34.3038 141.52 34.5385C141.274 34.8051 141.093 34.9598 140.976 35.0025C140.858 35.0451 140.73 35.0078 140.592 34.8905ZM135.056 26.2985C135.056 26.7038 134.981 27.0718 134.832 27.4025C134.682 27.7331 134.474 28.0158 134.208 28.2505C133.941 28.4851 133.616 28.6718 133.232 28.8105C132.858 28.9385 132.442 29.0025 131.984 29.0025C131.514 29.0025 131.088 28.9385 130.704 28.8105C130.33 28.6718 130.01 28.4851 129.744 28.2505C129.477 28.0158 129.269 27.7331 129.12 27.4025C128.97 27.0718 128.896 26.7038 128.896 26.2985C128.896 25.9038 128.97 25.5411 129.12 25.2105C129.269 24.8798 129.477 24.5971 129.744 24.3625C130.01 24.1278 130.33 23.9465 130.704 23.8185C131.088 23.6798 131.514 23.6105 131.984 23.6105C132.442 23.6105 132.858 23.6798 133.232 23.8185C133.616 23.9465 133.941 24.1278 134.208 24.3625C134.474 24.5971 134.682 24.8798 134.832 25.2105C134.981 25.5411 135.056 25.9038 135.056 26.2985ZM128.336 23.0985V21.3385H130.8V19.9945H132.96V21.3385H135.008C135.189 21.3385 135.306 21.4078 135.36 21.5465C135.413 21.6851 135.44 21.9038 135.44 22.2025C135.44 22.5118 135.413 22.7411 135.36 22.8905C135.306 23.0291 135.189 23.0985 135.008 23.0985H128.336ZM133.024 26.2985C133.024 25.9998 132.922 25.7651 132.72 25.5945C132.528 25.4238 132.282 25.3385 131.984 25.3385C131.674 25.3385 131.418 25.4238 131.216 25.5945C131.024 25.7651 130.928 25.9998 130.928 26.2985C130.928 26.6078 131.024 26.8478 131.216 27.0185C131.418 27.1891 131.674 27.2745 131.984 27.2745C132.282 27.2745 132.528 27.1891 132.72 27.0185C132.922 26.8478 133.024 26.6078 133.024 26.2985ZM145.819 23.4025V28.3945C145.819 28.6398 145.936 28.7625 146.171 28.7625H151.467C151.648 28.7625 151.765 28.8425 151.819 29.0025C151.872 29.1625 151.899 29.3918 151.899 29.6905C151.899 29.9998 151.872 30.2345 151.819 30.3945C151.765 30.5545 151.648 30.6345 151.467 30.6345H145.643C145.429 30.6345 145.195 30.5545 144.939 30.3945C144.683 30.2345 144.464 30.0638 144.283 29.8825C144.112 29.7011 143.957 29.5038 143.819 29.2905C143.68 29.0665 143.611 28.8745 143.611 28.7145V21.5305H150.571C150.752 21.5305 150.869 21.6105 150.923 21.7705C150.976 21.9305 151.003 22.1598 151.003 22.4585C151.003 22.7678 150.976 23.0025 150.923 23.1625C150.869 23.3225 150.752 23.4025 150.571 23.4025H145.819ZM152.907 20.4265H155.115V24.9385H157.531V26.8105H155.115V33.6425C155.115 33.8238 155.019 33.9465 154.827 34.0105C154.635 34.0745 154.357 34.1065 153.995 34.1065C153.653 34.1065 153.387 34.0745 153.195 34.0105C153.003 33.9571 152.907 33.8398 152.907 33.6585V20.4265ZM170.47 29.9945C170.47 30.2078 170.363 30.3411 170.15 30.3945C169.936 30.4478 169.68 30.4745 169.382 30.4745C169.04 30.4745 168.774 30.4425 168.582 30.3785C168.39 30.3038 168.294 30.1758 168.294 29.9945V26.8105H165.734V26.8265C165.734 27.1998 165.638 27.4985 165.446 27.7225C165.264 27.9358 164.982 28.0425 164.598 28.0425H160.454C160.251 28.0425 160.027 27.9678 159.782 27.8185C159.536 27.6585 159.323 27.4878 159.142 27.3065C158.971 27.1358 158.816 26.9438 158.678 26.7305C158.55 26.5065 158.486 26.3038 158.486 26.1225V20.7945H165.734V21.8025H168.294V20.2665H170.47V29.9945ZM170.374 33.0345C170.555 33.0345 170.667 33.1145 170.71 33.2745C170.763 33.4451 170.79 33.6691 170.79 33.9465C170.79 34.2451 170.763 34.4691 170.71 34.6185C170.667 34.7678 170.555 34.8425 170.374 34.8425H163.126C162.912 34.8425 162.678 34.7625 162.422 34.6025C162.176 34.4531 161.968 34.2878 161.798 34.1065C161.616 33.9358 161.456 33.7385 161.318 33.5145C161.19 33.3011 161.126 33.1198 161.126 32.9705V29.5625H163.302V32.6825C163.302 32.9171 163.424 33.0345 163.67 33.0345H170.374ZM163.606 22.5865H160.614V25.9145C160.614 26.1385 160.726 26.2505 160.95 26.2505H163.606V22.5865ZM165.734 25.0505H168.294V23.5625H165.734V25.0505ZM98.947 63.6265C98.947 63.8078 98.8564 63.9251 98.675 63.9785C98.5044 64.0318 98.2484 64.0585 97.907 64.0585C97.5764 64.0585 97.315 64.0318 97.123 63.9785C96.9417 63.9251 96.851 63.8078 96.851 63.6265V56.8105H95.747V63.4825C95.747 63.6531 95.6564 63.7651 95.475 63.8185C95.3044 63.8718 95.0484 63.8985 94.707 63.8985C94.3764 63.8985 94.1204 63.8718 93.939 63.8185C93.7577 63.7651 93.667 63.6531 93.667 63.4825V50.5865H95.747V54.9385H96.851V50.4265H98.947V63.6265ZM86.131 58.2025C86.131 57.7438 86.2057 57.3118 86.355 56.9065C86.515 56.5011 86.739 56.1491 87.027 55.8505C87.315 55.5518 87.6617 55.3171 88.067 55.1465C88.483 54.9758 88.9417 54.8905 89.443 54.8905C89.9444 54.8905 90.3977 54.9758 90.803 55.1465C91.2084 55.3171 91.5497 55.5518 91.827 55.8505C92.115 56.1491 92.3337 56.5011 92.483 56.9065C92.643 57.3118 92.723 57.7438 92.723 58.2025C92.723 58.6718 92.643 59.1091 92.483 59.5145C92.3337 59.9091 92.115 60.2558 91.827 60.5545C91.5497 60.8531 91.2084 61.0878 90.803 61.2585C90.3977 61.4291 89.9444 61.5145 89.443 61.5145C88.9417 61.5145 88.483 61.4291 88.067 61.2585C87.6617 61.0878 87.315 60.8531 87.027 60.5545C86.739 60.2558 86.515 59.9091 86.355 59.5145C86.2057 59.1091 86.131 58.6718 86.131 58.2025ZM85.699 54.2345V52.3625H88.291V50.5545H90.451V52.3625H92.611C92.7924 52.3625 92.9097 52.4425 92.963 52.6025C93.0164 52.7625 93.043 52.9918 93.043 53.2905C93.043 53.5998 93.0164 53.8345 92.963 53.9945C92.9097 54.1545 92.7924 54.2345 92.611 54.2345H85.699ZM90.659 58.2025C90.659 57.7971 90.547 57.4505 90.323 57.1625C90.1097 56.8745 89.8164 56.7305 89.443 56.7305C89.0697 56.7305 88.771 56.8745 88.547 57.1625C88.323 57.4505 88.211 57.7971 88.211 58.2025C88.211 58.6078 88.323 58.9545 88.547 59.2425C88.771 59.5305 89.0697 59.6745 89.443 59.6745C89.8164 59.6745 90.1097 59.5305 90.323 59.2425C90.547 58.9545 90.659 58.6078 90.659 58.2025ZM112.286 50.9705C112.499 50.9705 112.633 51.0505 112.686 51.2105C112.75 51.3705 112.782 51.6051 112.782 51.9145C112.782 52.2238 112.75 52.4585 112.686 52.6185C112.633 52.7678 112.499 52.8425 112.286 52.8425H108.862C109.022 53.1625 109.267 53.4665 109.598 53.7545C109.939 54.0425 110.307 54.3145 110.702 54.5705C111.107 54.8158 111.513 55.0451 111.918 55.2585C112.334 55.4611 112.691 55.6318 112.99 55.7705C113.129 55.8345 113.193 55.9305 113.182 56.0585C113.182 56.1758 113.102 56.3838 112.942 56.6825C112.857 56.8425 112.782 56.9705 112.718 57.0665C112.665 57.1625 112.611 57.2318 112.558 57.2745C112.505 57.3171 112.446 57.3385 112.382 57.3385C112.329 57.3385 112.265 57.3225 112.19 57.2905C111.859 57.1838 111.481 57.0398 111.054 56.8585C110.638 56.6665 110.217 56.4425 109.79 56.1865C109.363 55.9305 108.958 55.6478 108.574 55.3385C108.19 55.0185 107.875 54.6825 107.63 54.3305C107.363 54.7038 107.038 55.0505 106.654 55.3705C106.27 55.6798 105.87 55.9625 105.454 56.2185C105.049 56.4745 104.649 56.6985 104.254 56.8905C103.87 57.0825 103.534 57.2478 103.246 57.3865C103.161 57.4291 103.081 57.4558 103.006 57.4665C102.942 57.4665 102.873 57.4451 102.798 57.4025C102.734 57.3491 102.659 57.2691 102.574 57.1625C102.499 57.0558 102.409 56.9065 102.302 56.7145C102.131 56.4158 102.041 56.1971 102.03 56.0585C102.019 55.9198 102.105 55.8025 102.286 55.7065C102.585 55.5465 102.926 55.3651 103.31 55.1625C103.705 54.9598 104.094 54.7411 104.478 54.5065C104.862 54.2611 105.214 53.9998 105.534 53.7225C105.854 53.4451 106.094 53.1518 106.254 52.8425H102.59V50.9705H112.286ZM114.062 58.5385C114.275 58.5385 114.409 58.6185 114.462 58.7785C114.526 58.9385 114.558 59.1731 114.558 59.4825C114.558 59.7918 114.526 60.0265 114.462 60.1865C114.409 60.3358 114.275 60.4105 114.062 60.4105H108.718V63.9945C108.718 64.1758 108.622 64.2985 108.43 64.3625C108.238 64.4265 107.961 64.4585 107.598 64.4585C107.257 64.4585 106.99 64.4265 106.798 64.3625C106.606 64.3091 106.51 64.1918 106.51 64.0105V60.4105H100.814V58.5385H114.062ZM121.273 55.8505V53.9785H123.337V50.5865H125.417V63.4825C125.417 63.6531 125.326 63.7651 125.145 63.8185C124.974 63.8718 124.718 63.8985 124.377 63.8985C124.046 63.8985 123.79 63.8718 123.609 63.8185C123.428 63.7651 123.337 63.6531 123.337 63.4825V55.8505H121.273ZM120.985 60.4585C120.654 60.0745 120.308 59.6105 119.945 59.0665C119.593 58.5118 119.3 57.9411 119.065 57.3545C118.948 57.6745 118.809 57.9945 118.649 58.3145C118.489 58.6238 118.318 58.9225 118.137 59.2105C117.966 59.4985 117.79 59.7705 117.609 60.0265C117.428 60.2718 117.252 60.4905 117.081 60.6825C116.932 60.8425 116.788 60.9011 116.649 60.8585C116.521 60.8158 116.308 60.6771 116.009 60.4425C115.742 60.2398 115.566 60.0691 115.481 59.9305C115.396 59.7811 115.412 59.6318 115.529 59.4825C115.945 58.9705 116.329 58.4051 116.681 57.7865C117.044 57.1678 117.316 56.5545 117.497 55.9465C117.604 55.5838 117.684 55.2105 117.737 54.8265C117.801 54.4425 117.833 54.0585 117.833 53.6745V51.3705H120.089V53.6745C120.089 54.1865 120.153 54.6878 120.281 55.1785C120.409 55.6691 120.564 56.1385 120.745 56.5865C120.852 56.8425 120.974 57.1038 121.113 57.3705C121.262 57.6265 121.412 57.8718 121.561 58.1065C121.721 58.3411 121.87 58.5598 122.009 58.7625C122.158 58.9651 122.297 59.1358 122.425 59.2745C122.542 59.4238 122.569 59.5731 122.505 59.7225C122.452 59.8611 122.297 60.0265 122.041 60.2185C121.881 60.3358 121.748 60.4318 121.641 60.5065C121.545 60.5705 121.46 60.6185 121.385 60.6505C121.31 60.6718 121.241 60.6665 121.177 60.6345C121.124 60.6025 121.06 60.5438 120.985 60.4585ZM128.697 63.6265C128.697 63.8078 128.601 63.9251 128.409 63.9785C128.228 64.0318 127.966 64.0585 127.625 64.0585C127.294 64.0585 127.033 64.0318 126.841 63.9785C126.66 63.9251 126.569 63.8078 126.569 63.6265V50.4265H128.697V63.6265ZM141.876 54.9545C141.876 55.3811 141.812 55.7811 141.684 56.1545C141.556 56.5171 141.385 56.8531 141.172 57.1625V60.7785H143.78C143.993 60.7785 144.127 60.8585 144.18 61.0185C144.244 61.1785 144.276 61.4131 144.276 61.7225C144.276 62.0318 144.244 62.2611 144.18 62.4105C144.127 62.5705 143.993 62.6505 143.78 62.6505H130.564V60.7785H133.764V57.3385C133.497 57.0185 133.289 56.6611 133.14 56.2665C132.991 55.8611 132.916 55.4238 132.916 54.9545C132.916 54.3678 133.033 53.8291 133.268 53.3385C133.503 52.8478 133.823 52.4265 134.228 52.0745C134.644 51.7225 135.124 51.4505 135.668 51.2585C136.212 51.0665 136.788 50.9705 137.396 50.9705C138.004 50.9705 138.58 51.0665 139.124 51.2585C139.668 51.4505 140.143 51.7225 140.548 52.0745C140.964 52.4265 141.289 52.8478 141.524 53.3385C141.759 53.8291 141.876 54.3678 141.876 54.9545ZM139.668 54.9545C139.668 54.6451 139.609 54.3625 139.492 54.1065C139.385 53.8398 139.231 53.6105 139.028 53.4185C138.825 53.2265 138.585 53.0771 138.308 52.9705C138.031 52.8638 137.727 52.8105 137.396 52.8105C137.065 52.8105 136.761 52.8638 136.484 52.9705C136.207 53.0771 135.967 53.2265 135.764 53.4185C135.561 53.6105 135.401 53.8398 135.284 54.1065C135.177 54.3625 135.124 54.6451 135.124 54.9545C135.124 55.2638 135.177 55.5518 135.284 55.8185C135.401 56.0745 135.561 56.2985 135.764 56.4905C135.967 56.6825 136.207 56.8318 136.484 56.9385C136.761 57.0451 137.065 57.0985 137.396 57.0985C137.727 57.0985 138.031 57.0451 138.308 56.9385C138.585 56.8318 138.825 56.6825 139.028 56.4905C139.231 56.2985 139.385 56.0745 139.492 55.8185C139.609 55.5518 139.668 55.2638 139.668 54.9545ZM137.396 58.9385C136.873 58.9385 136.372 58.8638 135.892 58.7145V60.7785H139.06V58.6825C138.804 58.7678 138.532 58.8318 138.244 58.8745C137.967 58.9171 137.684 58.9385 137.396 58.9385ZM146.543 62.4105C146.543 62.2398 146.575 62.0745 146.639 61.9145C146.714 61.7545 146.81 61.6211 146.927 61.5145C147.044 61.3971 147.178 61.3065 147.327 61.2425C147.487 61.1678 147.652 61.1305 147.823 61.1305C148.186 61.1305 148.49 61.2585 148.735 61.5145C148.991 61.7598 149.119 62.0585 149.119 62.4105C149.119 62.7731 148.991 63.0825 148.735 63.3385C148.49 63.5945 148.186 63.7225 147.823 63.7225C147.652 63.7225 147.487 63.6851 147.327 63.6105C147.178 63.5465 147.044 63.4558 146.927 63.3385C146.81 63.2211 146.714 63.0825 146.639 62.9225C146.575 62.7625 146.543 62.5918 146.543 62.4105ZM146.671 51.0025H149.007L148.703 59.5785C148.692 59.7811 148.628 59.9091 148.511 59.9625C148.394 60.0158 148.17 60.0425 147.839 60.0425C147.498 60.0425 147.263 60.0105 147.135 59.9465C147.018 59.8825 146.959 59.7598 146.959 59.5785L146.671 51.0025Z" fill="#5E6C8D"/>
<path d="M60.6092 63.3945C60.8812 63.3945 61.0492 63.5145 61.1132 63.7545C61.1932 64.0105 61.2332 64.3465 61.2332 64.7625C61.2332 65.2105 61.1932 65.5465 61.1132 65.7705C61.0492 65.9945 60.8812 66.1065 60.6092 66.1065H49.7372C49.4172 66.1065 49.0652 65.9865 48.6812 65.7465C48.3132 65.5225 48.0012 65.2745 47.7452 65.0025C47.4732 64.7465 47.2332 64.4505 47.0252 64.1145C46.8332 63.7945 46.7372 63.5225 46.7372 63.2985V58.1865H50.0012V62.8665C50.0012 63.2185 50.1852 63.3945 50.5532 63.3945H60.6092ZM60.7532 58.8345C60.7532 59.1545 60.5932 59.3545 60.2732 59.4345C59.9532 59.5145 59.5692 59.5545 59.1212 59.5545C58.6092 59.5545 58.2092 59.5065 57.9212 59.4105C57.6332 59.2985 57.4892 59.1065 57.4892 58.8345V44.2425H60.7532V58.8345ZM52.6892 56.2185C52.3692 55.9305 52.0412 55.6105 51.7052 55.2585C51.3692 54.9065 51.0332 54.5305 50.6972 54.1305C50.3612 53.7305 50.0332 53.3145 49.7132 52.8825C49.4092 52.4345 49.1292 51.9785 48.8732 51.5145C48.6172 52.0425 48.3212 52.5465 47.9852 53.0265C47.6492 53.5065 47.2972 53.9625 46.9292 54.3945C46.5612 54.8265 46.1852 55.2265 45.8012 55.5945C45.4172 55.9625 45.0492 56.2985 44.6972 56.6025C44.4572 56.8105 44.2012 56.8665 43.9292 56.7705C43.6732 56.6585 43.3692 56.4105 43.0172 56.0265C42.6972 55.7065 42.4732 55.4185 42.3452 55.1625C42.2332 54.9065 42.2892 54.6745 42.5132 54.4665C43.3292 53.7465 44.0812 52.9705 44.7692 52.1385C45.4572 51.2905 46.0092 50.4185 46.4252 49.5225C46.6492 49.0585 46.8012 48.5785 46.8812 48.0825C46.9612 47.5705 47.0012 47.0425 47.0012 46.4985V44.9145H50.4092V46.4985C50.4092 47.5545 50.6812 48.6025 51.2252 49.6425C51.6732 50.5065 52.2092 51.3305 52.8332 52.1145C53.4572 52.8825 54.0652 53.5465 54.6572 54.1065C54.8812 54.3305 54.9452 54.5545 54.8492 54.7785C54.7692 54.9865 54.5532 55.2745 54.2012 55.6425C53.8172 56.0585 53.5212 56.3145 53.3132 56.4105C53.1212 56.5065 52.9132 56.4425 52.6892 56.2185ZM79.7225 57.2505C79.2105 57.2505 78.8105 57.2025 78.5225 57.1065C78.2505 57.0105 78.1145 56.8265 78.1145 56.5545V49.2345C78.1145 49.0105 78.0665 48.8665 77.9705 48.8025C77.8905 48.7385 77.7625 48.7065 77.5865 48.7065H66.8585V45.8985H78.3305C78.6505 45.8985 79.0025 46.0185 79.3865 46.2585C79.7705 46.4825 80.0985 46.7305 80.3705 47.0025C80.6265 47.2585 80.8585 47.5545 81.0665 47.8905C81.2745 48.2105 81.3785 48.4905 81.3785 48.7305V56.5545C81.3785 56.8265 81.2345 57.0105 80.9465 57.1065C80.6745 57.2025 80.2665 57.2505 79.7225 57.2505ZM83.7785 60.0105C84.0985 60.0105 84.2985 60.1305 84.3785 60.3705C84.4745 60.6105 84.5225 60.9625 84.5225 61.4265C84.5225 61.8905 84.4745 62.2345 84.3785 62.4585C84.2985 62.6985 84.0985 62.8185 83.7785 62.8185H63.9065V60.0105H70.8185V53.5065H74.1305V60.0105H83.7785Z" fill="#1B235A"/>
</svg>
