<svg width="181" height="28" viewBox="0 0 181 28" fill="none" xmlns="http://www.w3.org/2000/svg">
<rect width="12.2926" height="24.9223" rx="6.14632" transform="matrix(0.860029 -0.510245 0.489825 0.871821 0 6.27246)" fill="#366AEE" fill-opacity="0.5"/>
<rect width="12.3772" height="24.7543" rx="6.18859" transform="matrix(0.697415 0.716667 -0.697415 0.716667 23.3682 1.04541)" fill="#366AEE" fill-opacity="0.5"/>
<path d="M41.256 6.058C41.868 6.058 42.426 6.16 42.93 6.364C43.446 6.568 43.884 6.874 44.244 7.282C44.616 7.678 44.904 8.176 45.108 8.776C45.324 9.376 45.432 10.072 45.432 10.864V12.736C45.432 13.528 45.324 14.224 45.108 14.824C44.904 15.424 44.616 15.922 44.244 16.318C43.884 16.714 43.446 17.014 42.93 17.218C42.426 17.422 41.868 17.524 41.256 17.524C40.644 17.524 40.08 17.422 39.564 17.218C39.06 17.014 38.622 16.714 38.25 16.318C37.89 15.922 37.602 15.424 37.386 14.824C37.182 14.224 37.08 13.528 37.08 12.736V10.864C37.08 10.072 37.182 9.376 37.386 8.776C37.602 8.176 37.89 7.678 38.25 7.282C38.622 6.874 39.06 6.568 39.564 6.364C40.08 6.16 40.644 6.058 41.256 6.058ZM41.256 15.922C41.58 15.922 41.892 15.862 42.192 15.742C42.492 15.622 42.75 15.43 42.966 15.166C43.194 14.89 43.374 14.536 43.506 14.104C43.65 13.66 43.722 13.12 43.722 12.484V11.116C43.722 10.48 43.65 9.946 43.506 9.514C43.374 9.07 43.194 8.716 42.966 8.452C42.75 8.176 42.492 7.978 42.192 7.858C41.892 7.738 41.58 7.678 41.256 7.678C40.932 7.678 40.62 7.738 40.32 7.858C40.02 7.978 39.756 8.176 39.528 8.452C39.312 8.716 39.132 9.07 38.988 9.514C38.856 9.946 38.79 10.48 38.79 11.116V12.484C38.79 13.12 38.856 13.66 38.988 14.104C39.132 14.536 39.312 14.89 39.528 15.166C39.756 15.43 40.02 15.622 40.32 15.742C40.62 15.862 40.932 15.922 41.256 15.922ZM52.128 12.466H49.572V21.52H47.79V4.924H49.572V10.918H52.128V12.466ZM65.4868 5.536V7.048H56.6128V9.694H65.5948V11.206H61.1128V12.916H67.8268V14.428H52.5988V12.916H59.3128V11.206H54.8488V5.536H65.4868ZM60.2128 21.988C59.4208 21.988 58.7008 21.91 58.0528 21.754C57.4168 21.61 56.8708 21.4 56.4148 21.124C55.9708 20.86 55.6288 20.542 55.3888 20.17C55.1488 19.81 55.0288 19.42 55.0288 19V18.388C55.0288 17.956 55.1488 17.56 55.3888 17.2C55.6288 16.828 55.9708 16.51 56.4148 16.246C56.8708 15.982 57.4168 15.778 58.0528 15.634C58.7008 15.478 59.4208 15.4 60.2128 15.4C61.0048 15.4 61.7188 15.478 62.3548 15.634C62.9908 15.778 63.5308 15.988 63.9748 16.264C64.4308 16.528 64.7788 16.84 65.0188 17.2C65.2708 17.56 65.3968 17.956 65.3968 18.388V19C65.3968 19.42 65.2768 19.81 65.0368 20.17C64.7968 20.53 64.4488 20.842 63.9928 21.106C63.5488 21.382 63.0028 21.598 62.3548 21.754C61.7188 21.91 61.0048 21.988 60.2128 21.988ZM60.2128 16.858C59.7088 16.858 59.2468 16.906 58.8268 17.002C58.4068 17.086 58.0468 17.206 57.7468 17.362C57.4468 17.506 57.2128 17.68 57.0448 17.884C56.8768 18.076 56.7928 18.28 56.7928 18.496V18.892C56.7928 19.108 56.8768 19.312 57.0448 19.504C57.2128 19.708 57.4468 19.882 57.7468 20.026C58.0468 20.182 58.4068 20.302 58.8268 20.386C59.2468 20.482 59.7088 20.53 60.2128 20.53C60.7168 20.53 61.1788 20.482 61.5988 20.386C62.0188 20.302 62.3788 20.182 62.6788 20.026C62.9788 19.882 63.2128 19.708 63.3808 19.504C63.5488 19.312 63.6328 19.108 63.6328 18.892V18.496C63.6328 18.28 63.5488 18.076 63.3808 17.884C63.2128 17.68 62.9788 17.506 62.6788 17.362C62.3788 17.206 62.0188 17.086 61.5988 17.002C61.1788 16.906 60.7168 16.858 60.2128 16.858ZM81.6716 14.518V21.52H70.7996V14.518H72.5636V16.48H79.9076V14.518H81.6716ZM83.8496 11.53V13.042H68.6216V11.53H79.4216C79.5536 10.882 79.6436 10.258 79.6916 9.658C79.7396 9.058 79.7636 8.494 79.7636 7.966V7.048H70.6016V5.536H81.5636V8.038C81.5636 8.518 81.5396 9.07 81.4916 9.694C81.4436 10.306 81.3596 10.918 81.2396 11.53H83.8496ZM79.9076 20.008V17.938H72.5636V20.008H79.9076ZM96.5784 4.924H98.3424V14.572H96.5784V4.924ZM87.4164 15.436H98.3424V21.682H96.5604V16.966H87.4164V15.436ZM89.8284 10.594C89.7804 10.75 89.6364 10.966 89.3964 11.242C89.1564 11.518 88.8984 11.782 88.6224 12.034C88.2504 12.382 87.8124 12.766 87.3084 13.186C86.8044 13.606 86.3124 14.008 85.8324 14.392L84.7704 13.132C85.0584 12.916 85.3404 12.694 85.6164 12.466C85.9044 12.238 86.1744 12.016 86.4264 11.8C86.6904 11.584 86.9304 11.38 87.1464 11.188C87.3624 10.984 87.5484 10.804 87.7044 10.648C87.9324 10.42 88.1184 10.204 88.2624 10C88.4184 9.784 88.5384 9.568 88.6224 9.352C88.7184 9.124 88.7844 8.884 88.8204 8.632C88.8564 8.38 88.8744 8.098 88.8744 7.786V5.608H90.6744V7.714C90.6744 7.99 90.6804 8.242 90.6924 8.47C90.7164 8.686 90.7584 8.89 90.8184 9.082C90.8784 9.274 90.9684 9.466 91.0884 9.658C91.2204 9.838 91.3944 10.024 91.6104 10.216C92.0304 10.6 92.4924 11.002 92.9964 11.422C93.5124 11.83 94.0404 12.226 94.5804 12.61L93.5364 13.852C93.0684 13.504 92.6124 13.15 92.1684 12.79C91.7364 12.43 91.3044 12.07 90.8724 11.71C90.5964 11.482 90.3684 11.272 90.1884 11.08C90.0204 10.888 89.9064 10.726 89.8464 10.594H89.8284ZM106.193 13.348C106.109 13.552 105.983 13.762 105.815 13.978C105.647 14.194 105.419 14.458 105.131 14.77C104.759 15.178 104.345 15.616 103.889 16.084C103.433 16.54 102.899 17.05 102.287 17.614L101.117 16.408C101.657 15.916 102.149 15.448 102.593 15.004C103.049 14.56 103.481 14.11 103.889 13.654C104.189 13.33 104.429 13.036 104.609 12.772C104.789 12.508 104.927 12.25 105.023 11.998C105.119 11.746 105.185 11.488 105.221 11.224C105.257 10.96 105.275 10.66 105.275 10.324V7.966H101.711V6.418H110.549V7.966H107.075V10.324C107.075 10.684 107.093 10.996 107.129 11.26C107.165 11.524 107.231 11.776 107.327 12.016C107.435 12.256 107.585 12.508 107.777 12.772C107.969 13.024 108.227 13.324 108.551 13.672C108.935 14.092 109.325 14.494 109.721 14.878C110.129 15.262 110.603 15.688 111.143 16.156L109.973 17.362C109.361 16.798 108.851 16.318 108.443 15.922C108.035 15.514 107.657 15.124 107.309 14.752C107.057 14.476 106.829 14.218 106.625 13.978C106.421 13.738 106.283 13.528 106.211 13.348H106.193ZM112.799 21.52V4.924H114.581V21.52H112.799ZM122.162 11.458C121.526 11.458 120.956 11.38 120.452 11.224C119.948 11.068 119.516 10.864 119.156 10.612C118.808 10.348 118.538 10.048 118.346 9.712C118.166 9.364 118.076 9.004 118.076 8.632V8.056C118.076 7.684 118.166 7.33 118.346 6.994C118.538 6.658 118.808 6.358 119.156 6.094C119.516 5.83 119.948 5.62 120.452 5.464C120.956 5.308 121.526 5.23 122.162 5.23C122.798 5.23 123.368 5.308 123.872 5.464C124.376 5.62 124.802 5.83 125.15 6.094C125.51 6.358 125.78 6.658 125.96 6.994C126.152 7.33 126.248 7.684 126.248 8.056V8.632C126.248 9.004 126.152 9.364 125.96 9.712C125.78 10.048 125.51 10.348 125.15 10.612C124.802 10.864 124.376 11.068 123.872 11.224C123.368 11.38 122.798 11.458 122.162 11.458ZM128.786 17.776V16.3H125.276V14.806H128.786V4.924H130.55V17.776H128.786ZM121.46 19.828H130.892V21.358H119.678V16.912H121.46V19.828ZM121.1 16.246V13.87C119.84 13.906 118.472 13.924 116.996 13.924V12.376C117.992 12.376 118.916 12.376 119.768 12.376C120.632 12.364 121.478 12.346 122.306 12.322C123.134 12.286 123.974 12.244 124.826 12.196C125.678 12.136 126.596 12.064 127.58 11.98L127.706 13.474C126.938 13.558 126.158 13.63 125.366 13.69C124.574 13.738 123.74 13.78 122.864 13.816V16.246H121.1ZM122.162 9.964C122.546 9.964 122.882 9.922 123.17 9.838C123.47 9.754 123.722 9.646 123.926 9.514C124.13 9.37 124.286 9.214 124.394 9.046C124.502 8.878 124.556 8.704 124.556 8.524V8.164C124.556 7.984 124.502 7.81 124.394 7.642C124.286 7.474 124.13 7.324 123.926 7.192C123.722 7.06 123.47 6.952 123.17 6.868C122.882 6.784 122.546 6.742 122.162 6.742C121.778 6.742 121.436 6.784 121.136 6.868C120.848 6.952 120.602 7.06 120.398 7.192C120.194 7.324 120.038 7.474 119.93 7.642C119.822 7.81 119.768 7.984 119.768 8.164V8.524C119.768 8.704 119.822 8.878 119.93 9.046C120.038 9.214 120.194 9.37 120.398 9.514C120.602 9.646 120.848 9.754 121.136 9.838C121.436 9.922 121.778 9.964 122.162 9.964ZM134.441 9.55H136.673V6.868H134.531V5.428H146.123V6.868H143.981V9.55H146.213V10.99H134.441V9.55ZM134.891 21.628V17.506H143.999V16.282H134.801V14.824H145.745V18.928H136.637V20.17H146.231V21.628H134.891ZM147.941 12.106V13.582H132.713V12.106H147.941ZM138.401 9.55H142.253V6.868H138.401V9.55ZM161.138 4.924H162.848V15.814H161.138V10.594H159.464V14.302H157.772V5.14H159.464V9.082H161.138V4.924ZM149.474 14.14V9.28H153.974V7.336H149.42V5.878H155.666V10.702H151.166V12.682H152.03C152.774 12.682 153.53 12.658 154.298 12.61C155.066 12.562 155.834 12.484 156.602 12.376L156.782 13.798C156.122 13.894 155.354 13.978 154.478 14.05C153.614 14.11 152.618 14.14 151.49 14.14H149.474ZM156.26 15.04H158.024V16.426C158.024 16.678 158.042 16.9 158.078 17.092C158.114 17.272 158.186 17.446 158.294 17.614C158.414 17.77 158.57 17.92 158.762 18.064C158.966 18.208 159.23 18.37 159.554 18.55C159.95 18.766 160.448 19.012 161.048 19.288C161.648 19.564 162.398 19.888 163.298 20.26L162.578 21.682C161.786 21.346 161.096 21.028 160.508 20.728C159.932 20.44 159.44 20.194 159.032 19.99C158.456 19.69 158.024 19.438 157.736 19.234C157.46 19.03 157.268 18.844 157.16 18.676C157.052 18.868 156.86 19.066 156.584 19.27C156.32 19.486 155.876 19.75 155.252 20.062C154.856 20.266 154.37 20.506 153.794 20.782C153.218 21.058 152.534 21.364 151.742 21.7L150.986 20.26C151.874 19.9 152.624 19.582 153.236 19.306C153.848 19.03 154.352 18.778 154.748 18.55C155.06 18.37 155.312 18.202 155.504 18.046C155.708 17.89 155.864 17.734 155.972 17.578C156.08 17.41 156.152 17.236 156.188 17.056C156.236 16.876 156.26 16.666 156.26 16.426V15.04ZM179.986 12.952V14.464H164.758V12.952H171.472V11.422H166.486V9.964H168.718V6.976H166.576V5.518H178.168V6.976H176.026V9.964H178.258V11.422H173.272V12.952H179.986ZM177.808 21.502H166.936V15.868H177.808V21.502ZM176.044 17.362H168.7V20.008H176.044V17.362ZM170.464 9.964H174.28V6.976H170.464V9.964Z" fill="#333333"/>
</svg>
