<svg width="69" height="24" viewBox="0 0 69 24" fill="none" xmlns="http://www.w3.org/2000/svg">
<g id="logo">
<path id="Vector" d="M33.2387 21.2711C32.5618 21.4726 32.0609 21.4865 31.6948 21.4865C30.631 21.4865 29.3979 20.8508 29.3979 19.0619C29.3979 17.2731 30.4583 16.5957 31.9228 16.5957C32.1853 16.5957 32.7414 16.6304 33.1317 16.8076L33.0453 17.8358C32.7137 17.6065 32.3234 17.5301 32.0713 17.5301C31.2078 17.5301 30.4963 17.9573 30.4963 19.0585C30.4963 19.9859 31.0524 20.5486 31.8295 20.5486C31.9711 20.5486 32.1093 20.5208 32.206 20.4687V19.5344H31.5843V18.6416H33.2387V21.2677V21.2711Z" fill="#231815"/>
<path id="Vector_2" d="M35.114 19.6243L33.6357 16.6787H34.8619L35.6459 18.5753L36.4196 16.6787H37.6458L36.1813 19.6243V21.4063H35.1175V19.6243H35.114Z" fill="#231815"/>
<path id="Vector_3" d="M37.9912 16.6788H40.8062V17.5715H39.055V18.5476H40.7095V19.4403H39.055V20.5101H40.8683V21.4028H37.9912V16.6753V16.6788Z" fill="#231815"/>
<path id="Vector_4" d="M42.4089 19.0445C42.4089 18.2248 42.6679 17.5335 43.3138 17.5335C43.9597 17.5335 44.2188 18.2248 44.2188 19.0445C44.2188 19.8643 43.9597 20.5555 43.3138 20.5555C42.6679 20.5555 42.4089 19.8226 42.4089 19.0445ZM41.3105 19.0445C41.3105 20.5486 42.0082 21.4899 43.3138 21.4899C44.6194 21.4899 45.3171 20.5486 45.3171 19.0445C45.3171 17.5405 44.6298 16.5991 43.3138 16.5991C41.9979 16.5991 41.3105 17.5266 41.3105 19.0445Z" fill="#231815"/>
<path id="Vector_5" d="M45.873 16.6787H47.2304L48.5809 19.8883H48.5948L48.5775 16.6787H49.5515V21.4063H48.2286L46.8332 18.1758H46.8194L46.854 21.4063H45.8765V16.6787H45.873Z" fill="#231815"/>
<path id="Vector_6" d="M53.9413 21.2711C53.2678 21.4726 52.7635 21.4865 52.3974 21.4865C51.3336 21.4865 50.104 20.8508 50.104 19.0619C50.104 17.2731 51.1609 16.5957 52.6288 16.5957C52.8913 16.5957 53.4474 16.6304 53.8343 16.8076L53.7479 17.8358C53.4163 17.6065 53.026 17.5301 52.7739 17.5301C51.9104 17.5301 51.2024 17.9573 51.2024 19.0585C51.2024 19.9859 51.7584 20.5486 52.5356 20.5486C52.6772 20.5486 52.8153 20.5208 52.9121 20.4687V19.5344H52.2869V18.6416H53.9413V21.2677V21.2711Z" fill="#231815"/>
<path id="Vector_7" d="M54.6636 16.6787H56.021L57.3715 19.8883H57.3818L57.3646 16.6787H58.3386V21.4063H57.0157L55.6203 18.1758H55.61L55.6445 21.4063H54.667V16.6787H54.6636Z" fill="#231815"/>
<path id="Vector_8" d="M61.3571 19.5027H60.3555L60.8701 17.6548H60.884L61.3571 19.5027ZM58.7149 21.4063H59.796L60.1103 20.3954H61.6093L61.9063 21.4063H63.0738L61.5333 16.6787H60.2277L58.7114 21.4063H58.7149Z" fill="#231815"/>
<path id="Vector_9" d="M63.4053 16.6787H65.0839L65.9301 19.8188H65.9439L66.8316 16.6787H68.4446V21.4063H67.4049L67.4222 17.7764H67.4118L66.3929 21.4063H65.412L64.438 17.7764H64.4276L64.4518 21.4063H63.4087V16.6787H63.4053Z" fill="#231815"/>
<path id="Vector_10" d="M55.6618 7.27914H52.1077V3.93408H50.6777V8.41153H55.6618V7.27914Z" fill="#231815"/>
<path id="Vector_11" d="M35.9809 9.1031H37.4142V3.79199H35.9809V4.81322H34.4438V5.94561H35.9809V6.69243H34.4438V7.82829H35.9809V9.1031Z" fill="#231815"/>
<path id="Vector_12" d="M65.3915 12.1495V9.40533H67.8058V8.27294H62.6525V5.25788H67.8058V4.12549H61.2226V9.40533H63.9615V12.1495H60.5283V13.2818H68.5V12.1495H65.3915Z" fill="#231815"/>
<path id="Vector_13" d="M57.9343 3.79199H56.5044V8.94331H57.9343V6.54654H59.1846V5.41068H57.9343V3.79199Z" fill="#231815"/>
<path id="Vector_14" d="M52.2837 9.5791V13.7266H57.9343V9.5791H52.2837ZM53.7171 12.5942V10.715H56.5044V12.5942H53.7171Z" fill="#231815"/>
<path id="Vector_15" d="M34.3888 8.97119C32.8 8.97119 31.5151 10.1453 31.5151 11.5903C31.5151 13.0353 32.8035 14.2094 34.3888 14.2094C35.9742 14.2094 37.2659 13.0388 37.2659 11.5903C37.2659 10.1418 35.9776 8.97119 34.3888 8.97119ZM34.3888 12.9936C33.6186 12.9936 32.9969 12.3649 32.9969 11.5903C32.9969 10.8157 33.6186 10.1869 34.3888 10.1869C35.159 10.1869 35.7808 10.8157 35.7808 11.5903C35.7808 12.3649 35.159 12.9936 34.3888 12.9936Z" fill="#231815"/>
<path id="Vector_16" d="M44.3952 8.97119C42.8098 8.97119 41.5215 10.1453 41.5215 11.5903C41.5215 13.0353 42.8098 14.2094 44.3952 14.2094C45.9805 14.2094 47.2688 13.0388 47.2688 11.5903C47.2688 10.1418 45.9805 8.97119 44.3952 8.97119ZM44.3952 12.9936C43.6284 12.9936 43.0032 12.3649 43.0032 11.5903C43.0032 10.8157 43.6249 10.1869 44.3952 10.1869C45.1654 10.1869 45.7871 10.8157 45.7871 11.5903C45.7871 12.3649 45.1654 12.9936 44.3952 12.9936Z" fill="#231815"/>
<path id="Vector_17" d="M33.7603 6.30301C33.7603 6.30301 34.1437 5.29915 34.1195 4.05908H29.4014V5.21926H32.396C32.396 5.21926 32.5031 7.52919 29.208 8.01549L29.7779 9.01241C30.821 8.92209 32.9244 8.39411 33.7568 6.30301H33.7603Z" fill="#231815"/>
<path id="Vector_18" d="M44.5988 8.71387L45.1825 7.74821C42.9478 7.00139 42.9581 4.74357 42.9581 4.50389V3.98633H41.2035V4.51779C41.2035 4.7262 41.2899 7.16118 39.0068 8.0261L39.6216 8.95355C39.6216 8.95355 41.2139 8.49851 42.1292 6.91108C42.9271 8.31441 44.6022 8.71734 44.6022 8.71734L44.5988 8.71387Z" fill="#231815"/>
<path id="Vector_19" d="M47.4656 3.79199H46.0356V9.1031H47.4656V6.54307H48.7159V5.41068H47.4656V3.79199Z" fill="#231815"/>
<path id="Vector_20" d="M12.6703 0.00219742C8.47718 -0.0776949 4.75038 2.02729 2.55713 5.27509C2.59858 5.32025 2.63312 5.3654 2.6642 5.40709C2.68838 5.43488 2.7091 5.46266 2.72637 5.48351C2.74019 5.48351 2.75055 5.48698 2.75746 5.49045C2.91288 5.51824 3.14775 5.55993 3.34808 5.74402C3.47242 5.85865 3.55532 5.98718 3.62094 6.08791C3.64857 6.13307 3.68657 6.19212 3.70384 6.20948C3.73838 6.24422 3.79019 6.28243 3.84545 6.32759C3.93525 6.39706 4.03887 6.47348 4.13903 6.57768C4.22193 6.66452 4.29791 6.74789 4.37045 6.83473C4.42226 6.89725 4.47061 6.95283 4.51897 7.00493C4.55696 7.04662 4.60877 7.09525 4.66403 7.14388C4.74693 7.21682 4.84018 7.30366 4.92999 7.4044C5.04397 7.53292 5.10959 7.66839 5.1614 7.77607C5.18212 7.81775 5.21321 7.8768 5.22702 7.89764C5.30647 7.99143 5.38591 8.09216 5.45844 8.18595L5.57587 8.33184C5.5966 8.35616 5.64495 8.40131 5.68985 8.43952C5.77965 8.51594 5.89018 8.60973 5.98689 8.73825C6.05942 8.83551 6.1216 8.9293 6.18031 9.02308C6.22521 9.08908 6.26321 9.15161 6.30465 9.20718C6.39791 9.33571 6.45663 9.4677 6.50153 9.57538C6.52571 9.63443 6.55334 9.69348 6.57406 9.72127C6.59478 9.74906 6.63623 9.79769 6.68459 9.84285C6.76057 9.92274 6.85728 10.02 6.94018 10.1451C7.02653 10.277 7.07834 10.4125 7.11978 10.5202C7.13705 10.5619 7.15432 10.607 7.16814 10.6383C7.18195 10.6487 7.20268 10.6626 7.21995 10.673C7.32702 10.746 7.49281 10.8606 7.61024 11.0517C7.67587 11.1593 7.72077 11.267 7.75531 11.3573L7.98327 11.5136C8.35629 11.7672 8.51172 11.6352 8.33212 11.2219L6.23212 6.40748C6.05252 5.99412 6.12505 5.94897 6.39791 6.31022L9.53063 10.4785C9.80004 10.8398 9.99001 10.7668 9.95201 10.3153L9.51336 5.08752C9.47537 4.63943 9.56172 4.62206 9.70333 5.04931L11.2196 9.98527C11.3647 10.4125 11.5512 10.4021 11.6375 9.96095L12.4838 4.87216C12.5701 4.42754 12.6599 4.43448 12.6772 4.88605L12.8913 10.0895C12.912 10.541 13.1089 10.5897 13.3334 10.2006L15.9204 5.69887C16.1449 5.30635 16.2244 5.34109 16.0966 5.77529L14.6321 10.746C14.5043 11.1767 14.677 11.2879 15.0155 10.9926L18.8943 7.60586C19.2327 7.31061 19.2984 7.36966 19.0359 7.73786L16.8046 10.8884C16.9186 10.8884 17.0326 10.8814 17.1224 10.8328C17.3055 10.7356 17.4091 10.4855 17.5956 10.3917C17.7821 10.3014 18.0273 10.3326 18.2173 10.2493C18.4073 10.1659 18.5385 9.94011 18.7285 9.86369C18.9184 9.78727 19.1222 9.73169 19.3122 9.65875C19.5229 9.58233 19.7163 9.46076 19.9235 9.39128C20.1342 9.32181 20.3553 9.29055 20.5591 9.22802C20.7628 9.1655 21.0115 9.25234 21.2119 9.19676C21.4295 9.13424 21.5987 8.90151 21.8094 8.84593C22.0235 8.79035 22.2515 8.82509 22.4518 8.77646C22.6694 8.72436 22.8939 8.7313 23.0977 8.68962C23.3188 8.64099 23.5156 8.52636 23.716 8.48468C23.754 8.47773 23.7954 8.47426 23.8369 8.47078C22.3655 3.64946 17.9548 0.106405 12.6703 0.00219742Z" fill="#EA5529"/>
<path id="Vector_21" d="M10.8606 23.2509C10.8606 23.2509 10.8641 23.2266 10.8675 23.2162C10.8606 23.1988 10.8502 23.1814 10.8399 23.1675C10.7846 23.0668 10.7052 22.9279 10.6672 22.7507C10.6534 22.6812 10.6326 22.6048 10.605 22.5249C10.5774 22.4346 10.5463 22.3339 10.5221 22.2227C10.491 22.0838 10.4876 21.9483 10.4807 21.8441C10.4807 21.7781 10.4772 21.7121 10.4669 21.6774C10.4392 21.5627 10.4254 21.4585 10.4116 21.3613C10.4012 21.2814 10.3909 21.205 10.3736 21.1424C10.3598 21.0903 10.3356 21.0243 10.308 20.9549C10.27 20.8611 10.2285 20.7569 10.1974 20.6388L10.1664 20.5241L10.0627 20.1282C10.0455 20.0656 10.0178 19.9927 9.99021 19.9163C9.95912 19.8294 9.92113 19.7356 9.8935 19.6314C9.84169 19.4473 9.84514 19.2771 9.85205 19.1556C9.85205 19.1173 9.85205 19.0757 9.85205 19.0513C9.83133 18.9784 9.80024 18.9055 9.76916 18.8256C9.73807 18.7422 9.70353 18.6554 9.67245 18.5616C9.66554 18.5442 9.63445 18.5025 9.61028 18.4713C9.5412 18.3775 9.44794 18.2455 9.38922 18.0753C9.37195 18.0266 9.34087 17.9606 9.30633 17.8946C9.26143 17.8043 9.20962 17.7036 9.16817 17.5855C9.13708 17.4952 9.10255 17.4014 9.06455 17.3076L8.98166 17.0922C8.90567 16.8873 8.91949 16.6893 8.92985 16.5608C8.92985 16.5434 8.92985 16.5226 8.9333 16.5052C8.91258 16.4601 8.88495 16.4114 8.85386 16.3558C8.80551 16.2655 8.75024 16.1648 8.70189 16.0502C8.69153 16.0189 8.65008 15.9633 8.61554 15.9112C8.55682 15.8244 8.48429 15.7132 8.42557 15.5778C8.37722 15.4666 8.34613 15.3589 8.31505 15.2651C8.29087 15.1922 8.27015 15.1193 8.24942 15.0706C8.21143 14.9838 8.17689 14.8969 8.1458 14.8136C8.11126 14.7302 8.08018 14.6503 8.04909 14.5809L7.94893 14.362C7.90403 14.2613 7.86258 14.1675 7.82113 14.0807C7.80732 14.0459 7.76242 13.9938 7.72442 13.9417C7.6588 13.8583 7.58281 13.7541 7.51719 13.6256C7.44465 13.4867 7.41357 13.3477 7.38248 13.24C7.37212 13.2053 7.36176 13.1602 7.35485 13.1324C7.33758 13.1185 7.31686 13.1011 7.29959 13.0837C7.19942 13.0038 7.06127 12.8927 6.96456 12.7155C6.86785 12.5453 6.84022 12.3717 6.81949 12.2466C6.81258 12.2119 6.80568 12.1702 6.80222 12.1493C6.74005 12.0382 6.69515 11.927 6.66061 11.8367C6.64334 11.7881 6.62607 11.7429 6.6088 11.7082C6.59153 11.6978 6.57081 11.6804 6.55354 11.67C6.44301 11.597 6.29104 11.4928 6.17706 11.3122C6.09416 11.1837 6.04581 11.0552 6.00436 10.9544C5.98364 10.9023 5.95946 10.8363 5.94219 10.8155C5.91801 10.7808 5.87311 10.7321 5.82476 10.6835C5.74877 10.6071 5.66933 10.5202 5.58989 10.4091C5.50354 10.284 5.44828 10.159 5.40338 10.0582C5.3792 10.0061 5.35157 9.94015 5.33775 9.91931C5.27558 9.83247 5.22032 9.7491 5.17542 9.67268C5.12706 9.59974 5.08216 9.52679 5.04071 9.47121C5.01999 9.44343 4.96473 9.39827 4.91637 9.35311C4.83693 9.28364 4.73677 9.1968 4.64696 9.08565L4.52262 8.92934C4.45009 8.83902 4.38446 8.75218 4.31538 8.67229C4.20831 8.54377 4.14269 8.41177 4.09433 8.30757C4.07361 8.26936 4.04943 8.21725 4.03562 8.19988C3.98726 8.14778 3.92854 8.09568 3.86637 8.03663C3.79729 7.9741 3.72131 7.90463 3.64532 7.82474C3.5797 7.75527 3.52443 7.68927 3.46572 7.62327C3.40354 7.55032 3.34137 7.48085 3.28611 7.4218C3.24466 7.38012 3.18249 7.33496 3.12032 7.28286C3.04433 7.22381 2.96144 7.15781 2.87509 7.07792C2.7542 6.95982 2.67822 6.83824 2.61259 6.73751C2.59878 6.71667 2.58496 6.69582 2.5746 6.67846C2.56078 6.67846 2.55042 6.67498 2.54006 6.67151C2.39845 6.64372 2.18085 6.60551 1.99779 6.4492C1.96325 6.41794 1.93217 6.39015 1.90108 6.35889C1.04796 7.9741 0.543682 9.8151 0.502235 11.7742C0.384801 17.9433 4.90946 23.1085 10.8502 23.9039C10.8399 23.8623 10.8295 23.8206 10.8192 23.7789C10.7812 23.5635 10.8261 23.376 10.8571 23.2509H10.8606Z" fill="#00A161"/>
<path id="Vector_22" d="M9.81038 15.5951C9.83111 15.6438 9.86564 15.7028 9.90018 15.7723C9.95545 15.8696 10.0142 15.9772 10.066 16.1058C10.1454 16.3142 10.1316 16.5122 10.1212 16.6442C10.1212 16.665 10.1178 16.6893 10.1178 16.7102L10.18 16.8699C10.2179 16.9707 10.2594 17.0749 10.2974 17.1826C10.3147 17.2277 10.3457 17.2868 10.3768 17.3528C10.4252 17.45 10.4804 17.5577 10.5253 17.6897C10.5219 17.6828 10.5184 17.6758 10.5184 17.6758C10.5288 17.6897 10.5599 17.7349 10.5806 17.7661C10.6531 17.8669 10.7499 18.0023 10.8086 18.183C10.8293 18.249 10.8569 18.3184 10.8846 18.3948C10.9226 18.4956 10.964 18.5998 10.9985 18.7144C11.0538 18.8985 11.0469 19.0722 11.0434 19.2007C11.0434 19.2355 11.0434 19.2841 11.0434 19.3049C11.0607 19.3605 11.0849 19.423 11.1091 19.489C11.1436 19.5828 11.1851 19.687 11.2161 19.8051L11.3232 20.215L11.3543 20.3331C11.3681 20.3817 11.3888 20.4443 11.4165 20.5103C11.4545 20.611 11.4994 20.7221 11.5339 20.8541C11.5615 20.9722 11.5788 21.0869 11.5961 21.1876C11.6064 21.264 11.6168 21.3404 11.6341 21.3995C11.6686 21.5454 11.6721 21.6809 11.6755 21.7885C11.6755 21.8545 11.6824 21.9205 11.6893 21.9553C11.7031 22.0178 11.7273 22.0907 11.748 22.1637C11.7757 22.2575 11.8068 22.3651 11.8344 22.4763C11.8413 22.4937 11.862 22.5319 11.8793 22.5631C11.938 22.6673 12.0209 22.8098 12.0554 22.9939C12.1003 23.2092 12.052 23.4003 12.0209 23.5253C12.014 23.5427 12.0105 23.5635 12.0071 23.5844C12.0175 23.6226 12.0313 23.6677 12.0485 23.7198C12.0762 23.8032 12.1038 23.8935 12.1245 23.9943C12.1556 23.9943 12.1798 23.9977 12.2074 23.9977C15.7373 24.0672 18.9357 22.5875 21.1669 20.1837C17.0257 16.9811 11.938 15.8591 9.7793 15.5083C9.79311 15.5326 9.80347 15.5604 9.81384 15.5847L9.81038 15.5951Z" fill="#004EA2"/>
<path id="Vector_23" d="M24.3067 12.2432C24.324 11.3331 24.2376 10.4439 24.0615 9.58594C23.9889 9.59983 23.913 9.61025 23.8404 9.62415C23.6366 9.66236 23.4536 9.79435 23.2602 9.83256C23.0598 9.87424 22.8699 9.93677 22.6764 9.97845C22.4657 10.0271 22.2516 10.034 22.0513 10.0896C21.8475 10.1417 21.6264 10.1243 21.4296 10.1799C21.2292 10.239 21.0635 10.3953 20.8769 10.4543C20.6697 10.5203 20.4486 10.5377 20.2552 10.6072C20.0549 10.6766 19.8269 10.6697 19.637 10.7426C19.447 10.8191 19.2881 10.9754 19.1085 11.0518C18.9116 11.1386 18.6906 11.1629 18.5075 11.2498C18.3038 11.347 18.1552 11.5311 17.9722 11.6284C17.7822 11.7291 17.5922 11.809 17.423 11.9098C17.2365 12.0209 17.0327 12.0869 16.8635 12.1946C16.6804 12.3127 16.5526 12.4968 16.3903 12.608C16.2072 12.7399 16.0691 12.9102 15.9136 13.0317C15.734 13.1776 15.5199 13.2436 15.3817 13.3721C15.2401 13.5007 15.0881 13.5875 14.9707 13.6848L14.7047 14.1155C14.6495 14.317 14.6495 14.4698 14.5631 14.3447L13.9863 15.2757C16.4041 16.019 19.3019 17.2452 21.8751 19.2633C23.3534 17.3077 24.2514 14.8831 24.3032 12.2398L24.3067 12.2432Z" fill="#F6AB00"/>
</g>
</svg>
