<svg width="20" height="20" viewBox="0 0 20 20" fill="none" xmlns="http://www.w3.org/2000/svg">
<g id="icon_check" clip-path="url(#clip0_93_31759)">
<path id="Vector" d="M10.0018 20C8.61867 20 7.31863 19.7375 6.10165 19.2126C4.88464 18.6877 3.82603 17.9753 2.9258 17.0755C2.02555 16.1757 1.31285 15.1175 0.787713 13.9011C0.262571 12.6846 0 11.3849 0 10.0018C0 8.61867 0.262501 7.31863 0.787502 6.10165C1.3125 4.88464 2.02501 3.82603 2.92501 2.9258C3.82501 2.02555 4.88335 1.31286 6.10002 0.787714C7.31667 0.262572 8.61666 0 10 0C11.1088 0 12.158 0.166667 13.1474 0.500001C14.1369 0.833335 15.0445 1.29825 15.8704 1.89474L14.7288 3.06275C14.0486 2.59446 13.3119 2.23009 12.5185 1.96961C11.7251 1.70915 10.8856 1.57893 10 1.57893C7.66666 1.57893 5.67981 2.3991 4.03946 4.03946C2.3991 5.67981 1.57893 7.66666 1.57893 10C1.57893 12.3333 2.3991 14.3202 4.03946 15.9605C5.67981 17.6009 7.66666 18.4211 10 18.4211C12.3333 18.4211 14.3202 17.6009 15.9605 15.9605C17.6009 14.3202 18.4211 12.3333 18.4211 10C18.4211 9.63023 18.3968 9.26452 18.3482 8.90289C18.2996 8.54128 18.2267 8.1897 18.1296 7.84815L19.4048 6.56275C19.5978 7.10391 19.7453 7.66061 19.8472 8.23284C19.9491 8.80507 20 9.39412 20 10C20 11.3833 19.7375 12.6833 19.2126 13.9C18.6877 15.1167 17.9753 16.175 17.0755 17.075C16.1757 17.975 15.1175 18.6875 13.9011 19.2125C12.6846 19.7375 11.3849 20 10.0018 20ZM8.50607 14.4777L4.39677 10.3684L5.50607 9.25913L8.50607 12.2591L18.8907 1.85832L20 2.96761L8.50607 14.4777Z" fill="#3779DC"/>
</g>
<defs>
<clipPath id="clip0_93_31759">
<rect width="20" height="20" fill="white"/>
</clipPath>
</defs>
</svg>
