<svg width="80" height="15" viewBox="0 0 80 15" fill="none" xmlns="http://www.w3.org/2000/svg">
<path d="M67.4795 12.789C68.2877 12.2269 68.9204 11.6013 69.3777 10.912C69.8456 10.2227 70.1806 9.39555 70.3826 8.43054C70.5953 7.45493 70.7017 6.25133 70.7017 4.81972V2.76776H68.0059V1.81336H70.7017V0H73.3177V1.81336H75.7583V2.76776H73.3177V4.13574C73.3177 5.74761 73.4134 7.06787 73.6048 8.0965C73.8069 9.11453 74.1365 9.96819 74.5938 10.6575C75.0511 11.3362 75.6891 11.9406 76.508 12.4708L75.9497 13.1389C75.1734 12.789 74.4449 12.3012 73.7643 11.6755C73.0837 11.0498 72.5095 10.3446 72.0416 9.55992C71.5418 10.4507 70.9622 11.2142 70.3029 11.8505C69.6436 12.4867 68.8726 13.017 67.9899 13.4411L67.4795 12.789ZM74.7374 6.15589H77.1301V0.222693H79.6823V14.5546H77.6884C77.5182 14.5546 77.38 14.5016 77.2736 14.3955C77.1779 14.2895 77.1301 14.1463 77.1301 13.9661V7.09438H74.7374V6.15589Z" fill="#013723"/>
<path d="M60.8976 7.46013C59.7598 7.46013 58.7708 7.31697 57.9307 7.03065C57.1012 6.74433 56.4632 6.33076 56.0165 5.78993C55.5699 5.2491 55.3466 4.61283 55.3466 3.88113C55.3466 3.14942 55.5699 2.51315 56.0165 1.97233C56.4632 1.4315 57.1012 1.01792 57.9307 0.731605C58.7708 0.445284 59.7598 0.302124 60.8976 0.302124C62.0355 0.302124 63.0192 0.445284 63.8486 0.731605C64.6888 1.01792 65.3321 1.4315 65.7788 1.97233C66.2254 2.51315 66.4487 3.14942 66.4487 3.88113C66.4487 4.61283 66.2254 5.2491 65.7788 5.78993C65.3321 6.33076 64.6888 6.74433 63.8486 7.03065C63.0192 7.31697 62.0355 7.46013 60.8976 7.46013ZM54.6128 9.08261H67.1825V10.037H62.3333V14.5068H60.0203C59.6481 14.5068 59.462 14.3212 59.462 13.9501V10.037H54.6128V9.08261ZM57.9626 3.88113C57.9626 4.71888 58.2125 5.36575 58.7123 5.82174C59.2227 6.27773 59.9512 6.50573 60.8976 6.50573C61.8441 6.50573 62.5672 6.27773 63.067 5.82174C63.5775 5.36575 63.8327 4.71888 63.8327 3.88113C63.8327 3.04338 63.5775 2.3965 63.067 1.94051C62.5566 1.48452 61.8335 1.25652 60.8976 1.25652C59.9618 1.25652 59.2387 1.48452 58.7283 1.94051C58.2178 2.3965 57.9626 3.04338 57.9626 3.88113Z" fill="#013723"/>
<path d="M48.3142 13.1548H41.1201V0.556697H43.6564V5.66274H45.8577V0.556697H48.3142V13.1548ZM45.8577 12.2163V6.60124H43.6564V12.2163H45.8577ZM49.9412 0.222656H52.4935V6.21948H54.2003V7.15797H52.4935V14.5546H50.4995C50.1273 14.5546 49.9412 14.369 49.9412 13.9978V0.222656Z" fill="#013723"/>
<path d="M32.4967 9.55993V8.09651H27.6475V7.1262H40.2172V8.09651H35.3679V9.55993H39.1484V14.5069H29.5138C29.2798 14.5069 29.1097 14.4433 29.0033 14.316C28.897 14.1994 28.8438 14.0085 28.8438 13.7434V9.55993H32.4967ZM28.3812 4.96289H30.2635V1.4157H28.5407V0.461304H39.3239V1.4157H37.6011V4.96289H39.4834V5.90139H28.3812V4.96289ZM36.5324 13.6957V10.3712H31.4598V13.6957H36.5324ZM35.1606 4.96289V1.4157H32.7041V4.96289H35.1606Z" fill="#007247"/>
<path d="M13.2456 7.49207C15.3512 6.20894 16.404 4.36376 16.404 1.95655V0.556762H19.0998V1.44754C19.0998 2.72007 19.355 3.81763 19.8654 4.74022C20.3865 5.6522 21.1841 6.43163 22.2581 7.0785L21.7158 7.81021C20.0781 7.18455 18.7701 6.1241 17.7918 4.62887C17.4515 5.39239 16.9357 6.08168 16.2445 6.69674C15.5639 7.3118 14.7397 7.82611 13.772 8.23969L13.2456 7.49207ZM15.4628 9.00321H25.911V14.5387H23.7735C23.5396 14.5387 23.3747 14.491 23.279 14.3956C23.1833 14.3107 23.1355 14.1517 23.1355 13.9184V9.95761H15.4628V9.00321ZM23.3109 0.143188H25.911V8.19197H23.933C23.6991 8.19197 23.5343 8.14955 23.4385 8.06472C23.3535 7.96927 23.3109 7.80491 23.3109 7.57161V0.143188Z" fill="#007247"/>
<path d="M6.95102 15.0001C5.24954 15.0001 3.92558 14.7403 2.97913 14.2206C2.03268 13.7116 1.55946 13.0011 1.55946 12.0892C1.55946 11.1772 2.03268 10.4667 2.97913 9.95766C3.92558 9.43804 5.24954 9.17823 6.95102 9.17823C8.65251 9.17823 9.97647 9.43804 10.9229 9.95766C11.8694 10.4667 12.3426 11.1772 12.3426 12.0892C12.3426 13.0011 11.8694 13.7116 10.9229 14.2206C9.97647 14.7403 8.65251 15.0001 6.95102 15.0001ZM0.682129 7.15808H5.5473V5.48788H1.76682V0.381836H4.38285V4.51757H12.2469V5.48788H8.41855V7.15808H13.2518V8.11248H0.682129V7.15808ZM4.17548 12.0892C4.17548 13.3935 5.10066 14.0457 6.95102 14.0457C8.80139 14.0457 9.72657 13.3935 9.72657 12.0892C9.72657 11.4317 9.49793 10.9439 9.04066 10.6257C8.58338 10.297 7.88684 10.1326 6.95102 10.1326C6.01521 10.1326 5.31867 10.297 4.86139 10.6257C4.40412 10.9439 4.17548 11.4317 4.17548 12.0892Z" fill="#007247"/>
</svg>
