<svg width="69" height="15" viewBox="0 0 69 15" fill="none" xmlns="http://www.w3.org/2000/svg">
<path d="M66.2258 13.928C65.9058 13.928 65.7458 13.768 65.7458 13.448V8.18401L64.1618 8.20001C63.9911 8.20001 63.8525 8.15201 63.7458 8.05601C63.6498 7.94934 63.6018 7.81068 63.6018 7.64001V6.23201C63.6018 6.06134 63.6498 5.92801 63.7458 5.83201C63.8525 5.72534 63.9911 5.67201 64.1618 5.67201L65.7458 5.70401V2.12001C65.7458 1.80001 65.9005 1.64001 66.2098 1.64001H68.1618C68.4818 1.64001 68.6365 1.80001 68.6258 2.12001L68.2738 13.448C68.2738 13.768 68.1138 13.928 67.7938 13.928H66.2258ZM55.9058 11.576C55.7991 11.4373 55.7618 11.2933 55.7938 11.144C55.8258 10.9947 55.9111 10.872 56.0498 10.776C57.1805 9.97601 58.1085 9.08534 58.8338 8.10401C59.5591 7.12268 60.0338 6.13068 60.2578 5.12801L56.5778 5.25601C56.4285 5.25601 56.3111 5.21334 56.2258 5.12801C56.1405 5.04268 56.0978 4.92534 56.0978 4.77601V3.20801C56.0978 3.05868 56.1405 2.94134 56.2258 2.85601C56.3111 2.77068 56.4285 2.72801 56.5778 2.72801H58.3698L58.5938 0.96801C58.6471 0.61601 58.8551 0.47201 59.2178 0.536009L60.9938 0.87201C61.3565 0.93601 61.5005 1.14934 61.4258 1.51201L61.1698 2.71201H62.5938C62.8285 2.71201 63.0098 2.78134 63.1378 2.92001C63.2765 3.04801 63.3405 3.22934 63.3298 3.46401C63.3085 4.16801 63.1965 4.87201 62.9938 5.57601C62.8018 6.26934 62.5245 6.95201 62.1618 7.62401C62.5458 8.16801 62.9405 8.64268 63.3458 9.04801C63.7618 9.45334 64.1938 9.82668 64.6418 10.168C64.7698 10.264 64.8391 10.376 64.8498 10.504C64.8605 10.6213 64.8231 10.7333 64.7378 10.84L63.6498 12.008C63.5645 12.0933 63.4578 12.1413 63.3298 12.152C63.2018 12.152 63.0845 12.1147 62.9778 12.04C62.5831 11.784 62.1938 11.4533 61.8098 11.048C61.4365 10.6427 61.0951 10.1787 60.7858 9.65601C60.3058 10.2213 59.7831 10.744 59.2178 11.224C58.6631 11.6933 58.0658 12.1093 57.4258 12.472C57.2551 12.568 57.0898 12.616 56.9298 12.616C56.7805 12.6053 56.6471 12.5253 56.5298 12.376L55.9058 11.576Z" fill="#0D8FED"/>
<path d="M43.8472 11.448C43.6979 11.4586 43.5805 11.4213 43.4952 11.336C43.4099 11.24 43.3672 11.1173 43.3672 10.968V9.65596C43.3672 9.50663 43.4099 9.38929 43.4952 9.30396C43.5805 9.21863 43.6979 9.17596 43.8472 9.17596L54.8232 9.14396C54.9725 9.14396 55.0899 9.18662 55.1752 9.27196C55.2605 9.35729 55.3032 9.47463 55.3032 9.62396V10.76C55.3032 10.9093 55.2605 11.0266 55.1752 11.112C55.0899 11.1866 54.9725 11.2293 54.8232 11.24L50.8072 11.32L50.7592 14.2C50.7379 14.52 50.5779 14.68 50.2792 14.68H48.3912C48.0712 14.68 47.9112 14.52 47.9112 14.2L47.8632 11.368L43.8472 11.448ZM45.6392 7.49596C45.2125 7.14396 44.8872 6.73329 44.6632 6.26396C44.4392 5.79463 44.3272 5.28796 44.3272 4.74396C44.3272 4.19996 44.4392 3.68263 44.6632 3.19196C44.8872 2.69063 45.2125 2.25329 45.6392 1.87996C46.0659 1.49596 46.5885 1.19196 47.2072 0.967958C47.8259 0.743958 48.5352 0.631958 49.3352 0.631958C50.1245 0.631958 50.8285 0.743958 51.4472 0.967958C52.0765 1.19196 52.6045 1.49596 53.0312 1.87996C53.4579 2.25329 53.7832 2.69063 54.0072 3.19196C54.2312 3.68263 54.3432 4.19996 54.3432 4.74396C54.3432 5.28796 54.2312 5.79463 54.0072 6.26396C53.7832 6.73329 53.4579 7.14396 53.0312 7.49596C52.6045 7.83729 52.0765 8.10929 51.4472 8.31196C50.8285 8.50396 50.1245 8.59996 49.3352 8.59996C48.5352 8.59996 47.8259 8.50396 47.2072 8.31196C46.5885 8.10929 46.0659 7.83729 45.6392 7.49596ZM47.3832 5.52796C47.5005 5.73063 47.6659 5.90663 47.8792 6.05596C48.0925 6.19463 48.3432 6.30663 48.6312 6.39196C48.9192 6.46663 49.2339 6.50396 49.5752 6.50396C49.9059 6.50396 50.2152 6.46663 50.5032 6.39196C50.8019 6.30663 51.0525 6.19463 51.2552 6.05596C51.4685 5.90663 51.6339 5.73063 51.7512 5.52796C51.8792 5.31463 51.9432 5.07996 51.9432 4.82396C51.9432 4.56796 51.8792 4.33863 51.7512 4.13596C51.6339 3.92263 51.4685 3.74663 51.2552 3.60796C51.0525 3.45863 50.8019 3.34663 50.5032 3.27196C50.2152 3.18662 49.9059 3.14396 49.5752 3.14396C48.8712 3.14396 48.3005 3.29862 47.8632 3.60796C47.4259 3.90663 47.2072 4.31196 47.2072 4.82396C47.2072 5.07996 47.2659 5.31463 47.3832 5.52796Z" fill="#0D8FED"/>
<path d="M39.0089 13.928C38.6889 13.928 38.5289 13.768 38.5289 13.448V2.12002C38.5289 1.80001 38.6835 1.64001 38.9929 1.64001H40.9449C41.2649 1.64001 41.4195 1.80001 41.4089 2.12002L41.2969 5.76801L42.6249 5.75202C42.7955 5.75202 42.9289 5.80535 43.0249 5.91201C43.1315 6.00802 43.1849 6.14135 43.1849 6.31202V7.62401C43.1849 7.79468 43.1315 7.93335 43.0249 8.04002C42.9289 8.13601 42.7955 8.18402 42.6249 8.18402L41.2169 8.21601L41.0569 13.448C41.0569 13.768 40.8969 13.928 40.5769 13.928H39.0089ZM30.7049 12.2C30.3422 12.2 30.0915 12.1307 29.9529 11.992C29.8249 11.8533 29.7555 11.6027 29.7449 11.24L29.5049 2.32801C29.4835 2.00801 29.6382 1.84801 29.9689 1.84801H31.7289C31.8889 1.84801 32.0009 1.89068 32.0649 1.97602C32.1395 2.05068 32.1822 2.16801 32.1929 2.32801L32.2249 4.80801L34.5769 4.79202V2.29601C34.5875 1.97601 34.7422 1.81601 35.0409 1.81601H36.7849C37.1049 1.81601 37.2595 1.97601 37.2489 2.29601L37.1369 11.176C37.1369 11.5387 37.0675 11.7893 36.9289 11.928C36.8009 12.056 36.5555 12.1253 36.1929 12.136L30.7049 12.2ZM32.3049 9.67202H34.5769V7.24002L32.2729 7.27201L32.3049 9.67202Z" fill="#0D8FED"/>
<path d="M16.5546 14.68C16.2346 14.68 16.0746 14.52 16.0746 14.2L16.0266 11.416L13.9946 11.448C13.8453 11.4586 13.728 11.4213 13.6426 11.336C13.5573 11.24 13.5146 11.1173 13.5146 10.968V9.65596C13.5146 9.50663 13.5573 9.38929 13.6426 9.30396C13.728 9.21863 13.8453 9.17596 13.9946 9.17596L24.9706 9.14396C25.12 9.14396 25.2373 9.18662 25.3226 9.27196C25.408 9.35729 25.4506 9.47463 25.4506 9.62396V10.76C25.4506 10.9093 25.408 11.0266 25.3226 11.112C25.2373 11.1866 25.12 11.2293 24.9706 11.24L22.9706 11.288L22.9226 14.2C22.9013 14.52 22.7413 14.68 22.4426 14.68H20.8746C20.5546 14.68 20.3946 14.52 20.3946 14.2L20.3466 11.336L18.6507 11.368L18.6026 14.2C18.5813 14.52 18.4213 14.68 18.1227 14.68H16.5546ZM15.7866 7.49596C15.36 7.14396 15.0346 6.73329 14.8106 6.26396C14.5866 5.79463 14.4746 5.28796 14.4746 4.74396C14.4746 4.19996 14.5866 3.68263 14.8106 3.19196C15.0346 2.69063 15.36 2.25329 15.7866 1.87996C16.2133 1.49596 16.736 1.19196 17.3546 0.967958C17.9733 0.743958 18.6826 0.631958 19.4826 0.631958C20.272 0.631958 20.976 0.743958 21.5947 0.967958C22.224 1.19196 22.752 1.49596 23.1786 1.87996C23.6053 2.25329 23.9306 2.69063 24.1546 3.19196C24.3786 3.68263 24.4907 4.19996 24.4907 4.74396C24.4907 5.28796 24.3786 5.79463 24.1546 6.26396C23.9306 6.73329 23.6053 7.14396 23.1786 7.49596C22.752 7.83729 22.224 8.10929 21.5947 8.31196C20.976 8.50396 20.272 8.59996 19.4826 8.59996C18.6826 8.59996 17.9733 8.50396 17.3546 8.31196C16.736 8.10929 16.2133 7.83729 15.7866 7.49596ZM17.5306 5.52796C17.648 5.73063 17.8133 5.90663 18.0266 6.05596C18.24 6.19463 18.4906 6.30663 18.7786 6.39196C19.0666 6.46663 19.3813 6.50396 19.7226 6.50396C20.0533 6.50396 20.3627 6.46663 20.6507 6.39196C20.9493 6.30663 21.2 6.19463 21.4026 6.05596C21.616 5.90663 21.7813 5.73063 21.8986 5.52796C22.0266 5.31463 22.0906 5.07996 22.0906 4.82396C22.0906 4.56796 22.0266 4.33863 21.8986 4.13596C21.7813 3.92263 21.616 3.74663 21.4026 3.60796C21.2 3.45863 20.9493 3.34663 20.6507 3.27196C20.3627 3.18662 20.0533 3.14396 19.7226 3.14396C19.0186 3.14396 18.448 3.29862 18.0106 3.60796C17.5733 3.90663 17.3546 4.31196 17.3546 4.82396C17.3546 5.07996 17.4133 5.31463 17.5306 5.52796Z" fill="#0D8FED"/>
<path d="M1.42385 11.448C1.27451 11.4586 1.15718 11.4213 1.07185 11.336C0.986514 11.24 0.943848 11.1173 0.943848 10.968V9.65596C0.943848 9.50663 0.986514 9.38929 1.07185 9.30396C1.15718 9.21863 1.27451 9.17596 1.42385 9.17596L12.3998 9.14396C12.5492 9.14396 12.6665 9.18662 12.7518 9.27196C12.8372 9.35729 12.8798 9.47463 12.8798 9.62396V10.76C12.8798 10.9093 12.8372 11.0266 12.7518 11.112C12.6665 11.1866 12.5492 11.2293 12.3998 11.24L8.38385 11.32L8.33585 14.2C8.31451 14.52 8.15451 14.68 7.85585 14.68H5.96785C5.64785 14.68 5.48785 14.52 5.48785 14.2L5.43985 11.368L1.42385 11.448ZM3.21585 7.49596C2.78918 7.14396 2.46385 6.73329 2.23985 6.26396C2.01585 5.79463 1.90385 5.28796 1.90385 4.74396C1.90385 4.19996 2.01585 3.68263 2.23985 3.19196C2.46385 2.69063 2.78918 2.25329 3.21585 1.87996C3.64251 1.49596 4.16518 1.19196 4.78385 0.967958C5.40251 0.743958 6.11185 0.631958 6.91185 0.631958C7.70118 0.631958 8.40518 0.743958 9.02385 0.967958C9.65318 1.19196 10.1812 1.49596 10.6078 1.87996C11.0345 2.25329 11.3598 2.69063 11.5838 3.19196C11.8078 3.68263 11.9198 4.19996 11.9198 4.74396C11.9198 5.28796 11.8078 5.79463 11.5838 6.26396C11.3598 6.73329 11.0345 7.14396 10.6078 7.49596C10.1812 7.83729 9.65318 8.10929 9.02385 8.31196C8.40518 8.50396 7.70118 8.59996 6.91185 8.59996C6.11185 8.59996 5.40251 8.50396 4.78385 8.31196C4.16518 8.10929 3.64251 7.83729 3.21585 7.49596ZM4.95985 5.52796C5.07718 5.73063 5.24251 5.90663 5.45585 6.05596C5.66918 6.19463 5.91985 6.30663 6.20785 6.39196C6.49585 6.46663 6.81051 6.50396 7.15185 6.50396C7.48251 6.50396 7.79185 6.46663 8.07985 6.39196C8.37851 6.30663 8.62918 6.19463 8.83185 6.05596C9.04518 5.90663 9.21052 5.73063 9.32785 5.52796C9.45585 5.31463 9.51985 5.07996 9.51985 4.82396C9.51985 4.56796 9.45585 4.33863 9.32785 4.13596C9.21052 3.92263 9.04518 3.74663 8.83185 3.60796C8.62918 3.45863 8.37851 3.34663 8.07985 3.27196C7.79185 3.18662 7.48251 3.14396 7.15185 3.14396C6.44785 3.14396 5.87718 3.29862 5.43985 3.60796C5.00251 3.90663 4.78385 4.31196 4.78385 4.82396C4.78385 5.07996 4.84251 5.31463 4.95985 5.52796Z" fill="#0D8FED"/>
</svg>
