<svg width="145" height="18" viewBox="0 0 145 18" fill="none" xmlns="http://www.w3.org/2000/svg">
<rect width="7.90242" height="16.0214" rx="3.95121" transform="matrix(0.860029 -0.510245 0.489825 0.871821 0.682129 4.03235)" fill="#366AEE" fill-opacity="0.5"/>
<rect width="7.95675" height="15.9135" rx="3.97838" transform="matrix(0.697415 0.716667 -0.697415 0.716667 15.7041 0.671753)" fill="#366AEE" fill-opacity="0.5"/>
<path d="M138.337 5.925V6.195C138.337 6.545 138.437 6.935 138.637 7.365C138.847 7.795 139.097 8.225 139.387 8.655C139.677 9.075 139.987 9.475 140.317 9.855C140.647 10.225 140.932 10.525 141.172 10.755C141.312 10.895 141.362 11.025 141.322 11.145C141.282 11.265 141.132 11.46 140.872 11.73C140.722 11.88 140.602 11.995 140.512 12.075C140.422 12.145 140.342 12.19 140.272 12.21C140.212 12.22 140.152 12.21 140.092 12.18C140.032 12.14 139.967 12.09 139.897 12.03C139.687 11.84 139.462 11.625 139.222 11.385C138.992 11.135 138.762 10.875 138.532 10.605C138.312 10.325 138.097 10.04 137.887 9.75C137.687 9.45 137.512 9.16 137.362 8.88C137.032 9.52 136.617 10.12 136.117 10.68C135.627 11.24 135.112 11.745 134.572 12.195C134.422 12.325 134.287 12.365 134.167 12.315C134.057 12.255 133.877 12.085 133.627 11.805C133.427 11.575 133.282 11.395 133.192 11.265C133.102 11.135 133.117 11.01 133.237 10.89C133.567 10.57 133.907 10.225 134.257 9.855C134.617 9.485 134.942 9.1 135.232 8.7C135.522 8.3 135.757 7.89 135.937 7.47C136.127 7.04 136.222 6.615 136.222 6.195V5.925H133.522V4.17H136.222V2.37H138.277V4.17H140.767C140.937 4.17 141.047 4.245 141.097 4.395C141.147 4.545 141.172 4.76 141.172 5.04C141.172 5.33 141.147 5.55 141.097 5.7C141.047 5.85 140.937 5.925 140.767 5.925H138.337ZM144.967 14.64C144.967 14.81 144.877 14.925 144.697 14.985C144.517 15.045 144.257 15.075 143.917 15.075C143.597 15.075 143.347 15.045 143.167 14.985C142.987 14.935 142.897 14.825 142.897 14.655V8.685H140.542V6.93H142.897V2.25H144.967V14.64Z" fill="#333333"/>
<path d="M130.481 5.40001C130.481 5.95001 130.366 6.44501 130.136 6.88501C129.916 7.31501 129.611 7.68001 129.221 7.98001C128.841 8.28001 128.396 8.51001 127.886 8.67001C127.386 8.83001 126.861 8.91001 126.311 8.91001C125.751 8.91001 125.221 8.83001 124.721 8.67001C124.221 8.51001 123.776 8.28001 123.386 7.98001C123.006 7.68001 122.701 7.31501 122.471 6.88501C122.251 6.44501 122.141 5.95001 122.141 5.40001C122.141 4.85001 122.251 4.36001 122.471 3.93001C122.701 3.49001 123.006 3.12001 123.386 2.82001C123.776 2.52001 124.221 2.29001 124.721 2.13001C125.221 1.97001 125.751 1.89001 126.311 1.89001C126.861 1.89001 127.386 1.97001 127.886 2.13001C128.396 2.29001 128.841 2.52001 129.221 2.82001C129.611 3.12001 129.916 3.49001 130.136 3.93001C130.366 4.36001 130.481 4.85001 130.481 5.40001ZM132.356 9.85501C132.556 9.85501 132.681 9.93001 132.731 10.08C132.791 10.23 132.821 10.45 132.821 10.74C132.821 11.03 132.791 11.25 132.731 11.4C132.681 11.54 132.556 11.61 132.356 11.61H127.346V14.97C127.346 15.14 127.256 15.255 127.076 15.315C126.896 15.375 126.636 15.405 126.296 15.405C125.976 15.405 125.726 15.375 125.546 15.315C125.366 15.265 125.276 15.155 125.276 14.985V11.61H119.936V9.85501H132.356ZM128.411 5.40001C128.411 5.12001 128.356 4.87001 128.246 4.65002C128.136 4.43002 127.986 4.24501 127.796 4.09501C127.606 3.93501 127.381 3.81501 127.121 3.73501C126.871 3.65501 126.601 3.61501 126.311 3.61501C126.021 3.61501 125.746 3.65501 125.486 3.73501C125.236 3.81501 125.016 3.93501 124.826 4.09501C124.636 4.24501 124.486 4.43002 124.376 4.65002C124.266 4.87001 124.211 5.12001 124.211 5.40001C124.211 5.68001 124.266 5.93002 124.376 6.15001C124.486 6.37001 124.636 6.56001 124.826 6.72001C125.016 6.87001 125.236 6.98501 125.486 7.06501C125.746 7.14501 126.021 7.18501 126.311 7.18501C126.601 7.18501 126.871 7.14501 127.121 7.06501C127.381 6.98501 127.606 6.87001 127.796 6.72001C127.986 6.56001 128.136 6.37001 128.246 6.15001C128.356 5.93002 128.411 5.68001 128.411 5.40001Z" fill="#333333"/>
<path d="M111.166 3.21H113.236V10.83C113.236 11.18 113.151 11.46 112.981 11.67C112.811 11.87 112.546 11.97 112.186 11.97H108.346C108.146 11.97 107.926 11.895 107.686 11.745C107.446 11.595 107.241 11.435 107.071 11.265C106.911 11.095 106.766 10.91 106.636 10.71C106.506 10.5 106.441 10.32 106.441 10.17V3.21H108.511V5.955H111.166V3.21ZM115.306 2.25H117.376V6.48H119.641V8.235H117.376V14.64C117.376 14.81 117.286 14.925 117.106 14.985C116.926 15.045 116.666 15.075 116.326 15.075C116.006 15.075 115.756 15.045 115.576 14.985C115.396 14.935 115.306 14.825 115.306 14.655V2.25ZM111.166 10.215V7.71H108.511V9.87C108.511 10.1 108.621 10.215 108.841 10.215H111.166Z" fill="#333333"/>
<path d="M100.266 4.53002C100.266 4.95002 100.176 5.33002 99.9957 5.67002C99.8157 6.01002 99.5707 6.30502 99.2607 6.55502C98.9607 6.79502 98.6057 6.98002 98.1957 7.11002C97.7957 7.24002 97.3757 7.30502 96.9357 7.30502C96.4957 7.30502 96.0707 7.24002 95.6607 7.11002C95.2607 6.98002 94.9057 6.79502 94.5957 6.55502C94.2957 6.30502 94.0557 6.01002 93.8757 5.67002C93.6957 5.33002 93.6057 4.95002 93.6057 4.53002C93.6057 4.11002 93.6957 3.73002 93.8757 3.39002C94.0557 3.05002 94.2957 2.76002 94.5957 2.52002C94.9057 2.28002 95.2607 2.09502 95.6607 1.96502C96.0707 1.83502 96.4957 1.77002 96.9357 1.77002C97.3757 1.77002 97.7957 1.83502 98.1957 1.96502C98.6057 2.09502 98.9607 2.28002 99.2607 2.52002C99.5707 2.76002 99.8157 3.05002 99.9957 3.39002C100.176 3.73002 100.266 4.11002 100.266 4.53002ZM99.6807 9.93002H102.291V2.10002H104.331V12.27C104.331 12.47 104.231 12.595 104.031 12.645C103.831 12.695 103.591 12.72 103.311 12.72C102.991 12.72 102.741 12.69 102.561 12.63C102.381 12.56 102.291 12.44 102.291 12.27V11.61H99.6807V9.93002ZM96.5757 15.765C96.4057 15.765 96.2207 15.7 96.0207 15.57C95.8207 15.44 95.6407 15.29 95.4807 15.12C95.3307 14.97 95.1957 14.805 95.0757 14.625C94.9557 14.445 94.8957 14.285 94.8957 14.145V12.015H96.9357V13.68C96.9357 13.94 97.0507 14.07 97.2807 14.07H104.106C104.276 14.07 104.381 14.145 104.421 14.295C104.471 14.455 104.496 14.665 104.496 14.925C104.496 15.205 104.471 15.415 104.421 15.555C104.381 15.695 104.276 15.765 104.106 15.765H96.5757ZM92.7207 9.39002V7.78502H101.001C101.201 7.78502 101.326 7.85002 101.376 7.98002C101.436 8.10002 101.466 8.30502 101.466 8.59502C101.466 8.88502 101.436 9.09002 101.376 9.21002C101.326 9.33002 101.201 9.39002 101.001 9.39002H97.5057V10.905C97.5057 11.075 97.4207 11.19 97.2507 11.25C97.0907 11.31 96.8407 11.34 96.5007 11.34C96.1807 11.34 95.9357 11.31 95.7657 11.25C95.5957 11.19 95.5107 11.075 95.5107 10.905V9.39002H92.7207ZM98.3157 4.53002C98.3157 4.21002 98.1957 3.92502 97.9557 3.67502C97.7257 3.41502 97.3857 3.28502 96.9357 3.28502C96.4857 3.28502 96.1407 3.41502 95.9007 3.67502C95.6707 3.92502 95.5557 4.21002 95.5557 4.53002C95.5557 4.69002 95.5857 4.84502 95.6457 4.99502C95.7057 5.14502 95.7907 5.28002 95.9007 5.40002C96.0207 5.52002 96.1657 5.61502 96.3357 5.68502C96.5057 5.75502 96.7057 5.79002 96.9357 5.79002C97.1557 5.79002 97.3507 5.75502 97.5207 5.68502C97.7007 5.61502 97.8457 5.52002 97.9557 5.40002C98.0757 5.28002 98.1657 5.14502 98.2257 4.99502C98.2857 4.84502 98.3157 4.69002 98.3157 4.53002Z" fill="#333333"/>
<path d="M86.1897 11.805C85.9697 11.625 85.7447 11.415 85.5147 11.175C85.2847 10.935 85.0597 10.68 84.8397 10.41C84.6197 10.14 84.4097 9.86 84.2097 9.57C84.0097 9.27 83.8347 8.975 83.6847 8.685C83.5147 8.975 83.3147 9.28 83.0847 9.6C82.8647 9.92 82.6297 10.23 82.3797 10.53C82.1397 10.82 81.8897 11.095 81.6297 11.355C81.3797 11.615 81.1497 11.83 80.9397 12C80.7997 12.12 80.6497 12.135 80.4897 12.045C80.3397 11.955 80.1547 11.795 79.9347 11.565C79.7347 11.365 79.5897 11.195 79.4997 11.055C79.4197 10.915 79.4497 10.775 79.5897 10.635C79.9497 10.305 80.2997 9.955 80.6397 9.585C80.9897 9.215 81.3047 8.82 81.5847 8.4C81.8647 7.97 82.0897 7.52 82.2597 7.05C82.4297 6.57 82.5147 6.06 82.5147 5.52V5.04H79.8297V3.285H87.0447C87.2147 3.285 87.3247 3.36 87.3747 3.51C87.4247 3.66 87.4497 3.875 87.4497 4.155C87.4497 4.445 87.4247 4.665 87.3747 4.815C87.3247 4.965 87.2147 5.04 87.0447 5.04H84.6297V5.49C84.6297 5.97 84.7097 6.44 84.8697 6.9C85.0397 7.36 85.2547 7.8 85.5147 8.22C85.7847 8.64 86.0847 9.035 86.4147 9.405C86.7447 9.775 87.0747 10.115 87.4047 10.425C87.5447 10.565 87.5897 10.71 87.5397 10.86C87.4897 11.01 87.3497 11.2 87.1197 11.43C86.8697 11.67 86.6897 11.825 86.5797 11.895C86.4697 11.955 86.3397 11.925 86.1897 11.805ZM90.8247 14.64C90.8247 14.81 90.7347 14.925 90.5547 14.985C90.3747 15.045 90.1147 15.075 89.7747 15.075C89.4547 15.075 89.2047 15.045 89.0247 14.985C88.8447 14.935 88.7547 14.825 88.7547 14.655V2.25H90.8247V14.64Z" fill="#333333"/>
<path d="M77.7689 9.34498C77.7689 9.54498 77.6689 9.66998 77.4689 9.71998C77.2689 9.76998 77.0289 9.79498 76.7489 9.79498C76.4289 9.79498 76.1789 9.76498 75.9989 9.70498C75.8189 9.63497 75.7289 9.51498 75.7289 9.34498V2.09998H77.7689V9.34498ZM75.5789 12.135H68.6489V10.44H76.8389C77.0989 10.44 77.2939 10.505 77.4239 10.635C77.5539 10.755 77.6189 10.975 77.6189 11.295V15.615C77.6189 15.815 77.5189 15.935 77.3189 15.975C77.1189 16.015 76.8789 16.035 76.5989 16.035C76.2789 16.035 76.0289 16.01 75.8489 15.96C75.6689 15.91 75.5789 15.795 75.5789 15.615V12.135ZM72.7139 9.07498C72.5139 8.90497 72.3039 8.71498 72.0839 8.50498C71.8739 8.28498 71.6589 8.05498 71.4389 7.81498C71.2289 7.57498 71.0239 7.32498 70.8239 7.06498C70.6339 6.80498 70.4689 6.54498 70.3289 6.28498C70.1589 6.56498 69.9689 6.84998 69.7589 7.13998C69.5489 7.41998 69.3289 7.69498 69.0989 7.96498C68.8789 8.23498 68.6489 8.48498 68.4089 8.71498C68.1789 8.94498 67.9539 9.14998 67.7339 9.32998C67.5939 9.44998 67.4439 9.48998 67.2839 9.44998C67.1339 9.40998 66.9389 9.26498 66.6989 9.01498C66.5789 8.89498 66.4789 8.78998 66.3989 8.69998C66.3189 8.60997 66.2639 8.52998 66.2339 8.45998C66.2039 8.37998 66.2039 8.30498 66.2339 8.23498C66.2639 8.16498 66.3239 8.08498 66.4139 7.99498C66.9139 7.54497 67.3639 7.08998 67.7639 6.62998C68.1739 6.15998 68.4939 5.71998 68.7239 5.30998C68.9039 4.97998 69.0239 4.68998 69.0839 4.43998C69.1439 4.17998 69.1739 3.86998 69.1739 3.50998V2.36998H71.3039V3.50998C71.3039 3.73998 71.3289 3.97998 71.3789 4.22998C71.4289 4.47998 71.5089 4.71498 71.6189 4.93498C71.7489 5.18498 71.9089 5.43998 72.0989 5.69998C72.2889 5.95998 72.4889 6.21498 72.6989 6.46498C72.9089 6.71498 73.1189 6.94998 73.3289 7.16998C73.5489 7.38998 73.7489 7.57998 73.9289 7.73998C74.0689 7.87998 74.1239 8.01998 74.0939 8.15998C74.0739 8.29998 73.9439 8.49998 73.7039 8.75998C73.4739 9.00998 73.2889 9.15998 73.1489 9.20998C73.0089 9.25998 72.8639 9.21497 72.7139 9.07498Z" fill="#333333"/>
<path d="M55.9784 15.915C55.8084 15.915 55.6334 15.86 55.4534 15.75C55.2834 15.65 55.1284 15.53 54.9884 15.39C54.8184 15.22 54.6734 15.05 54.5534 14.88C54.4434 14.71 54.3884 14.555 54.3884 14.415V10.05H56.4134V11.355H61.5134V10.05H63.5384V14.79C63.5384 15.14 63.4534 15.415 63.2834 15.615C63.1134 15.815 62.8484 15.915 62.4884 15.915H55.9784ZM52.5884 8.83499V7.19999H61.2734V4.27498C61.2734 4.13498 61.2434 4.04498 61.1834 4.00498C61.1334 3.96498 61.0534 3.94498 60.9434 3.94498H54.4184V2.23499H61.4084C61.6084 2.23499 61.8284 2.30999 62.0684 2.45999C62.3084 2.59999 62.5134 2.75499 62.6834 2.92499C62.8434 3.08499 62.9884 3.26999 63.1184 3.47999C63.2484 3.67999 63.3134 3.85498 63.3134 4.00498V7.19999H65.0084C65.2084 7.19999 65.3334 7.26499 65.3834 7.39499C65.4434 7.52499 65.4734 7.73499 65.4734 8.02499C65.4734 8.31499 65.4434 8.52499 65.3834 8.65499C65.3334 8.77499 65.2084 8.83499 65.0084 8.83499H52.5884ZM56.4134 14.115C56.4134 14.265 56.4834 14.34 56.6234 14.34H61.5134V12.885H56.4134V14.115Z" fill="#333333"/>
<path d="M42.8434 3.74996V4.96496C42.8434 5.19496 42.9534 5.30996 43.1734 5.30996H49.4584C49.6284 5.30996 49.7384 5.37996 49.7884 5.51996C49.8384 5.64996 49.8634 5.85496 49.8634 6.13496C49.8634 6.42496 49.8384 6.63996 49.7884 6.77996C49.7384 6.90996 49.6284 6.97496 49.4584 6.97496H46.3534V8.17496H51.3634C51.5634 8.17496 51.6884 8.23996 51.7384 8.36996C51.7984 8.49996 51.8284 8.70996 51.8284 8.99996C51.8284 9.28996 51.7984 9.49996 51.7384 9.62996C51.6884 9.74996 51.5634 9.80996 51.3634 9.80996H38.9434V8.17496H44.2834V6.97496H42.7084C42.5084 6.97496 42.2884 6.89996 42.0484 6.74996C41.8084 6.59996 41.6034 6.43996 41.4334 6.26996C41.2734 6.09996 41.1284 5.91496 40.9984 5.71496C40.8684 5.50496 40.8034 5.32496 40.8034 5.17496V2.08496H49.3084C49.4784 2.08496 49.5884 2.15496 49.6384 2.29496C49.6884 2.42496 49.7134 2.62996 49.7134 2.90996C49.7134 3.19996 49.6884 3.41496 49.6384 3.55496C49.5884 3.68496 49.4784 3.74996 49.3084 3.74996H42.8434ZM49.2334 13.32C49.2334 13.79 49.1234 14.205 48.9034 14.565C48.6834 14.935 48.3884 15.24 48.0184 15.48C47.6584 15.73 47.2434 15.915 46.7734 16.035C46.3034 16.165 45.8134 16.23 45.3034 16.23C44.7934 16.23 44.3034 16.165 43.8334 16.035C43.3634 15.915 42.9434 15.73 42.5734 15.48C42.2134 15.24 41.9234 14.935 41.7034 14.565C41.4834 14.205 41.3734 13.79 41.3734 13.32C41.3734 12.85 41.4834 12.435 41.7034 12.075C41.9234 11.705 42.2134 11.4 42.5734 11.16C42.9434 10.91 43.3634 10.725 43.8334 10.605C44.3034 10.475 44.7934 10.41 45.3034 10.41C45.8134 10.41 46.3034 10.475 46.7734 10.605C47.2434 10.725 47.6584 10.91 48.0184 11.16C48.3884 11.4 48.6834 11.705 48.9034 12.075C49.1234 12.435 49.2334 12.85 49.2334 13.32ZM47.1934 13.32C47.1934 12.94 47.0184 12.64 46.6684 12.42C46.3184 12.19 45.8684 12.075 45.3184 12.075C44.7484 12.075 44.2884 12.19 43.9384 12.42C43.5884 12.64 43.4134 12.94 43.4134 13.32C43.4134 13.7 43.5884 14 43.9384 14.22C44.2884 14.45 44.7484 14.565 45.3184 14.565C45.8684 14.565 46.3184 14.45 46.6684 14.22C47.0184 14 47.1934 13.7 47.1934 13.32Z" fill="#333333"/>
<path d="M34.3129 2.25H36.3829V6.48H38.6479V8.235H36.3829V14.64C36.3829 14.81 36.2929 14.925 36.1129 14.985C35.9329 15.045 35.6729 15.075 35.3329 15.075C35.0129 15.075 34.7629 15.045 34.5829 14.985C34.4029 14.935 34.3129 14.825 34.3129 14.655V2.25ZM31.0429 7.35C31.0429 6.68 30.8629 6.145 30.5029 5.745C30.1529 5.345 29.7029 5.145 29.1529 5.145C28.6029 5.145 28.1479 5.345 27.7879 5.745C27.4379 6.145 27.2629 6.68 27.2629 7.35C27.2629 8.03 27.4379 8.57 27.7879 8.97C28.1479 9.36 28.6029 9.555 29.1529 9.555C29.7029 9.555 30.1529 9.36 30.5029 8.97C30.8629 8.57 31.0429 8.03 31.0429 7.35ZM25.2529 7.35C25.2529 6.76 25.3479 6.225 25.5379 5.745C25.7279 5.265 25.9929 4.855 26.3329 4.515C26.6829 4.165 27.0979 3.895 27.5779 3.705C28.0579 3.515 28.5829 3.42 29.1529 3.42C29.7229 3.42 30.2479 3.515 30.7279 3.705C31.2079 3.895 31.6179 4.165 31.9579 4.515C32.3079 4.855 32.5779 5.265 32.7679 5.745C32.9679 6.225 33.0679 6.76 33.0679 7.35C33.0679 7.94 32.9679 8.475 32.7679 8.955C32.5779 9.435 32.3079 9.85 31.9579 10.2C31.6179 10.54 31.2079 10.805 30.7279 10.995C30.2479 11.185 29.7229 11.28 29.1529 11.28C28.5829 11.28 28.0579 11.185 27.5779 10.995C27.0979 10.805 26.6829 10.54 26.3329 10.2C25.9929 9.85 25.7279 9.435 25.5379 8.955C25.3479 8.475 25.2529 7.94 25.2529 7.35Z" fill="#333333"/>
</svg>
