<svg width="21" height="20" viewBox="0 0 21 20" fill="none" xmlns="http://www.w3.org/2000/svg">
<g id="Group 777">
<g id="Group 776">
<path id="Vector" d="M8.83544 8.55727H2.16504V1.66504H8.83544V8.55727ZM3.33119 7.35233H7.66928V2.86997H3.33119V7.35233Z" fill="white"/>
<path id="Vector_2" d="M6.15443 4.2098H4.98828V6.01238H6.15443V4.2098Z" fill="white"/>
<path id="Vector_3" d="M6.15443 13.8094H4.98828V15.612H6.15443V13.8094Z" fill="white"/>
<path id="Vector_4" d="M8.83544 18.3318H2.16504V11.4396H8.83544V18.3318ZM3.33119 17.1269H7.66928V12.6445H3.33119V17.1269Z" fill="white"/>
<path id="Vector_5" d="M18.8306 8.55727H12.1602V1.66504H18.8306V8.55727ZM13.3263 7.35233H17.6644V2.86997H13.3263V7.35233Z" fill="white"/>
<path id="Vector_6" d="M16.06 4.50765H15.0664V5.71259H16.06V4.50765Z" fill="white"/>
<path id="Vector_7" d="M15.85 14.1056H14.8564V15.3106H15.85V14.1056Z" fill="white"/>
<path id="Vector_8" d="M18.8303 18.3312H10.9844V12.3836H14.0677V13.5886H12.1505V17.1263H17.6641V16.4852H18.8303V18.3312Z" fill="white"/>
<path id="Vector_9" d="M18.8315 15.3576H17.6653V10.7451H14.8945V9.5402H18.8315V15.3576Z" fill="white"/>
<path id="Vector_10" d="M12.7454 9.5402H10.2451V10.7451H12.7454V9.5402Z" fill="white"/>
<path id="Vector_11" d="M5.70011 9.30257H2.37891V10.5075H5.70011V9.30257Z" fill="white"/>
<path id="Vector_12" d="M11.1388 2.26644H9.97266V4.52208H11.1388V2.26644Z" fill="white"/>
</g>
</g>
</svg>
