<svg width="24" height="25" viewBox="0 0 24 25" fill="none" xmlns="http://www.w3.org/2000/svg">
<path d="M12 22.5C17.5228 22.5 22 18.0228 22 12.5C22 6.97715 17.5228 2.5 12 2.5C6.47715 2.5 2 6.97715 2 12.5C2 18.0228 6.47715 22.5 12 22.5Z" fill="white" fill-opacity="0.85098" stroke="#3B4465" stroke-width="1.5" stroke-linecap="round" stroke-linejoin="round"/>
<path d="M12 15.9607C14.5673 15.9607 16.6485 13.8795 16.6485 11.3122C16.6485 8.7449 14.5673 6.6637 12 6.6637C9.43276 6.6637 7.35156 8.7449 7.35156 11.3122C7.35156 13.8795 9.43276 15.9607 12 15.9607Z" fill="white" fill-opacity="0.85098" stroke="#3B4465" stroke-width="1.5" stroke-linecap="round" stroke-linejoin="round"/>
<path d="M5.57617 19.8C6.80951 17.5151 9.22769 15.9606 12.0065 15.9606C14.7853 15.9606 17.1368 17.4727 18.3853 19.7091" fill="#63E898" fill-opacity="0.85098"/>
<path d="M5.57617 19.8C6.80951 17.5151 9.22769 15.9606 12.0065 15.9606C14.7853 15.9606 17.1368 17.4727 18.3853 19.7091" stroke="#3B4465" stroke-width="1.5" stroke-linecap="round" stroke-linejoin="round"/>
</svg>
