<svg width="24" height="25" viewBox="0 0 24 25" fill="none" xmlns="http://www.w3.org/2000/svg">
<path d="M20.1429 7.6123H3.80838C3.03077 7.6123 2.40039 8.27359 2.40039 9.08933V21.0218C2.40039 21.8375 3.03077 22.4988 3.80838 22.4988H20.1429C20.9205 22.4988 21.5508 21.8375 21.5508 21.0218V9.08933C21.5508 8.27359 20.9205 7.6123 20.1429 7.6123Z" fill="white" stroke="#3B4465" stroke-width="1.5" stroke-linecap="round" stroke-linejoin="round"/>
<path d="M22 7.64426L20.6537 3.18426C20.5307 2.77683 20.1702 2.5 19.7628 2.5H4.23716C3.82976 2.5 3.46929 2.77683 3.34634 3.18426L2 7.64426" fill="white"/>
<path d="M22 7.64426L20.6537 3.18426C20.5307 2.77683 20.1702 2.5 19.7628 2.5H4.23716C3.82976 2.5 3.46929 2.77683 3.34634 3.18426L2 7.64426" stroke="#3B4465" stroke-width="1.5" stroke-linecap="round" stroke-linejoin="round"/>
<path d="M2 7.64433H7.00004V8.52027C7.00004 9.96766 5.87975 11.1429 4.50002 11.1429C3.12029 11.1429 2 9.96766 2 8.52027V7.64433Z" fill="#FFD473" stroke="#3B4465" stroke-width="1.5" stroke-linecap="round" stroke-linejoin="round"/>
<path d="M7.08807 7.64453H11.91C11.9592 7.64453 11.9991 7.68639 11.9991 7.73795V8.52047C11.9991 9.96785 10.8788 11.1431 9.49904 11.1431C8.11932 11.1431 6.99902 9.96785 6.99902 8.52047V7.73795C6.99902 7.68639 7.03892 7.64453 7.08807 7.64453Z" fill="white" stroke="#3B4465" stroke-width="1.5" stroke-linecap="round" stroke-linejoin="round"/>
<path d="M12.089 7.64453H16.911C16.9601 7.64453 17 7.68639 17 7.73795V8.52047C17 9.96785 15.8798 11.1431 14.5 11.1431C13.1203 11.1431 12 9.96785 12 8.52047V7.73795C12 7.68639 12.0399 7.64453 12.089 7.64453Z" fill="#FFD473" stroke="#3B4465" stroke-width="1.5" stroke-linecap="round" stroke-linejoin="round"/>
<path d="M17.0881 7.64453H21.91C21.9592 7.64453 21.9991 7.68639 21.9991 7.73795V8.52047C21.9991 9.96785 20.8788 11.1431 19.499 11.1431C18.1193 11.1431 16.999 9.96785 16.999 8.52047V7.73795C16.999 7.68639 17.0389 7.64453 17.0881 7.64453Z" fill="white" stroke="#3B4465" stroke-width="1.5" stroke-linecap="round" stroke-linejoin="round"/>
<path d="M10.1964 14.9248H5.63574V22.5H10.1964V14.9248Z" fill="#FFD473" stroke="#3B4465" stroke-width="1.5" stroke-linecap="round" stroke-linejoin="round"/>
</svg>
