<svg width="24" height="25" viewBox="0 0 24 25" fill="none" xmlns="http://www.w3.org/2000/svg">
<path d="M18.1641 18.4216V10.3001C18.1641 6.54593 15.1826 3.5 11.5063 3.5C7.83008 3.5 4.84863 6.54305 4.84863 10.3001V18.4216C4.84863 18.4216 18.0758 18.5137 18.1641 18.4216Z" fill="white" stroke="#3B4465" stroke-width="1.5" stroke-linecap="round" stroke-linejoin="round"/>
<path d="M20.1514 22.5H2.855C2.26269 22.5 1.84979 21.9041 2.05197 21.3398L2.42216 20.312C2.83221 19.1748 3.90007 18.4205 5.09606 18.4205H17.9046C19.1006 18.4205 20.1685 19.1748 20.5785 20.312L20.9487 21.3398C21.1509 21.9041 20.7408 22.5 20.1457 22.5H20.1514Z" fill="#FDA69A" stroke="#3B4465" stroke-width="1.5" stroke-linecap="round" stroke-linejoin="round"/>
<path d="M15.2334 10.0122C15.2334 8.16106 13.7583 6.65537 11.9473 6.65537" stroke="#F9665C" stroke-width="1.5" stroke-linecap="round" stroke-linejoin="round"/>
</svg>
