<svg width="54" height="54" viewBox="0 0 54 54" fill="none" xmlns="http://www.w3.org/2000/svg">
<path d="M53.4263 54H0.573733C0.25576 54 0 53.7442 0 53.4263V0.573733C0 0.25576 0.25576 0 0.573733 0H53.4194C53.7373 0 53.9931 0.25576 53.9931 0.573733V53.4194C53.9931 53.7373 53.7373 53.9931 53.4194 53.9931L53.4263 54ZM1.15438 52.8525H52.8525V1.14747H1.14747V52.8456L1.15438 52.8525Z" fill="#0044CC"/>
<g opacity="0.2">
<path fill-rule="evenodd" clip-rule="evenodd" d="M21.1175 15.622C21.1175 12.3801 23.7443 9.76025 26.9793 9.76025C30.2143 9.76025 32.841 12.3801 32.841 15.622V16.5068C33.5668 16.7142 34.0991 17.357 34.0991 18.1036C34.0991 19.0229 33.3042 19.7695 32.3226 19.7695H32.2742C31.3341 21.7464 29.3157 23.1013 26.9862 23.1013C24.6567 23.1013 22.6383 21.7464 21.6982 19.7695H21.6498C20.6682 19.7695 19.8733 19.0229 19.8733 18.1036C19.8733 17.3432 20.3986 16.7142 21.1314 16.5068V15.622H21.1175Z" fill="#0055FF"/>
</g>
<path d="M32.8341 16.5068H32.2604V16.9423L32.6751 17.0598L32.8341 16.5068ZM32.2673 19.7695L32.2811 19.1957L31.9079 19.1819L31.7489 19.5137L32.2673 19.7695ZM21.6844 19.7695L22.2028 19.5137L22.0438 19.1819L21.6705 19.1957L21.6844 19.7695ZM21.1175 16.5068L21.2765 17.0598L21.6913 16.9423V16.5068H21.1175ZM26.9793 9.18652C23.4263 9.18652 20.5438 12.069 20.5438 15.622H21.6913C21.6913 12.705 24.0553 10.334 26.9793 10.334V9.18652ZM33.4148 15.622C33.4148 12.069 30.5323 9.18652 26.9793 9.18652V10.334C29.8963 10.334 32.2673 12.698 32.2673 15.622H33.4148ZM33.4148 16.5068V15.622H32.2673V16.5068H33.4148ZM34.6728 18.1036C34.6728 17.0667 33.947 16.2303 33 15.9538L32.682 17.0598C33.1936 17.2119 33.5185 17.6335 33.5185 18.1036H34.6659H34.6728ZM32.3226 20.3432C33.5876 20.3432 34.6728 19.3755 34.6728 18.1036H33.5254C33.5254 18.6635 33.0208 19.1957 32.3226 19.1957V20.3432ZM32.2604 20.3432H32.3226V19.1957H32.288L32.2604 20.3432ZM26.9862 23.675C29.5507 23.675 31.7627 22.1819 32.7926 20.0114L31.7558 19.5206C30.9055 21.304 29.0876 22.5275 26.9862 22.5275V23.675ZM21.1797 20.0114C22.2166 22.1819 24.4286 23.675 26.9862 23.675V22.5275C24.8848 22.5275 23.0668 21.2971 22.2166 19.5206L21.1797 20.0114ZM21.6844 19.1957H21.6498V20.3432H21.712L21.6844 19.1957ZM21.6498 19.1957C20.9516 19.1957 20.447 18.6704 20.447 18.1036H19.2996C19.2996 19.3755 20.3917 20.3432 21.6567 20.3432V19.1957H21.6498ZM20.447 18.1036C20.447 17.6335 20.7788 17.205 21.2903 17.0598L20.9724 15.9538C20.0254 16.2303 19.2996 17.0667 19.2996 18.1036H20.447ZM20.5507 15.622V16.5068H21.6982V15.622H20.5507Z" fill="#0044CC"/>
<g opacity="0.2">
<path d="M12.5185 32.4884L12.4839 32.7096L12.0623 44.8064H41.8825L41.4609 32.7235L41.4401 32.599C40.5415 27.1175 35.0047 23.7096 29.7097 25.3755C27.9263 25.9285 26.0185 25.9285 24.242 25.3617C18.9816 23.7096 13.4586 27.0622 12.5185 32.4953V32.4884Z" fill="#0055FF"/>
</g>
<path d="M41.8824 45.3803H12.0621C11.9031 45.3803 11.758 45.3181 11.6474 45.2075C11.5368 45.0969 11.4815 44.9448 11.4884 44.7858L11.9515 32.3987C12.4285 29.6476 14.0667 27.2351 16.4515 25.7835C18.8432 24.325 21.7464 23.9725 24.4146 24.8158C26.0874 25.3411 27.857 25.348 29.5437 24.8227C32.2257 23.9794 35.1358 24.3388 37.5275 25.8112C39.9262 27.2835 41.5575 29.7236 42.0137 32.5024L42.0345 32.6268L42.463 44.7858C42.463 44.9448 42.4077 45.09 42.304 45.2075C42.2004 45.325 42.0483 45.3803 41.8893 45.3803H41.8824ZM12.6566 44.2328H41.2879L40.8732 32.689C40.4722 30.242 39.0275 28.0923 36.9192 26.7858C34.8109 25.4863 32.2395 25.1683 29.8824 25.9149C27.9745 26.5093 25.963 26.5024 24.069 25.901C21.7188 25.1614 19.1543 25.4725 17.0529 26.7582C14.9515 28.037 13.5068 30.1591 13.0851 32.5854L13.0506 32.7996L12.6566 44.2328Z" fill="#0044CC"/>
<path fill-rule="evenodd" clip-rule="evenodd" d="M22.8732 32.2258C22.8732 29.9723 24.6981 28.1475 26.9515 28.1475C29.205 28.1475 31.0298 29.9723 31.0298 32.2258V32.8341C31.5345 32.9862 31.9008 33.4217 31.9008 33.947C31.9008 34.5899 31.3478 35.1083 30.6635 35.1083H30.6289C29.9722 36.477 28.569 37.4309 26.9515 37.4309C25.334 37.4309 23.9308 36.477 23.2741 35.1083H23.2395C22.5552 35.1083 22.0022 34.5899 22.0022 33.947C22.0022 33.4217 22.3686 32.9793 22.8732 32.8341V32.2258Z" fill="white"/>
<g opacity="0.8">
<path d="M31.0229 32.8341H30.4492V33.2696L30.864 33.3871L31.0229 32.8341ZM30.6289 35.1083L30.6428 34.5346L30.2695 34.5207L30.1105 34.8525L30.6289 35.1083ZM23.2672 35.1083L23.7856 34.8525L23.6266 34.5207L23.2534 34.5346L23.2672 35.1083ZM22.8732 32.8341L23.0322 33.3871L23.4469 33.2696V32.8341H22.8732ZM26.9515 27.5737C24.387 27.5737 22.2994 29.6544 22.2994 32.2258H23.4469C23.4469 30.2834 25.016 28.7212 26.9446 28.7212V27.5737H26.9515ZM31.6036 32.2258C31.6036 29.6544 29.5229 27.5737 26.9515 27.5737V28.7212C28.887 28.7212 30.4561 30.2834 30.4561 32.2258H31.6036ZM31.6036 32.8341V32.2258H30.4561V32.8341H31.6036ZM32.4745 33.947C32.4745 33.1452 31.9077 32.4885 31.1888 32.2811L30.8709 33.3871C31.1612 33.477 31.3271 33.712 31.3271 33.947H32.4745ZM30.6635 35.682C31.6312 35.682 32.4745 34.9355 32.4745 33.947H31.3271C31.3271 34.2373 31.0644 34.5346 30.6635 34.5346V35.682ZM30.6151 35.682H30.6635V34.5346H30.6428L30.6151 35.682ZM26.9515 38.0046C28.804 38.0046 30.4008 36.9124 31.1474 35.3502L30.1105 34.8594C29.5437 36.0415 28.3409 36.8571 26.9515 36.8571V38.0046ZM22.7557 35.3502C23.5022 36.9124 25.099 38.0046 26.9515 38.0046V36.8571C25.5621 36.8571 24.3524 36.0415 23.7925 34.8594L22.7557 35.3502ZM23.2603 34.5346H23.2395V35.682H23.2879L23.2603 34.5346ZM23.2395 34.5346C22.8386 34.5346 22.5759 34.2373 22.5759 33.947H21.4285C21.4285 34.9355 22.2718 35.682 23.2395 35.682V34.5346ZM22.5759 33.947C22.5759 33.7051 22.7487 33.477 23.0322 33.3871L22.7142 32.2811C21.9884 32.4885 21.4285 33.1452 21.4285 33.947H22.5759ZM22.2994 32.2258V32.8341H23.4469V32.2258H22.2994Z" fill="#FF6B00"/>
</g>
<path d="M18.4701 41.7301L18.4148 42.4628L18.0623 45.3799H36.4424L36.0899 42.4697L36.0761 42.2485C35.8549 38.6541 32.2328 36.2762 28.8388 37.5066L28.659 37.5757C27.5254 37.9905 26.2881 37.9697 25.1682 37.5273C22.0922 36.2831 18.7051 38.4121 18.4701 41.7232V41.7301Z" fill="white"/>
<path d="M36.4424 45.9539H18.0622C17.8963 45.9539 17.7443 45.8848 17.6337 45.7604C17.5231 45.6359 17.4747 45.47 17.4954 45.311L17.8963 41.6889C18.0208 39.9263 18.9539 38.371 20.4539 37.4378C21.947 36.5046 23.7443 36.3456 25.3825 37.0023C26.371 37.3894 27.4701 37.4032 28.4585 37.0438L28.6383 36.9746C30.4355 36.3249 32.371 36.553 33.9678 37.5968C35.5576 38.6405 36.5392 40.3272 36.6498 42.2212L36.6636 42.4355L37.0161 45.311C37.0369 45.4769 36.9885 45.6359 36.8779 45.7604C36.7673 45.8848 36.6152 45.9539 36.4493 45.9539H36.4424ZM18.7051 44.8064H35.7926L35.5023 42.2903C35.4056 40.7557 34.6175 39.394 33.3318 38.5507C32.0461 37.7074 30.477 37.5207 29.0323 38.0461L28.8526 38.1152C27.5945 38.5783 26.212 38.5576 24.9539 38.0668C23.6613 37.5484 22.2443 37.6659 21.0622 38.4055C19.8802 39.1451 19.1406 40.3686 19.0438 41.765L18.9885 42.4977L18.712 44.7995L18.7051 44.8064Z" fill="#0044CC"/>
</svg>
