<svg width="54" height="54" viewBox="0 0 54 54" fill="none" xmlns="http://www.w3.org/2000/svg">
<path d="M27 53.998C26.9136 53.998 26.8209 53.9735 26.7406 53.9306L3.63433 40.6839C3.47379 40.5919 3.375 40.4264 3.375 40.2425V13.7551C3.375 13.5712 3.47379 13.4057 3.63433 13.3138L26.7468 0.0670085C26.9074 -0.0249403 27.0988 -0.0249403 27.2594 0.0670085L50.3657 13.3138C50.5262 13.4057 50.625 13.5712 50.625 13.7551V40.2425C50.625 40.4264 50.5262 40.5919 50.3657 40.6839L27.2594 53.9306C27.1791 53.9735 27.0926 53.998 27 53.998ZM4.40619 39.9483L27 52.9008L49.5938 39.9483V14.0494L27 1.09684L4.40619 14.0494V39.9483Z" fill="#0044CC"/>
<g opacity="0.2">
<path fill-rule="evenodd" clip-rule="evenodd" d="M15.5642 17.77C15.5642 14.987 17.8366 12.7373 20.6338 12.7373C23.431 12.7373 25.7034 14.9931 25.7034 17.77V18.5301C26.3332 18.7078 26.7901 19.2534 26.7901 19.8971C26.7901 20.6878 26.0986 21.3315 25.2526 21.3315C25.2403 21.3315 25.2279 21.3315 25.2094 21.3315C24.3943 23.0294 22.653 24.2003 20.6338 24.2003C18.6146 24.2003 16.8733 23.0294 16.0582 21.3315C16.0459 21.3315 16.0335 21.3315 16.0212 21.3315C15.169 21.3315 14.4836 20.6878 14.4836 19.8971C14.4836 19.2534 14.9406 18.7078 15.5704 18.5301V17.77H15.5642Z" fill="#0055FF"/>
</g>
<path d="M20.6399 24.7032C18.6022 24.7032 16.7065 23.5814 15.7371 21.816C14.7244 21.675 13.9711 20.8658 13.9711 19.8973C13.9711 19.1617 14.3971 18.512 15.0578 18.1809V17.7641C15.0578 14.7053 17.5648 12.2227 20.6399 12.2227C23.715 12.2227 26.222 14.7114 26.222 17.7641V18.1809C26.8827 18.512 27.3088 19.1617 27.3088 19.8973C27.3088 20.8781 26.5369 21.6934 25.5366 21.8221C24.5609 23.5814 22.6714 24.7032 20.6337 24.7032H20.6399ZM20.6399 13.2402C18.1267 13.2402 16.0828 15.2692 16.0828 17.7641V18.9043L15.7124 19.0085C15.2863 19.1311 14.9961 19.4866 14.9961 19.8851C14.9961 20.3938 15.4592 20.8107 16.0211 20.8107H16.3422L16.5213 21.0988C17.2746 22.6619 18.8924 23.6733 20.6337 23.6733C22.375 23.6733 23.9929 22.6619 24.7462 21.0988L24.9006 20.7862L25.2525 20.8107C25.8206 20.8107 26.2775 20.3938 26.2775 19.8851C26.2775 19.4805 25.9873 19.1249 25.5613 19.0085L25.1908 18.9043V17.7641C25.1908 15.2692 23.1469 13.2402 20.6337 13.2402H20.6399Z" fill="#0044CC"/>
<g opacity="0.2">
<path d="M10.0562 30.4834L9.99444 31.3906L9.56219 39.145H32.1437V38.2868L31.7114 31.409L31.6929 31.1332C31.4212 26.7441 26.9691 23.8447 22.8011 25.3527L22.5788 25.4323C21.1895 25.935 19.6643 25.9105 18.2935 25.3649C14.5144 23.8631 10.3588 26.4499 10.0685 30.4773L10.0562 30.4834Z" fill="#0055FF"/>
</g>
<path d="M32.1313 39.6538H9.54981C9.40779 39.6538 9.27192 39.5987 9.1793 39.4945C9.0805 39.3903 9.03111 39.2554 9.03729 39.1144L9.53745 30.4467C9.68565 28.3625 10.7971 26.5297 12.5817 25.4202C14.3662 24.3107 16.5151 24.1206 18.4663 24.893C19.7198 25.3895 21.1153 25.414 22.3873 24.9543L22.6096 24.8746C24.7523 24.1022 27.0679 24.3658 28.9759 25.6102C30.8778 26.8484 32.051 28.8529 32.193 31.1087L32.6438 38.2624V39.1512C32.6438 39.4332 32.4153 39.66 32.1313 39.66V39.6538ZM10.0932 38.6363H31.6188V38.293L31.168 31.17C31.0507 29.2391 30.0442 27.5227 28.414 26.4623C26.7838 25.4018 24.7955 25.1688 22.9616 25.837L22.7393 25.9167C21.2326 26.4623 19.5778 26.4377 18.0835 25.8431C16.4348 25.1934 14.6255 25.3527 13.125 26.2845C11.6246 27.2224 10.686 28.761 10.5625 30.5203L10.5007 31.4275L10.0993 38.6363H10.0932Z" fill="#0044CC"/>
<path fill-rule="evenodd" clip-rule="evenodd" d="M31.5571 17.3777C31.5571 15.0973 33.4219 13.2461 35.719 13.2461C38.016 13.2461 39.8808 15.0973 39.8808 17.3777V18.0029C40.3995 18.15 40.77 18.5975 40.77 19.1247C40.77 19.7745 40.2019 20.3016 39.5103 20.3016H39.4795C38.8126 21.6931 37.38 22.6555 35.7251 22.6555C34.0703 22.6555 32.6377 21.6931 31.9708 20.3016H31.94C31.2422 20.3016 30.6741 19.7745 30.6741 19.1247C30.6741 18.5975 31.0508 18.15 31.5633 18.0029V17.3777H31.5571Z" fill="white"/>
<path d="M35.7189 23.1582C34.027 23.1582 32.4586 22.2326 31.6373 20.7798C30.7852 20.6388 30.1554 19.9461 30.1554 19.1247C30.1554 18.5056 30.5012 17.9539 31.0445 17.6596V17.3777C31.0445 14.8215 33.144 12.7373 35.7189 12.7373C38.2938 12.7373 40.3933 14.8215 40.3933 17.3777V17.6596C40.9366 17.9539 41.2824 18.5056 41.2824 19.1247C41.2824 19.9584 40.6403 20.6572 39.7943 20.7859C38.9731 22.2387 37.4046 23.1582 35.7127 23.1582H35.7189ZM35.7189 13.7549C33.7059 13.7549 32.0696 15.3793 32.0696 17.3777V18.383L31.6991 18.4872C31.3842 18.5791 31.1804 18.8304 31.1804 19.1247C31.1804 19.4925 31.52 19.7928 31.9275 19.7928H32.2487L32.4215 20.0809C33.0267 21.3315 34.3172 22.1406 35.7127 22.1406C37.1083 22.1406 38.405 21.3315 39.0039 20.0809L39.146 19.7928H39.467C39.9116 19.7928 40.2512 19.4925 40.2512 19.1247C40.2512 18.8366 40.0413 18.5791 39.7326 18.4872L39.3621 18.383V17.3777C39.3621 15.3793 37.7257 13.7549 35.7127 13.7549H35.7189Z" fill="#0044CC"/>
<path d="M44.2403 34.1307C43.9686 34.1307 43.7463 33.9223 43.7278 33.6526L43.4129 28.3318C43.3203 26.8668 42.604 25.6408 41.4369 24.8807C40.2637 24.1145 38.8311 23.949 37.5035 24.4271C36.355 24.8439 35.083 24.8562 33.9283 24.4577L32.9959 24.1328C31.2793 23.5382 29.3898 24.4455 28.7846 26.1496C28.692 26.4132 28.3956 26.5542 28.1301 26.4622C27.8646 26.3703 27.7226 26.076 27.8152 25.8124C28.6056 23.5812 31.0817 22.4042 33.3294 23.1705L34.2617 23.4953C35.1941 23.8141 36.2192 23.808 37.1516 23.4708C38.7817 22.8823 40.5478 23.0846 41.9988 24.0286C43.4376 24.9665 44.3268 26.4806 44.4317 28.1786L44.7528 33.5913C44.7714 33.8733 44.5552 34.1124 44.2712 34.1307C44.2588 34.1307 44.2527 34.1307 44.2403 34.1307Z" fill="#0044CC"/>
<path d="M31.6188 33.1133C31.9029 33.1133 32.1313 32.8865 32.1313 32.6045C32.1313 32.3226 31.9029 32.0958 31.6188 32.0958V33.1133ZM19.2506 32.249C19.053 32.4452 19.053 32.77 19.2506 32.9601L22.5171 36.2089C22.7147 36.4051 23.0419 36.4051 23.2457 36.2089C23.4495 36.0066 23.4495 35.6818 23.2457 35.4856L20.3435 32.6045L23.2457 29.7235C23.4495 29.5273 23.4495 29.2024 23.2457 29.0001C23.0481 28.804 22.7208 28.804 22.5171 29.0001L19.2506 32.249ZM31.6188 32.0958H19.6087V33.1133H31.6188V32.0958Z" fill="#0044CC"/>
<g opacity="0.8">
<path d="M35.2126 26.9956C34.9285 26.9956 34.7 27.2224 34.7 27.5044C34.7 27.7864 34.9285 28.0132 35.2126 28.0132V26.9956ZM32.6438 32.0896C32.3598 32.0896 32.1313 32.3164 32.1313 32.5984C32.1313 32.8803 32.3598 33.1071 32.6438 33.1071V32.0896ZM35.2126 28.0132H38.2938V26.9956H35.2126V28.0132ZM38.2938 32.0896H32.65V33.1071H38.2938V32.0896ZM40.3439 30.0544C40.3439 31.1762 39.4238 32.0896 38.2938 32.0896V33.1071C39.9919 33.1071 41.3751 31.7402 41.3751 30.0483H40.3501L40.3439 30.0544ZM38.2938 28.0193C39.43 28.0193 40.3439 28.9388 40.3439 30.0544H41.3689C41.3689 28.3626 39.9919 26.9956 38.2876 26.9956V28.0132L38.2938 28.0193Z" fill="#FF6B00"/>
</g>
</svg>
