<svg width="54" height="54" viewBox="0 0 54 54" fill="none" xmlns="http://www.w3.org/2000/svg">
<path d="M53.4262 54H0.573818C0.255805 54 0 53.7442 0 53.4263V0.573733C0 0.25576 0.255805 0 0.573818 0H53.4262C53.7442 0 54 0.25576 54 0.573733V53.4194C54 53.7373 53.7442 53.9931 53.4262 53.9931V54ZM1.14761 52.8525H52.8524V1.14747H1.14761V52.8456V52.8525Z" fill="#0044CC"/>
<path d="M26.9965 46.5275C26.9135 46.5275 26.8237 46.5068 26.7407 46.4653L20.1938 43.2372C14.6769 40.5137 10.9023 35.0321 10.3354 28.9216V16.6312C10.3354 16.4169 10.4598 16.2165 10.6534 16.1197L26.7407 8.10127C26.8997 8.01833 27.0933 8.01833 27.2523 8.10127L43.3396 16.1197C43.5332 16.2165 43.6576 16.4169 43.6576 16.6312V28.8662C42.4823 35.2395 38.5694 40.5345 32.9143 43.493L27.2592 46.4584C27.1762 46.4999 27.0864 46.5275 26.9896 46.5275H26.9965ZM11.483 16.9907V28.8732C12.0084 34.5345 15.5411 39.6704 20.6985 42.2142L26.9827 45.311L32.3751 42.4838C37.7122 39.6842 41.4108 34.6865 42.51 28.7695V16.9976L26.9896 9.26256L11.4761 16.9976L11.483 16.9907Z" fill="#0044CC"/>
<g opacity="0.1">
<path fill-rule="evenodd" clip-rule="evenodd" d="M38.4864 27.5739C38.4864 27.9403 38.4656 28.3066 38.4172 28.6661C38.0923 27.0693 36.5299 25.8527 34.6633 25.8527C32.7967 25.8527 31.179 27.0901 30.8817 28.7283H30.778C30.4669 27.097 28.8907 25.8527 26.9964 25.8527C25.1022 25.8527 23.5259 27.0901 23.2148 28.7283H23.1111C22.8139 27.097 21.2238 25.8527 19.3295 25.8527C17.4353 25.8527 15.8936 27.0693 15.5756 28.6661C15.5272 28.3066 15.5065 27.9403 15.5065 27.5739C15.5065 21.8642 20.6569 17.2329 26.9964 17.2329C33.336 17.2329 38.4864 21.8642 38.4864 27.5739Z" fill="#0055FF"/>
</g>
<path d="M38.4172 28.6658L37.8572 28.7833C37.9125 29.0598 38.1683 29.2533 38.4517 29.2395C38.7283 29.2257 38.9564 29.0183 38.991 28.7349L38.4172 28.6658ZM30.8817 28.7211V29.2948C31.1582 29.2948 31.4002 29.1012 31.4416 28.8247L30.8817 28.7211ZM30.778 28.7211L30.2042 28.8247C30.2595 29.1012 30.5014 29.2948 30.778 29.2948V28.7211ZM23.2148 28.7211V29.2948C23.4913 29.2948 23.7333 29.1012 23.7748 28.8247L23.2148 28.7211ZM23.1111 28.7211L22.5511 28.8247C22.5995 29.1012 22.8415 29.2948 23.1111 29.2948V28.7211ZM15.5756 28.6658L15.0018 28.7349C15.0363 29.0114 15.2645 29.2257 15.541 29.2395C15.8314 29.2533 16.0802 29.0529 16.1286 28.7833L15.5756 28.6658ZM38.991 28.7349C39.0394 28.3547 39.0601 27.9676 39.0601 27.5736H37.9125C37.9125 27.9192 37.8918 28.2648 37.8572 28.6105L38.9979 28.7349H38.991ZM34.6563 26.4261C36.2879 26.4261 37.5876 27.4837 37.8503 28.7833L38.9772 28.5552C38.5969 26.6473 36.7718 25.2787 34.6563 25.2787V26.4261ZM31.4416 28.8247C31.6974 27.5045 32.9902 26.4261 34.6563 26.4261V25.2787C32.5201 25.2787 30.6673 26.6819 30.3148 28.6243L31.4416 28.8317V28.8247ZM30.778 29.2948H30.8817V28.1473H30.778V29.2948ZM26.9964 26.4192C28.6487 26.4192 29.9622 27.4976 30.2042 28.8178L31.3448 28.6105C30.9784 26.6681 29.1395 25.2648 27.0033 25.2648V26.4123L26.9964 26.4192ZM23.7817 28.8178C24.0375 27.4976 25.3303 26.4192 26.9964 26.4192V25.2717C24.8602 25.2717 23.0074 26.675 22.6548 28.6174L23.7817 28.8247V28.8178ZM23.118 29.2879H23.2217V28.1404H23.118V29.2879ZM19.3364 26.4123C21.0025 26.4123 22.3022 27.4906 22.5511 28.8109L23.678 28.6035C23.3185 26.6611 21.4726 25.2579 19.3364 25.2579V26.4054V26.4123ZM16.1286 28.7694C16.4052 27.4699 17.7049 26.4123 19.3364 26.4123V25.2648C17.2348 25.2648 15.4096 26.6335 15.0156 28.5413L16.1286 28.7694ZM14.9326 27.5598C14.9326 27.9538 14.9534 28.3409 15.0018 28.7211L16.1424 28.5828C16.1079 28.251 16.0871 27.9054 16.0871 27.5598H14.9395H14.9326ZM26.9964 16.645C20.3872 16.645 14.9326 21.4837 14.9326 27.5598H16.0802C16.0802 22.2164 20.9057 17.7925 26.9964 17.7925V16.645ZM39.0601 27.5598C39.0601 21.4837 33.6055 16.645 26.9964 16.645V17.7925C33.087 17.7925 37.9125 22.2164 37.9125 27.5598H39.0601Z" fill="#0044CC"/>
<path d="M26.9965 17.8067C26.6785 17.8067 26.4227 17.5509 26.4227 17.2329V15.5117C26.4227 15.1937 26.6785 14.938 26.9965 14.938C27.3145 14.938 27.5703 15.1937 27.5703 15.5117V17.2329C27.5703 17.5509 27.3145 17.8067 26.9965 17.8067Z" fill="#0044CC"/>
<g opacity="0.8">
<path d="M28.0403 39.0624C27.7223 39.0624 27.4666 38.8066 27.4666 38.4887V33.8228C27.4666 33.5048 27.7223 33.249 28.0403 33.249C28.3584 33.249 28.6142 33.5048 28.6142 33.8228V38.4887C28.6142 38.8066 28.3584 39.0624 28.0403 39.0624Z" fill="#FF6B00"/>
</g>
<g opacity="0.8">
<path d="M28.0404 34.3965H26.0978C25.7798 34.3965 25.524 34.1407 25.524 33.8228C25.524 33.5048 25.7798 33.249 26.0978 33.249H28.0404C28.3584 33.249 28.6142 33.5048 28.6142 33.8228C28.6142 34.1407 28.3584 34.3965 28.0404 34.3965Z" fill="#FF6B00"/>
</g>
<g opacity="0.8">
<path d="M29.9831 39.062H26.0978C25.7798 39.062 25.524 38.8063 25.524 38.4883C25.524 38.1703 25.7798 37.9146 26.0978 37.9146H29.9831C30.3011 37.9146 30.5569 38.1703 30.5569 38.4883C30.5569 38.8063 30.3011 39.062 29.9831 39.062Z" fill="#FF6B00"/>
</g>
<path d="M27.1486 31.8875C27.8626 31.8875 28.4414 31.3088 28.4414 30.5949C28.4414 29.881 27.8626 29.3022 27.1486 29.3022C26.4346 29.3022 25.8558 29.881 25.8558 30.5949C25.8558 31.3088 26.4346 31.8875 27.1486 31.8875Z" fill="white"/>
<g opacity="0.8">
<path d="M27.1487 32.4607C26.1186 32.4607 25.2821 31.6243 25.2821 30.5944C25.2821 29.5644 26.1186 28.728 27.1487 28.728C28.1788 28.728 29.0153 29.5644 29.0153 30.5944C29.0153 31.6243 28.1788 32.4607 27.1487 32.4607ZM27.1487 29.8755C26.7546 29.8755 26.4297 30.2004 26.4297 30.5944C26.4297 30.9884 26.7546 31.3133 27.1487 31.3133C27.5427 31.3133 27.8677 30.9884 27.8677 30.5944C27.8677 30.2004 27.5427 29.8755 27.1487 29.8755Z" fill="#FF6B00"/>
</g>
</svg>
