<svg width="54" height="54" viewBox="0 0 54 54" fill="none" xmlns="http://www.w3.org/2000/svg">
<g opacity="0.2">
<path d="M8.61414 24.4491V19.0297L13.1631 14.2256L13.972 13.4998C14.1794 13.3132 14.4559 13.2095 14.7324 13.2095H33.8893V40.4376C33.8893 42.9744 31.8291 45.0344 29.2919 45.0344H8.60724V24.4491H8.61414Z" fill="#0055FF"/>
</g>
<path d="M13.2044 22.2791V17.3505L17.3386 12.9819L18.0438 12.3528C18.2512 12.1662 18.5277 12.0625 18.8042 12.0625H36.1774V36.4081C36.1774 38.9381 34.1172 41.0049 31.58 41.0049H13.1975V22.2791H13.2044Z" fill="white"/>
<path d="M53.4262 54H0.573818C0.255805 54 0 53.7442 0 53.4263V0.573733C0 0.25576 0.255805 0 0.573818 0H53.4262C53.7442 0 54 0.25576 54 0.573733V53.4194C54 53.7373 53.7442 53.9931 53.4262 53.9931V54ZM1.14761 52.8525H52.8524V1.14747H1.14761V52.8456V52.8525Z" fill="#0044CC"/>
<path d="M19.8066 12.0621V11.4884H19.2328V12.0621H19.8066ZM13.2044 17.3501L12.7896 16.9561L12.6306 17.1151V17.3432H13.2044V17.3501ZM36.1843 12.0621H36.7581C36.7581 11.7372 36.5023 11.4884 36.1843 11.4884V12.0621ZM19.8066 17.6543V18.228C20.1246 18.228 20.3804 17.9722 20.3804 17.6543H19.8066ZM15.9628 17.0805C15.6448 17.0805 15.389 17.3432 15.389 17.6543C15.389 17.9653 15.6448 18.228 15.9628 18.228V17.0805ZM17.7603 13.3685C17.9815 13.1404 17.9677 12.781 17.7396 12.5667C17.5114 12.3455 17.145 12.3593 16.9238 12.5874L17.7603 13.3685ZM13.2044 40.9976H12.6306C12.6306 41.3086 12.8864 41.5713 13.2044 41.5713V40.9976ZM24.6944 41.5713C25.0124 41.5713 25.2682 41.3086 25.2682 40.9976C25.2682 40.6865 25.0124 40.4238 24.6944 40.4238V41.5713ZM35.6105 25.2718C35.6105 25.5967 35.8663 25.8455 36.1843 25.8455C36.5023 25.8455 36.7581 25.5897 36.7581 25.2718H35.6105ZM12.6306 17.3432V22.2718H13.7782V17.3432H12.6306ZM36.1843 11.4814H19.8066V12.6289H36.1843V11.4814ZM19.2259 12.0552V17.6473H20.3735V12.0552H19.2259ZM19.7997 17.0736H15.9559V18.2211H19.7997V17.0736ZM13.6192 17.7303L17.7534 13.3616L16.9169 12.5805L12.7827 16.9492L13.6192 17.7303ZM13.7782 40.9976V22.2718H12.6306V40.9976H13.7782ZM13.2044 41.5713H24.6944V40.4238H13.2044V41.5713ZM35.6105 12.0552V25.2649H36.7581V12.0552H35.6105Z" fill="#0044CC"/>
<g opacity="0.6">
<path d="M25.8491 22.9771H19.5303C19.2123 22.9771 18.9565 22.7213 18.9565 22.4033C18.9565 22.0854 19.2123 21.8296 19.5303 21.8296H25.8491C26.1671 21.8296 26.4229 22.0854 26.4229 22.4033C26.4229 22.7213 26.1671 22.9771 25.8491 22.9771Z" fill="#FF6B00"/>
</g>
<g opacity="0.6">
<path d="M25.8491 29.8687H19.5303C19.2123 29.8687 18.9565 29.6129 18.9565 29.2949C18.9565 28.977 19.2123 28.7212 19.5303 28.7212H25.8491C26.1671 28.7212 26.4229 28.977 26.4229 29.2949C26.4229 29.6129 26.1671 29.8687 25.8491 29.8687Z" fill="#FF6B00"/>
</g>
<g opacity="0.6">
<path d="M28.7181 26.4263H19.5234C19.2054 26.4263 18.9496 26.1705 18.9496 25.8525C18.9496 25.5346 19.2054 25.2788 19.5234 25.2788H28.7181C29.0361 25.2788 29.2919 25.5346 29.2919 25.8525C29.2919 26.1705 29.0361 26.4263 28.7181 26.4263Z" fill="#FF6B00"/>
</g>
<path d="M28.1096 35.5578C28.1096 35.5578 28.0543 35.5578 28.0197 35.5578C27.7086 35.5094 27.4874 35.2191 27.5358 34.9011C27.8193 33.0486 28.6696 31.3758 29.99 30.0624C31.6354 28.4173 33.827 27.5117 36.1567 27.5117C38.4865 27.5117 40.678 28.4172 42.3234 30.0693C42.918 30.6638 43.4226 31.3274 43.8098 32.0463C43.9619 32.3228 43.8582 32.6753 43.5816 32.8274C43.3051 32.9795 42.9525 32.8758 42.8004 32.5993C42.4617 31.9772 42.0262 31.3965 41.5077 30.885C40.0766 29.4541 38.1754 28.6661 36.1498 28.6661C34.1242 28.6661 32.2231 29.4541 30.792 30.885C29.6444 32.0255 28.9046 33.4702 28.6627 35.0808C28.6212 35.3643 28.3723 35.5647 28.0958 35.5647L28.1096 35.5578Z" fill="#0044CC"/>
<path d="M43.8444 33.1242H39.5996C39.2816 33.1242 39.0258 32.8684 39.0258 32.5505C39.0258 32.2325 39.2816 31.9767 39.5996 31.9767H43.2706V28.2993C43.2706 27.9813 43.5264 27.7256 43.8444 27.7256C44.1624 27.7256 44.4182 27.9813 44.4182 28.2993V32.5505C44.4182 32.8684 44.1624 33.1242 43.8444 33.1242Z" fill="#0044CC"/>
<path d="M36.2121 44.5783C33.9791 44.5783 31.746 43.7281 30.0454 42.0276C29.4439 41.4124 28.9462 40.7419 28.559 40.0368C28.4069 39.7603 28.5106 39.4078 28.7872 39.2557C29.0637 39.1036 29.4163 39.2073 29.5684 39.4838C29.9071 40.099 30.3426 40.6797 30.8681 41.2188C33.82 44.1705 38.6248 44.1635 41.5768 41.2188C42.7244 40.0714 43.4641 38.6129 43.7061 37.0092C43.7545 36.6981 44.0449 36.4838 44.3629 36.5322C44.674 36.5806 44.8952 36.8709 44.8468 37.1889C44.5634 39.0345 43.713 40.7073 42.3926 42.0345C40.6919 43.735 38.4589 44.5852 36.2259 44.5852L36.2121 44.5783Z" fill="#0044CC"/>
<path d="M28.5315 44.3571C28.2134 44.3571 27.9576 44.1014 27.9576 43.7834V39.5322C27.9576 39.2143 28.2134 38.9585 28.5315 38.9585H32.7762C33.0942 38.9585 33.35 39.2143 33.35 39.5322C33.35 39.8502 33.0942 40.106 32.7762 40.106H29.1053V43.7834C29.1053 44.1014 28.8495 44.3571 28.5315 44.3571Z" fill="#0044CC"/>
</svg>
