<svg width="54" height="54" viewBox="0 0 54 54" fill="none" xmlns="http://www.w3.org/2000/svg">
<path d="M53.4262 54H0.573818C0.255805 54 0 53.7442 0 53.4263V0.573733C0 0.25576 0.255805 0 0.573818 0H53.4262C53.7442 0 54 0.25576 54 0.573733V53.4194C54 53.7373 53.7442 53.9931 53.4262 53.9931V54ZM1.14761 52.8525H52.8524V1.14747H1.14761V52.8456V52.8525Z" fill="#0044CC"/>
<path d="M26.9967 39.5255C21.2724 39.5255 16.6198 34.8734 16.6198 29.1499V26.6891C16.6198 20.9656 21.2724 16.3135 26.9967 16.3135C32.7209 16.3135 37.3735 20.9656 37.3735 26.6891V29.1499C37.3735 34.8734 32.7209 39.5255 26.9967 39.5255ZM26.9967 17.4679C21.9085 17.4679 17.7674 21.6084 17.7674 26.696V29.1568C17.7674 34.2444 21.9085 38.3849 26.9967 38.3849C32.0849 38.3849 36.2259 34.2444 36.2259 29.1568V26.696C36.2259 21.6084 32.0849 17.4679 26.9967 17.4679Z" fill="#0044CC"/>
<g opacity="0.1">
<path d="M17.8019 22.4034C17.8019 19.8665 19.862 17.8066 22.3992 17.8066C24.9364 17.8066 26.9966 19.8665 26.9966 22.4034V33.8919C26.9966 36.4288 24.9364 38.4887 22.3992 38.4887C19.862 38.4887 17.8019 36.4288 17.8019 33.8919V22.4034Z" fill="#0055FF"/>
</g>
<path d="M26.9967 44.2326C30.1696 44.2326 32.7417 42.1746 32.7417 39.6358C32.7417 37.0971 30.1696 35.0391 26.9967 35.0391C23.8239 35.0391 21.2518 37.0971 21.2518 39.6358C21.2518 42.1746 23.8239 44.2326 26.9967 44.2326Z" fill="white"/>
<g opacity="0.8">
<path d="M14.2623 35.1705H12.8451C10.1904 35.1705 8.03339 33.0138 8.03339 30.3594C8.03339 27.705 10.1904 25.5483 12.8451 25.5483H14.2623C14.5803 25.5483 14.8361 25.8041 14.8361 26.1221C14.8361 26.44 14.5803 26.6958 14.2623 26.6958H12.8451C10.8264 26.6958 9.181 28.341 9.181 30.3594C9.181 32.3778 10.8264 34.023 12.8451 34.023H14.2623C14.5803 34.023 14.8361 34.2788 14.8361 34.5967C14.8361 34.9147 14.5803 35.1705 14.2623 35.1705Z" fill="#FF6B00"/>
</g>
<g opacity="0.8">
<path d="M41.1414 35.1705H39.7241C39.4061 35.1705 39.1503 34.9147 39.1503 34.5967C39.1503 34.2788 39.4061 34.023 39.7241 34.023H41.1414C43.1601 34.023 44.8054 32.3778 44.8054 30.3594C44.8054 28.341 43.1601 26.6958 41.1414 26.6958H39.7241C39.4061 26.6958 39.1503 26.44 39.1503 26.1221C39.1503 25.8041 39.4061 25.5483 39.7241 25.5483H41.1414C43.7961 25.5483 45.953 27.705 45.953 30.3594C45.953 33.0138 43.7961 35.1705 41.1414 35.1705Z" fill="#FF6B00"/>
</g>
<path d="M31.7046 42.2348H30.4395C30.1214 42.2348 29.8657 41.9791 29.8657 41.6611C29.8657 41.3431 30.1214 41.0874 30.4395 41.0874H31.7046C35.8111 41.0874 39.1502 37.7486 39.1502 33.6427V25.9422C39.1502 19.2371 33.6956 13.7901 26.9966 13.7901C20.2976 13.7901 14.843 19.244 14.843 25.9422V33.6427C14.843 33.9606 14.5872 34.2164 14.2692 34.2164C13.9512 34.2164 13.6954 33.9606 13.6954 33.6427V25.9422C13.6954 18.6081 19.6616 12.6357 27.0035 12.6357C34.3455 12.6357 40.3117 18.6012 40.3117 25.9422V33.6427C40.3117 38.3777 36.454 42.2348 31.7184 42.2348H31.7046Z" fill="#0044CC"/>
<path d="M24.3627 39.7256C24.3627 38.6542 25.2338 37.7832 26.3054 37.7832H29.6238V41.6542H26.3054C25.2338 41.6542 24.3627 40.7901 24.3627 39.7256Z" fill="white"/>
<g opacity="0.8">
<path d="M29.6237 37.7905H30.1975C30.1975 37.4795 29.9348 37.2168 29.6237 37.2168V37.7905ZM29.6237 41.6615V42.2352H30.1975V41.6615H29.6237ZM26.3053 38.3643H29.6237V37.2168H26.3053V38.3643ZM29.0499 37.7905V41.6615H30.1975V37.7905H29.0499ZM29.6237 41.0878H26.3053V42.2352H29.6237V41.0878ZM26.3053 41.0878C25.5449 41.0878 24.9365 40.4795 24.9365 39.7329H23.7889C23.7889 41.1085 24.9158 42.2352 26.3053 42.2352V41.0878ZM26.3053 37.2168C24.9158 37.2168 23.7889 38.3435 23.7889 39.7329H24.9365C24.9365 38.9726 25.5449 38.3643 26.3053 38.3643V37.2168Z" fill="#FF6B00"/>
</g>
<path d="M26.9276 33.1036C25.6901 33.1036 24.4734 32.5644 22.987 31.486C22.7312 31.2994 22.669 30.94 22.8557 30.6842C23.0423 30.4215 23.4018 30.3731 23.6576 30.5529C26.257 32.44 27.5706 32.433 30.3497 30.5459C30.6124 30.3731 30.965 30.4353 31.1448 30.698C31.3245 30.9607 31.2554 31.3201 30.9927 31.493C29.4164 32.5644 28.1582 33.1036 26.9207 33.1036H26.9276Z" fill="#0044CC"/>
<path d="M14.352 9.76727C16.2573 9.76727 17.8018 8.47983 17.8018 6.89169C17.8018 5.30355 16.2573 4.01611 14.352 4.01611C12.4468 4.01611 10.9023 5.30355 10.9023 6.89169C10.9023 8.47983 12.4468 9.76727 14.352 9.76727Z" fill="white"/>
</svg>
