<svg width="54" height="54" viewBox="0 0 54 54" fill="none" xmlns="http://www.w3.org/2000/svg">
<path d="M13.2115 22.2786V17.35L17.3457 12.9814L18.0508 12.3523C18.2582 12.1657 18.5348 12.062 18.8113 12.062H36.1845V36.4076C36.1845 38.9376 34.1243 41.0044 31.5871 41.0044H13.2046V22.2786H13.2115Z" fill="white"/>
<g opacity="0.2">
<path d="M8.6141 24.4491V19.0297L13.1631 14.2256L13.9719 13.4998C14.1793 13.3132 14.4559 13.2095 14.7324 13.2095H33.8892V40.4376C33.8892 42.9744 31.8291 45.0344 29.2919 45.0344H8.60718V24.4491H8.6141Z" fill="#0055FF"/>
</g>
<path d="M13.2115 22.2786V17.35L17.3457 12.9814L18.0508 12.3523C18.2582 12.1657 18.5348 12.062 18.8113 12.062H36.1845V36.4076C36.1845 38.9376 34.1243 41.0044 31.5871 41.0044H13.2046V22.2786H13.2115Z" fill="white"/>
<path d="M53.4262 54H0.573807C0.255794 54 0 53.7442 0 53.4263V0.573733C0 0.25576 0.255794 0 0.573807 0H53.4262C53.7442 0 54 0.25576 54 0.573733V53.4194C54 53.7373 53.7442 53.9931 53.4262 53.9931V54ZM1.14761 52.8525H52.8524V1.14747H1.14761V52.8456V52.8525Z" fill="#0044CC"/>
<g opacity="0.2">
<path d="M23.5538 24.0831L33.8961 18.9609L44.2384 24.0831V31.9218C43.5125 35.8066 41.0791 39.1453 37.6155 41.0531L33.8961 43.0854L29.6098 40.8665C26.1947 39.1107 23.9133 35.7305 23.5607 31.9149V24.0761L23.5538 24.0831Z" fill="#0055FF"/>
</g>
<path d="M33.896 43.6589C33.8062 43.6589 33.7163 43.6381 33.6333 43.5967L29.3471 41.3778C25.7452 39.5183 23.367 36.0068 22.9868 31.9699V24.0828C22.9868 23.8616 23.1113 23.6681 23.3048 23.5644L33.6472 18.4423C33.8062 18.3662 33.9928 18.3662 34.1588 18.4423L44.5011 23.5644C44.6947 23.6612 44.8191 23.8616 44.8191 24.0828V31.9215C44.0517 36.0828 41.5284 39.5598 37.8989 41.5575L34.1795 43.5897C34.0965 43.6381 33.9998 43.6589 33.903 43.6589H33.896ZM24.1275 24.4354V31.9146C24.4663 35.5022 26.6163 38.675 29.8656 40.3547L33.8822 42.4285L37.332 40.5414C40.6642 38.7096 42.9732 35.5229 43.6646 31.804V24.4285L33.8891 19.5897L24.1206 24.4285L24.1275 24.4354Z" fill="#0044CC"/>
<path d="M19.8136 12.0621V11.4884H19.2398V12.0621H19.8136ZM13.2114 17.3501L12.7966 16.9561L12.6376 17.1151V17.3432H13.2114V17.3501ZM35.6175 17.3017C35.6175 17.6128 35.8733 17.8755 36.1913 17.8755C36.5093 17.8755 36.7651 17.6128 36.7651 17.3017H35.6175ZM36.1913 12.0621H36.7651C36.7651 11.7372 36.5093 11.4884 36.1913 11.4884V12.0621ZM19.8136 17.6543V18.228C20.1316 18.228 20.3874 17.9722 20.3874 17.6543H19.8136ZM15.9698 17.0805C15.6518 17.0805 15.396 17.3432 15.396 17.6543C15.396 17.9653 15.6518 18.228 15.9698 18.228V17.0805ZM17.7673 13.3685C17.9885 13.1404 17.9747 12.781 17.7465 12.5667C17.5184 12.3455 17.152 12.3593 16.9308 12.5874L17.7673 13.3685ZM13.2114 40.9976H12.6376C12.6376 41.3086 12.8934 41.5713 13.2114 41.5713V40.9976ZM25.2751 41.5713C25.5931 41.5713 25.8489 41.3086 25.8489 40.9976C25.8489 40.6865 25.5931 40.4238 25.2751 40.4238V41.5713ZM12.6376 17.3432V22.2718H13.7852V17.3432H12.6376ZM36.7651 17.2948V12.0552H35.6175V17.2948H36.7651ZM36.1913 11.4814H19.8136V12.6289H36.1913V11.4814ZM19.2329 12.0552V17.6473H20.3805V12.0552H19.2329ZM19.8067 17.0736H15.9629V18.2211H19.8067V17.0736ZM13.6262 17.7303L17.7604 13.3616L16.9238 12.5805L12.7897 16.9492L13.6262 17.7303ZM13.7852 40.9976V22.2718H12.6376V40.9976H13.7852ZM13.2114 41.5713H25.2751V40.4238H13.2114V41.5713Z" fill="#0044CC"/>
<path d="M33.8961 37.341C37.3858 37.341 40.2148 34.5124 40.2148 31.0231C40.2148 27.5337 37.3858 24.7051 33.8961 24.7051C30.4063 24.7051 27.5773 27.5337 27.5773 31.0231C27.5773 34.5124 30.4063 37.341 33.8961 37.341Z" fill="white"/>
<path d="M33.8961 37.9148C30.0937 37.9148 27.0035 34.8249 27.0035 31.0231C27.0035 27.2212 30.0937 24.1313 33.8961 24.1313C37.6984 24.1313 40.7887 27.2212 40.7887 31.0231C40.7887 34.8249 37.6984 37.9148 33.8961 37.9148ZM33.8961 25.2788C30.7298 25.2788 28.1511 27.8572 28.1511 31.0231C28.1511 34.189 30.7298 36.7673 33.8961 36.7673C37.0624 36.7673 39.641 34.189 39.641 31.0231C39.641 27.8572 37.0624 25.2788 33.8961 25.2788Z" fill="#0044CC"/>
<path d="M20.6778 29.2949C23.3671 29.9516 24.8811 29.9862 27.5704 29.2949V33.2143C24.8811 34.1129 23.3671 34.1198 20.6778 33.2143V29.2949Z" fill="white"/>
<path d="M24.1137 34.4656C23.0007 34.4656 21.8946 34.2306 20.4911 33.7537C20.2561 33.6776 20.104 33.4564 20.104 33.2076V29.2882C20.104 29.1154 20.187 28.9426 20.3252 28.8389C20.4635 28.7283 20.6432 28.6938 20.8161 28.7352C23.4777 29.385 24.9019 29.385 27.4321 28.7352C27.605 28.6938 27.7847 28.7352 27.9299 28.8389C28.0682 28.9495 28.1511 29.1154 28.1511 29.2951V33.2145C28.1511 33.4633 27.9921 33.6845 27.7571 33.7606C26.3398 34.2306 25.2268 34.4656 24.1137 34.4656ZM21.2516 32.7928C23.4293 33.4841 24.7912 33.4841 26.9966 32.7928V30.0209C24.9157 30.491 23.4362 30.4841 21.2516 30.0209V32.7997V32.7928Z" fill="#0044CC"/>
<path d="M47.1074 29.2949C44.4181 29.9516 42.9041 29.9862 40.2148 29.2949V33.2143C42.9041 34.1129 44.4181 34.1198 47.1074 33.2143V29.2949Z" fill="white"/>
<path d="M43.6715 34.4656C42.5585 34.4656 41.4455 34.2306 40.0282 33.7606C39.7932 33.6845 39.6342 33.4633 39.6342 33.2145V29.2951C39.6342 29.1154 39.7171 28.9495 39.8554 28.8389C39.9937 28.7283 40.1803 28.6938 40.3531 28.7352C42.8834 29.385 44.3007 29.385 46.9692 28.7352C47.142 28.6938 47.3218 28.7352 47.46 28.8389C47.5983 28.9495 47.6813 29.1154 47.6813 29.2882V33.2076C47.6813 33.4564 47.5223 33.6707 47.2941 33.7537C45.8907 34.2237 44.7846 34.4656 43.6715 34.4656ZM40.7887 32.7928C42.994 33.4841 44.356 33.4841 46.5337 32.7928V30.014C44.349 30.4841 42.8696 30.491 40.7887 30.014V32.7859V32.7928Z" fill="#0044CC"/>
<g opacity="0.8">
<path d="M32.8245 29.3228V31.8943H34.1104C34.2901 31.8943 34.4561 31.8597 34.6081 31.8044C34.7602 31.7353 34.8985 31.6454 35.016 31.5141C35.1336 31.3966 35.2234 31.2583 35.2926 31.1131C35.3617 30.9542 35.3963 30.7813 35.3963 30.6085C35.3963 30.4357 35.3617 30.2629 35.2926 30.1178C35.2234 29.9588 35.1336 29.8205 35.016 29.703C34.8985 29.5855 34.7602 29.4956 34.6081 29.4265C34.4561 29.3574 34.2832 29.3228 34.1104 29.3228H32.8245ZM32.8245 34.4726H31.5386V28.0371H34.1173C34.3524 28.0371 34.5805 28.0717 34.8017 28.127C35.0229 28.1823 35.2234 28.279 35.4101 28.3896C35.6037 28.4933 35.7765 28.6316 35.9286 28.7906C36.0876 28.9426 36.219 29.1224 36.3296 29.309C36.4402 29.5025 36.5301 29.7099 36.5923 29.9311C36.6545 30.1523 36.6891 30.3666 36.6891 30.6085C36.6891 30.968 36.6199 31.2998 36.4886 31.6108C36.3572 31.9219 36.1706 32.1984 35.9355 32.4265C35.7004 32.6684 35.4308 32.8482 35.1128 32.9795C34.8017 33.1178 34.4699 33.1869 34.1173 33.1869H32.8314V34.4726H32.8245Z" fill="#FF6B00"/>
</g>
</svg>
