<svg width="54" height="54" viewBox="0 0 54 54" fill="none" xmlns="http://www.w3.org/2000/svg">
<g opacity="0.2">
<path d="M16.7391 23.9458C16.7391 23.3818 17.1961 22.9282 17.7643 22.9282H32.1351C32.7032 22.9282 33.1602 23.3818 33.1602 23.9458V31.6697C33.1602 32.6873 31.0728 33.9011 30.0477 33.8214C27.3242 33.6068 23.1371 34.2873 17.9002 35.0045C17.2826 35.0842 16.7391 34.6061 16.7391 33.993V23.9458Z" fill="#0055FF"/>
</g>
<path d="M22.8962 35.3235H16.7391C14.7567 35.3235 13.1449 33.7235 13.1449 31.7557V15.793C13.1449 15.511 13.3734 15.2842 13.6574 15.2842H22.6986C23.4644 15.2842 24.1869 15.6213 24.6748 16.2098L26.5893 18.5086H38.286C38.5701 18.5086 38.7986 18.7354 38.7986 19.0174V22.4135C38.7986 22.6955 38.5701 22.9223 38.286 22.9223C38.0019 22.9223 37.7734 22.6955 37.7734 22.4135V19.5262H26.3484C26.194 19.5262 26.052 19.4588 25.9532 19.3423L23.8843 16.8596C23.5879 16.5041 23.1556 16.3018 22.6986 16.3018H14.17V31.7557C14.17 33.1595 15.3187 34.3059 16.7391 34.3059H22.8962C23.1803 34.3059 23.4088 34.5327 23.4088 34.8147C23.4088 35.0966 23.1803 35.3235 22.8962 35.3235Z" fill="#0044CC"/>
<path d="M21.3523 19.189H16.9058C16.6218 19.189 16.3933 18.9622 16.3933 18.6802C16.3933 18.3982 16.6218 18.1714 16.9058 18.1714H21.3523C21.6364 18.1714 21.8649 18.3982 21.8649 18.6802C21.8649 18.9622 21.6364 19.189 21.3523 19.189Z" fill="#0044CC"/>
<path d="M27.0031 54.0015C26.9166 54.0015 26.824 53.977 26.7437 53.9341L3.63438 40.687C3.47381 40.595 3.375 40.4295 3.375 40.2456V13.7575C3.375 13.5736 3.47381 13.408 3.63438 13.3161L26.7437 0.0689636C26.9043 -0.0229879 27.0957 -0.0229879 27.2563 0.0689636L50.3656 13.3161C50.5262 13.408 50.625 13.5736 50.625 13.7575V40.2456C50.625 40.4295 50.5262 40.595 50.3656 40.687L27.2563 53.9341C27.176 53.977 27.0895 54.0015 26.9969 54.0015H27.0031ZM4.40016 39.9514L26.9969 52.9043L49.5937 39.9514V14.0517L27.0031 1.09882L4.40016 14.0517V39.9514Z" fill="#0044CC"/>
<path d="M42.4731 39.7368H23.9152C23.767 39.7368 23.6312 39.6755 23.5323 39.5713C23.4335 39.4671 23.3903 39.32 23.4027 39.179L23.6867 36.3959C23.6867 36.3959 23.6867 36.3714 23.6867 36.3653C23.8844 35.176 24.5513 34.1523 25.5641 33.478C26.5708 32.8098 27.775 32.583 28.9608 32.8527L31.7645 33.4841C32.6538 33.6803 33.5802 33.6864 34.4447 33.4964L37.2917 32.8527C38.4898 32.5891 39.7126 32.8037 40.7377 33.4719C41.7567 34.1339 42.4484 35.1576 42.6769 36.353L42.9672 38.143V39.2341C42.9733 39.5161 42.7448 39.7429 42.4608 39.7429L42.4731 39.7368ZM24.4896 38.7192H41.9605V38.2227L41.6826 36.5308C41.5097 35.6235 40.9786 34.8389 40.1881 34.3239C39.3976 33.809 38.4528 33.6435 37.5326 33.8458L34.6856 34.4895C33.6728 34.7163 32.592 34.7163 31.5545 34.4772L28.7446 33.8458C27.8368 33.6435 26.9166 33.809 26.1447 34.3239C25.3789 34.8327 24.8663 35.6113 24.7119 36.5185L24.4834 38.7192H24.4896Z" fill="#0044CC"/>
<g opacity="0.8">
<path fill-rule="evenodd" clip-rule="evenodd" d="M28.4791 26.876C28.4791 24.4117 30.4861 22.4194 32.9688 22.4194C35.4514 22.4194 37.4585 24.4178 37.4585 26.876V27.5687C38.0143 27.7281 38.4219 28.2185 38.4219 28.7886C38.4219 29.4936 37.8105 30.0637 37.0571 30.0637H37.0262C36.3036 31.5717 34.7597 32.6138 32.9688 32.6138C31.1778 32.6138 29.6339 31.5717 28.9114 30.0637H28.8805C28.127 30.0637 27.5157 29.4936 27.5157 28.7886C27.5157 28.2185 27.9232 27.7281 28.4791 27.5687V26.876Z" fill="white"/>
<path d="M32.9688 33.1162C31.1469 33.1162 29.4548 32.117 28.584 30.5416C27.6762 30.4006 27.0031 29.665 27.0031 28.7823C27.0031 28.1325 27.386 27.5379 27.9665 27.2252V26.8697C27.9665 24.1295 30.2082 21.9043 32.9688 21.9043C35.7293 21.9043 37.971 24.1295 37.971 26.8697V27.2252C38.5516 27.5379 38.9345 28.1325 38.9345 28.7823C38.9345 29.6711 38.249 30.4067 37.3535 30.5416C36.4827 32.1109 34.7906 33.1101 32.9688 33.1101V33.1162ZM32.9688 22.928C30.7764 22.928 28.9916 24.6996 28.9916 26.8758V27.9547L28.6211 28.0589C28.2753 28.157 28.0282 28.4574 28.0282 28.7884C28.0282 29.2114 28.4111 29.5547 28.8805 29.5547H29.2078L29.3807 29.8428C30.0353 31.2159 31.4495 32.0986 32.9749 32.0986C34.5003 32.0986 35.9146 31.2159 36.5692 29.8428L36.705 29.5485H37.0323C37.5326 29.5485 37.9155 29.2052 37.9155 28.7823C37.9155 28.4512 37.6746 28.157 37.3226 28.0528L36.9521 27.9486V26.8697C36.9521 24.6935 35.1673 22.9219 32.9749 22.9219L32.9688 22.928Z" fill="#FF6B00"/>
</g>
</svg>
