<svg width="54" height="54" viewBox="0 0 54 54" fill="none" xmlns="http://www.w3.org/2000/svg">
<g opacity="0.35">
<path d="M21.4899 32.5098C25.1409 32.5098 28.1007 28.0687 28.1007 22.5903C28.1007 17.112 25.1409 12.6709 21.4899 12.6709C17.8389 12.6709 14.8792 17.112 14.8792 22.5903C14.8792 28.0687 17.8389 32.5098 21.4899 32.5098Z" fill="#FFBB88"/>
</g>
<path d="M27.5503 34.128C23.7907 34.128 20.3096 31.9929 18.5857 28.6643C16.7888 28.5052 15.4229 27.1061 15.4229 25.4087C15.4229 24.0892 16.2252 22.9354 17.4651 22.4182V21.3242C17.4651 15.7677 21.9872 11.2456 27.5437 11.2456C33.1002 11.2456 37.6223 15.7677 37.6223 21.3242V22.4182C38.8622 22.9354 39.6645 24.0958 39.6645 25.4087C39.6645 27.126 38.2721 28.5383 36.5017 28.671C34.7843 31.9995 31.3033 34.128 27.5437 34.128H27.5503ZM27.5503 12.3463C22.5972 12.3463 18.5724 16.3711 18.5724 21.3242V23.2206L18.1746 23.3333C17.1932 23.6184 16.5302 24.4472 16.5302 25.4087C16.5302 26.6088 17.5778 27.5835 18.8708 27.5835H19.2222L19.441 27.8952C20.9197 31.0116 24.109 33.0273 27.5569 33.0273C31.0049 33.0273 34.1942 31.0116 35.6728 27.8952L35.8254 27.5835H36.1768C37.5361 27.5835 38.5837 26.6088 38.5837 25.4153C38.5837 24.4605 37.9206 23.625 36.9393 23.3399L36.5415 23.2272V21.3308C36.5415 16.3777 32.5167 12.3529 27.5636 12.3529L27.5503 12.3463Z" fill="#0044CC"/>
<g opacity="0.15">
<path fill-rule="evenodd" clip-rule="evenodd" d="M49.8094 40.7121C45.1679 44.7236 39.1208 47.157 32.51 47.157C17.9027 47.157 6.06036 35.3147 6.06036 20.7074C6.06036 15.8206 7.38649 11.2388 9.69396 7.31348C4.09769 12.1605 0.550293 19.3216 0.550293 27.3181C0.550293 41.9255 12.3926 53.7678 26.9999 53.7678C36.7205 53.7678 45.2143 48.523 49.8094 40.7121Z" fill="#0055FF"/>
</g>
<path d="M9.3691 46.8392C9.3691 46.8392 9.32269 46.8392 9.29616 46.8392C8.99115 46.7994 8.77897 46.5209 8.81876 46.2225L9.3691 41.9789C9.74042 39.7709 10.9538 37.8812 12.8038 36.6479C14.6471 35.4146 16.8551 35.0035 19.0233 35.4941L24.8052 36.8136C26.3237 37.1584 27.9217 37.1584 29.4401 36.8136L35.3082 35.4875C37.4963 34.9902 39.7308 35.3947 41.6139 36.628C43.4904 37.8547 44.7569 39.7444 45.1746 41.9458L45.7316 45.407C45.778 45.7053 45.5724 45.9905 45.2741 46.0369C44.969 46.0899 44.6906 45.8777 44.6441 45.5794L44.0938 42.1314C43.7291 40.2417 42.6351 38.6039 41.0106 37.543C39.386 36.4821 37.4499 36.1307 35.5535 36.555L29.6854 37.8812C28.0079 38.2591 26.2375 38.2591 24.5599 37.8812L18.778 36.5617C16.9081 36.1373 15.0118 36.4887 13.4204 37.5563C11.8291 38.6238 10.7814 40.2483 10.4632 42.1381L9.91281 46.3618C9.87966 46.6403 9.64096 46.8392 9.3691 46.8392Z" fill="#0044CC"/>
<path d="M27 54C12.1142 54 0 41.8858 0 27C0 12.1142 12.1142 0 27 0C41.8858 0 54 12.1142 54 27C54 41.8858 41.8858 54 27 54ZM27 1.10069C12.7176 1.10069 1.10069 12.7176 1.10069 27C1.10069 41.2824 12.7176 52.8993 27 52.8993C41.2824 52.8993 52.8993 41.2824 52.8993 27C52.8993 12.7176 41.2824 1.10069 27 1.10069Z" fill="#0044CC"/>
</svg>
