<svg width="54" height="54" viewBox="0 0 54 54" fill="none" xmlns="http://www.w3.org/2000/svg">
<path d="M27.0031 54C26.9166 54 26.824 53.9755 26.7437 53.9325L3.63437 40.6858C3.4738 40.5938 3.375 40.4283 3.375 40.2444V13.7571C3.375 13.5732 3.4738 13.4077 3.63437 13.3157L26.7437 0.0689616C26.9043 -0.0229872 27.0957 -0.0229872 27.2563 0.0689616L50.3656 13.3157C50.5262 13.4077 50.625 13.5732 50.625 13.7571V40.2444C50.625 40.4283 50.5262 40.5938 50.3656 40.6858L27.2563 53.9325C27.176 53.9755 27.0895 54 26.9969 54H27.0031ZM4.40633 39.9502L27.0031 52.9027L49.5998 39.9502V14.0513L27.0031 1.09879L4.40633 14.0513V39.9502Z" fill="#0044CC"/>
<g opacity="0.2">
<path fill-rule="evenodd" clip-rule="evenodd" d="M13.2868 18.906C13.2868 16.6256 15.1518 14.7744 17.4492 14.7744C19.7465 14.7744 21.6116 16.6256 21.6116 18.906V19.5312C22.1304 19.6783 22.5009 20.1258 22.5009 20.653C22.5009 21.3028 21.9327 21.8299 21.2349 21.8299H21.204C20.5309 23.2214 19.1043 24.1838 17.4492 24.1838C15.7941 24.1838 14.3614 23.2214 13.6944 21.8299H13.6635C12.9657 21.8299 12.4037 21.3028 12.4037 20.653C12.4037 20.1258 12.7804 19.6783 13.293 19.5312V18.906H13.2868Z" fill="#0055FF"/>
</g>
<path d="M17.4494 24.6865C15.7572 24.6865 14.1886 23.7609 13.3673 22.3081C12.515 22.1671 11.8851 21.4744 11.8851 20.653C11.8851 20.0339 12.231 19.4822 12.7744 19.1879V18.906C12.7744 16.3498 14.8741 14.2656 17.4494 14.2656C20.0246 14.2656 22.1244 16.3498 22.1244 18.906V19.1879C22.6678 19.4822 23.0137 20.0339 23.0137 20.653C23.0137 21.4867 22.3714 22.1855 21.5253 22.3142C20.704 23.767 19.1354 24.6865 17.4432 24.6865H17.4494ZM17.4494 15.2832C15.4361 15.2832 13.7996 16.9076 13.7996 18.906V19.9113L13.4291 20.0155C13.1203 20.1074 12.9103 20.3588 12.9103 20.653C12.9103 21.0208 13.2438 21.3212 13.6576 21.3212H13.9787L14.1516 21.6093C14.7568 22.8598 16.0475 23.6689 17.4432 23.6689C18.8389 23.6689 20.1358 22.8598 20.7348 21.6093L20.8769 21.3212H21.198C21.6427 21.3212 21.9823 21.0208 21.9823 20.653C21.9823 20.3649 21.7723 20.1074 21.4636 20.0155L21.093 19.9113V18.906C21.093 16.9076 19.4565 15.2832 17.4432 15.2832H17.4494Z" fill="#0044CC"/>
<g opacity="0.2">
<path d="M9.915 29.1676L9.87177 29.8174L9.5568 35.463H25.9779V34.8317L25.6629 29.8296L25.6506 29.6335C25.453 26.4398 22.2107 24.3311 19.1846 25.4284L19.0241 25.4835C18.0113 25.8513 16.9058 25.8329 15.9054 25.4345C13.1572 24.3434 10.1311 26.2252 9.92114 29.1615L9.915 29.1676Z" fill="#0055FF"/>
</g>
<path d="M25.978 35.9782H9.5569C9.41486 35.9782 9.27897 35.923 9.18633 35.8188C9.0937 35.7146 9.03813 35.5798 9.0443 35.4388L9.40869 29.1311C9.51985 27.568 10.3536 26.1949 11.6875 25.3612C13.0276 24.5275 14.6271 24.3865 16.0969 24.9689C16.98 25.3183 17.9558 25.3306 18.8513 25.0118L19.0118 24.9505C20.6113 24.3743 22.3467 24.5704 23.7671 25.4961C25.1875 26.4217 26.0644 27.9174 26.1694 29.6031L26.4967 35.4633C26.4967 35.7453 26.2682 35.9721 25.9841 35.9721L25.978 35.9782ZM10.1004 34.9607H25.4654V34.8381L25.1381 29.6705C25.0516 28.3158 24.3476 27.1082 23.1989 26.3604C22.0502 25.6125 20.6484 25.4531 19.3577 25.919L19.1971 25.9803C18.0669 26.391 16.8318 26.3665 15.714 25.9252C14.5592 25.4654 13.287 25.5757 12.231 26.2378C11.1749 26.8937 10.5203 27.9787 10.4276 29.2169L10.3844 29.8667L10.1004 34.9668V34.9607Z" fill="#0044CC"/>
<path fill-rule="evenodd" clip-rule="evenodd" d="M31.7645 18.906C31.7645 16.6256 33.6296 14.7744 35.9269 14.7744C38.2243 14.7744 40.0893 16.6256 40.0893 18.906V19.5312C40.6081 19.6783 40.9786 20.1258 40.9786 20.653C40.9786 21.3028 40.4104 21.8299 39.7126 21.8299H39.6817C39.0147 23.2214 37.582 24.1838 35.9269 24.1838C34.2718 24.1838 32.8391 23.2214 32.1721 21.8299H32.1412C31.4434 21.8299 30.8752 21.3028 30.8752 20.653C30.8752 20.1258 31.2519 19.6783 31.7645 19.5312V18.906Z" fill="white"/>
<path d="M35.9269 24.6865C34.2348 24.6865 32.6661 23.7609 31.8448 22.3081C30.9925 22.1671 30.3626 21.4744 30.3626 20.653C30.3626 20.0339 30.7085 19.4822 31.2519 19.1879V18.906C31.2519 16.3498 33.3517 14.2656 35.9269 14.2656C38.5022 14.2656 40.6019 16.3498 40.6019 18.906V19.1879C41.1454 19.4822 41.4912 20.0339 41.4912 20.653C41.4912 21.4867 40.8489 22.1855 40.0028 22.3142C39.1815 23.767 37.6129 24.6865 35.9207 24.6865H35.9269ZM35.9269 15.2832C33.9137 15.2832 32.2771 16.9076 32.2771 18.906V19.9113L31.9066 20.0155C31.5916 20.1074 31.3878 20.3588 31.3878 20.653C31.3878 21.0208 31.7275 21.3212 32.1351 21.3212H32.4562L32.6291 21.6093C33.2343 22.8598 34.525 23.6689 35.9207 23.6689C37.3164 23.6689 38.6133 22.8598 39.2124 21.6093L39.3544 21.3212H39.6756C40.1202 21.3212 40.4598 21.0208 40.4598 20.653C40.4598 20.3649 40.2499 20.1074 39.9411 20.0155L39.5705 19.9113V18.906C39.5705 16.9076 37.934 15.2832 35.9207 15.2832H35.9269Z" fill="#0044CC"/>
<path d="M28.0281 35.9779C28.0281 35.9779 28.0096 35.9779 27.9972 35.9779C27.7132 35.9657 27.497 35.7205 27.5156 35.4446L27.8799 29.137C27.9911 27.5738 28.8248 26.2007 30.1587 25.3671C31.4927 24.5334 33.0983 24.3924 34.5682 24.9747C35.4513 25.3242 36.427 25.3364 37.3225 25.0177L37.483 24.9564C39.0825 24.3801 40.8179 24.5763 42.2383 25.5019C43.6587 26.4275 44.5357 27.9232 44.6407 29.609L44.9679 35.1198C44.9865 35.4017 44.7703 35.6408 44.4863 35.6592C44.2145 35.6837 43.9613 35.463 43.9428 35.1811L43.6155 29.6703C43.529 28.3156 42.825 27.108 41.6763 26.3601C40.5277 25.6123 39.1258 25.4529 37.8351 25.9188L37.6745 25.9801C36.5443 26.3908 35.3092 26.3662 34.1914 25.9249C33.0366 25.4651 31.7644 25.5755 30.7084 26.2375C29.6523 26.8934 28.9977 27.9784 28.9051 29.2166L28.8618 29.8664L28.5469 35.4998C28.5345 35.7695 28.306 35.9841 28.0343 35.9841L28.0281 35.9779Z" fill="#0044CC"/>
<path d="M38.2551 31.9138C38.2551 32.1467 38.2119 32.3735 38.1192 32.5758C38.0266 32.7903 37.9031 32.962 37.7487 33.1275C37.5943 33.2807 37.409 33.4033 37.2052 33.4953C36.9953 33.5872 36.7729 33.6301 36.5321 33.6301H34.2286V32.49H36.5321C36.6124 32.49 36.6865 32.4716 36.7544 32.4471C36.8223 32.4164 36.8841 32.3735 36.9335 32.3245C36.9891 32.2754 37.0261 32.2141 37.057 32.1406C37.0879 32.067 37.1002 31.9996 37.1002 31.9138C37.1002 31.8279 37.0879 31.7605 37.057 31.6869C37.0261 31.6134 36.9891 31.5643 36.9335 31.5153C36.8841 31.454 36.8223 31.4111 36.7544 31.3804C36.6865 31.3621 36.6124 31.3375 36.5321 31.3375H34.9635V30.1974H36.5321C36.6124 30.1974 36.6865 30.1851 36.7544 30.1545C36.8223 30.1238 36.8841 30.0809 36.9335 30.0319C36.9891 29.9828 37.0261 29.9215 37.057 29.848C37.0879 29.7744 37.1002 29.707 37.1002 29.6212C37.1002 29.5353 37.0879 29.4679 37.057 29.3944C37.0261 29.3208 36.9891 29.2595 36.9335 29.2105C36.8841 29.1614 36.8223 29.1185 36.7544 29.0879C36.6865 29.0572 36.6124 29.045 36.5321 29.045H34.2286V27.9048H36.5321C36.7729 27.9048 36.9953 27.9477 37.2052 28.0396C37.4152 28.1316 37.5943 28.2542 37.7487 28.4074C37.9031 28.5729 38.0328 28.7446 38.1192 28.9591C38.2119 29.1614 38.2551 29.3882 38.2551 29.6212C38.2551 29.8234 38.218 30.0257 38.1377 30.2342C38.0575 30.4303 37.9525 30.6081 37.8104 30.7613C37.9525 30.9146 38.0636 31.0985 38.1377 31.2885C38.2118 31.4908 38.2551 31.6869 38.2551 31.9015V31.9138Z" fill="#0044CC"/>
<g opacity="0.8">
<path d="M34.5497 39.0738C34.7474 38.8777 34.7474 38.5528 34.5497 38.3628L31.2828 35.1139C31.079 34.9178 30.7579 34.9178 30.5541 35.1139C30.3565 35.3162 30.3565 35.6411 30.5541 35.8372L33.4567 38.7183L30.5541 41.5994C30.3565 41.7955 30.3565 42.1204 30.5541 42.3227C30.7579 42.5189 31.079 42.5189 31.2828 42.3227L34.5497 39.0738ZM9.55066 38.2095C9.26658 38.2095 9.03807 38.4363 9.03807 38.7183C9.03807 39.0003 9.26658 39.2271 9.55066 39.2271V38.2095ZM34.1854 38.2095H9.55066V39.2271H34.1854V38.2095Z" fill="#FF6B00"/>
</g>
</svg>
