<svg width="54" height="54" viewBox="0 0 54 54" fill="none" xmlns="http://www.w3.org/2000/svg">
<path d="M53.4262 54H0.573776C0.255763 54 0 53.7442 0 53.4263V0.573733C0 0.25576 0.255763 0 0.573776 0H53.4262C53.7442 0 54 0.25576 54 0.573733V53.4194C54 53.7373 53.7442 53.9931 53.4262 53.9931V54ZM1.14759 52.8525H52.8524V1.14747H1.14759V52.8456V52.8525Z" fill="#0044CC"/>
<path fill-rule="evenodd" clip-rule="evenodd" d="M26.4504 24.3594H41.9363V39.8571L37.6708 35.2534H31.0409C28.5037 35.2534 26.4435 33.1935 26.4435 30.6566V24.3594H26.4504Z" fill="white"/>
<path d="M41.9363 24.3594V23.7856C42.2612 23.7856 42.5101 24.0483 42.5101 24.3594H41.9363ZM26.4504 24.3594H25.8766C25.8766 24.0483 26.1324 23.7856 26.4504 23.7856V24.3594ZM41.9363 39.8571H42.5101C42.5101 40.0852 42.358 40.3064 42.1437 40.3824C41.9224 40.4723 41.6736 40.417 41.5146 40.2303L41.9363 39.8502V39.8571ZM37.6707 35.2534V34.6797C37.8298 34.6797 37.9957 34.7488 38.0925 34.8663L37.6707 35.2603V35.2534ZM41.9363 24.9331H26.4504V23.7856H41.9363V24.9331ZM41.3624 34.4101V24.3594H42.5101V34.4101H41.3624ZM41.3624 35.2465V34.4101H42.5101V35.2465H41.3624ZM41.3624 39.8502V35.2465H42.5101V39.8502H41.3624ZM38.0994 34.8525L42.3649 39.4562L41.5146 40.2234L37.2628 35.6267L38.0994 34.8456V34.8525ZM31.0408 34.6658H37.6707V35.8133H31.0408V34.6658ZM27.0173 30.6428C27.0173 32.8617 28.8217 34.6658 31.0408 34.6658V35.8133C28.1787 35.8133 25.8697 33.4907 25.8697 30.6428H27.0173ZM27.0173 24.3456V30.6428H25.8697V24.3456H27.0173Z" fill="#0044CC"/>
<g opacity="0.1">
<path fill-rule="evenodd" clip-rule="evenodd" d="M25.8488 24.6982H41.3346V40.1821L37.0691 35.5784H30.4392C27.902 35.5784 25.8419 33.5254 25.8419 30.9817V24.6982H25.8488Z" fill="#0055FF"/>
</g>
<path fill-rule="evenodd" clip-rule="evenodd" d="M16.6611 15.5112C14.1239 15.5112 12.0637 17.5711 12.0637 20.108V37.638L18.1544 31.0573H29.596C32.1331 31.0573 34.1933 28.9974 34.1933 26.4605V15.5112H16.6611Z" fill="white"/>
<path d="M12.0636 37.6385H11.4899C11.4899 37.8805 11.6419 38.0878 11.8563 38.1639C12.0775 38.2537 12.3264 38.1984 12.4854 38.0256L12.0636 37.6316V37.6385ZM18.1543 31.0579V30.4841C17.9953 30.4841 17.8294 30.5533 17.7326 30.6708L18.1543 31.0648V31.0579ZM34.1932 15.5118H34.767C34.767 15.1869 34.5112 14.9381 34.1932 14.9381V15.5118ZM12.6375 20.1086C12.6375 17.8897 14.4418 16.0855 16.661 16.0855V14.9381C13.7989 14.9381 11.4899 17.2468 11.4899 20.1086H12.6375ZM12.6375 29.862V20.1086H11.4899V29.862H12.6375ZM12.6375 31.0579V29.862H11.4899V31.0579H12.6375ZM12.6375 37.6385V31.0579H11.4899V37.6385H12.6375ZM17.7257 30.6639L11.635 37.2445L12.4854 38.0256L18.5622 31.445L17.7257 30.6639ZM29.5959 30.4772H18.1543V31.6247H29.5959V30.4772ZM33.6194 26.4542C33.6194 28.68 31.8151 30.4772 29.5959 30.4772V31.6247C32.4442 31.6247 34.767 29.3159 34.767 26.4542H33.6194ZM33.6194 15.5049V26.4542H34.767V15.5049H33.6194ZM16.661 16.0786H34.1932V14.9312H16.661V16.0786Z" fill="#0044CC"/>
<g opacity="0.8">
<path d="M19.1429 24.1314C19.6927 24.1314 20.1384 23.6858 20.1384 23.136C20.1384 22.5863 19.6927 22.1406 19.1429 22.1406C18.5931 22.1406 18.1474 22.5863 18.1474 23.136C18.1474 23.6858 18.5931 24.1314 19.1429 24.1314Z" fill="#FF6B00"/>
</g>
<g opacity="0.8">
<path d="M23.5675 24.1314C24.1173 24.1314 24.563 23.6858 24.563 23.136C24.563 22.5863 24.1173 22.1406 23.5675 22.1406C23.0177 22.1406 22.572 22.5863 22.572 23.136C22.572 23.6858 23.0177 24.1314 23.5675 24.1314Z" fill="#FF6B00"/>
</g>
<g opacity="0.8">
<path d="M27.999 24.1314C28.5488 24.1314 28.9945 23.6858 28.9945 23.136C28.9945 22.5863 28.5488 22.1406 27.999 22.1406C27.4492 22.1406 27.0035 22.5863 27.0035 23.136C27.0035 23.6858 27.4492 24.1314 27.999 24.1314Z" fill="#FF6B00"/>
</g>
</svg>
