<svg width="54" height="54" viewBox="0 0 54 54" fill="none" xmlns="http://www.w3.org/2000/svg">
<g clip-path="url(#clip0_1105_3297)">
<g opacity="0.2">
<path d="M16.7917 24.9619C16.7917 24.398 17.2524 23.9443 17.8113 23.9443H32.1042C32.6631 23.9443 33.1238 24.398 33.1238 24.9619V32.6859C33.1238 33.7034 31.0538 34.9172 30.0281 34.8375C27.3255 34.623 23.155 35.3034 17.9403 36.0206C17.3261 36.1003 16.7855 35.6222 16.7855 35.0092V24.9619H16.7917Z" fill="#0055FF"/>
</g>
<path d="M33.1238 41.2617C38.1985 41.2617 42.3125 37.1558 42.3125 32.091C42.3125 27.0262 38.1985 22.9204 33.1238 22.9204C28.049 22.9204 23.9351 27.0262 23.9351 32.091C23.9351 37.1558 28.049 41.2617 33.1238 41.2617Z" fill="white"/>
<path d="M23.9412 36.3454H16.7978C14.8262 36.3454 13.2231 34.7455 13.2231 32.7777V16.815C13.2231 16.533 13.4503 16.3062 13.7329 16.3062H21.7054C22.4671 16.3062 23.1857 16.6433 23.6709 17.2318L25.5812 19.5306H38.2341C38.5166 19.5306 38.7439 19.7574 38.7439 20.0394V23.4355C38.7439 23.7174 38.5166 23.9443 38.2341 23.9443C37.9515 23.9443 37.7243 23.7174 37.7243 23.4355V20.5482H25.3416C25.1881 20.5482 25.0468 20.4807 24.9485 20.3643L22.8847 17.8816C22.5899 17.526 22.16 17.3237 21.7054 17.3237H14.2427V32.7777C14.2427 34.1815 15.3851 35.3278 16.7978 35.3278H23.9412C24.2237 35.3278 24.451 35.5546 24.451 35.8366C24.451 36.1186 24.2237 36.3454 23.9412 36.3454Z" fill="#0044CC"/>
<path d="M21.386 20.2046H16.9637C16.6811 20.2046 16.4539 19.9778 16.4539 19.6958C16.4539 19.4138 16.6811 19.187 16.9637 19.187H21.386C21.6686 19.187 21.8958 19.4138 21.8958 19.6958C21.8958 19.9778 21.6686 20.2046 21.386 20.2046Z" fill="#0044CC"/>
<path d="M27 54.0001C26.914 54.0001 26.8219 53.9756 26.742 53.9326L3.75797 40.6855C3.59827 40.5936 3.5 40.428 3.5 40.2441V13.756C3.5 13.5721 3.59827 13.4066 3.75797 13.3146L26.7482 0.0674987C26.9079 -0.0244527 27.0983 -0.0244527 27.258 0.0674987L50.2482 13.3146C50.4079 13.4066 50.5061 13.5721 50.5061 13.756V40.2441C50.5061 40.428 50.4079 40.5936 50.2482 40.6855L27.258 53.9326C27.1781 53.9756 27.0921 54.0001 27 54.0001ZM4.5196 39.9499L27 52.9028L49.4804 39.9499V14.0502L27 1.09735L4.5196 14.0502V39.9499Z" fill="#0044CC"/>
<path d="M24.6721 32.2134C24.6721 32.4893 24.9055 32.71 25.1942 32.71C25.4829 32.71 25.6917 32.477 25.6917 32.1889L24.6721 32.2073V32.2134ZM26.3796 35.5666C26.1032 35.493 25.8268 35.6585 25.7593 35.9344L24.5738 40.3542C24.5001 40.63 24.666 40.9059 24.9301 40.9856C25.2065 41.0591 25.4829 40.8936 25.5504 40.6178L26.613 36.6823L30.5563 37.7305C30.8327 37.8041 31.1091 37.6386 31.1767 37.3627C31.2504 37.0991 31.0968 36.811 30.8204 36.7436L26.3796 35.5605V35.5666ZM38.5105 37.2094C35.685 40.1764 30.974 40.2868 28.0073 37.4669L27.301 38.2087C30.6792 41.4208 36.029 41.286 39.2537 37.9144L38.5105 37.2094ZM27.7493 26.9783C30.5747 24.0114 35.2858 23.901 38.2525 26.727L38.9588 25.9914C35.5806 22.7792 30.2308 22.9079 27.0061 26.2795L27.7493 26.9845V26.9783ZM38.2525 26.727C41.2253 29.553 41.3359 34.2486 38.5105 37.2094L39.2537 37.9144C42.4722 34.5429 42.337 29.2035 38.9588 25.9914L38.2525 26.727ZM25.6979 32.2012C25.6671 30.3315 26.3489 28.4495 27.7493 26.9845L27.0061 26.2795C25.4215 27.9469 24.6475 30.0863 24.6783 32.2196L25.6979 32.2012ZM28.0073 37.4669C27.4791 36.9704 27.0369 36.4064 26.699 35.8057L25.8084 36.3267C26.2077 37.001 26.699 37.6386 27.301 38.2087L28.0073 37.4669Z" fill="#0044CC"/>
<path d="M33.5414 23.9194H32.5218V25.9546H33.5414V23.9194Z" fill="#0044CC"/>
<path d="M33.5414 38.4111H32.5218V40.4463H33.5414V38.4111Z" fill="#0044CC"/>
<path d="M41.1946 31.564H39.1554V32.5816H41.1946V31.564Z" fill="#0044CC"/>
<path d="M33.0316 33.6604C32.9026 33.6604 32.7798 33.6114 32.6815 33.5256L29.506 30.5647C29.3033 30.3747 29.291 30.0498 29.4814 29.8414C29.6719 29.6391 29.9974 29.6268 30.2062 29.8168L32.9641 32.3915L36.7047 27.4139C36.8705 27.187 37.196 27.1441 37.4171 27.3096C37.6444 27.4752 37.6874 27.8 37.5216 28.0207L33.437 33.452C33.351 33.5685 33.2159 33.642 33.0746 33.6543C33.0623 33.6543 33.0439 33.6543 33.0316 33.6543V33.6604Z" fill="#FF6B00"/>
<path d="M33.1238 33.7217C33.6869 33.7217 34.1434 33.2661 34.1434 32.7041C34.1434 32.1421 33.6869 31.6865 33.1238 31.6865C32.5606 31.6865 32.1042 32.1421 32.1042 32.7041C32.1042 33.2661 32.5606 33.7217 33.1238 33.7217Z" fill="white"/>
<path d="M33.1238 34.2364C32.2823 34.2364 31.5944 33.5498 31.5944 32.71C31.5944 31.8702 32.2823 31.1836 33.1238 31.1836C33.9652 31.1836 34.6532 31.8702 34.6532 32.71C34.6532 33.5498 33.9652 34.2364 33.1238 34.2364ZM33.1238 32.2012C32.8412 32.2012 32.614 32.428 32.614 32.71C32.614 32.992 32.8412 33.2188 33.1238 33.2188C33.4063 33.2188 33.6336 32.992 33.6336 32.71C33.6336 32.428 33.4063 32.2012 33.1238 32.2012Z" fill="#FF6B00"/>
</g>
<defs>
<clipPath id="clip0_1105_3297">
<rect width="47" height="54" fill="white" transform="translate(3.5)"/>
</clipPath>
</defs>
</svg>
