<svg width="54" height="54" viewBox="0 0 54 54" fill="none" xmlns="http://www.w3.org/2000/svg">
<g opacity="0.2">
<path d="M25.9753 22.9253H20.8453C20.2793 22.9253 19.8206 23.3809 19.8206 23.9429V37.1896C19.8206 37.7516 20.2793 38.2072 20.8453 38.2072H25.9753C26.5412 38.2072 27 37.7516 27 37.1896V23.9429C27 23.3809 26.5412 22.9253 25.9753 22.9253Z" fill="#0055FF"/>
</g>
<path d="M27 53.998C26.9136 53.998 26.821 53.9735 26.7407 53.9306L3.63423 40.6839C3.47372 40.5919 3.375 40.4264 3.375 40.2425V13.7551C3.375 13.5712 3.47372 13.4057 3.63423 13.3138L26.7469 0.0670085C26.9074 -0.0249403 27.0988 -0.0249403 27.2593 0.0670085L50.3658 13.3138C50.5263 13.4057 50.625 13.5712 50.625 13.7551V40.2425C50.625 40.4264 50.5263 40.5919 50.3658 40.6839L27.2593 53.9306C27.179 53.9735 27.0926 53.998 27 53.998ZM4.40588 39.9483L27 52.9008L49.5941 39.9483V14.0494L27 1.09684L4.40588 14.0494V39.9483Z" fill="#0044CC"/>
<g opacity="0.9">
<path d="M31.0558 18.4568C30.8274 18.4568 30.6174 18.3035 30.5619 18.0767L30.2656 16.9427C30.0865 16.2684 29.4754 15.7964 28.7717 15.7964H25.2838C24.58 15.7964 23.9689 16.2684 23.8022 16.9427L23.4997 18.0828C23.4256 18.3526 23.154 18.5242 22.8762 18.4445C22.6046 18.3709 22.4379 18.0951 22.512 17.8254L22.8083 16.6913C23.0861 15.5696 24.1109 14.7788 25.2838 14.7788H28.7717C29.9384 14.7788 30.9631 15.5634 31.2595 16.6913L31.5558 17.8254C31.6298 18.0951 31.4632 18.3771 31.1916 18.4445C31.1483 18.4568 31.1052 18.4629 31.0619 18.4629L31.0558 18.4568Z" fill="#FF6B00"/>
</g>
<path d="M31.8336 38.9491H22.2218C20.8637 38.9491 19.7587 37.9377 19.6599 36.5952L18.4685 21.1601C18.4561 21.0191 18.5055 20.8781 18.6043 20.7739C18.703 20.6697 18.8388 20.6084 18.9808 20.6084H35.0807C35.2227 20.6084 35.3585 20.6697 35.4573 20.7739C35.556 20.8781 35.6054 21.0191 35.5931 21.1601L34.3955 36.5952C34.2967 37.9193 33.1732 38.9491 31.8459 38.9491H31.8336ZM19.5303 21.6321L20.6785 36.5155C20.7402 37.3247 21.4008 37.9316 22.2157 37.9316H31.8274C32.6361 37.9316 33.2966 37.3247 33.3584 36.5155L34.5189 21.6321H19.5303Z" fill="#0044CC"/>
<path d="M36.2353 20.2221C35.9513 20.2221 35.7228 19.9953 35.7228 19.7134V19.2046C35.7228 18.9226 35.4944 18.6958 35.2105 18.6958H18.7958C18.5119 18.6958 18.2834 18.9226 18.2834 19.2046V19.7134C18.2834 19.9953 18.055 20.2221 17.7711 20.2221C17.4871 20.2221 17.2587 19.9953 17.2587 19.7134V19.2046C17.2587 18.3648 17.9501 17.6782 18.7958 17.6782H35.2105C36.0562 17.6782 36.7476 18.3648 36.7476 19.2046V19.7134C36.7476 19.9953 36.5192 20.2221 36.2353 20.2221Z" fill="#0044CC"/>
<path d="M26.8458 32.4452C26.5618 32.4452 26.3333 32.2184 26.3333 31.9364V26.2969C26.3333 26.0149 26.5618 25.7881 26.8458 25.7881C27.1297 25.7881 27.3581 26.0149 27.3581 26.2969V31.9364C27.3581 32.2184 27.1297 32.4452 26.8458 32.4452Z" fill="#0044CC"/>
<path d="M23.1541 33.7753C22.8701 33.7753 22.6418 33.5485 22.6418 33.2665V24.9604C22.6418 24.6785 22.8701 24.4517 23.1541 24.4517C23.4381 24.4517 23.6665 24.6785 23.6665 24.9604V33.2665C23.6665 33.5485 23.4381 33.7753 23.1541 33.7753Z" fill="#0044CC"/>
<path d="M30.5374 33.7753C30.2534 33.7753 30.0249 33.5485 30.0249 33.2665V24.9604C30.0249 24.6785 30.2534 24.4517 30.5374 24.4517C30.8213 24.4517 31.0497 24.6785 31.0497 24.9604V33.2665C31.0497 33.5485 30.8213 33.7753 30.5374 33.7753Z" fill="#0044CC"/>
</svg>
