<svg width="54" height="54" viewBox="0 0 54 54" fill="none" xmlns="http://www.w3.org/2000/svg">
<path d="M12.6324 15.7923V31.7546C12.6324 33.4342 14.0095 34.8134 15.714 34.8134H37.2671V19.0166H25.3295L23.2607 16.5279C22.8716 16.062 22.2911 15.7861 21.6797 15.7861H12.6385L12.6324 15.7923Z" fill="white"/>
<path d="M37.2671 35.3219H15.714C13.7316 35.3219 12.1198 33.722 12.1198 31.7543V15.792C12.1198 15.51 12.3483 15.2832 12.6323 15.2832H21.6735C22.4393 15.2832 23.1619 15.6203 23.6497 16.2088L25.5642 18.5075H37.2609C37.545 18.5075 37.7735 18.7343 37.7735 19.0163V34.8131C37.7735 35.0951 37.545 35.3219 37.2609 35.3219H37.2671ZM13.1449 16.3008V31.7543C13.1449 33.158 14.2936 34.3043 15.714 34.3043H36.7545V19.5251H25.3295C25.1751 19.5251 25.0331 19.4577 24.9343 19.3412L22.8654 16.8586C22.569 16.5031 22.1367 16.3008 21.6797 16.3008H13.1511H13.1449Z" fill="#0044CC"/>
<path d="M20.3334 19.1885H15.8869C15.6028 19.1885 15.3743 18.9617 15.3743 18.6797C15.3743 18.3977 15.6028 18.1709 15.8869 18.1709H20.3334C20.6174 18.1709 20.8459 18.3977 20.8459 18.6797C20.8459 18.9617 20.6174 19.1885 20.3334 19.1885Z" fill="#0044CC"/>
<g opacity="0.2">
<path d="M31.1099 22.9272H16.7391C16.1729 22.9272 15.714 23.3828 15.714 23.9448V34.1327C15.714 34.6947 16.1729 35.1503 16.7391 35.1503H31.1099C31.6761 35.1503 32.135 34.6947 32.135 34.1327V23.9448C32.135 23.3828 31.6761 22.9272 31.1099 22.9272Z" fill="#0055FF"/>
</g>
<path d="M27.0031 54C26.9166 54 26.824 53.9755 26.7437 53.9326L3.63438 40.6858C3.47381 40.5939 3.375 40.4284 3.375 40.2445V13.7571C3.375 13.5732 3.47381 13.4077 3.63438 13.3157L26.7437 0.0689616C26.9043 -0.0229872 27.0957 -0.0229872 27.2563 0.0689616L50.3656 13.3157C50.5262 13.4077 50.625 13.5732 50.625 13.7571V40.2445C50.625 40.4284 50.5262 40.5939 50.3656 40.6858L27.2563 53.9326C27.176 53.9755 27.0895 54 26.9969 54H27.0031ZM4.40633 39.9502L27.0031 52.9027L49.5998 39.9502V14.0513L27.0031 1.09879L4.40633 14.0513V39.9502Z" fill="#0044CC"/>
<path fill-rule="evenodd" clip-rule="evenodd" d="M31.3817 22.0877L34.7289 22.1613L34.698 23.424C35.7911 23.6141 36.8101 24.0003 37.7241 24.5397L39.0457 23.2953L41.3677 25.6921L40.2252 26.771C41.0095 27.7947 41.5715 28.9961 41.8371 30.3018L43.2451 30.3325L43.171 33.6549L41.8618 33.6242C41.6518 34.746 41.2257 35.7942 40.6205 36.7198L41.8618 38.001L39.4347 40.2936L38.3046 39.1228C37.1436 39.9381 35.7787 40.4897 34.3028 40.6798L34.2719 42.0835L30.9247 42.0038L30.9617 40.4775C29.6772 40.1526 28.51 39.5519 27.5219 38.7427L26.5708 39.6377L24.2488 37.2409L25.3851 36.1682C24.8911 35.2609 24.5514 34.274 24.4032 33.2135L23.1001 33.1829L23.1742 29.8605L24.5761 29.8911C24.8849 28.6774 25.4469 27.5679 26.2065 26.6116L25.1196 25.4898L27.5466 23.2034L28.7447 24.4416C29.5413 23.988 30.4183 23.6509 31.3508 23.4608L31.3817 22.0693V22.0877Z" fill="white"/>
<path d="M34.7289 22.161L35.2414 22.1733C35.2476 21.8913 35.0253 21.6584 34.7412 21.6522L34.7289 22.161ZM31.3816 22.0874L31.394 21.5787C31.1099 21.5787 30.8752 21.7932 30.8691 22.0752L31.3816 22.0874ZM34.698 23.4299L34.1854 23.4176C34.1854 23.669 34.3583 23.8896 34.6115 23.9326L34.698 23.4299ZM37.7241 24.5455L37.4585 24.9808C37.6561 25.0972 37.9093 25.0727 38.0761 24.9133L37.7241 24.5455ZM39.0456 23.3012L39.4162 22.9456C39.2186 22.7434 38.8974 22.7372 38.6936 22.9272L39.0456 23.295V23.3012ZM41.3677 25.698L41.7197 26.0658C41.8185 25.9738 41.8741 25.8451 41.8803 25.7041C41.8803 25.5692 41.8309 25.4405 41.7382 25.3424L41.3677 25.698ZM40.2252 26.7768L39.8732 26.409C39.6817 26.5868 39.657 26.881 39.8176 27.0895L40.2252 26.783V26.7768ZM41.837 30.3077L41.3368 30.4119C41.3862 30.6387 41.59 30.8103 41.8309 30.8165L41.8432 30.3077H41.837ZM43.2451 30.3383L43.7577 30.3506C43.7577 30.0625 43.5415 29.8295 43.2574 29.8295L43.2451 30.3383ZM43.171 33.6607L43.1586 34.1695C43.4427 34.1695 43.6774 33.9427 43.6836 33.673L43.171 33.6607ZM41.8617 33.6301L41.8741 33.1213C41.6209 33.109 41.4047 33.2868 41.3553 33.5381L41.8617 33.6301ZM40.6204 36.7257L40.1881 36.4499C40.0585 36.646 40.0832 36.9096 40.2499 37.0812L40.6204 36.7257ZM41.8617 38.0069L42.2138 38.3746C42.3126 38.2827 42.3681 38.1601 42.3743 38.0191C42.3743 37.8843 42.3249 37.7555 42.2323 37.6513L41.8617 38.0069ZM39.4347 40.2994L39.0642 40.6488C39.2618 40.8511 39.5829 40.8634 39.7867 40.6672L39.4347 40.2994ZM38.3046 39.1286L38.6751 38.7731C38.496 38.5892 38.2119 38.5708 38.0081 38.7118L38.3046 39.1286ZM34.3027 40.6856L34.2348 40.1768C33.9816 40.2075 33.7902 40.422 33.7902 40.6734L34.3027 40.6856ZM34.2719 42.0894L34.2595 42.5982C34.5436 42.5982 34.7783 42.3714 34.7844 42.1016L34.2719 42.0894ZM30.9246 42.0097L30.4121 41.9974C30.4121 42.1323 30.4615 42.261 30.5541 42.3652C30.6467 42.4572 30.7764 42.5185 30.9123 42.5185L30.9246 42.0097ZM30.9617 40.4833L31.4743 40.4956C31.4743 40.2627 31.3199 40.0481 31.0914 39.9991L30.9617 40.4895V40.4833ZM27.5219 38.7486L27.8492 38.3501C27.6515 38.1846 27.3551 38.1969 27.1698 38.3808L27.5219 38.7486ZM26.5708 39.6435L26.2003 39.9991C26.3979 40.2014 26.719 40.2014 26.9228 40.0113L26.5708 39.6435ZM24.2487 37.2467L23.8967 36.8789C23.7979 36.9709 23.7423 37.1058 23.7362 37.2345C23.73 37.3632 23.7856 37.4981 23.8782 37.6023L24.2487 37.2467ZM25.3851 36.174L25.7371 36.5418C25.9038 36.3886 25.9471 36.1372 25.8359 35.9288L25.3851 36.174ZM24.4031 33.2194L24.9095 33.1458C24.8725 32.9006 24.6625 32.7167 24.4155 32.7106L24.4031 33.2194ZM23.1001 33.1887L22.5875 33.1765C22.5875 33.3113 22.6369 33.4401 22.7295 33.5443C22.8222 33.6362 22.9519 33.6975 23.0877 33.6975L23.1001 33.1887ZM23.1742 29.8663L23.1865 29.3575C22.9025 29.3575 22.6678 29.5721 22.6616 29.8541L23.1742 29.8663ZM24.5761 29.897L24.5637 30.4057C24.8046 30.418 25.0145 30.2525 25.0701 30.0196L24.5699 29.897H24.5761ZM26.2064 26.6175L26.6079 26.9362C26.7684 26.7339 26.7561 26.452 26.577 26.2681L26.2064 26.6236V26.6175ZM25.1195 25.4957L24.7675 25.1279C24.6687 25.2198 24.6131 25.3486 24.6069 25.4834C24.6069 25.6183 24.6564 25.7531 24.749 25.8451L25.1195 25.4896V25.4957ZM27.5466 23.2092L27.9171 22.8537C27.7195 22.6514 27.3983 22.6453 27.1945 22.8353L27.5466 23.2031V23.2092ZM28.7446 24.4475L28.3741 24.803C28.5347 24.9685 28.794 25.0053 28.9978 24.8888L28.7446 24.4475ZM31.3508 23.4667L31.4557 23.9632C31.6904 23.9142 31.8572 23.7119 31.8633 23.4789L31.3508 23.4667ZM34.7412 21.64L31.394 21.5664L31.3693 22.584L34.7165 22.6575L34.7412 21.64ZM35.2106 23.4238L35.2414 22.161L34.2163 22.1365L34.1854 23.3993L35.2106 23.4238ZM37.9834 24.0919C37.02 23.5157 35.9393 23.1111 34.7844 22.9089L34.6053 23.9142C35.6305 24.0919 36.5939 24.4536 37.4523 24.9685L37.9773 24.0981L37.9834 24.0919ZM38.6875 22.9089L37.3659 24.1594L38.0699 24.895L39.3915 23.6444L38.6813 22.9027L38.6875 22.9089ZM41.7321 25.3179L39.4162 22.9211L38.6751 23.6261L40.991 26.0229L41.7321 25.3179ZM40.571 27.114L41.7135 26.0351L41.0033 25.2995L39.8608 26.3784L40.571 27.1201V27.114ZM42.3311 30.1728C42.047 28.7875 41.4541 27.5186 40.6266 26.4336L39.8114 27.0527C40.5525 28.0151 41.0774 29.1491 41.3245 30.3812L42.3311 30.1789V30.1728ZM41.8185 30.7858L43.2266 30.8165L43.2513 29.7989L41.8432 29.7682L41.8185 30.7858ZM42.7263 30.2954L42.6522 33.6056L43.6774 33.6362L43.7515 30.3138L42.7263 30.2954ZM43.1772 33.1152L41.8679 33.0845L41.8432 34.1021L43.1525 34.1327L43.1772 33.1152ZM41.0527 36.9648C41.6888 35.984 42.1396 34.8745 42.362 33.6853L41.3553 33.5014C41.1577 34.5618 40.7563 35.5365 40.1881 36.4131L41.0527 36.9648ZM42.2323 37.6145L40.991 36.3334L40.2499 37.0445L41.4912 38.3256L42.2323 37.6145ZM39.7867 40.6305L42.2138 38.3379L41.5036 37.6023L39.0765 39.8826L39.7867 40.6243V40.6305ZM37.934 39.4474L39.0642 40.6059L39.8052 39.901L38.6751 38.7302L37.934 39.4412V39.4474ZM34.3645 41.1515C35.9269 40.9553 37.372 40.3791 38.601 39.5087L38.0081 38.675C36.915 39.4474 35.6305 39.9684 34.2348 40.1401L34.3645 41.1515ZM34.7783 42.071L34.8091 40.6672L33.784 40.6488L33.7531 42.0526L34.7783 42.071ZM30.9061 42.4878L34.2533 42.5675L34.278 41.5499L30.9308 41.4703L30.9061 42.4878ZM30.4429 40.4404L30.4059 41.9668L31.431 41.9852L31.4681 40.4588L30.4429 40.4404ZM27.1884 39.1041C28.2321 39.9623 29.4734 40.5998 30.832 40.937L31.0852 39.9562C29.8748 39.6497 28.7755 39.0796 27.843 38.3133L27.1884 39.098V39.1041ZM26.9166 39.9807L27.8677 39.0857L27.1575 38.3501L26.2064 39.2451L26.9166 39.9807ZM23.872 37.5778L26.1879 39.9746L26.929 39.2635L24.6131 36.8667L23.872 37.5778ZM25.0207 35.7817L23.8844 36.8544L24.5946 37.59L25.7309 36.5173L25.0207 35.7817ZM23.8844 33.2623C24.0388 34.3841 24.4031 35.4323 24.9281 36.3886L25.8297 35.8982C25.3604 35.0522 25.0454 34.1144 24.9034 33.1152L23.8844 33.2562V33.2623ZM24.4031 32.68L23.1001 32.6493L23.0754 33.6669L24.3784 33.6975L24.4031 32.68ZM23.6003 33.1703L23.6744 29.8479L22.6493 29.8295L22.5751 33.152L23.6003 33.1703ZM23.1495 30.3506L24.5514 30.3812L24.5761 29.3637L23.1742 29.333L23.1495 30.3506ZM25.7927 26.2803C24.9898 27.2856 24.3908 28.4687 24.0697 29.7498L25.0639 29.995C25.3542 28.8549 25.8853 27.8067 26.5955 26.9117L25.7927 26.2803ZM24.7428 25.8328L25.8297 26.9546L26.5708 26.2497L25.4839 25.1279L24.7428 25.8328ZM27.1884 22.823L24.7613 25.1095L25.4654 25.8451L27.8924 23.5586L27.1822 22.823H27.1884ZM29.109 24.0797L27.9109 22.8414L27.1698 23.5464L28.3679 24.7846L29.109 24.0797ZM31.2396 22.9518C30.2577 23.1541 29.3313 23.5096 28.4853 23.9877L28.9978 24.8704C29.7513 24.4413 30.5788 24.1287 31.4496 23.9448L31.2396 22.9456V22.9518ZM30.8629 22.0507L30.832 23.4422L31.8572 23.4667L31.8881 22.0752L30.8629 22.0507Z" fill="#0044CC"/>
<g opacity="0.8">
<path d="M32.2709 30.7002L31.2025 34.133H30.0662L31.678 29.7808H32.3944L32.2709 30.7002ZM33.154 34.133L32.0856 30.7002L31.9497 29.7808H32.6785L34.2965 34.133H33.1602H33.154ZM33.1108 32.5147V33.3177H30.8628V32.5147H33.1108ZM35.7354 29.7869V34.1391H34.6794V29.7869H35.7354Z" fill="#FF6B00"/>
</g>
</svg>
