<svg width="54" height="54" viewBox="0 0 54 54" fill="none" xmlns="http://www.w3.org/2000/svg">
<g opacity="0.2">
<path d="M32.1352 22.9272H17.7645C17.1983 22.9272 16.7393 23.3828 16.7393 23.9448V34.1327C16.7393 34.6947 17.1983 35.1503 17.7645 35.1503H32.1352C32.7014 35.1503 33.1604 34.6947 33.1604 34.1327V23.9448C33.1604 23.3828 32.7014 22.9272 32.1352 22.9272Z" fill="#0055FF"/>
</g>
<path d="M33.6729 41.2685C38.4922 41.2685 42.3991 37.3905 42.3991 32.6069C42.3991 27.8232 38.4922 23.9453 33.6729 23.9453C28.8535 23.9453 24.9467 27.8232 24.9467 32.6069C24.9467 37.3905 28.8535 41.2685 33.6729 41.2685Z" fill="white"/>
<path d="M23.9216 35.3224H16.7393C14.7569 35.3224 13.145 33.7225 13.145 31.7548V15.7925C13.145 15.5105 13.3735 15.2837 13.6576 15.2837H22.6988C23.4646 15.2837 24.1871 15.6208 24.675 16.2093L26.5895 18.508H38.2862C38.5702 18.508 38.7987 18.7348 38.7987 19.0168V22.4128C38.7987 22.6948 38.5702 22.9216 38.2862 22.9216C38.0021 22.9216 37.7736 22.6948 37.7736 22.4128V19.5256H26.3486C26.1942 19.5256 26.0522 19.4582 25.9534 19.3417L23.8845 16.8591C23.5881 16.5035 23.1558 16.3013 22.6988 16.3013H14.1702V31.7548C14.1702 33.1585 15.3189 34.3048 16.7393 34.3048H23.9216C24.2056 34.3048 24.4341 34.5316 24.4341 34.8136C24.4341 35.0956 24.2056 35.3224 23.9216 35.3224Z" fill="#0044CC"/>
<path d="M21.3523 19.1885H16.9058C16.6217 19.1885 16.3932 18.9617 16.3932 18.6797C16.3932 18.3977 16.6217 18.1709 16.9058 18.1709H21.3523C21.6364 18.1709 21.8649 18.3977 21.8649 18.6797C21.8649 18.9617 21.6364 19.1885 21.3523 19.1885Z" fill="#0044CC"/>
<path d="M27.0031 54C26.9166 54 26.824 53.9755 26.7437 53.9326L3.63438 40.6858C3.47381 40.5939 3.375 40.4284 3.375 40.2445V13.7571C3.375 13.5732 3.47381 13.4077 3.63438 13.3157L26.7437 0.0689616C26.9043 -0.0229872 27.0957 -0.0229872 27.2563 0.0689616L50.3656 13.3157C50.5262 13.4077 50.625 13.5732 50.625 13.7571V40.2445C50.625 40.4284 50.5262 40.5939 50.3656 40.6858L27.2563 53.9326C27.176 53.9755 27.0895 54 26.9969 54H27.0031ZM4.40016 39.9502L26.9969 52.9027L49.5937 39.9502V14.0513L27.0031 1.09879L4.40016 14.0513V39.9502Z" fill="#0044CC"/>
<path d="M33.173 39.2204C32.9445 39.2204 32.716 39.2143 32.4875 39.1897C30.5669 39.0365 28.7512 38.209 27.3679 36.8542C25.9969 35.4934 25.1446 33.6973 24.9779 31.7909C24.8111 29.8845 25.3299 27.9659 26.4477 26.3905C27.5655 24.8151 29.2082 23.6749 31.0856 23.1784C32.963 22.6819 34.9578 22.8535 36.7116 23.6688C36.971 23.7853 37.0822 24.0918 36.9587 24.3492C36.8413 24.6067 36.5326 24.717 36.2794 24.5944C34.7416 23.8833 32.9939 23.7301 31.3512 24.1653C29.7084 24.6005 28.2695 25.5997 27.2876 26.9789C26.3118 28.3582 25.8548 30.0378 26.003 31.7051C26.1513 33.3724 26.8923 34.9478 28.0904 36.137C29.3009 37.3201 30.8942 38.0496 32.574 38.1783C34.2599 38.3254 35.952 37.8595 37.3539 36.8849C38.7373 35.9164 39.7439 34.4881 40.1762 32.8514C40.522 31.5396 40.4912 30.1726 40.0774 28.8853C39.9909 28.6156 40.1391 28.3337 40.4109 28.2478C40.6764 28.162 40.9667 28.3091 41.0531 28.5789C41.5225 30.05 41.5595 31.6132 41.1643 33.1089C40.6702 34.9724 39.5216 36.609 37.9406 37.7124C36.5326 38.6932 34.8651 39.2143 33.173 39.2143V39.2204Z" fill="#0044CC"/>
<path d="M33.1663 25.22C32.8822 25.22 32.6537 24.9932 32.6537 24.7112V22.1611C32.6537 21.8792 32.8822 21.6523 33.1663 21.6523C33.4503 21.6523 33.6788 21.8792 33.6788 22.1611V24.7112C33.6788 24.9932 33.4503 25.22 33.1663 25.22Z" fill="#0044CC"/>
<path d="M33.1663 40.508C32.8822 40.508 32.6537 40.2812 32.6537 39.9993V37.4492C32.6537 37.1672 32.8822 36.9404 33.1663 36.9404C33.4503 36.9404 33.6788 37.1672 33.6788 37.4492V39.9993C33.6788 40.2812 33.4503 40.508 33.1663 40.508Z" fill="#0044CC"/>
<path d="M42.1516 31.5952H39.5825C39.2984 31.5952 39.0699 31.3684 39.0699 31.0864C39.0699 30.8044 39.2984 30.5776 39.5825 30.5776H42.1516C42.4357 30.5776 42.6642 30.8044 42.6642 31.0864C42.6642 31.3684 42.4357 31.5952 42.1516 31.5952Z" fill="#0044CC"/>
<path d="M26.7436 31.5952H24.1745C23.8904 31.5952 23.6619 31.3684 23.6619 31.0864C23.6619 30.8044 23.8904 30.5776 24.1745 30.5776H26.7436C27.0277 30.5776 27.2562 30.8044 27.2562 31.0864C27.2562 31.3684 27.0277 31.5952 26.7436 31.5952Z" fill="#0044CC"/>
<g opacity="0.8">
<path d="M33.1609 34.9785C30.9933 34.9785 29.227 33.2253 29.227 31.0737C29.227 28.9221 30.9933 27.1689 33.1609 27.1689C35.3286 27.1689 37.0948 28.9221 37.0948 31.0737C37.0948 33.2253 35.3286 34.9785 33.1609 34.9785ZM33.1609 28.1865C31.5553 28.1865 30.2522 29.4799 30.2522 31.0737C30.2522 32.6675 31.5553 33.9609 33.1609 33.9609C34.7666 33.9609 36.0697 32.6675 36.0697 31.0737C36.0697 29.4799 34.7666 28.1865 33.1609 28.1865Z" fill="#FF6B00"/>
</g>
</svg>
