<svg width="54" height="54" viewBox="0 0 54 54" fill="none" xmlns="http://www.w3.org/2000/svg">
<g opacity="0.2">
<path d="M8.62088 24.4491V19.0297L13.1698 14.2256L13.9787 13.4998C14.1861 13.3132 14.4626 13.2095 14.7392 13.2095H33.896V40.4376C33.896 42.9744 31.8358 45.0344 29.2986 45.0344H8.62088V24.4491Z" fill="#0055FF"/>
</g>
<path d="M13.2114 22.2786V17.35L17.3456 12.9814L18.0507 12.3523C18.2581 12.1657 18.5346 12.062 18.8112 12.062H36.1844V36.4076C36.1844 38.9376 34.1242 41.0044 31.587 41.0044H13.2045V22.2786H13.2114Z" fill="white"/>
<path d="M53.4331 54H0.573806C0.255793 54 0 53.7442 0 53.4263V0.573733C0 0.25576 0.255793 0 0.573806 0H53.4262C53.7442 0 54 0.25576 54 0.573733V53.4194C54 53.7373 53.7442 53.9931 53.4262 53.9931L53.4331 54ZM1.15453 52.8525H52.8593V1.14747H1.14761V52.8456L1.15453 52.8525Z" fill="#0044CC"/>
<path d="M19.8136 12.0625V11.4888H19.2398V12.0625H19.8136ZM13.2114 17.3505L12.7966 16.9565L12.6376 17.1155V17.3436H13.2114V17.3505ZM36.1913 12.0625H36.7651C36.7651 11.7376 36.5093 11.4888 36.1913 11.4888V12.0625ZM19.8136 17.6547V18.2284C20.1316 18.2284 20.3874 17.9726 20.3874 17.6547H19.8136ZM15.9698 17.0809C15.6518 17.0809 15.396 17.3436 15.396 17.6547C15.396 17.9657 15.6518 18.2284 15.9698 18.2284V17.0809ZM17.7673 13.369C17.9885 13.1408 17.9747 12.7814 17.7465 12.5671C17.5184 12.3459 17.152 12.3597 16.9307 12.5878L17.7673 13.369ZM13.2114 40.998H12.6376C12.6376 41.309 12.8934 41.5717 13.2114 41.5717V40.998ZM12.6376 17.3436V22.2722H13.7852V17.3436H12.6376ZM36.7651 18.4496V12.0625H35.6175V18.4496H36.7651ZM36.1913 11.4888H19.8136V12.6362H36.1913V11.4888ZM19.2329 12.0625V17.6547H20.3805V12.0625H19.2329ZM19.8067 17.0809H15.9629V18.2284H19.8067V17.0809ZM13.6262 17.7376L17.7603 13.369L16.9238 12.5878L12.7897 16.9565L13.6262 17.7376ZM35.6175 18.4496V36.4081H36.7651V18.4496H35.6175ZM31.5939 40.4243H13.2114V41.5717H31.5939V40.4243ZM13.7852 40.998V22.2722H12.6376V40.998H13.7852ZM35.6175 36.4012C35.6175 38.6201 33.82 40.4243 31.5939 40.4243V41.5717C34.4491 41.5717 36.7651 39.2491 36.7651 36.4012H35.6175Z" fill="#0044CC"/>
<g opacity="0.6">
<path d="M25.8559 22.9771H19.5371C19.2191 22.9771 18.9633 22.7213 18.9633 22.4033C18.9633 22.0854 19.2191 21.8296 19.5371 21.8296H25.8559C26.1739 21.8296 26.4297 22.0854 26.4297 22.4033C26.4297 22.7213 26.1739 22.9771 25.8559 22.9771Z" fill="#FF6B00"/>
</g>
<g opacity="0.6">
<path d="M25.8559 29.8687H19.5371C19.2191 29.8687 18.9633 29.6129 18.9633 29.2949C18.9633 28.977 19.2191 28.7212 19.5371 28.7212H25.8559C26.1739 28.7212 26.4297 28.977 26.4297 29.2949C26.4297 29.6129 26.1739 29.8687 25.8559 29.8687Z" fill="#FF6B00"/>
</g>
<g opacity="0.6">
<path d="M28.7249 26.4263H19.5302C19.2122 26.4263 18.9564 26.1705 18.9564 25.8525C18.9564 25.5346 19.2122 25.2788 19.5302 25.2788H28.7249C29.0429 25.2788 29.2987 25.5346 29.2987 25.8525C29.2987 26.1705 29.0429 26.4263 28.7249 26.4263Z" fill="#FF6B00"/>
</g>
<path d="M41.6321 17.6684C42.7866 16.4726 44.6878 16.438 45.8838 17.5993C47.0798 18.7468 47.1074 20.6546 45.9529 21.8505L37.007 31.0993C35.4239 32.7306 33.4121 33.8781 31.1999 34.4104L29.1535 34.8942L29.5683 32.8343C30.0177 30.6085 31.0961 28.5624 32.6793 26.9173L41.6251 17.6684H41.6321Z" fill="white"/>
<path d="M29.1674 35.4678C29.0222 35.4678 28.877 35.4125 28.7664 35.3089C28.6281 35.1706 28.5659 34.9701 28.6005 34.7835L29.0153 32.7236C29.4854 30.3941 30.6123 28.2513 32.2784 26.5231L41.2242 17.2743C41.8879 16.5831 42.7866 16.196 43.7407 16.1821C44.6947 16.196 45.6003 16.5278 46.2917 17.1913C46.9761 17.848 47.3632 18.7397 47.384 19.6937C47.4047 20.6545 47.0452 21.56 46.3746 22.2513L37.4288 31.5001C35.7696 33.2144 33.661 34.4172 31.3451 34.9701L29.2987 35.454C29.2572 35.4678 29.2088 35.4678 29.1674 35.4678ZM43.8029 17.3296H43.7614C43.1115 17.3365 42.5032 17.6061 42.0538 18.0692L33.108 27.3181C31.6009 28.8872 30.5777 30.8365 30.1491 32.9448L29.914 34.1199L31.0824 33.8434C33.1909 33.3388 35.099 32.2536 36.6061 30.6913L45.552 21.4425C46.0013 20.9725 46.2502 20.3572 46.2364 19.7075C46.2225 19.0577 45.9598 18.4563 45.4966 18.007C45.0404 17.5646 44.4389 17.3158 43.8029 17.3158V17.3296Z" fill="#0044CC"/>
</svg>
