<svg width="16" height="16" viewBox="0 0 16 16" fill="none" xmlns="http://www.w3.org/2000/svg">
<path fill-rule="evenodd" clip-rule="evenodd" d="M14.8243 10.3757C15.0586 10.61 15.0586 10.9899 14.8243 11.2243L11.0059 15.0426C10.7716 15.2769 10.3917 15.2769 10.1574 15.0426C9.92304 14.8083 9.92304 14.4284 10.1574 14.1941L12.9515 11.4L4.79999 11.4C2.70131 11.4 0.999988 9.69867 0.999988 7.59999L0.999989 1.6C0.999989 1.26863 1.26862 0.999999 1.59999 0.999999C1.93136 0.999999 2.19999 1.26863 2.19999 1.6L2.19999 7.59999C2.19999 9.03593 3.36405 10.2 4.79999 10.2L12.9515 10.2L10.1574 7.40588C9.92304 7.17157 9.92304 6.79167 10.1574 6.55735C10.3917 6.32304 10.7716 6.32304 11.0059 6.55735L14.8243 10.3757Z" fill="#366AEE"/>
</svg>
