<svg width="100" height="60" viewBox="0 0 100 60" fill="none" xmlns="http://www.w3.org/2000/svg">
<g id="join_agree">
<path id="Vector" d="M24.9503 31.7305L14.6952 36.202C11.5683 37.2735 9.5 39.9801 9.5 43.0021V51.8892H54.3285V43.0021C54.3285 39.9801 52.2602 37.2735 49.1333 36.202L38.8782 31.7305" fill="#DDDDDD"/>
<path id="Vector_2" d="M31.9143 33.7158C38.2668 33.7158 43.4166 28.5251 43.4166 22.1221C43.4166 15.719 38.2668 10.5283 31.9143 10.5283C25.5617 10.5283 20.412 15.719 20.412 22.1221C20.412 28.5251 25.5617 33.7158 31.9143 33.7158Z" fill="#DDDDDD"/>
<path id="Vector_3" d="M61.1879 36.2179L61.7624 39.5411L62.3369 42.8642L65.1079 40.7318L67.8789 38.5994C69.0903 38.7477 70.3276 38.76 71.5713 38.6251C72.8151 38.4903 74.0625 38.2095 75.294 37.7715C79.5509 36.2558 82.8017 33.1498 84.6179 29.3542C86.434 25.5586 86.8137 21.0726 85.3283 16.7967C83.8429 12.5208 80.7722 9.26502 77.0089 7.45625C73.2457 5.64748 68.7892 5.2876 64.5323 6.80335C60.2754 8.31909 57.0246 11.425 55.2084 15.2206C54.8259 16.0202 54.5076 16.8509 54.2545 17.7044C53.8196 19.1707 53.0434 23.9789 55.9948 28.4447" stroke="#F84D4D" stroke-width="2.5" stroke-linecap="round" stroke-linejoin="round"/>
<path id="Vector_4" d="M62.4521 21.1864L67.4268 27.5355L76.7358 17.9909" stroke="#F84D4D" stroke-width="2.5" stroke-linecap="round" stroke-linejoin="round"/>
</g>
</svg>
