<svg width="24" height="24" viewBox="0 0 24 24" fill="none" xmlns="http://www.w3.org/2000/svg">
<path d="M12.9893 2.57422C17.6495 2.57422 21.426 6.79472 21.426 12.0029C21.426 17.211 17.6495 21.4315 12.9893 21.4315" stroke="#366AEE" stroke-width="1.2" stroke-linecap="round" stroke-linejoin="round"/>
<path d="M10.0105 21.4315C14.6699 21.4315 18.4472 17.2102 18.4472 12.0029C18.4472 6.79557 14.6699 2.57422 10.0105 2.57422C5.35098 2.57422 1.57373 6.79557 1.57373 12.0029C1.57373 17.2102 5.35098 21.4315 10.0105 21.4315Z" stroke="#366AEE" stroke-width="1.2" stroke-linecap="round" stroke-linejoin="round"/>
<path d="M10.0107 2.57422H13.5519" stroke="#366AEE" stroke-width="1.2" stroke-linecap="round" stroke-linejoin="round"/>
<path d="M10.0107 21.4258H13.5519" stroke="#366AEE" stroke-width="1.2" stroke-linecap="round" stroke-linejoin="round"/>
<path d="M16.123 5.51416H18.6483" stroke="#366AEE" stroke-width="1.2" stroke-linecap="round" stroke-linejoin="round"/>
<path d="M18.0283 8.68945H20.5536" stroke="#366AEE" stroke-width="1.2" stroke-linecap="round" stroke-linejoin="round"/>
<path d="M18.6655 11.8711H21.1908" stroke="#366AEE" stroke-width="1.2" stroke-linecap="round" stroke-linejoin="round"/>
<path d="M18.4702 15.0459H20.9955" stroke="#366AEE" stroke-width="1.2" stroke-linecap="round" stroke-linejoin="round"/>
<path d="M16.3525 18.2275H18.8778" stroke="#366AEE" stroke-width="1.2" stroke-linecap="round" stroke-linejoin="round"/>
<path d="M10.005 9.15475C10.1485 9.15475 10.2805 9.19494 10.3953 9.28108C10.5101 9.36721 10.5962 9.51076 10.6421 9.71748L11.1701 11.9569H12.1573L12.691 9.5567C12.7312 9.39018 12.8115 9.27533 12.9378 9.21217C13.0641 9.15475 13.2018 9.13752 13.3395 9.17197C13.4888 9.20069 13.6035 9.27533 13.6839 9.39018C13.7642 9.50502 13.7815 9.64857 13.7356 9.82084L13.2018 11.9569H13.9536C14.0455 11.9569 14.1143 11.9914 14.1603 12.0545C14.2062 12.1177 14.2234 12.1981 14.2234 12.2957C14.2234 12.3819 14.2004 12.4622 14.1603 12.5254C14.1143 12.5886 14.0455 12.623 13.9536 12.623H13.0411L12.3524 15.3908C12.3007 15.5975 12.2146 15.741 12.0941 15.8272C11.9736 15.9133 11.8473 15.9535 11.7153 15.9535C11.5833 15.9535 11.4571 15.9133 11.3365 15.8272C11.216 15.741 11.1299 15.5917 11.0783 15.3735L10.4412 12.6288H9.54014L8.84569 15.3965C8.79404 15.6032 8.70795 15.7468 8.58169 15.8329C8.45542 15.919 8.32916 15.9592 8.19715 15.9592C8.06515 15.9592 7.93889 15.919 7.81836 15.8329C7.69784 15.7468 7.61175 15.5975 7.5601 15.385L6.87138 12.6288H5.94736C5.85553 12.6288 5.78666 12.5943 5.74075 12.5311C5.69483 12.468 5.67188 12.3876 5.67188 12.3015C5.67188 12.2096 5.69483 12.1292 5.74075 12.0603C5.78666 11.9971 5.85553 11.9627 5.94736 11.9627H6.71068L6.18267 9.82658C6.13676 9.64858 6.15397 9.50502 6.23432 9.39592C6.31467 9.28108 6.42946 9.21217 6.58442 9.17772C6.7279 9.14901 6.86564 9.15475 6.98617 9.21217C7.11243 9.26385 7.19852 9.38443 7.2387 9.56244L7.77245 11.9627H8.79978L9.36223 9.72322C9.41388 9.5165 9.49423 9.37295 9.60328 9.28682C9.71232 9.20068 9.84433 9.16049 10.005 9.16049V9.15475ZM8.25455 14.1102L8.63334 12.623H7.92741L8.25455 14.1102ZM9.70084 11.9569H10.2748L9.99929 10.774L9.70084 11.9569ZM11.6752 14.1045L12.0023 12.6288H11.3251L11.6752 14.1045Z" fill="#366AEE"/>
</svg>
