<svg width="18" height="20" viewBox="0 0 18 20" fill="none" xmlns="http://www.w3.org/2000/svg">
<path fill-rule="evenodd" clip-rule="evenodd" d="M17.1335 16.7368L17.1155 16.7852C16.9382 17.2625 16.5791 17.755 16.0652 18.0662L14.6099 18.9589L14.5514 18.9882C11.4733 20.5304 8.67339 19.3363 6.89736 18.0546C5.12158 16.773 4.01297 15.1801 3.95691 15.098L1.90268 12.0831C1.84127 11.9929 0.768035 10.3844 0.26168 8.33147C-0.245587 6.27486 -0.255987 3.36417 2.47992 1.33731L2.53256 1.29832L4.01613 0.38822C4.52105 0.0784732 5.13407 -0.0287724 5.65533 0.00640863L5.66663 0.00717118C5.77849 0.0155262 5.89223 0.030929 6.00393 0.0536327C6.4045 0.13505 6.97352 0.353673 7.33591 0.884828L7.36488 0.927294L9.21229 4.11019C9.8459 5.10075 9.53702 6.39653 8.50441 7.02998L7.45034 7.6766C7.32425 7.763 7.25858 7.82362 7.22684 7.85751C7.15646 7.97503 7.06113 8.17832 7.03296 8.44087C7.00361 8.71442 7.03723 9.12793 7.37475 9.67462L8.5225 11.3569C8.90716 11.8688 9.287 12.0642 9.55962 12.1492C9.82066 12.2306 10.056 12.2318 10.2069 12.2178C10.2507 12.2039 10.3376 12.1707 10.4732 12.0963L11.5187 11.4524C12.5409 10.8253 13.9216 11.0766 14.6309 12.0562L16.9231 14.9463L16.961 15.0052C17.3232 15.568 17.3174 16.1801 17.1464 16.6919L17.1335 16.7368ZM15.7091 16.2837C15.7888 16.0624 15.7708 15.8862 15.6805 15.746L13.4079 12.8805C13.1603 12.5176 12.6779 12.4352 12.3335 12.6465L11.2613 13.3068C10.9668 13.472 10.7099 13.573 10.4855 13.618C9.89009 13.7001 8.43095 13.7099 7.27969 12.1538L6.09874 10.4228C5.06882 8.78197 5.67764 7.51796 5.98721 7.05266C6.13287 6.86035 6.33841 6.68022 6.60653 6.50029L7.68959 5.83589C8.0455 5.61756 8.14752 5.16633 7.91727 4.82885L6.07646 1.65731C6.00961 1.55933 5.8723 1.48141 5.68952 1.44426C5.6454 1.43529 5.59745 1.42867 5.54883 1.42504C5.29559 1.40795 5.01847 1.46727 4.83095 1.58231L3.40346 2.458C-0.718327 5.51157 3.12252 11.2525 3.16213 11.3106L5.21637 14.3255C5.25598 14.3835 9.20398 20.0588 13.8506 17.7307L15.2552 16.8691C15.4458 16.7547 15.6165 16.5394 15.7007 16.3127L15.7091 16.2837Z" fill="#333333"/>
</svg>
