<svg width="24" height="24" viewBox="0 0 24 24" fill="none" xmlns="http://www.w3.org/2000/svg">
<path fill-rule="evenodd" clip-rule="evenodd" d="M11.8198 3.75977C7.12597 3.75977 3.31982 7.56591 3.31982 12.2598C3.31982 16.9536 7.12597 20.7598 11.8198 20.7598C16.5137 20.7598 20.3198 16.9536 20.3198 12.2598C20.3198 10.1063 19.5174 8.14253 18.2044 6.65003C18.022 6.4427 18.0422 6.12676 18.2496 5.94436C18.4569 5.76196 18.7728 5.78218 18.9552 5.98951C20.4222 7.657 21.3198 9.85325 21.3198 12.2598C21.3198 17.5059 17.066 21.7598 11.8198 21.7598C6.57368 21.7598 2.31982 17.5059 2.31982 12.2598C2.31982 7.01362 6.57368 2.75977 11.8198 2.75977C12.096 2.75977 12.3198 2.98362 12.3198 3.25977C12.3198 3.53591 12.096 3.75977 11.8198 3.75977Z" fill="#366AEE"/>
<path d="M15.937 3.80035L11.6436 6.70467L11.7213 1L15.937 3.80035Z" fill="white"/>
<path fill-rule="evenodd" clip-rule="evenodd" d="M11.4412 0.469216C11.6355 0.36674 11.8702 0.378594 12.0532 0.500119L16.2689 3.30047C16.4356 3.41118 16.5361 3.59766 16.5369 3.79773C16.5377 3.99781 16.4388 4.18513 16.2731 4.29723L11.9796 7.20154C11.7945 7.32675 11.5552 7.33872 11.3585 7.2326C11.1619 7.12647 11.0405 6.91985 11.0435 6.6964L11.1212 0.991731C11.1242 0.772119 11.247 0.571692 11.4412 0.469216ZM12.3061 2.10877L12.2591 5.56377L14.8594 3.80479L12.3061 2.10877Z" fill="#366AEE"/>
<path d="M9.39021 9.87598C9.72047 9.87598 10.0054 9.91496 10.2515 9.99943C10.4911 10.0839 10.6918 10.1878 10.8473 10.3243C11.0027 10.4607 11.1192 10.6232 11.1905 10.8051C11.2617 10.987 11.3006 11.1754 11.3006 11.3704V11.4613C11.3006 11.7732 11.2293 12.0721 11.0869 12.358C10.9444 12.6438 10.7307 12.9297 10.4522 13.2026L8.72968 14.9114H11.2034C11.3265 14.9114 11.4236 14.9569 11.4819 15.0414C11.5402 15.1258 11.5726 15.2298 11.5726 15.3467C11.5726 15.4637 11.5402 15.5676 11.4819 15.6521C11.4236 15.7366 11.3265 15.7821 11.2034 15.7821H8.09505C7.83601 15.7821 7.64822 15.7366 7.53165 15.6456C7.41509 15.5547 7.36328 15.4117 7.36328 15.2233C7.36328 15.1388 7.38918 15.0544 7.43451 14.9764C7.47985 14.8984 7.5446 14.814 7.63526 14.723L9.5262 12.8063C9.67514 12.6568 9.79818 12.5204 9.89532 12.4034C9.98598 12.2865 10.0637 12.176 10.1155 12.0721C10.1673 11.9681 10.2062 11.8707 10.2256 11.7732C10.245 11.6757 10.2515 11.5783 10.2515 11.4743V11.4353C10.2515 11.2534 10.1803 11.104 10.0443 10.987C9.90827 10.8701 9.69457 10.8116 9.40963 10.8116C9.16355 10.8116 8.9628 10.8571 8.80091 10.948C8.63901 11.039 8.48359 11.1819 8.34113 11.3639C8.26342 11.4678 8.17276 11.5263 8.05619 11.5458C7.93963 11.5653 7.82954 11.5328 7.71945 11.4548C7.60936 11.3769 7.53813 11.2859 7.50575 11.1689C7.47337 11.052 7.49927 10.935 7.57698 10.8116C7.75831 10.5452 7.99791 10.3243 8.2958 10.1424C8.59368 9.96694 8.95633 9.87598 9.39021 9.87598Z" fill="#366AEE"/>
<path d="M15.4191 9.99937C15.5291 10.0708 15.6004 10.1618 15.6328 10.2788C15.6651 10.3957 15.6392 10.5192 15.5486 10.6556L13.418 13.7418H15.1082V12.3969C15.1082 12.2475 15.16 12.1305 15.2636 12.059C15.3672 11.9876 15.4838 11.9551 15.6198 11.9551C15.7558 11.9551 15.8724 11.9876 15.976 12.059C16.0796 12.1305 16.1314 12.241 16.1314 12.3969V13.7418H16.63C16.7531 13.7418 16.8437 13.7808 16.902 13.8718C16.9538 13.9563 16.9862 14.0537 16.9862 14.1707C16.9862 14.2876 16.9603 14.3786 16.902 14.463C16.8502 14.5475 16.7595 14.593 16.63 14.593H16.1314V15.4052C16.1314 15.5611 16.0796 15.6716 15.976 15.743C15.8724 15.8145 15.7558 15.847 15.6198 15.847C15.4838 15.847 15.3672 15.8145 15.2636 15.743C15.16 15.6716 15.1082 15.5611 15.1082 15.4052V14.593H12.8223C12.5956 14.593 12.4272 14.554 12.3301 14.4695C12.2265 14.3851 12.1812 14.2616 12.1812 14.0862C12.1812 14.0602 12.1812 14.0277 12.1876 14.0017C12.1876 13.9692 12.2071 13.9368 12.22 13.8978C12.233 13.8588 12.2589 13.8068 12.2912 13.7483C12.3236 13.6899 12.369 13.6184 12.4272 13.5339L14.765 10.1358C14.8492 10.0189 14.9463 9.9474 15.0694 9.9344C15.1859 9.92141 15.3025 9.9474 15.4126 10.0124L15.4191 9.99937Z" fill="#366AEE"/>
</svg>
