<svg width="36" height="36" viewBox="0 0 36 36" fill="none" xmlns="http://www.w3.org/2000/svg">
<rect x="0.5" y="0.5" width="35" height="35" rx="17.5" fill="white"/>
<rect x="0.5" y="0.5" width="35" height="35" rx="17.5" stroke="#CCCCCC"/>
<g clip-path="url(#clip0_1630_12021)">
<path fill-rule="evenodd" clip-rule="evenodd" d="M25 18.1592C25 17.6626 24.9543 17.1859 24.8701 16.7275H18.143V19.4352H21.9874C21.8218 20.3103 21.3185 21.0515 20.5621 21.5481V23.3042H22.8709C24.2214 22.0855 25.0007 20.2912 25.0007 18.1592H25Z" fill="#3E82F1"/>
<path fill-rule="evenodd" clip-rule="evenodd" d="M18.143 25C20.0716 25 21.6886 24.3728 22.8702 23.3039L20.5614 21.5478C19.9215 21.9679 19.1039 22.2158 18.1423 22.2158C16.2817 22.2158 14.7071 20.9846 14.1452 19.3301H11.7597V21.1435C12.9353 23.4312 15.3504 25 18.143 25Z" fill="#32A753"/>
<path fill-rule="evenodd" clip-rule="evenodd" d="M14.1459 19.3301C14.0032 18.91 13.9218 18.4616 13.9218 18C13.9218 17.5384 14.0032 17.09 14.1459 16.6699V14.8564H11.7597C11.2759 15.8014 11 16.8704 11 18C11 19.1296 11.2759 20.1986 11.7597 21.1436L14.1459 19.3301Z" fill="#F9BB00"/>
<path fill-rule="evenodd" clip-rule="evenodd" d="M18.143 13.7842C19.1914 13.7842 20.1335 14.1376 20.8737 14.8307L22.9227 12.8227C21.6852 11.6937 20.0682 11 18.143 11C15.3504 11 12.9353 12.5688 11.7597 14.8564L14.1459 16.6699C14.7077 15.0154 16.2824 13.7842 18.143 13.7842V13.7842Z" fill="#E74133"/>
</g>
<defs>
<clipPath id="clip0_1630_12021">
<rect width="14" height="14" fill="white" transform="translate(11 11)"/>
</clipPath>
</defs>
</svg>
