<svg width="22" height="20" viewBox="0 0 22 20" fill="none" xmlns="http://www.w3.org/2000/svg">
<path fill-rule="evenodd" clip-rule="evenodd" d="M4 7.25C4.41421 7.25 4.75 7.58579 4.75 8V16.9692C4.75 17.6352 5.33853 18.25 6.15769 18.25H15.8423C16.6653 18.25 17.25 17.6363 17.25 16.9692V8C17.25 7.58579 17.5858 7.25 18 7.25C18.4142 7.25 18.75 7.58579 18.75 8V16.9692C18.75 18.5491 17.4068 19.75 15.8423 19.75H6.15769C4.59939 19.75 3.25 18.5502 3.25 16.9692V8C3.25 7.58579 3.58579 7.25 4 7.25Z" fill="black"/>
<path fill-rule="evenodd" clip-rule="evenodd" d="M11.3136 1.88964C11.1368 1.70345 10.8632 1.70345 10.6864 1.88964L1.54383 11.5165C1.25859 11.8168 0.783877 11.8291 0.483527 11.5438C0.183176 11.2586 0.170928 10.7839 0.456169 10.4835L9.59872 0.856691C10.367 0.0477697 11.6331 0.0477697 12.4013 0.856691L21.5438 10.4835C21.8291 10.7839 21.8168 11.2586 21.5165 11.5438C21.2161 11.8291 20.7414 11.8168 20.4562 11.5165L11.3136 1.88964Z" fill="black"/>
<path fill-rule="evenodd" clip-rule="evenodd" d="M11 10.25C11.4142 10.25 11.75 10.5858 11.75 11V15C11.75 15.4142 11.4142 15.75 11 15.75C10.5858 15.75 10.25 15.4142 10.25 15V11C10.25 10.5858 10.5858 10.25 11 10.25Z" fill="#FF3E3E"/>
</svg>
