<svg width="61" height="60" viewBox="0 0 61 60" fill="none" xmlns="http://www.w3.org/2000/svg">
<g id="U_Icon / Infor">
<circle id="Ellipse 62" cx="30.5" cy="30" r="20" fill="#DDDDDD"/>
<g id="Vector">
<path d="M27.9074 21.6133C27.7532 20.0805 28.9566 18.75 30.497 18.75C32.0378 18.75 33.2413 20.081 33.0866 21.6139L32.0367 32.0232C31.9569 32.8145 31.2909 33.4167 30.4957 33.4167C29.7003 33.4167 29.0342 32.8142 28.9546 32.0229L27.9074 21.6133Z" fill="#366AEE"/>
<path d="M32.5536 39.1337C32.5536 40.2659 31.6332 41.1837 30.4979 41.1837C29.3625 41.1837 28.4421 40.2659 28.4421 39.1337C28.4421 38.0016 29.3625 37.0837 30.4979 37.0837C31.6332 37.0837 32.5536 38.0016 32.5536 39.1337Z" fill="#366AEE"/>
</g>
</g>
</svg>
