<svg width="36" height="36" viewBox="0 0 36 36" fill="none" xmlns="http://www.w3.org/2000/svg">
<path fill-rule="evenodd" clip-rule="evenodd" d="M12.7295 4.82031V8.13228H11.2295V4.82031H12.7295Z" fill="black"/>
<path fill-rule="evenodd" clip-rule="evenodd" d="M7.49705 6.41992L9.78983 8.78341L8.71319 9.82784L6.42041 7.46436L7.49705 6.41992Z" fill="black"/>
<path fill-rule="evenodd" clip-rule="evenodd" d="M17.5384 7.46436L15.2456 9.82784L14.1689 8.78341L16.4617 6.41992L17.5384 7.46436Z" fill="black"/>
<path fill-rule="evenodd" clip-rule="evenodd" d="M3.95288 19.2985C3.95288 14.5051 7.74597 10.5908 12.4573 10.5908C17.1696 10.5908 20.956 14.512 20.956 19.2985V28.1621C20.956 29.8172 19.6419 31.1857 17.9905 31.1857H6.91842C5.25895 31.1857 3.95288 29.8089 3.95288 28.1621V19.2985ZM12.4573 12.0908C8.61005 12.0908 5.45288 15.2974 5.45288 19.2985V28.1621C5.45288 29.0198 6.12617 29.6857 6.91842 29.6857H17.9905C18.7795 29.6857 19.456 29.023 19.456 28.1621V19.2985C19.456 15.3021 16.3034 12.0908 12.4573 12.0908Z" fill="black"/>
<path fill-rule="evenodd" clip-rule="evenodd" d="M12.4517 15.7266C10.5667 15.7266 8.99561 17.3062 8.99561 19.293V20.043H7.49561V19.293C7.49561 16.5133 9.70325 14.2266 12.4517 14.2266H13.2017V15.7266H12.4517Z" fill="#366AEE"/>
<g clip-path="url(#clip0_974_9850)">
<path d="M30.1529 23.5627L32.7794 22.9049" stroke="#366AEE" stroke-width="1.5" stroke-linecap="square"/>
<path d="M22 16L31.029 13.5376C32.1107 13.2425 33.2236 13.8943 33.4955 14.982L35.5149 23.0597C35.7828 24.1313 35.1313 25.2172 34.0597 25.4851L22 28.5V16Z" fill="#DDDDDD"/>
<path d="M22.0001 19.0389L33.7085 16.1514L34.6067 19.3029L22.0265 22.1904L22.0001 19.0389Z" fill="#999999"/>
</g>
<defs>
<clipPath id="clip0_974_9850">
<rect width="14" height="16" fill="white" transform="translate(22 13)"/>
</clipPath>
</defs>
</svg>
