<svg width="36" height="36" viewBox="0 0 36 36" fill="none" xmlns="http://www.w3.org/2000/svg">
<path d="M15.1215 11.6797C13.6887 17.0271 17.0532 22.5723 22.6386 24.0689C23.9244 24.4134 25.216 24.5106 26.4616 24.3943L32.3284 28.6018L31.5425 22.5236C33.3538 21.2394 34.7337 19.3726 35.3431 17.0981C36.7759 11.7508 33.4114 6.20559 27.826 4.70899C22.2407 3.2124 16.5534 6.33558 15.1215 11.6797Z" fill="#DDDDDD"/>
<path d="M12.3675 9.30469C18.0947 9.30469 22.735 13.9025 22.735 19.5772C22.735 20.8837 22.4863 22.1327 22.0366 23.2839L24.6702 29.9139L18.8067 27.6252C17.0385 29.016 14.8035 29.8498 12.3675 29.8498C6.64031 29.8498 1.99998 25.252 1.99998 19.5772C1.99998 13.9025 6.64372 9.30469 12.3675 9.30469Z" fill="white"/>
<path fill-rule="evenodd" clip-rule="evenodd" d="M23.485 19.5772C23.485 13.4818 18.5023 8.55469 12.3675 8.55469C6.23619 8.55469 1.24997 13.4817 1.24997 19.5772C1.24997 25.6727 6.23262 30.5998 12.3675 30.5998C14.8213 30.5998 17.0868 29.8096 18.9243 28.4762L24.3974 30.6126L25.3672 29.6371L22.8404 23.276C23.2566 22.1189 23.485 20.8742 23.485 19.5772ZM12.3675 10.0547C17.687 10.0547 21.985 14.3232 21.985 19.5772C21.985 20.7877 21.7547 21.9443 21.338 23.011L21.3395 23.5608L23.3366 28.5883L19.0794 26.9265L18.343 27.0357C16.7022 28.3263 14.6293 29.0998 12.3675 29.0998C7.048 29.0998 2.74997 24.8313 2.74997 19.5772C2.74997 14.3234 7.05125 10.0547 12.3675 10.0547Z" fill="#231916"/>
<path fill-rule="evenodd" clip-rule="evenodd" d="M9.96326 19.6099V16.5186H8.46326V19.6099H9.96326Z" fill="#231916"/>
<path fill-rule="evenodd" clip-rule="evenodd" d="M14.646 16.5186V19.6099H16.146V16.5186H14.646Z" fill="#231916"/>
<path fill-rule="evenodd" clip-rule="evenodd" d="M16.5119 22.6924L16.9818 22.1746L15.8711 21.1665L15.4007 21.6848C14.6738 22.487 13.5372 22.9815 12.3046 22.9815C11.0709 22.9815 9.93563 22.4898 9.20967 21.6861L9.20848 21.6848L8.73811 21.1665L7.62737 22.1746L8.09654 22.6915C8.09678 22.6918 8.09702 22.6921 8.09727 22.6923C9.13434 23.84 10.6885 24.4815 12.3046 24.4815C13.922 24.4815 15.4757 23.8358 16.5119 22.6924C16.5118 22.6925 16.5119 22.6923 16.5119 22.6924Z" fill="#366AEE"/>
</svg>
