<svg width="36" height="36" viewBox="0 0 36 36" fill="none" xmlns="http://www.w3.org/2000/svg">
<g style="mix-blend-mode:darken">
<path d="M27.9889 7H14.7916C12.6984 7 11 8.74091 11 10.8864V20.2045C11 22.35 12.6984 24.0909 14.7916 24.0909H27.5144L30.3348 27.7682C30.8093 28.3909 31.7849 28.0455 31.7849 27.2545V10.8864C31.7849 8.74091 30.0865 7 27.9933 7H27.9889Z" fill="#E2E2E2"/>
</g>
<path d="M24.6406 10.9185H11.3593C9.25048 10.9185 7.54407 12.6631 7.54407 14.8191V24.1705C7.54407 26.3265 9.25048 28.0711 11.3593 28.0711H24.1592L26.9972 31.7624C27.475 32.3868 28.4558 32.0379 28.4558 31.2482V14.8191C28.4558 12.6631 26.7493 10.9185 24.6406 10.9185Z" fill="white"/>
<path fill-rule="evenodd" clip-rule="evenodd" d="M6.79407 14.8191C6.79407 12.2646 8.82069 10.1685 11.3593 10.1685H24.6406C27.1791 10.1685 29.2058 12.2646 29.2058 14.8191V31.2482C29.2058 32.7125 27.3413 33.4453 26.402 32.2188C26.4019 32.2186 26.4021 32.2189 26.402 32.2188L23.7898 28.8211H11.3593C8.82069 28.8211 6.79407 26.7249 6.79407 24.1705V14.8191ZM11.3593 11.6685C9.68028 11.6685 8.29407 13.0616 8.29407 14.8191V24.1705C8.29407 25.928 9.68028 27.3211 11.3593 27.3211H24.1592L24.7538 27.614L27.5928 31.3067C27.6042 31.3215 27.6122 31.3274 27.6149 31.3292C27.6178 31.3311 27.6197 31.3318 27.6213 31.3322C27.6252 31.3333 27.6375 31.3349 27.6555 31.3286C27.6735 31.3222 27.686 31.3116 27.6927 31.3027C27.6957 31.2986 27.6984 31.2937 27.7006 31.2871C27.7027 31.2807 27.7058 31.2685 27.7058 31.2482V14.8191C27.7058 13.0616 26.3195 11.6685 24.6406 11.6685H11.3593Z" fill="#231916"/>
<path fill-rule="evenodd" clip-rule="evenodd" d="M20.0574 19.1895V16.8608H21.5574V19.1895H20.0574Z" fill="#231916"/>
<path fill-rule="evenodd" clip-rule="evenodd" d="M15.9424 16.8608V19.1895H14.4424V16.8608H15.9424Z" fill="#231916"/>
<path d="M21.7019 20.9639C20.9367 21.9225 19.5608 22.5579 17.9981 22.5579C16.4354 22.5579 15.063 21.9225 14.2979 20.9639" fill="white"/>
<path fill-rule="evenodd" clip-rule="evenodd" d="M14.8841 20.4961C15.484 21.2476 16.624 21.808 17.9982 21.808C19.373 21.808 20.5163 21.2472 21.1158 20.4961L22.2882 21.4319C21.3573 22.598 19.7488 23.308 17.9982 23.308C16.247 23.308 14.6423 22.5976 13.7118 21.4319L14.8841 20.4961Z" fill="#231916"/>
<path d="M3.98066 23.1093C2.3692 22.7055 1.19995 21.0107 1.19995 19.0744C1.19995 17.138 2.3692 15.4464 3.98066 15.0458L4.79995 14.8423V23.316L3.98066 23.1125V23.1093Z" fill="#366AEE"/>
<path d="M31.2 14.8423L32.0192 15.0459C33.6307 15.4498 34.8 17.1452 34.8 19.0759C34.8 21.0067 33.6307 22.7084 32.0192 23.1124L31.2 23.316V14.8423Z" fill="#366AEE"/>
</svg>
