<svg width="22" height="22" viewBox="0 0 22 22" fill="none" xmlns="http://www.w3.org/2000/svg">
<g clip-path="url(#clip0_966_7058)">
<path d="M20.3938 10.9977C20.3938 12.972 19.7826 14.8007 18.7493 16.3093C17.0564 18.7736 14.2138 20.3889 11.0026 20.3889C7.7913 20.3889 4.94871 18.7687 3.25577 16.3093C2.22254 14.8007 1.61133 12.9671 1.61133 10.9977C1.60648 5.81212 5.81216 1.60645 10.9977 1.60645C16.1832 1.60645 20.3889 5.81212 20.3889 10.9977H20.3938Z" fill="#366AEE" stroke="#366AEE" stroke-width="2" stroke-linecap="round" stroke-linejoin="round"/>
<path d="M10.9976 10.6822C12.589 10.6822 13.879 9.39218 13.879 7.80083C13.879 6.20948 12.589 4.91943 10.9976 4.91943C9.40626 4.91943 8.11621 6.20948 8.11621 7.80083C8.11621 9.39218 9.40626 10.6822 10.9976 10.6822Z" fill="white"/>
<path d="M18.7494 16.314C17.0565 18.7782 14.2139 20.3936 11.0026 20.3936C7.79139 20.3936 4.9488 18.7734 3.25586 16.314C3.77975 14.2281 5.66187 12.6904 7.90781 12.6904H14.0975C16.3434 12.6904 18.2255 14.2281 18.7494 16.314Z" fill="white"/>
</g>
<defs>
<clipPath id="clip0_966_7058">
<rect width="22" height="22" fill="white"/>
</clipPath>
</defs>
</svg>
