<svg width="119" height="96" viewBox="0 0 119 96" fill="none" xmlns="http://www.w3.org/2000/svg">
<mask id="mask0_948_6160" style="mask-type:alpha" maskUnits="userSpaceOnUse" x="0" y="0" width="119" height="96">
<rect width="119" height="96" fill="#D9D9D9"/>
</mask>
<g mask="url(#mask0_948_6160)">
<path d="M62.8876 62.4914L67.9786 65.8741C68.5008 66.2225 69.1824 66.1935 69.6756 65.8015C70.2993 65.3079 70.4056 64.4029 69.9173 63.7738L66.8424 59.8394L62.8828 62.4914H62.8876Z" fill="white"/>
<path d="M68.7812 66.3581C68.4573 66.3581 68.1334 66.2661 67.8482 66.0774L62.7572 62.6947C62.6895 62.6511 62.646 62.5737 62.646 62.4914C62.646 62.4091 62.6847 62.3317 62.7524 62.2882L66.712 59.6362C66.8184 59.5636 66.9634 59.5878 67.0408 59.6894L70.1156 63.6238C70.6861 64.3546 70.5604 65.4193 69.8304 65.9903C69.5258 66.2323 69.1535 66.3581 68.7812 66.3581ZM63.3277 62.4866L68.1141 65.6661C68.5492 65.9564 69.1148 65.9322 69.5258 65.608C70.0431 65.1966 70.135 64.4417 69.7289 63.9239L66.7942 60.1685L63.3277 62.4914V62.4866Z" fill="#07284B"/>
<path d="M36.9277 33.9035L28.6113 55.1123L43.3683 60.9101L51.6847 39.7013L36.9277 33.9035Z" fill="white"/>
<path d="M43.3651 61.1507C43.3361 61.1507 43.307 61.1458 43.278 61.1313L28.5177 55.3337C28.4596 55.3095 28.4113 55.2611 28.3823 55.203C28.3581 55.1449 28.3533 55.0772 28.3823 55.0143L36.698 33.8031C36.7463 33.6773 36.8865 33.6144 37.0123 33.6628L51.7726 39.4604C51.8306 39.4846 51.879 39.533 51.908 39.5911C51.9322 39.6492 51.937 39.7169 51.908 39.7798L43.5923 60.991C43.5536 61.0877 43.4618 61.1458 43.3651 61.1458V61.1507ZM28.9238 54.9707L43.2297 60.5893L51.3665 39.8331L37.0606 34.2145L28.9238 54.9707Z" fill="#07284B"/>
<path d="M-2.22607 108.964C-1.23496 112.458 15.8412 122.94 33.691 114.152C35.1994 105.243 43.8004 89.8678 46.1597 86.8964C49.0122 83.2959 46.7061 66.1063 45.7923 60.0813C45.5892 58.7504 44.8689 57.5551 43.7859 56.7517L30.824 47.1939C30.3502 46.8503 29.683 47.01 29.4123 47.5278L28.0441 50.1653C28.0441 50.1653 16.5713 56.5146 11.2821 75.1802C5.99777 93.8458 -2.22607 108.964 -2.22607 108.964Z" fill="white"/>
<path d="M19.1095 117.82C18.7178 117.82 18.3262 117.815 17.9346 117.801C12.4037 117.607 7.94127 116.097 5.17098 114.863C0.679528 112.864 -2.06659 110.416 -2.4582 109.032C-2.47754 108.969 -2.46787 108.906 -2.43886 108.848C-2.35667 108.698 5.83333 93.5359 11.05 75.1122C13.7913 65.4237 18.2295 59.1034 21.464 55.5078C24.7322 51.8782 27.401 50.2522 27.8603 49.986L29.1947 47.4114C29.3542 47.1017 29.6443 46.8743 29.9827 46.7968C30.3212 46.7146 30.6789 46.7871 30.9642 46.9952L43.9309 56.5579C45.0767 57.4 45.8212 58.6389 46.034 60.0471C47.0831 66.9627 49.2152 83.436 46.3482 87.051C43.868 90.1821 35.4024 105.499 33.9327 114.195C33.9182 114.273 33.8698 114.34 33.8021 114.374C29.1463 116.668 24.2052 117.83 19.1095 117.83V117.82ZM-1.96023 108.988C-1.50576 110.251 1.163 112.545 5.3692 114.418C9.65275 116.325 20.9515 120.095 33.4734 113.982C35.0157 105.189 43.4812 89.8773 45.9663 86.7365C48.7898 83.1747 46.3627 65.4576 45.5505 60.11C45.3571 58.8324 44.6802 57.7097 43.6408 56.9451L30.6789 47.3872C30.5145 47.2662 30.3018 47.2227 30.0988 47.2711C29.8957 47.3195 29.7265 47.455 29.6298 47.6389L28.2616 50.2764C28.2374 50.3199 28.2035 50.3538 28.1649 50.378C28.1359 50.3925 25.2785 51.9992 21.8121 55.8562C18.6163 59.4132 14.2361 65.6609 11.519 75.2477C6.50052 92.9745 -1.26403 107.686 -1.96023 108.988Z" fill="#07284B"/>
<path d="M51.6177 46.4193L57.2792 52.6863C57.371 52.7879 57.3614 52.9428 57.2598 53.0299C57.1583 53.1219 57.0036 53.1122 56.9166 53.0106L51.4002 46.6129C51.347 46.5499 51.3567 46.458 51.4147 46.4048C51.4727 46.3515 51.5646 46.3564 51.6177 46.4193Z" fill="#07284B"/>
<path d="M62.2591 39.2039C64.3767 33.0627 64.3767 27.4732 64.3041 27.4732L36.5674 23.5581L32.2983 37.1472C32.2983 37.1472 32.6851 45.2919 43.6454 52.6043C45.6663 53.9544 48.2336 54.1722 50.4624 53.1995C54.2963 51.5202 57.0762 48.8053 59.0971 45.7516L61.0407 46.3469C62.0367 46.6518 62.9891 45.7758 62.7715 44.7596C62.5926 43.9078 62.3702 42.9303 62.143 42.0447C61.9013 41.1107 61.9448 40.1234 62.2639 39.2088L62.2591 39.2039Z" fill="white"/>
<path d="M47.5862 54.0465C46.1551 54.0465 44.7385 53.6303 43.5105 52.8076C41.8909 51.7285 40.4066 50.567 39.1013 49.3475C39.0046 49.2555 38.9949 49.1007 39.0868 49.0039C39.1786 48.9071 39.3333 48.8974 39.43 48.9893C40.7209 50.1847 42.1858 51.3365 43.7813 52.4011C45.7393 53.7078 48.2002 53.9207 50.3661 52.977C53.7891 51.4816 56.6561 49.0039 58.8946 45.6163C58.9526 45.5243 59.0638 45.4856 59.1701 45.5195L61.1137 46.1147C61.4956 46.2309 61.9018 46.1389 62.1967 45.8679C62.4916 45.5969 62.6173 45.2001 62.5351 44.8081C62.3175 43.7725 62.1048 42.8626 61.9114 42.1029C61.66 41.1253 61.7035 40.0945 62.0371 39.1266C63.9178 33.6726 64.1112 28.659 64.0871 27.6911L36.6839 23.6792L32.5454 37.1812C32.5502 37.2538 32.5647 37.4183 32.6034 37.6603C32.6227 37.7958 32.5309 37.9168 32.4003 37.941C32.2698 37.9603 32.1441 37.8732 32.1199 37.7377C32.0619 37.3748 32.0522 37.1715 32.0522 37.1667C32.0522 37.1376 32.0522 37.1086 32.0619 37.0844L36.2729 23.3405C36.3068 23.2243 36.4228 23.1517 36.5437 23.1711L64.3385 27.241C64.4061 27.2507 64.4642 27.2894 64.5028 27.3427C64.5415 27.4007 64.5947 27.4733 64.556 28.5138C64.5367 29.0606 64.4787 29.9608 64.3385 31.1368C64.1064 33.0919 63.5939 36.0923 62.4916 39.296C62.187 40.1719 62.1483 41.1059 62.3804 41.9916C62.5786 42.761 62.7913 43.6757 63.0089 44.7161C63.1298 45.2775 62.9461 45.8486 62.5254 46.2357C62.1 46.6229 61.5198 46.7584 60.9687 46.589L59.1992 46.047C56.922 49.4346 54.0163 51.922 50.5595 53.4319C49.6023 53.8481 48.5918 54.0562 47.5862 54.0562V54.0465ZM64.2611 27.7153C64.2611 27.7153 64.2901 27.7153 64.3046 27.7153C64.2949 27.7153 64.2804 27.7153 64.2708 27.7153H64.2611Z" fill="#07284B"/>
<path d="M58.1981 39.3154C58.0337 39.7461 58.2464 40.2301 58.6767 40.3995C59.107 40.564 59.5905 40.3511 59.7597 39.9204C59.9241 39.4897 59.7114 39.0057 59.2811 38.8363C58.8508 38.6718 58.3673 38.8847 58.1981 39.3154Z" fill="#07284B"/>
<path d="M56.9411 38.5078C56.8734 38.5078 56.8106 38.4836 56.7622 38.4303C56.6704 38.3286 56.6752 38.1785 56.7767 38.0865C56.8299 38.0332 58.1546 36.8468 60.0257 37.4279C60.1562 37.4666 60.2239 37.6071 60.1852 37.733C60.1465 37.8637 60.0063 37.9364 59.8806 37.8928C58.2707 37.394 57.1152 38.4352 57.1055 38.4449C57.0571 38.4885 56.9991 38.5078 56.9411 38.5078Z" fill="#07284B"/>
<path d="M56.4283 49.3715C56.4283 49.3715 56.4089 49.3715 56.3993 49.3715C55.5435 49.2698 54.4025 48.8053 53.8272 47.1937C53.8175 47.1695 53.8127 47.155 53.8079 47.1405C53.7644 47.0728 53.7595 46.9808 53.7982 46.9034C53.8562 46.7824 54.0061 46.734 54.127 46.7921C54.2237 46.8405 54.2478 46.9131 54.2913 47.0292C54.6878 48.1374 55.4178 48.7617 56.4621 48.8875C56.5975 48.9021 56.6894 49.023 56.6749 49.1585C56.6604 49.2844 56.554 49.3715 56.4331 49.3715H56.4283Z" fill="#07284B"/>
<path d="M63.3426 33.1064C60.495 35.6762 53.3541 40.4575 42.9885 36.1407C38.41 40.0365 34.0781 40.1526 34.0781 40.1526C34.0781 40.1526 21.7883 38.2604 31.9073 21.395C37.4044 12.234 49.3461 14.3827 56.1727 15.8394C60.4805 16.7589 63.4828 18.9657 64.5706 23.2389C65.0493 25.1214 65.5859 27.1588 65.3055 29.3994C65.1266 30.8319 64.4159 32.1385 63.3426 33.1064Z" fill="#07284B"/>
<path d="M45.0283 39.2763C45.3232 42.4462 43.7906 45.1853 41.6004 45.3885C39.4103 45.5918 37.3942 43.1914 37.0993 40.0168C36.8044 36.847 38.337 34.1078 40.5271 33.9046C42.7173 33.7013 44.7333 36.1017 45.0283 39.2763Z" fill="white"/>
<path d="M40.566 45.5437C40.566 45.5437 40.5224 45.5437 40.4983 45.534C38.6031 45.0065 37.0995 42.7513 36.8481 40.0461C36.5386 36.7456 38.1776 33.8855 40.4983 33.6678C42.7416 33.4597 44.8205 35.7777 45.2315 38.9476C45.2508 39.0831 45.1541 39.204 45.0187 39.2234C44.8834 39.2428 44.7625 39.146 44.7431 39.0105C44.366 36.102 42.5192 33.9678 40.5369 34.1565C38.4822 34.3501 37.0463 36.9731 37.3267 40.0026C37.5636 42.5094 38.9173 44.5903 40.6191 45.0646C40.7497 45.0985 40.827 45.234 40.7884 45.3646C40.7593 45.4711 40.6627 45.5437 40.5515 45.5437H40.566Z" fill="#07284B"/>
<path d="M65.8759 61.8426L70.9524 62.2298L76.7105 66.1061C77.2955 66.503 78.0739 66.4497 78.6057 65.9852C79.3164 65.3609 79.3164 64.2478 78.5961 63.6284L72.6977 58.5373L66.137 57.7969L65.8711 61.8378L65.8759 61.8426Z" fill="white"/>
<path d="M77.5805 66.6146C77.2324 66.6146 76.8795 66.513 76.5749 66.3098L70.8699 62.4721L65.8563 62.0898C65.7209 62.0801 65.6242 61.964 65.6291 61.8285L65.895 57.7876C65.895 57.7198 65.9288 57.6569 65.982 57.6182C66.0352 57.5746 66.098 57.5553 66.1657 57.5649L72.7264 58.3054C72.7748 58.3102 72.8231 58.3296 72.857 58.3634L78.7553 63.4545C79.1518 63.7981 79.379 64.2917 79.379 64.8144C79.379 65.337 79.1566 65.8355 78.765 66.1791C78.4266 66.4743 78.0011 66.6243 77.5757 66.6243L77.5805 66.6146ZM66.1319 61.6155L70.9714 61.9833C71.0149 61.9833 71.0536 62.0027 71.0875 62.022L76.8456 65.8984C77.3388 66.2323 77.9963 66.1888 78.4459 65.7968C78.7311 65.5451 78.8955 65.1822 78.8955 64.7999C78.8955 64.4176 78.7263 64.0594 78.4411 63.8078L72.6007 58.7651L66.3688 58.0634L66.1367 61.6059L66.1319 61.6155Z" fill="#07284B"/>
<path d="M51.6807 72.054L56.2446 59.5151C56.6072 58.5182 57.4388 57.7632 58.4686 57.5019L68.7617 54.8838C69.6561 54.6563 70.6086 54.8209 71.3773 55.3338L80.2538 61.2669C80.8678 61.6783 81.1096 62.4671 80.8243 63.1543C80.5004 63.9383 79.606 64.3158 78.8227 64.0012L71.2758 61.0056L64.9665 63.1592L64.2461 75.0835L51.6807 72.054Z" fill="white"/>
<path d="M64.2413 75.3255C64.2413 75.3255 64.2026 75.3255 64.1833 75.3207L51.6179 72.2912C51.5502 72.2767 51.4922 72.2283 51.4583 72.1702C51.4245 72.1073 51.4196 72.0347 51.4438 71.9718L56.0078 59.4329C56.3994 58.3585 57.2938 57.5503 58.401 57.2648L68.6941 54.6467C69.6562 54.3999 70.6811 54.5789 71.503 55.1306L80.3796 61.0638C81.0903 61.538 81.3659 62.4575 81.0419 63.2463C80.6697 64.1465 79.6302 64.5868 78.7213 64.2287L71.2565 61.267L65.1841 63.3383L64.4734 75.098C64.4734 75.1706 64.4347 75.2384 64.3767 75.2819C64.3332 75.311 64.2848 75.3303 64.2316 75.3303L64.2413 75.3255ZM51.9998 71.8798L64.0141 74.7787L64.7151 63.1495C64.7199 63.0528 64.7876 62.9656 64.8795 62.9318L71.1888 60.7782C71.242 60.7589 71.3048 60.7589 71.358 60.7782L78.905 63.7738C79.5625 64.0352 80.3216 63.7158 80.5923 63.0576C80.8292 62.4817 80.6261 61.8139 80.1137 61.4703L71.2371 55.5371C70.5264 55.0629 69.6465 54.9129 68.8198 55.121L58.5267 57.7391C57.5742 57.9811 56.8055 58.6779 56.4719 59.5974L51.9998 71.8798Z" fill="#07284B"/>
<path d="M20.1829 72.1894C25.6703 82.8216 36.1036 100.786 45.9712 106.196C49.4232 108.088 53.7455 107.086 56.0371 103.883C63.1877 93.8942 65.3971 75.5528 65.8613 71.9717C65.9144 71.5458 65.7694 71.1151 65.4648 70.8102C64.0772 69.4261 59.552 65.7482 50.54 65.6514C49.7617 65.6417 49.0945 66.2176 48.9833 66.9919L46.914 80.9681L38.2454 63.1349C35.6588 57.8115 29.0788 55.8419 23.9975 58.8665C19.4045 61.6008 17.7269 67.442 20.1829 72.1943V72.1894Z" fill="white"/>
<path d="M49.6838 107.391C48.3785 107.391 47.0634 107.072 45.8499 106.409C37.5052 101.831 28.8414 88.4597 23.0397 78.0404C22.9721 77.9243 23.0156 77.7742 23.1364 77.7065C23.2525 77.6387 23.4023 77.6823 23.47 77.8033C29.2378 88.1596 37.8436 101.458 46.0868 105.978C49.4228 107.808 53.6145 106.845 55.8384 103.738C59.0052 99.3096 63.2694 90.2454 65.5852 72.2138L65.6191 71.9379C65.6674 71.5798 65.5465 71.2314 65.2951 70.9797C63.7964 69.4843 59.3533 65.9903 50.5396 65.8886C50.5396 65.8886 50.5299 65.8886 50.5251 65.8886C49.8772 65.8886 49.3212 66.3726 49.2245 67.0211L47.1553 80.9973C47.1408 81.1038 47.0586 81.186 46.9522 81.2005C46.8459 81.2151 46.7443 81.1618 46.696 81.065L39.207 65.6563C39.149 65.5354 39.1973 65.3902 39.3182 65.3321C39.4391 65.274 39.5841 65.3224 39.6421 65.4434L46.7878 80.1407L48.7411 66.9485C48.8716 66.058 49.65 65.3853 50.5444 65.3999C59.5322 65.5015 64.0961 69.0923 65.6384 70.6313C66.001 70.9894 66.1702 71.4878 66.1025 71.996L66.0687 72.2718C63.7432 90.4051 59.4355 99.5467 56.2349 104.018C54.6733 106.196 52.2027 107.387 49.6838 107.387V107.391Z" fill="#07284B"/>
<path d="M46.464 88.4208C46.464 88.4208 46.435 88.4208 46.4254 88.4208C46.2948 88.3966 46.203 88.2708 46.2223 88.1401C46.232 88.082 47.1506 82.478 46.6816 81.0407C46.6381 80.9149 46.7106 80.7745 46.8363 80.731C46.9668 80.6874 47.1022 80.76 47.1457 80.8858C47.6485 82.4344 46.7396 87.9804 46.7009 88.2175C46.6816 88.3385 46.5801 88.4208 46.4592 88.4208H46.464Z" fill="#07284B"/>
<path d="M29.6007 47.4018C33.3629 47.4018 36.4128 44.5375 36.4128 41.0041C36.4128 37.4708 33.3629 34.6064 29.6007 34.6064C25.8385 34.6064 22.7886 37.4708 22.7886 41.0041C22.7886 44.5375 25.8385 47.4018 29.6007 47.4018Z" fill="#07284B"/>
<path d="M100.207 63.9478L109.635 105.31C109.813 106.099 109.214 106.849 108.407 106.849H92.1474C90.8034 106.849 89.7929 105.62 90.054 104.299C90.2522 103.297 91.1273 102.576 92.1474 102.576H101.749L97.0933 72.3103L100.202 63.9478H100.207Z" fill="#07284B"/>
<path d="M92.2596 77.5254L97.1506 58.757C97.435 57.666 98.5498 57.0118 99.6398 57.2964L100.477 57.515C101.567 57.7997 102.221 58.9155 101.936 60.0066L97.0454 78.775C96.761 79.866 95.6462 80.5202 94.5562 80.2356L93.7188 80.0169C92.6288 79.7323 91.9753 78.6164 92.2596 77.5254Z" fill="#07284B"/>
<path d="M100.559 40.1639L86.1592 95.4199L89.9345 96.4057L104.334 41.1496L100.559 40.1639Z" fill="#07284B"/>
<path d="M44.0562 32.124L52.4685 11.3726L56.7908 13.1438L48.3542 34.4275L44.0562 32.124Z" fill="white"/>
<path d="M48.3541 34.6742C48.3154 34.6742 48.2767 34.6645 48.2381 34.6452L43.9448 32.3416C43.8336 32.2836 43.7853 32.1481 43.8336 32.0367L52.2412 11.2805C52.2654 11.2224 52.3137 11.174 52.3717 11.145C52.4298 11.116 52.4974 11.1208 52.5603 11.145L56.8825 12.9114C57.0082 12.9598 57.0662 13.105 57.0179 13.226L48.5813 34.5145C48.5572 34.5774 48.504 34.6307 48.4363 34.6549C48.4073 34.6645 48.3831 34.6694 48.3541 34.6694V34.6742ZM44.3655 32.0125L48.2236 34.0838L56.4716 13.2743L52.599 11.6919L44.3655 32.0125Z" fill="#07284B"/>
<path d="M39.9812 34.9849L38.6172 38.6077C37.6445 41.1913 38.9483 44.075 41.5293 45.0486L41.6063 45.0776C44.1873 46.0513 47.0682 44.7462 48.0409 42.1627L49.4049 38.5399C50.3776 35.9563 49.0738 33.0727 46.4928 32.099L46.4159 32.07C43.8348 31.0963 40.9539 32.4014 39.9812 34.9849Z" fill="white"/>
<path d="M43.365 45.6451C42.751 45.6451 42.1322 45.5387 41.523 45.3064L41.4408 45.2773C40.1306 44.7837 39.096 43.811 38.5158 42.5334C37.9356 41.2558 37.8921 39.833 38.3853 38.5264L39.7487 34.9016C40.2418 33.5902 41.2136 32.5545 42.4899 31.9738C43.7663 31.3931 45.1877 31.3495 46.4931 31.8431L46.5753 31.8722C47.8855 32.3658 48.9201 33.3385 49.5003 34.6161C50.0756 35.8937 50.124 37.3165 49.6308 38.6231L48.2674 42.2479C47.4794 44.3433 45.4778 45.6403 43.3602 45.6403L43.365 45.6451ZM41.6971 44.8515C44.1483 45.7758 46.8895 44.5321 47.813 42.0785L49.1764 38.4538C49.626 37.2681 49.5825 35.976 49.0603 34.8194C48.5382 33.6627 47.5954 32.7771 46.4109 32.3319L46.3287 32.3029C45.1442 31.8528 43.8533 31.8964 42.6978 32.419C41.5423 32.9417 40.6576 33.8854 40.2128 35.071L38.8494 38.6957C38.3998 39.8814 38.4433 41.1735 38.9654 42.3301C39.4876 43.4868 40.4304 44.3724 41.6149 44.8176L41.6971 44.8466V44.8515Z" fill="#07284B"/>
<path d="M42.4124 42.9109L42.3592 42.8916C40.6381 42.2431 39.7727 40.3218 40.4205 38.6038L41.3295 36.189C41.9773 34.4661 43.8967 33.5999 45.613 34.2484L45.6662 34.2677C47.3873 34.9162 48.2528 36.8375 47.6049 38.5554L46.696 40.9703C46.0481 42.6931 44.1288 43.5594 42.4124 42.9109Z" fill="white"/>
<path d="M43.5827 43.3707C43.1669 43.3707 42.7414 43.2981 42.3257 43.1432L42.2725 43.1239C41.3781 42.7851 40.6722 42.1221 40.2806 41.251C39.889 40.3799 39.8551 39.412 40.1936 38.5167L41.1025 36.1019C41.4409 35.2066 42.1033 34.5 42.9735 34.108C43.8438 33.716 44.8107 33.6822 45.7051 34.0209L45.7583 34.0403C47.6003 34.7372 48.5334 36.7987 47.8421 38.6426L46.9331 41.0574C46.3965 42.4899 45.0331 43.3707 43.5875 43.3707H43.5827ZM42.4997 42.6835C44.0903 43.2836 45.8695 42.4754 46.469 40.8832L47.3779 38.4683C47.9774 36.8762 47.17 35.0953 45.5794 34.4952L45.5262 34.4758C44.7575 34.1855 43.9163 34.2145 43.1669 34.5533C42.4175 34.892 41.8422 35.5066 41.5521 36.2761L40.6432 38.691C40.3531 39.4604 40.3821 40.3025 40.7205 41.0526C41.059 41.8027 41.673 42.3786 42.4417 42.669L42.4949 42.6883L42.4997 42.6835Z" fill="#07284B"/>
<path d="M57.0956 54.1627C57.8085 54.1627 58.3864 53.6297 58.3864 52.9722C58.3864 52.3147 57.8085 51.7817 57.0956 51.7817C56.3826 51.7817 55.8047 52.3147 55.8047 52.9722C55.8047 53.6297 56.3826 54.1627 57.0956 54.1627Z" fill="#07284B"/>
</g>
</svg>
