<svg width="28" height="20" viewBox="0 0 28 20" fill="none" xmlns="http://www.w3.org/2000/svg">
<path d="M14.5944 13.1898C14.7718 12.9471 14.9678 12.9098 15.1824 13.0778C15.3131 13.1805 15.4671 13.2738 15.6444 13.3578C15.8218 13.4418 16.0131 13.5165 16.2184 13.5818C16.4238 13.6378 16.6338 13.6845 16.8484 13.7218C17.0724 13.7591 17.2918 13.7778 17.5064 13.7778C17.7584 13.7778 17.9964 13.7498 18.2204 13.6938C18.4444 13.6378 18.6358 13.5585 18.7944 13.4558C18.9624 13.3531 19.0931 13.2271 19.1864 13.0778C19.2798 12.9191 19.3218 12.7465 19.3124 12.5598C19.2938 12.1958 19.1164 11.9111 18.7804 11.7058C18.4444 11.5005 18.0198 11.3838 17.5064 11.3558C17.1144 11.3371 16.7084 11.3885 16.2884 11.5098C15.8778 11.6311 15.4764 11.7571 15.0844 11.8878C14.8044 11.9905 14.5618 11.9765 14.3564 11.8458C14.1511 11.7058 14.0438 11.4958 14.0344 11.2158L13.9504 6.2038C13.9411 5.87713 14.0298 5.63447 14.2164 5.4758C14.4031 5.3078 14.6411 5.2238 14.9304 5.2238L20.9364 5.1958C21.0858 5.1958 21.2024 5.24247 21.2864 5.3358C21.3798 5.4198 21.4264 5.53647 21.4264 5.6858V6.8338C21.4264 6.98313 21.3798 7.10447 21.2864 7.1978C21.2024 7.2818 21.0858 7.3238 20.9364 7.3238L16.4844 7.3938V9.5498C16.7644 9.45647 17.0771 9.40047 17.4224 9.3818C17.7678 9.36313 18.1224 9.37713 18.4864 9.4238C18.9624 9.4798 19.3918 9.59647 19.7744 9.7738C20.1664 9.9418 20.4978 10.1611 20.7684 10.4318C21.0484 10.6931 21.2584 11.0011 21.3984 11.3558C21.5478 11.7011 21.6224 12.0838 21.6224 12.5038C21.6224 13.0265 21.5198 13.4978 21.3144 13.9178C21.1091 14.3285 20.8244 14.6785 20.4604 14.9678C20.0964 15.2571 19.6671 15.4765 19.1724 15.6258C18.6778 15.7751 18.1411 15.8451 17.5624 15.8358C16.8624 15.8171 16.2184 15.6911 15.6304 15.4578C15.0424 15.2338 14.5384 14.9258 14.1184 14.5338C14.0344 14.4591 13.9784 14.3751 13.9504 14.2818C13.9224 14.1885 13.9458 14.0858 14.0204 13.9738L14.5944 13.1898Z" fill="#366AEE"/>
<path d="M11.702 15.598C11.5993 15.7473 11.492 15.822 11.38 15.822C11.268 15.8313 11.1513 15.8127 11.03 15.766C10.8153 15.682 10.6053 15.584 10.4 15.472C10.1947 15.3693 9.994 15.2527 9.798 15.122C9.406 15.3647 8.98133 15.5513 8.524 15.682C8.06667 15.822 7.572 15.892 7.04 15.892C6.284 15.892 5.598 15.7613 4.982 15.5C4.366 15.2387 3.834 14.87 3.386 14.394C2.94733 13.918 2.60667 13.3487 2.364 12.686C2.12133 12.0233 2 11.2907 2 10.488C2 9.68533 2.12133 8.948 2.364 8.276C2.60667 7.604 2.94733 7.02533 3.386 6.54C3.834 6.05467 4.366 5.67667 4.982 5.406C5.598 5.13533 6.284 5 7.04 5C7.78667 5 8.468 5.13533 9.084 5.406C9.7 5.67667 10.2273 6.05467 10.666 6.54C11.1047 7.02533 11.4453 7.604 11.688 8.276C11.9307 8.948 12.052 9.68533 12.052 10.488C12.052 11.02 11.996 11.524 11.884 12C11.7813 12.476 11.6273 12.9147 11.422 13.316C11.5527 13.3907 11.6833 13.4607 11.814 13.526C11.954 13.582 12.0987 13.638 12.248 13.694C12.416 13.7687 12.5093 13.876 12.528 14.016C12.556 14.1467 12.5327 14.2633 12.458 14.366L11.702 15.598ZM8.3 11.02C8.384 10.9547 8.48667 10.936 8.608 10.964C8.72933 10.9827 8.82733 11.0433 8.902 11.146C9.00467 11.3047 9.112 11.454 9.224 11.594C9.34533 11.7247 9.47133 11.8553 9.602 11.986C9.76067 11.5847 9.84 11.132 9.84 10.628C9.84 10.1333 9.76533 9.69467 9.616 9.312C9.476 8.92933 9.28 8.60733 9.028 8.346C8.78533 8.08467 8.50067 7.88867 8.174 7.758C7.85667 7.618 7.52067 7.548 7.166 7.548C6.802 7.548 6.45667 7.618 6.13 7.758C5.80333 7.88867 5.51867 8.08467 5.276 8.346C5.03333 8.60733 4.842 8.92933 4.702 9.312C4.562 9.69467 4.492 10.1333 4.492 10.628C4.492 11.1227 4.562 11.5613 4.702 11.944C4.85133 12.3267 5.04733 12.6487 5.29 12.91C5.53267 13.162 5.81733 13.358 6.144 13.498C6.47067 13.6287 6.81133 13.694 7.166 13.694C7.49267 13.694 7.79133 13.6427 8.062 13.54C7.90333 13.344 7.754 13.148 7.614 12.952C7.474 12.7467 7.35267 12.5367 7.25 12.322C7.12867 12.098 7.166 11.9067 7.362 11.748L8.3 11.02Z" fill="#366AEE"/>
</svg>
