<svg width="28" height="20" viewBox="0 0 28 20" fill="none" xmlns="http://www.w3.org/2000/svg">
<path d="M19.1025 15.696C18.8225 15.696 18.6825 15.556 18.6825 15.276L18.6405 13.414C17.9685 13.442 17.3058 13.4606 16.6525 13.47C15.9992 13.47 15.3645 13.4606 14.7485 13.442C14.4218 13.4326 14.1932 13.316 14.0625 13.092C13.9412 12.868 13.9085 12.5926 13.9645 12.266C14.1232 11.286 14.2398 10.292 14.3145 9.28396C14.3892 8.27596 14.4172 7.22129 14.3985 6.11996C14.3985 5.90529 14.4498 5.74663 14.5525 5.64396C14.6645 5.54129 14.7998 5.48996 14.9585 5.48996H16.3725C16.5592 5.48996 16.6992 5.55063 16.7925 5.67196C16.8858 5.78396 16.9278 5.93329 16.9185 6.11996C16.8998 7.09063 16.8578 8.02396 16.7925 8.91996C16.7365 9.80663 16.6572 10.6 16.5545 11.3C16.9185 11.3186 17.2685 11.328 17.6045 11.328H18.6125L18.5145 5.62996C18.5145 5.34996 18.6498 5.20996 18.9205 5.20996H20.6285C20.9085 5.20996 21.0438 5.34996 21.0345 5.62996L20.9505 11.244C21.1185 11.2346 21.2865 11.23 21.4545 11.23C21.6225 11.2206 21.7998 11.2066 21.9865 11.188C22.1358 11.1786 22.2432 11.1973 22.3085 11.244C22.3832 11.2813 22.4298 11.3653 22.4485 11.496L22.6025 12.672C22.6398 12.952 22.5325 13.106 22.2805 13.134C22.0658 13.162 21.8418 13.19 21.6085 13.218C21.3845 13.2366 21.1558 13.2553 20.9225 13.274L20.8945 15.276C20.8945 15.556 20.7545 15.696 20.4745 15.696H19.1025Z" fill="#366AEE"/>
<path d="M11.702 15.598C11.5993 15.7473 11.492 15.822 11.38 15.822C11.268 15.8313 11.1513 15.8127 11.03 15.766C10.8153 15.682 10.6053 15.584 10.4 15.472C10.1947 15.3693 9.994 15.2527 9.798 15.122C9.406 15.3647 8.98133 15.5513 8.524 15.682C8.06667 15.822 7.572 15.892 7.04 15.892C6.284 15.892 5.598 15.7613 4.982 15.5C4.366 15.2387 3.834 14.87 3.386 14.394C2.94733 13.918 2.60667 13.3487 2.364 12.686C2.12133 12.0233 2 11.2907 2 10.488C2 9.68533 2.12133 8.948 2.364 8.276C2.60667 7.604 2.94733 7.02533 3.386 6.54C3.834 6.05467 4.366 5.67667 4.982 5.406C5.598 5.13533 6.284 5 7.04 5C7.78667 5 8.468 5.13533 9.084 5.406C9.7 5.67667 10.2273 6.05467 10.666 6.54C11.1047 7.02533 11.4453 7.604 11.688 8.276C11.9307 8.948 12.052 9.68533 12.052 10.488C12.052 11.02 11.996 11.524 11.884 12C11.7813 12.476 11.6273 12.9147 11.422 13.316C11.5527 13.3907 11.6833 13.4607 11.814 13.526C11.954 13.582 12.0987 13.638 12.248 13.694C12.416 13.7687 12.5093 13.876 12.528 14.016C12.556 14.1467 12.5327 14.2633 12.458 14.366L11.702 15.598ZM8.3 11.02C8.384 10.9547 8.48667 10.936 8.608 10.964C8.72933 10.9827 8.82733 11.0433 8.902 11.146C9.00467 11.3047 9.112 11.454 9.224 11.594C9.34533 11.7247 9.47133 11.8553 9.602 11.986C9.76067 11.5847 9.84 11.132 9.84 10.628C9.84 10.1333 9.76533 9.69467 9.616 9.312C9.476 8.92933 9.28 8.60733 9.028 8.346C8.78533 8.08467 8.50067 7.88867 8.174 7.758C7.85667 7.618 7.52067 7.548 7.166 7.548C6.802 7.548 6.45667 7.618 6.13 7.758C5.80333 7.88867 5.51867 8.08467 5.276 8.346C5.03333 8.60733 4.842 8.92933 4.702 9.312C4.562 9.69467 4.492 10.1333 4.492 10.628C4.492 11.1227 4.562 11.5613 4.702 11.944C4.85133 12.3267 5.04733 12.6487 5.29 12.91C5.53267 13.162 5.81733 13.358 6.144 13.498C6.47067 13.6287 6.81133 13.694 7.166 13.694C7.49267 13.694 7.79133 13.6427 8.062 13.54C7.90333 13.344 7.754 13.148 7.614 12.952C7.474 12.7467 7.35267 12.5367 7.25 12.322C7.12867 12.098 7.166 11.9067 7.362 11.748L8.3 11.02Z" fill="#366AEE"/>
</svg>
