<svg width="28" height="20" viewBox="0 0 28 20" fill="none" xmlns="http://www.w3.org/2000/svg">
<path d="M21.534 15.444C20.974 15.1827 20.4934 14.814 20.092 14.338C19.6907 13.862 19.378 13.2973 19.154 12.644C18.9394 11.9813 18.832 11.2533 18.832 10.46C18.832 9.66667 18.9394 8.93867 19.154 8.276C19.378 7.604 19.6907 7.02533 20.092 6.54C20.4934 6.05467 20.974 5.67667 21.534 5.406C22.094 5.13533 22.71 5 23.382 5C24.054 5 24.6654 5.13533 25.216 5.406C25.776 5.67667 26.252 6.05467 26.644 6.54C27.0454 7.02533 27.3534 7.604 27.568 8.276C27.792 8.93867 27.904 9.66667 27.904 10.46C27.904 11.2533 27.792 11.9813 27.568 12.644C27.3534 13.2973 27.0454 13.862 26.644 14.338C26.252 14.814 25.776 15.1827 25.216 15.444C24.6654 15.7053 24.054 15.836 23.382 15.836C22.71 15.836 22.094 15.7053 21.534 15.444ZM21.926 12.854C22.3087 13.3767 22.836 13.638 23.508 13.638C24.18 13.638 24.7074 13.3767 25.09 12.854C25.4727 12.322 25.664 11.5707 25.664 10.6C25.664 9.62933 25.4727 8.878 25.09 8.346C24.7074 7.814 24.18 7.548 23.508 7.548C22.836 7.548 22.3087 7.814 21.926 8.346C21.5434 8.878 21.352 9.62933 21.352 10.6C21.352 11.5707 21.5434 12.322 21.926 12.854Z" fill="#366AEE"/>
<path d="M14.7844 15.696C14.5044 15.696 14.3644 15.556 14.3644 15.276L14.2384 7.50597L13.0764 7.54797C12.9271 7.54797 12.8058 7.50597 12.7124 7.42197C12.6284 7.32864 12.5864 7.2073 12.5864 7.05797V5.65797C12.5864 5.50864 12.6284 5.39197 12.7124 5.30797C12.8058 5.21464 12.9271 5.16797 13.0764 5.16797L16.2404 5.20997C16.3898 5.20997 16.5064 5.25664 16.5904 5.34997C16.6838 5.43397 16.7304 5.55064 16.7304 5.69997L16.5764 15.276C16.5764 15.556 16.4364 15.696 16.1564 15.696H14.7844Z" fill="#366AEE"/>
<path d="M10.702 15.598C10.5993 15.7473 10.492 15.822 10.38 15.822C10.268 15.8313 10.1513 15.8127 10.03 15.766C9.81533 15.682 9.60533 15.584 9.4 15.472C9.19467 15.3693 8.994 15.2527 8.798 15.122C8.406 15.3647 7.98133 15.5513 7.524 15.682C7.06667 15.822 6.572 15.892 6.04 15.892C5.284 15.892 4.598 15.7613 3.982 15.5C3.366 15.2387 2.834 14.87 2.386 14.394C1.94733 13.918 1.60667 13.3487 1.364 12.686C1.12133 12.0233 1 11.2907 1 10.488C1 9.68533 1.12133 8.948 1.364 8.276C1.60667 7.604 1.94733 7.02533 2.386 6.54C2.834 6.05467 3.366 5.67667 3.982 5.406C4.598 5.13533 5.284 5 6.04 5C6.78667 5 7.468 5.13533 8.084 5.406C8.7 5.67667 9.22733 6.05467 9.666 6.54C10.1047 7.02533 10.4453 7.604 10.688 8.276C10.9307 8.948 11.052 9.68533 11.052 10.488C11.052 11.02 10.996 11.524 10.884 12C10.7813 12.476 10.6273 12.9147 10.422 13.316C10.5527 13.3907 10.6833 13.4607 10.814 13.526C10.954 13.582 11.0987 13.638 11.248 13.694C11.416 13.7687 11.5093 13.876 11.528 14.016C11.556 14.1467 11.5327 14.2633 11.458 14.366L10.702 15.598ZM7.3 11.02C7.384 10.9547 7.48667 10.936 7.608 10.964C7.72933 10.9827 7.82733 11.0433 7.902 11.146C8.00467 11.3047 8.112 11.454 8.224 11.594C8.34533 11.7247 8.47133 11.8553 8.602 11.986C8.76067 11.5847 8.84 11.132 8.84 10.628C8.84 10.1333 8.76533 9.69467 8.616 9.312C8.476 8.92933 8.28 8.60733 8.028 8.346C7.78533 8.08467 7.50067 7.88867 7.174 7.758C6.85667 7.618 6.52067 7.548 6.166 7.548C5.802 7.548 5.45667 7.618 5.13 7.758C4.80333 7.88867 4.51867 8.08467 4.276 8.346C4.03333 8.60733 3.842 8.92933 3.702 9.312C3.562 9.69467 3.492 10.1333 3.492 10.628C3.492 11.1227 3.562 11.5613 3.702 11.944C3.85133 12.3267 4.04733 12.6487 4.29 12.91C4.53267 13.162 4.81733 13.358 5.144 13.498C5.47067 13.6287 5.81133 13.694 6.166 13.694C6.49267 13.694 6.79133 13.6427 7.062 13.54C6.90333 13.344 6.754 13.148 6.614 12.952C6.474 12.7467 6.35267 12.5367 6.25 12.322C6.12867 12.098 6.166 11.9067 6.362 11.748L7.3 11.02Z" fill="#366AEE"/>
</svg>
