<svg width="28" height="20" viewBox="0 0 28 20" fill="none" xmlns="http://www.w3.org/2000/svg">
<path d="M15.7844 15.696C15.5044 15.696 15.3644 15.556 15.3644 15.276L15.2384 7.50597L14.0764 7.54797C13.9271 7.54797 13.8058 7.50597 13.7124 7.42197C13.6284 7.32864 13.5864 7.2073 13.5864 7.05797V5.65797C13.5864 5.50864 13.6284 5.39197 13.7124 5.30797C13.8058 5.21464 13.9271 5.16797 14.0764 5.16797L17.2404 5.20997C17.3898 5.20997 17.5064 5.25664 17.5904 5.34997C17.6838 5.43397 17.7304 5.55064 17.7304 5.69997L17.5764 15.276C17.5764 15.556 17.4364 15.696 17.1564 15.696H15.7844Z" fill="#366AEE"/>
<path d="M11.702 15.598C11.5993 15.7473 11.492 15.822 11.38 15.822C11.268 15.8313 11.1513 15.8127 11.03 15.766C10.8153 15.682 10.6053 15.584 10.4 15.472C10.1947 15.3693 9.994 15.2527 9.798 15.122C9.406 15.3647 8.98133 15.5513 8.524 15.682C8.06667 15.822 7.572 15.892 7.04 15.892C6.284 15.892 5.598 15.7613 4.982 15.5C4.366 15.2387 3.834 14.87 3.386 14.394C2.94733 13.918 2.60667 13.3487 2.364 12.686C2.12133 12.0233 2 11.2907 2 10.488C2 9.68533 2.12133 8.948 2.364 8.276C2.60667 7.604 2.94733 7.02533 3.386 6.54C3.834 6.05467 4.366 5.67667 4.982 5.406C5.598 5.13533 6.284 5 7.04 5C7.78667 5 8.468 5.13533 9.084 5.406C9.7 5.67667 10.2273 6.05467 10.666 6.54C11.1047 7.02533 11.4453 7.604 11.688 8.276C11.9307 8.948 12.052 9.68533 12.052 10.488C12.052 11.02 11.996 11.524 11.884 12C11.7813 12.476 11.6273 12.9147 11.422 13.316C11.5527 13.3907 11.6833 13.4607 11.814 13.526C11.954 13.582 12.0987 13.638 12.248 13.694C12.416 13.7687 12.5093 13.876 12.528 14.016C12.556 14.1467 12.5327 14.2633 12.458 14.366L11.702 15.598ZM8.3 11.02C8.384 10.9547 8.48667 10.936 8.608 10.964C8.72933 10.9827 8.82733 11.0433 8.902 11.146C9.00467 11.3047 9.112 11.454 9.224 11.594C9.34533 11.7247 9.47133 11.8553 9.602 11.986C9.76067 11.5847 9.84 11.132 9.84 10.628C9.84 10.1333 9.76533 9.69467 9.616 9.312C9.476 8.92933 9.28 8.60733 9.028 8.346C8.78533 8.08467 8.50067 7.88867 8.174 7.758C7.85667 7.618 7.52067 7.548 7.166 7.548C6.802 7.548 6.45667 7.618 6.13 7.758C5.80333 7.88867 5.51867 8.08467 5.276 8.346C5.03333 8.60733 4.842 8.92933 4.702 9.312C4.562 9.69467 4.492 10.1333 4.492 10.628C4.492 11.1227 4.562 11.5613 4.702 11.944C4.85133 12.3267 5.04733 12.6487 5.29 12.91C5.53267 13.162 5.81733 13.358 6.144 13.498C6.47067 13.6287 6.81133 13.694 7.166 13.694C7.49267 13.694 7.79133 13.6427 8.062 13.54C7.90333 13.344 7.754 13.148 7.614 12.952C7.474 12.7467 7.35267 12.5367 7.25 12.322C7.12867 12.098 7.166 11.9067 7.362 11.748L8.3 11.02Z" fill="#366AEE"/>
</svg>
