<svg width="28" height="20" viewBox="0 0 28 20" fill="none" xmlns="http://www.w3.org/2000/svg">
<path d="M16.3364 15.416C16.0751 15.304 16.0004 15.122 16.1124 14.87L18.8984 7.50597L15.0764 7.54797C14.9271 7.54797 14.8058 7.50597 14.7124 7.42197C14.6284 7.32864 14.5864 7.2073 14.5864 7.05797V5.65797C14.5864 5.50864 14.6284 5.39197 14.7124 5.30797C14.8058 5.21464 14.9271 5.16797 15.0764 5.16797L21.1804 5.20997C21.3764 5.20997 21.5444 5.2473 21.6844 5.32197C21.8338 5.39663 21.9458 5.4993 22.0204 5.62997C22.1044 5.7513 22.1511 5.8913 22.1604 6.04997C22.1698 6.20863 22.1418 6.37197 22.0764 6.53997L18.1564 15.724C18.0444 15.9853 17.8578 16.06 17.5964 15.948L16.3364 15.416Z" fill="#366AEE"/>
<path d="M12.702 15.598C12.5993 15.7473 12.492 15.822 12.38 15.822C12.268 15.8313 12.1513 15.8127 12.03 15.766C11.8153 15.682 11.6053 15.584 11.4 15.472C11.1947 15.3693 10.994 15.2527 10.798 15.122C10.406 15.3647 9.98133 15.5513 9.524 15.682C9.06667 15.822 8.572 15.892 8.04 15.892C7.284 15.892 6.598 15.7613 5.982 15.5C5.366 15.2387 4.834 14.87 4.386 14.394C3.94733 13.918 3.60667 13.3487 3.364 12.686C3.12133 12.0233 3 11.2907 3 10.488C3 9.68533 3.12133 8.948 3.364 8.276C3.60667 7.604 3.94733 7.02533 4.386 6.54C4.834 6.05467 5.366 5.67667 5.982 5.406C6.598 5.13533 7.284 5 8.04 5C8.78667 5 9.468 5.13533 10.084 5.406C10.7 5.67667 11.2273 6.05467 11.666 6.54C12.1047 7.02533 12.4453 7.604 12.688 8.276C12.9307 8.948 13.052 9.68533 13.052 10.488C13.052 11.02 12.996 11.524 12.884 12C12.7813 12.476 12.6273 12.9147 12.422 13.316C12.5527 13.3907 12.6833 13.4607 12.814 13.526C12.954 13.582 13.0987 13.638 13.248 13.694C13.416 13.7687 13.5093 13.876 13.528 14.016C13.556 14.1467 13.5327 14.2633 13.458 14.366L12.702 15.598ZM9.3 11.02C9.384 10.9547 9.48667 10.936 9.608 10.964C9.72933 10.9827 9.82733 11.0433 9.902 11.146C10.0047 11.3047 10.112 11.454 10.224 11.594C10.3453 11.7247 10.4713 11.8553 10.602 11.986C10.7607 11.5847 10.84 11.132 10.84 10.628C10.84 10.1333 10.7653 9.69467 10.616 9.312C10.476 8.92933 10.28 8.60733 10.028 8.346C9.78533 8.08467 9.50067 7.88867 9.174 7.758C8.85667 7.618 8.52067 7.548 8.166 7.548C7.802 7.548 7.45667 7.618 7.13 7.758C6.80333 7.88867 6.51867 8.08467 6.276 8.346C6.03333 8.60733 5.842 8.92933 5.702 9.312C5.562 9.69467 5.492 10.1333 5.492 10.628C5.492 11.1227 5.562 11.5613 5.702 11.944C5.85133 12.3267 6.04733 12.6487 6.29 12.91C6.53267 13.162 6.81733 13.358 7.144 13.498C7.47067 13.6287 7.81133 13.694 8.166 13.694C8.49267 13.694 8.79133 13.6427 9.062 13.54C8.90333 13.344 8.754 13.148 8.614 12.952C8.474 12.7467 8.35267 12.5367 8.25 12.322C8.12867 12.098 8.166 11.9067 8.362 11.748L9.3 11.02Z" fill="#366AEE"/>
</svg>
