<svg width="28" height="20" viewBox="0 0 28 20" fill="none" xmlns="http://www.w3.org/2000/svg">
<path d="M14.4406 13.19C14.6179 12.9473 14.8139 12.91 15.0286 13.078C15.2899 13.274 15.6259 13.442 16.0366 13.582C16.4472 13.7127 16.8626 13.778 17.2826 13.778C17.8612 13.778 18.2766 13.68 18.5286 13.484C18.7806 13.2787 18.8972 13.022 18.8786 12.714C18.8692 12.5367 18.8086 12.3873 18.6966 12.266C18.5939 12.1353 18.4586 12.028 18.2906 11.944C18.1226 11.86 17.9359 11.7993 17.7306 11.762C17.5346 11.7247 17.3386 11.706 17.1426 11.706L15.4626 11.72C15.3319 11.72 15.2292 11.6827 15.1546 11.608C15.0799 11.5333 15.0426 11.4307 15.0426 11.3V10.152C15.0426 10.0213 15.0799 9.91867 15.1546 9.844C15.2292 9.76933 15.3319 9.732 15.4626 9.732L17.1846 9.746C17.4646 9.746 17.7212 9.72267 17.9546 9.676C18.1879 9.62 18.3886 9.536 18.5566 9.424C18.7339 9.312 18.8692 9.17667 18.9626 9.018C19.0559 8.85 19.1026 8.65867 19.1026 8.444C19.0932 8.08933 18.9252 7.81867 18.5986 7.632C18.2719 7.436 17.8612 7.338 17.3666 7.338C16.9186 7.338 16.5032 7.40333 16.1206 7.534C15.7472 7.65533 15.3926 7.828 15.0566 8.052C14.9352 8.136 14.8139 8.16867 14.6926 8.15C14.5806 8.13133 14.4872 8.05667 14.4126 7.926L13.7826 6.694C13.7172 6.56333 13.7032 6.45133 13.7406 6.358C13.7872 6.25533 13.8712 6.15733 13.9926 6.064C14.3846 5.76533 14.8699 5.51333 15.4486 5.308C16.0272 5.10267 16.6666 5 17.3666 5C17.9826 5 18.5426 5.07933 19.0466 5.238C19.5599 5.39667 19.9939 5.62067 20.3486 5.91C20.7126 6.19 20.9926 6.53533 21.1886 6.946C21.3846 7.34733 21.4826 7.79533 21.4826 8.29C21.4826 8.906 21.3146 9.44733 20.9786 9.914C20.6519 10.3807 20.2226 10.7027 19.6906 10.88C19.8866 10.9267 20.0732 11.02 20.2506 11.16C20.4372 11.2907 20.6006 11.454 20.7406 11.65C20.8806 11.8367 20.9879 12.0467 21.0626 12.28C21.1466 12.5133 21.1886 12.7513 21.1886 12.994C21.1886 13.414 21.0952 13.8013 20.9086 14.156C20.7219 14.5013 20.4606 14.8 20.1246 15.052C19.7886 15.304 19.3826 15.5 18.9066 15.64C18.4399 15.78 17.9172 15.8453 17.3386 15.836C16.6386 15.8173 16.0039 15.6913 15.4346 15.458C14.8746 15.234 14.3846 14.926 13.9646 14.534C13.8806 14.4593 13.8246 14.3753 13.7966 14.282C13.7686 14.1887 13.7919 14.086 13.8666 13.974L14.4406 13.19Z" fill="#366AEE"/>
<path d="M11.702 15.598C11.5993 15.7473 11.492 15.822 11.38 15.822C11.268 15.8313 11.1513 15.8127 11.03 15.766C10.8153 15.682 10.6053 15.584 10.4 15.472C10.1947 15.3693 9.994 15.2527 9.798 15.122C9.406 15.3647 8.98133 15.5513 8.524 15.682C8.06667 15.822 7.572 15.892 7.04 15.892C6.284 15.892 5.598 15.7613 4.982 15.5C4.366 15.2387 3.834 14.87 3.386 14.394C2.94733 13.918 2.60667 13.3487 2.364 12.686C2.12133 12.0233 2 11.2907 2 10.488C2 9.68533 2.12133 8.948 2.364 8.276C2.60667 7.604 2.94733 7.02533 3.386 6.54C3.834 6.05467 4.366 5.67667 4.982 5.406C5.598 5.13533 6.284 5 7.04 5C7.78667 5 8.468 5.13533 9.084 5.406C9.7 5.67667 10.2273 6.05467 10.666 6.54C11.1047 7.02533 11.4453 7.604 11.688 8.276C11.9307 8.948 12.052 9.68533 12.052 10.488C12.052 11.02 11.996 11.524 11.884 12C11.7813 12.476 11.6273 12.9147 11.422 13.316C11.5527 13.3907 11.6833 13.4607 11.814 13.526C11.954 13.582 12.0987 13.638 12.248 13.694C12.416 13.7687 12.5093 13.876 12.528 14.016C12.556 14.1467 12.5327 14.2633 12.458 14.366L11.702 15.598ZM8.3 11.02C8.384 10.9547 8.48667 10.936 8.608 10.964C8.72933 10.9827 8.82733 11.0433 8.902 11.146C9.00467 11.3047 9.112 11.454 9.224 11.594C9.34533 11.7247 9.47133 11.8553 9.602 11.986C9.76067 11.5847 9.84 11.132 9.84 10.628C9.84 10.1333 9.76533 9.69467 9.616 9.312C9.476 8.92933 9.28 8.60733 9.028 8.346C8.78533 8.08467 8.50067 7.88867 8.174 7.758C7.85667 7.618 7.52067 7.548 7.166 7.548C6.802 7.548 6.45667 7.618 6.13 7.758C5.80333 7.88867 5.51867 8.08467 5.276 8.346C5.03333 8.60733 4.842 8.92933 4.702 9.312C4.562 9.69467 4.492 10.1333 4.492 10.628C4.492 11.1227 4.562 11.5613 4.702 11.944C4.85133 12.3267 5.04733 12.6487 5.29 12.91C5.53267 13.162 5.81733 13.358 6.144 13.498C6.47067 13.6287 6.81133 13.694 7.166 13.694C7.49267 13.694 7.79133 13.6427 8.062 13.54C7.90333 13.344 7.754 13.148 7.614 12.952C7.474 12.7467 7.35267 12.5367 7.25 12.322C7.12867 12.098 7.166 11.9067 7.362 11.748L8.3 11.02Z" fill="#366AEE"/>
</svg>
