<svg width="28" height="20" viewBox="0 0 28 20" fill="none" xmlns="http://www.w3.org/2000/svg">
<path d="M16.1405 10.426C16.2992 10.258 16.4719 10.1227 16.6585 10.02C16.4439 9.936 16.2292 9.81 16.0145 9.642C15.8092 9.474 15.6272 9.27333 15.4685 9.04C15.3099 8.80667 15.1792 8.54533 15.0765 8.256C14.9832 7.95733 14.9365 7.64 14.9365 7.304C14.9365 6.828 15.0345 6.38933 15.2305 5.988C15.4265 5.58667 15.7019 5.24133 16.0565 4.952C16.4112 4.65333 16.8312 4.42 17.3165 4.252C17.8019 4.084 18.3385 4 18.9265 4C19.5145 4 20.0512 4.084 20.5365 4.252C21.0219 4.42 21.4419 4.65333 21.7965 4.952C22.1512 5.24133 22.4265 5.58667 22.6225 5.988C22.8185 6.38933 22.9165 6.828 22.9165 7.304C22.9165 7.64 22.8652 7.95733 22.7625 8.256C22.6692 8.54533 22.5385 8.80667 22.3705 9.04C22.2119 9.27333 22.0299 9.474 21.8245 9.642C21.6192 9.81 21.4092 9.936 21.1945 10.02C21.3719 10.1227 21.5399 10.258 21.6985 10.426C21.8572 10.594 21.9925 10.7853 22.1045 11C22.2259 11.2053 22.3192 11.4293 22.3845 11.672C22.4499 11.9053 22.4825 12.1433 22.4825 12.386C22.4825 12.7687 22.4032 13.142 22.2445 13.506C22.0952 13.8607 21.8665 14.178 21.5585 14.458C21.2599 14.738 20.8912 14.962 20.4525 15.13C20.0139 15.3073 19.5052 15.396 18.9265 15.396C18.3479 15.396 17.8392 15.3073 17.4005 15.13C16.9619 14.962 16.5885 14.738 16.2805 14.458C15.9819 14.178 15.7532 13.8607 15.5945 13.506C15.4452 13.142 15.3705 12.7687 15.3705 12.386C15.3705 12.1433 15.4032 11.9053 15.4685 11.672C15.5339 11.4293 15.6225 11.2053 15.7345 11C15.8559 10.7853 15.9912 10.594 16.1405 10.426ZM17.2465 7.444C17.2465 7.836 17.3912 8.172 17.6805 8.452C17.9792 8.732 18.3945 8.872 18.9265 8.872C19.4585 8.872 19.8692 8.732 20.1585 8.452C20.4572 8.172 20.6065 7.836 20.6065 7.444C20.6065 7.248 20.5599 7.066 20.4665 6.898C20.3825 6.72067 20.2659 6.56667 20.1165 6.436C19.9672 6.30533 19.7899 6.20267 19.5845 6.128C19.3792 6.05333 19.1599 6.016 18.9265 6.016C18.6932 6.016 18.4739 6.05333 18.2685 6.128C18.0632 6.20267 17.8859 6.30533 17.7365 6.436C17.5872 6.56667 17.4659 6.72067 17.3725 6.898C17.2885 7.066 17.2465 7.248 17.2465 7.444ZM17.5685 12.666C17.6339 12.8153 17.7272 12.9553 17.8485 13.086C17.9792 13.2073 18.1332 13.3053 18.3105 13.38C18.4879 13.4547 18.6932 13.492 18.9265 13.492C19.1599 13.492 19.3652 13.4547 19.5425 13.38C19.7199 13.3053 19.8692 13.2073 19.9905 13.086C20.1212 12.9553 20.2192 12.8153 20.2845 12.666C20.3499 12.5073 20.3825 12.344 20.3825 12.176C20.3825 11.8213 20.2472 11.5133 19.9765 11.252C19.7152 10.9907 19.3652 10.86 18.9265 10.86C18.4879 10.86 18.1332 10.9907 17.8625 11.252C17.6012 11.5133 17.4705 11.8213 17.4705 12.176C17.4705 12.344 17.5032 12.5073 17.5685 12.666Z" fill="#366AEE"/>
<path d="M12.702 14.8778C12.5993 15.0271 12.492 15.1018 12.38 15.1018C12.268 15.1111 12.1513 15.0925 12.03 15.0458C11.8153 14.9618 11.6053 14.8638 11.4 14.7518C11.1947 14.6491 10.994 14.5325 10.798 14.4018C10.406 14.6445 9.98133 14.8311 9.524 14.9618C9.06667 15.1018 8.572 15.1718 8.04 15.1718C7.284 15.1718 6.598 15.0411 5.982 14.7798C5.366 14.5185 4.834 14.1498 4.386 13.6738C3.94733 13.1978 3.60667 12.6285 3.364 11.9658C3.12133 11.3031 3 10.5705 3 9.76779C3 8.96512 3.12133 8.22778 3.364 7.55578C3.60667 6.88379 3.94733 6.30512 4.386 5.81978C4.834 5.33445 5.366 4.95645 5.982 4.68578C6.598 4.41512 7.284 4.27979 8.04 4.27979C8.78667 4.27979 9.468 4.41512 10.084 4.68578C10.7 4.95645 11.2273 5.33445 11.666 5.81978C12.1047 6.30512 12.4453 6.88379 12.688 7.55578C12.9307 8.22778 13.052 8.96512 13.052 9.76779C13.052 10.2998 12.996 10.8038 12.884 11.2798C12.7813 11.7558 12.6273 12.1945 12.422 12.5958C12.5527 12.6705 12.6833 12.7405 12.814 12.8058C12.954 12.8618 13.0987 12.9178 13.248 12.9738C13.416 13.0485 13.5093 13.1558 13.528 13.2958C13.556 13.4265 13.5327 13.5431 13.458 13.6458L12.702 14.8778ZM9.3 10.2998C9.384 10.2345 9.48667 10.2158 9.608 10.2438C9.72933 10.2625 9.82733 10.3231 9.902 10.4258C10.0047 10.5845 10.112 10.7338 10.224 10.8738C10.3453 11.0045 10.4713 11.1351 10.602 11.2658C10.7607 10.8645 10.84 10.4118 10.84 9.90778C10.84 9.41312 10.7653 8.97445 10.616 8.59178C10.476 8.20912 10.28 7.88712 10.028 7.62579C9.78533 7.36445 9.50067 7.16845 9.174 7.03779C8.85667 6.89779 8.52067 6.82779 8.166 6.82779C7.802 6.82779 7.45667 6.89779 7.13 7.03779C6.80333 7.16845 6.51867 7.36445 6.276 7.62579C6.03333 7.88712 5.842 8.20912 5.702 8.59178C5.562 8.97445 5.492 9.41312 5.492 9.90778C5.492 10.4025 5.562 10.8411 5.702 11.2238C5.85133 11.6065 6.04733 11.9285 6.29 12.1898C6.53267 12.4418 6.81733 12.6378 7.144 12.7778C7.47067 12.9085 7.81133 12.9738 8.166 12.9738C8.49267 12.9738 8.79133 12.9225 9.062 12.8198C8.90333 12.6238 8.754 12.4278 8.614 12.2318C8.474 12.0265 8.35267 11.8165 8.25 11.6018C8.12867 11.3778 8.166 11.1865 8.362 11.0278L9.3 10.2998Z" fill="#366AEE"/>
</svg>
