<svg width="28" height="20" viewBox="0 0 28 20" fill="none" xmlns="http://www.w3.org/2000/svg">
<path d="M13.3984 14.24C13.3984 14.0813 13.4358 13.9647 13.5104 13.89C13.5851 13.806 13.7158 13.6987 13.9024 13.568C14.3691 13.26 14.8311 12.9147 15.2884 12.532C15.7551 12.1493 16.1751 11.7527 16.5484 11.342C16.9311 10.9313 17.2438 10.5253 17.4864 10.124C17.7384 9.71333 17.8831 9.33533 17.9204 8.99C17.9484 8.75667 17.9298 8.542 17.8644 8.346C17.7991 8.14067 17.7011 7.96333 17.5704 7.814C17.4398 7.66467 17.2718 7.548 17.0664 7.464C16.8611 7.38 16.6324 7.338 16.3804 7.338C16.0071 7.338 15.6571 7.422 15.3304 7.59C15.0131 7.758 14.7378 7.996 14.5044 8.304C14.4204 8.416 14.3178 8.472 14.1964 8.472C14.0844 8.46267 13.9818 8.42067 13.8884 8.346L12.7404 7.548C12.5631 7.38 12.5444 7.18867 12.6844 6.974C13.0951 6.358 13.5991 5.87733 14.1964 5.532C14.8031 5.17733 15.5311 5 16.3804 5C17.0338 5 17.6078 5.10267 18.1024 5.308C18.5971 5.504 19.0078 5.77 19.3344 6.106C19.6704 6.442 19.9178 6.834 20.0764 7.282C20.2351 7.72067 20.3004 8.18733 20.2724 8.682C20.2444 9.17667 20.1184 9.66667 19.8944 10.152C19.6704 10.628 19.3904 11.0853 19.0544 11.524C18.7278 11.9533 18.3638 12.35 17.9624 12.714C17.5704 13.078 17.1878 13.3907 16.8144 13.652C17.3744 13.624 17.9204 13.5867 18.4524 13.54C18.9844 13.484 19.4604 13.4187 19.8804 13.344C20.1511 13.2973 20.3051 13.3907 20.3424 13.624L20.5524 14.786C20.6084 15.066 20.5104 15.2293 20.2584 15.276C19.2598 15.4347 18.2518 15.5467 17.2344 15.612C16.2171 15.6867 15.1018 15.7147 13.8884 15.696C13.5618 15.696 13.3984 15.5327 13.3984 15.206V14.24Z" fill="#366AEE"/>
<path d="M10.702 15.598C10.5993 15.7473 10.492 15.822 10.38 15.822C10.268 15.8313 10.1513 15.8127 10.03 15.766C9.81533 15.682 9.60533 15.584 9.4 15.472C9.19467 15.3693 8.994 15.2527 8.798 15.122C8.406 15.3647 7.98133 15.5513 7.524 15.682C7.06667 15.822 6.572 15.892 6.04 15.892C5.284 15.892 4.598 15.7613 3.982 15.5C3.366 15.2387 2.834 14.87 2.386 14.394C1.94733 13.918 1.60667 13.3487 1.364 12.686C1.12133 12.0233 1 11.2907 1 10.488C1 9.68533 1.12133 8.948 1.364 8.276C1.60667 7.604 1.94733 7.02533 2.386 6.54C2.834 6.05467 3.366 5.67667 3.982 5.406C4.598 5.13533 5.284 5 6.04 5C6.78667 5 7.468 5.13533 8.084 5.406C8.7 5.67667 9.22733 6.05467 9.666 6.54C10.1047 7.02533 10.4453 7.604 10.688 8.276C10.9307 8.948 11.052 9.68533 11.052 10.488C11.052 11.02 10.996 11.524 10.884 12C10.7813 12.476 10.6273 12.9147 10.422 13.316C10.5527 13.3907 10.6833 13.4607 10.814 13.526C10.954 13.582 11.0987 13.638 11.248 13.694C11.416 13.7687 11.5093 13.876 11.528 14.016C11.556 14.1467 11.5327 14.2633 11.458 14.366L10.702 15.598ZM7.3 11.02C7.384 10.9547 7.48667 10.936 7.608 10.964C7.72933 10.9827 7.82733 11.0433 7.902 11.146C8.00467 11.3047 8.112 11.454 8.224 11.594C8.34533 11.7247 8.47133 11.8553 8.602 11.986C8.76067 11.5847 8.84 11.132 8.84 10.628C8.84 10.1333 8.76533 9.69467 8.616 9.312C8.476 8.92933 8.28 8.60733 8.028 8.346C7.78533 8.08467 7.50067 7.88867 7.174 7.758C6.85667 7.618 6.52067 7.548 6.166 7.548C5.802 7.548 5.45667 7.618 5.13 7.758C4.80333 7.88867 4.51867 8.08467 4.276 8.346C4.03333 8.60733 3.842 8.92933 3.702 9.312C3.562 9.69467 3.492 10.1333 3.492 10.628C3.492 11.1227 3.562 11.5613 3.702 11.944C3.85133 12.3267 4.04733 12.6487 4.29 12.91C4.53267 13.162 4.81733 13.358 5.144 13.498C5.47067 13.6287 5.81133 13.694 6.166 13.694C6.49267 13.694 6.79133 13.6427 7.062 13.54C6.90333 13.344 6.754 13.148 6.614 12.952C6.474 12.7467 6.35267 12.5367 6.25 12.322C6.12867 12.098 6.166 11.9067 6.362 11.748L7.3 11.02Z" fill="#366AEE"/>
</svg>
