<svg width="42" height="32" viewBox="0 0 42 32" fill="none" xmlns="http://www.w3.org/2000/svg">
<path fill-rule="evenodd" clip-rule="evenodd" d="M22.5578 25.1288C20.3707 23.1153 19 20.2262 19 17.0164C19 10.9322 23.9249 6 30 6C36.0751 6 41 10.9322 41 17.0164C41 23.1006 36.0751 28.0328 30 28.0328C28.0813 28.0328 26.2773 27.5408 24.707 26.6759C23.5487 27.8199 21.489 29.475 19.3928 29.9999C20.4584 29.1698 22.4233 27.139 22.5578 25.1288Z" fill="#FFE027"/>
<path d="M22.5578 25.1288L23.0658 24.577C23.2329 24.7309 23.3213 24.9522 23.3061 25.1789L22.5578 25.1288ZM24.707 26.6759L24.18 26.1423C24.4163 25.9089 24.7779 25.8588 25.0688 26.019L24.707 26.6759ZM19.3928 29.9999L19.5749 30.7274C19.2311 30.8135 18.8739 30.6471 18.7186 30.3285C18.5633 30.0098 18.6523 29.626 18.9319 29.4082L19.3928 29.9999ZM19.75 17.0164C19.75 20.008 21.0266 22.6997 23.0658 24.577L22.0498 25.6806C19.7148 23.5309 18.25 20.4443 18.25 17.0164H19.75ZM30 6.75C24.3401 6.75 19.75 11.3454 19.75 17.0164H18.25C18.25 10.519 23.5096 5.25 30 5.25V6.75ZM40.25 17.0164C40.25 11.3454 35.6599 6.75 30 6.75V5.25C36.4904 5.25 41.75 10.519 41.75 17.0164H40.25ZM30 27.2828C35.6599 27.2828 40.25 22.6874 40.25 17.0164H41.75C41.75 23.5137 36.4904 28.7828 30 28.7828V27.2828ZM25.0688 26.019C26.5312 26.8244 28.211 27.2828 30 27.2828V28.7828C27.9515 28.7828 26.0235 28.2572 24.3452 27.3329L25.0688 26.019ZM19.2106 29.2723C21.1068 28.7976 23.0481 27.2602 24.18 26.1423L25.234 27.2096C24.0494 28.3796 21.8711 30.1525 19.5749 30.7274L19.2106 29.2723ZM23.3061 25.1789C23.2249 26.3931 22.6036 27.5431 21.9264 28.4543C21.2403 29.3774 20.4334 30.14 19.8537 30.5915L18.9319 29.4082C19.4178 29.0297 20.1261 28.3619 20.7225 27.5595C21.3277 26.7452 21.7562 25.8747 21.8095 25.0787L23.3061 25.1789Z" fill="#366AEE"/>
<path d="M34.7903 22.8022H32.9959L32.1735 20.1699H27.5381L26.7157 22.8022H24.9214L28.8241 10.9419H30.8726L34.7903 22.8022ZM31.695 18.642L29.8558 12.6816L28.0017 18.642H31.695Z" fill="#366AEE"/>
<path fill-rule="evenodd" clip-rule="evenodd" d="M19.4872 20.2011C21.7033 18.1639 23.0921 15.2408 23.0921 11.9933C23.0921 5.83747 18.1018 0.847168 11.946 0.847168C5.79011 0.847168 0.799805 5.83747 0.799805 11.9933C0.799805 18.1492 5.79011 23.1395 11.946 23.1395C13.8902 23.1395 15.7181 22.6417 17.3093 21.7666C18.483 22.9241 20.5702 24.5988 22.6943 25.1299C21.6145 24.29 19.6234 22.2351 19.4872 20.2011Z" fill="#366AEE"/>
<path d="M19.4872 20.2011L19.1488 19.833C19.0372 19.9356 18.9782 20.0833 18.9883 20.2345L19.4872 20.2011ZM17.3093 21.7666L17.6604 21.4106C17.503 21.2553 17.2622 21.2219 17.0684 21.3285L17.3093 21.7666ZM22.6943 25.1299L22.573 25.6149C22.8023 25.6722 23.0404 25.5612 23.1439 25.3487C23.2473 25.1362 23.1878 24.8803 23.0013 24.7352L22.6943 25.1299ZM22.5921 11.9933C22.5921 15.0951 21.2662 17.8865 19.1488 19.833L19.8256 20.5692C22.1404 18.4413 23.5921 15.3865 23.5921 11.9933H22.5921ZM11.946 1.34717C17.8257 1.34717 22.5921 6.11361 22.5921 11.9933H23.5921C23.5921 5.56133 18.378 0.347168 11.946 0.347168V1.34717ZM1.2998 11.9933C1.2998 6.11361 6.06625 1.34717 11.946 1.34717V0.347168C5.51397 0.347168 0.299805 5.56133 0.299805 11.9933H1.2998ZM11.946 22.6395C6.06625 22.6395 1.2998 17.873 1.2998 11.9933H0.299805C0.299805 18.4253 5.51397 23.6395 11.946 23.6395V22.6395ZM17.0684 21.3285C15.5491 22.164 13.8038 22.6395 11.946 22.6395V23.6395C13.9765 23.6395 15.8871 23.1194 17.5503 22.2047L17.0684 21.3285ZM22.8156 24.6448C20.8247 24.1471 18.8164 22.5507 17.6604 21.4106L16.9582 22.1226C18.1495 23.2974 20.3157 25.0506 22.573 25.6149L22.8156 24.6448ZM18.9883 20.2345C19.0658 21.3911 19.662 22.5066 20.3358 23.4118C21.0155 24.325 21.8161 25.0803 22.3873 25.5245L23.0013 24.7352C22.4926 24.3396 21.7578 23.6474 21.138 22.8147C20.5122 21.974 20.0448 21.0451 19.9861 20.1677L18.9883 20.2345Z" fill="#366AEE"/>
<path d="M11.6923 17.7676C7.92308 17.7676 7 15.0073 7 11.8838C7 8.80387 7.90769 6 11.6923 6C15.4308 6 16.3692 8.8184 16.3692 11.8838C16.3692 13.3511 16.1692 14.7312 15.5385 15.8063L17 16.954L15.9846 18L14.6154 16.8959C13.9077 17.4479 12.9538 17.7676 11.6923 17.7676ZM11.6923 16.3002C12.3692 16.3002 12.9231 16.155 13.3231 15.8644L11.7231 14.5714L12.7231 13.5109L14.1846 14.7022C14.4769 13.9758 14.5846 13.0315 14.5846 11.8838C14.5846 9.1816 13.9538 7.48184 11.6923 7.48184C9.4 7.48184 8.78462 9.1816 8.78462 11.8838C8.78462 14.6295 9.41538 16.3002 11.6923 16.3002Z" fill="white"/>
</svg>
