<svg width="28" height="20" viewBox="0 0 28 20" fill="none" xmlns="http://www.w3.org/2000/svg">
<path d="M21.2585 8.346C21.1652 8.42067 21.0579 8.46267 20.9365 8.472C20.8245 8.472 20.7265 8.416 20.6425 8.304C20.4279 8.00533 20.1619 7.772 19.8445 7.604C19.5365 7.42667 19.1585 7.338 18.7105 7.338C18.3652 7.338 18.0339 7.41733 17.7165 7.576C17.4085 7.72533 17.1379 7.94467 16.9045 8.234C16.6805 8.514 16.4985 8.864 16.3585 9.284C16.2279 9.69467 16.1625 10.1567 16.1625 10.67C16.4052 10.2873 16.7552 9.984 17.2125 9.76C17.6792 9.536 18.1739 9.424 18.6965 9.424C19.2472 9.424 19.7325 9.508 20.1525 9.676C20.5819 9.83467 20.9412 10.054 21.2305 10.334C21.5199 10.614 21.7392 10.9407 21.8885 11.314C22.0379 11.6873 22.1125 12.084 22.1125 12.504C22.1125 13.0267 22.0239 13.4933 21.8465 13.904C21.6692 14.3147 21.4172 14.6647 21.0905 14.954C20.7639 15.2433 20.3672 15.4627 19.9005 15.612C19.4339 15.7613 18.9159 15.836 18.3465 15.836C17.6652 15.836 17.0492 15.696 16.4985 15.416C15.9572 15.1453 15.4952 14.772 15.1125 14.296C14.7392 13.82 14.4499 13.2553 14.2445 12.602C14.0392 11.9487 13.9365 11.244 13.9365 10.488C13.9365 9.69467 14.0579 8.96667 14.3005 8.304C14.5432 7.632 14.8745 7.05333 15.2945 6.568C15.7145 6.07333 16.2092 5.69067 16.7785 5.42C17.3479 5.14 17.9592 5 18.6125 5C19.0885 5 19.5179 5.05133 19.9005 5.154C20.2925 5.24733 20.6425 5.38267 20.9505 5.56C21.2679 5.73733 21.5479 5.94733 21.7905 6.19C22.0425 6.42333 22.2665 6.68467 22.4625 6.974C22.5279 7.06733 22.5559 7.16533 22.5465 7.268C22.5465 7.37067 22.4999 7.464 22.4065 7.548L21.2585 8.346ZM16.6805 12.616C16.6805 12.9613 16.8392 13.2367 17.1565 13.442C17.4739 13.638 17.8659 13.736 18.3325 13.736C18.7899 13.736 19.1585 13.624 19.4385 13.4C19.7279 13.1667 19.8725 12.9053 19.8725 12.616C19.8725 12.3173 19.7325 12.056 19.4525 11.832C19.1819 11.608 18.8132 11.496 18.3465 11.496C17.8799 11.496 17.4832 11.5893 17.1565 11.776C16.8392 11.9627 16.6805 12.2427 16.6805 12.616Z" fill="#366AEE"/>
<path d="M11.702 15.598C11.5993 15.7473 11.492 15.822 11.38 15.822C11.268 15.8313 11.1513 15.8127 11.03 15.766C10.8153 15.682 10.6053 15.584 10.4 15.472C10.1947 15.3693 9.994 15.2527 9.798 15.122C9.406 15.3647 8.98133 15.5513 8.524 15.682C8.06667 15.822 7.572 15.892 7.04 15.892C6.284 15.892 5.598 15.7613 4.982 15.5C4.366 15.2387 3.834 14.87 3.386 14.394C2.94733 13.918 2.60667 13.3487 2.364 12.686C2.12133 12.0233 2 11.2907 2 10.488C2 9.68533 2.12133 8.948 2.364 8.276C2.60667 7.604 2.94733 7.02533 3.386 6.54C3.834 6.05467 4.366 5.67667 4.982 5.406C5.598 5.13533 6.284 5 7.04 5C7.78667 5 8.468 5.13533 9.084 5.406C9.7 5.67667 10.2273 6.05467 10.666 6.54C11.1047 7.02533 11.4453 7.604 11.688 8.276C11.9307 8.948 12.052 9.68533 12.052 10.488C12.052 11.02 11.996 11.524 11.884 12C11.7813 12.476 11.6273 12.9147 11.422 13.316C11.5527 13.3907 11.6833 13.4607 11.814 13.526C11.954 13.582 12.0987 13.638 12.248 13.694C12.416 13.7687 12.5093 13.876 12.528 14.016C12.556 14.1467 12.5327 14.2633 12.458 14.366L11.702 15.598ZM8.3 11.02C8.384 10.9547 8.48667 10.936 8.608 10.964C8.72933 10.9827 8.82733 11.0433 8.902 11.146C9.00467 11.3047 9.112 11.454 9.224 11.594C9.34533 11.7247 9.47133 11.8553 9.602 11.986C9.76067 11.5847 9.84 11.132 9.84 10.628C9.84 10.1333 9.76533 9.69467 9.616 9.312C9.476 8.92933 9.28 8.60733 9.028 8.346C8.78533 8.08467 8.50067 7.88867 8.174 7.758C7.85667 7.618 7.52067 7.548 7.166 7.548C6.802 7.548 6.45667 7.618 6.13 7.758C5.80333 7.88867 5.51867 8.08467 5.276 8.346C5.03333 8.60733 4.842 8.92933 4.702 9.312C4.562 9.69467 4.492 10.1333 4.492 10.628C4.492 11.1227 4.562 11.5613 4.702 11.944C4.85133 12.3267 5.04733 12.6487 5.29 12.91C5.53267 13.162 5.81733 13.358 6.144 13.498C6.47067 13.6287 6.81133 13.694 7.166 13.694C7.49267 13.694 7.79133 13.6427 8.062 13.54C7.90333 13.344 7.754 13.148 7.614 12.952C7.474 12.7467 7.35267 12.5367 7.25 12.322C7.12867 12.098 7.166 11.9067 7.362 11.748L8.3 11.02Z" fill="#366AEE"/>
</svg>
