<svg width="196" height="136" viewBox="0 0 196 136" fill="none" xmlns="http://www.w3.org/2000/svg">
<circle cx="128" cy="68" r="67" stroke="#FDD3D1" stroke-width="2"/>
<path d="M175 20L80 115" stroke="#FDD3D1" stroke-width="2"/>
<path d="M90.0461 55.3413H149.623C151.037 55.3413 152.112 56.4173 152.112 57.6664V94.9246C152.112 96.1738 151.037 97.2498 149.623 97.2498H90.0461C88.6321 97.2498 87.5562 96.1738 87.5562 94.9246V57.6664C87.5562 56.4173 88.6321 55.3413 90.0461 55.3413Z" fill="white" stroke="#999999" stroke-width="1.5"/>
<path d="M148.616 64.0278H88.2217V71.5771H148.616V64.0278Z" fill="#999999"/>
<path d="M130.547 73.6196H89.8394V78.2291H130.547V73.6196Z" fill="white"/>
<path d="M144.343 73.6196H133.51V78.2291H144.343V73.6196Z" fill="white"/>
<path d="M119.939 32.563L177.485 47.9825C178.851 48.3485 179.612 49.6663 179.289 50.8729L169.645 86.8615C169.322 88.0681 168.004 88.829 166.639 88.463L109.092 73.0435C107.726 72.6775 106.966 71.3597 107.289 70.1531L116.932 34.1644C117.255 32.9579 118.573 32.197 119.939 32.563Z" fill="white" stroke="#999999" stroke-width="1.5"/>
<path d="M126.451 49.4981L121.156 48.0792C120.089 47.7933 118.992 48.4264 118.706 49.4934L117.767 52.9986C117.481 54.0655 118.115 55.1622 119.181 55.4481L124.477 56.867C125.544 57.1529 126.641 56.5197 126.926 55.4528L127.866 51.9476C128.152 50.8806 127.518 49.784 126.451 49.4981Z" fill="#DCDAD8"/>
<path d="M155.054 69.0088L115.543 58.4219L114.337 62.9212L153.848 73.5081L155.054 69.0088Z" fill="#DCD8D8"/>
<path d="M168.443 72.5966L157.929 69.7793L156.724 74.2787L167.238 77.0959L168.443 72.5966Z" fill="#DCD8D8"/>
<path d="M169.306 53.6877C168.843 55.4165 167.078 56.4379 165.372 55.9809C163.666 55.5238 162.648 53.7564 163.111 52.0276C163.574 50.2988 165.34 49.2774 167.046 49.7344C168.751 50.1915 169.77 51.9589 169.306 53.6877Z" fill="white" stroke="#999999" stroke-width="1.5"/>
<path d="M173.502 54.8117C173.039 56.5405 171.273 57.5619 169.568 57.1049C167.862 56.6478 166.844 54.8804 167.307 53.1516C167.77 51.4228 169.536 50.4014 171.241 50.8585C172.947 51.3155 173.966 53.0829 173.502 54.8117Z" fill="#DCD8D8" stroke="#999999" stroke-width="1.5"/>
<circle cx="130" cy="75" r="15" fill="white" stroke="#F84D4D" stroke-width="2"/>
<path d="M128.476 84.9052V81.324H132.286V84.9052H128.476ZM128.796 78.9949L128.476 68.126V65.0957H132.286V68.126L131.942 78.9949H128.796Z" fill="#F84D4D"/>
<path opacity="0.05" d="M40.0029 136C62.0943 136 80.0029 118.091 80.0029 96C80.0029 73.9086 62.0943 56 40.0029 56C17.9115 56 0.00292969 73.9086 0.00292969 96C0.00292969 118.091 17.9115 136 40.0029 136Z" fill="#1E2470"/>
<path d="M41.7012 107.319H43.3543V108.834H38.5347V107.319H40.1967V106.277H41.7012V107.319ZM42.0881 109.517C42.4158 109.743 42.6666 110.055 42.8403 110.451C43.014 110.847 43.1018 111.296 43.1018 111.793C43.1018 112.289 43.014 112.738 42.8403 113.134C42.6666 113.53 42.4158 113.842 42.0881 114.068C41.7603 114.295 41.3788 114.407 40.9436 114.407C40.5084 114.407 40.1269 114.295 39.7991 114.068C39.4714 113.842 39.2206 113.532 39.0469 113.134C38.8732 112.738 38.7854 112.289 38.7854 111.793C38.7854 111.296 38.8732 110.847 39.0469 110.451C39.2206 110.055 39.4714 109.743 39.7991 109.517C40.1269 109.291 40.5084 109.178 40.9436 109.178C41.3788 109.178 41.7603 109.291 42.0881 109.517ZM41.5006 112.658C41.6332 112.441 41.7012 112.154 41.7012 111.793C41.7012 111.431 41.6349 111.144 41.5006 110.927C41.3663 110.71 41.1818 110.602 40.9436 110.602C40.7054 110.602 40.5209 110.71 40.3866 110.927C40.2523 111.144 40.186 111.431 40.186 111.793C40.186 112.154 40.2523 112.441 40.3866 112.658C40.5191 112.875 40.7054 112.982 40.9436 112.982C41.1818 112.982 41.3663 112.873 41.5006 112.658ZM46.2254 110.988H45.3549V114.704H43.8845V106.307H45.3549V109.374H46.2254V110.986V110.988Z" fill="#5E6C8D"/>
<path d="M50.6747 106.317H52.007V114.557H50.6747V113.638L49.6322 114.23L48.7329 112.099C48.2859 113.527 47.6101 114.262 46.7056 114.31V112.613C46.971 112.567 47.1997 112.286 47.3918 111.774C47.5839 111.261 47.7306 110.55 47.8336 109.643C47.9366 108.736 47.9855 107.671 47.9855 106.447L49.3423 106.506C49.3423 107.743 49.2864 108.859 49.1729 109.851L50.6747 113.197V110.443H49.8767V108.864H50.6747V106.319V106.317ZM53.9156 106.277V114.704H52.5675V106.277H53.9156Z" fill="#5E6C8D"/>
<path d="M62.5672 113.117V114.704H54.8765V113.117H56.3626V111.222C55.9833 110.977 55.6882 110.668 55.4812 110.295C55.2741 109.923 55.1697 109.512 55.1697 109.061C55.1697 108.514 55.3162 108.032 55.6094 107.612C55.9026 107.192 56.3204 106.865 56.8592 106.63C57.3997 106.394 58.0191 106.277 58.7191 106.277C59.4191 106.277 60.0402 106.394 60.579 106.63C61.1195 106.865 61.5355 107.192 61.8287 107.612C62.1219 108.032 62.2685 108.516 62.2685 109.061C62.2685 109.51 62.164 109.923 61.957 110.295C61.7499 110.668 61.4549 110.977 61.0756 111.222V113.117H62.5617H62.5672ZM57.3063 108.171C56.9434 108.397 56.7639 108.694 56.7639 109.063C56.7639 109.302 56.8463 109.514 57.0131 109.703C57.1798 109.891 57.4107 110.035 57.7076 110.139C58.0044 110.242 58.3416 110.291 58.7227 110.291C59.1039 110.291 59.441 110.24 59.7379 110.139C60.0347 110.035 60.2656 109.891 60.4324 109.703C60.5991 109.514 60.6816 109.302 60.6816 109.063C60.6816 108.694 60.5002 108.397 60.1392 108.171C59.7764 107.945 59.3054 107.834 58.7246 107.834C58.1437 107.834 57.6709 107.947 57.3099 108.171H57.3063ZM57.867 113.117H59.5766V111.775C59.3091 111.817 59.0251 111.837 58.7227 111.837C58.4204 111.837 58.1345 111.817 57.8688 111.775V113.117H57.867Z" fill="#5E6C8D"/>
<path d="M18.3427 110.29C17.7465 110.718 17.1074 110.949 16.4253 110.986V108.798C16.9373 108.723 17.3964 108.461 17.8026 108.011C18.2089 107.56 18.5293 106.971 18.7622 106.241C18.995 105.512 19.1139 104.716 19.1222 103.852L21.099 103.992C21.099 104.939 20.9669 105.849 20.7043 106.723L23.5631 109.148L22.412 110.82L19.8901 108.576C19.4558 109.291 18.9405 109.862 18.3443 110.29H18.3427ZM26.0387 113.578V115.695H17.0182V111.529H19.0181V113.578H26.0387ZM25.8999 112.603H23.9347V103.798H25.8999V112.603Z" fill="#F84D4D"/>
<path d="M37.0918 113.056V115.199H27.48V113.056H30.5733V108.527H32.5206V113.056H37.0934H37.0918ZM34.6102 106.424H27.9795V104.294H36.5686V111.93H34.6102V106.424Z" fill="#F84D4D"/>
<path d="M46.8692 83.8466C46.8692 80.9958 44.5565 78.6831 41.7057 78.6831H38.4711C35.6203 78.6831 33.3076 80.9958 33.3076 83.8466V93.0387H46.8692V83.8466Z" fill="#5E6C8D"/>
<path d="M33.3129 94.3218H32.3271V99.3681H33.3129H46.8682H47.6728V94.3218H46.8682H33.3129Z" fill="#5E6C8D"/>
<path d="M39.8138 73.2427H40.1442C40.4639 73.2427 40.7197 73.4985 40.7197 73.8182V76.3546C40.7197 76.6744 40.4639 76.9301 40.1442 76.9301H39.8138C39.4941 76.9301 39.2383 76.6744 39.2383 76.3546V73.8182C39.2383 73.4985 39.4941 73.2427 39.8138 73.2427Z" fill="#5E6C8D"/>
<path d="M33.9227 74.5918L34.1603 74.3623C34.3903 74.1402 34.7519 74.1464 34.9741 74.3764L36.7364 76.2006C36.9585 76.4306 36.9523 76.7923 36.7223 77.0144L36.4847 77.2439C36.2547 77.4661 35.8931 77.4598 35.6709 77.2299L33.9086 75.4056C33.6865 75.1757 33.6928 74.814 33.9227 74.5918Z" fill="#5E6C8D"/>
<path d="M43.1591 76.2043L44.9214 74.38C45.1436 74.15 45.5052 74.1438 45.7352 74.3659L45.9728 74.5955C46.2027 74.8176 46.209 75.1793 45.9869 75.4092L44.2246 77.2335C44.0024 77.4634 43.6408 77.4697 43.4108 77.2476L43.1732 77.018C42.9432 76.7959 42.937 76.4342 43.1591 76.2043Z" fill="#5E6C8D"/>
</svg>
