<svg width="160" height="120" viewBox="0 0 160 120" fill="none" xmlns="http://www.w3.org/2000/svg">
<mask id="mask0_960_7737" style="mask-type:alpha" maskUnits="userSpaceOnUse" x="0" y="0" width="160" height="120">
<rect width="160" height="120" fill="#D9D9D9"/>
</mask>
<g mask="url(#mask0_960_7737)">
<path d="M53.3026 0.556857C47.1788 1.25077 40.7338 2.79653 36.5078 7.22043C32.4463 11.4721 31.1723 17.7593 31.8719 23.5585C32.5724 29.3576 35.0199 34.798 37.6012 40.0544C39.6319 44.1902 41.7607 49.1585 39.4333 53.1388C37.5517 56.358 33.4664 57.5501 30.7215 60.0964C26.2637 64.2305 26.1052 71.4418 28.689 76.9108C31.2728 82.3797 36.0127 86.5138 40.6238 90.4816C48.2909 97.0796 55.9572 103.677 63.6243 110.275C67.0347 113.21 70.5107 116.187 74.637 118.022C80.9721 120.84 88.6103 120.636 94.7809 117.482C99.7611 114.937 103.611 110.72 107.346 106.594C118.255 94.54 129.163 82.4873 140.072 70.4337C144.93 65.0655 149.928 59.4554 151.997 52.5566C155.784 39.9326 148.388 26.0653 137.519 18.418C125.524 9.97928 112.275 9.01486 98.3643 6.80627C90.889 5.61923 83.8559 2.07742 76.2229 0.954218C68.6436 -0.160579 60.9152 -0.305914 53.3026 0.556857Z" fill="#FCD68E"/>
<path d="M155.096 29.5488L121.456 21.157C118.894 20.518 116.3 22.0754 115.662 24.6354L97.1561 98.8172C96.5175 101.377 98.0762 103.971 100.638 104.61L134.277 113.001C136.839 113.64 139.433 112.083 140.072 109.523L158.577 35.3412C159.216 32.7811 157.657 30.1878 155.096 29.5488Z" fill="#A3E8B0" stroke="#231F20" stroke-width="1.2" stroke-linecap="round" stroke-linejoin="round"/>
<path d="M158.247 36.6633L115.332 25.9575L98.2494 94.4341L141.165 105.14L158.247 36.6633Z" fill="white" stroke="#231F20" stroke-width="1.2" stroke-linecap="round" stroke-linejoin="round"/>
<path d="M141.392 28.813L133.915 26.9478L133.672 27.9209L141.149 29.7862L141.392 28.813Z" fill="white" stroke="#231F20" stroke-width="1.2" stroke-linecap="round" stroke-linejoin="round"/>
<path d="M117.967 106.794C119.314 107.13 120.677 106.312 121.013 104.966C121.349 103.62 120.529 102.257 119.183 101.921C117.837 101.585 116.473 102.404 116.137 103.75C115.802 105.095 116.621 106.458 117.967 106.794Z" fill="white" stroke="#231F20" stroke-width="1.2" stroke-linecap="round" stroke-linejoin="round"/>
<path d="M140.985 40.9505L128.655 37.8745C126.348 37.299 124.011 38.7017 123.436 41.0074L120.362 53.3314C119.787 55.6371 121.19 57.9728 123.497 58.5483L135.828 61.6243C138.135 62.1998 140.471 60.7971 141.047 58.4914L144.121 46.1674C144.696 43.8617 143.292 41.526 140.985 40.9505Z" fill="#FFCDC2" stroke="#231F20" stroke-width="1.2" stroke-linecap="round" stroke-linejoin="round"/>
<path d="M120.771 78.8731L123.189 83.0113L130.487 78.1563" stroke="#231F20" stroke-width="1.2" stroke-linecap="round" stroke-linejoin="round"/>
<path d="M129.291 52.9003L128.36 52.6679L128.27 51.2108L125.863 50.6106L125.099 51.8547L124.168 51.6223L127.712 46.0422L128.775 46.3075L129.291 52.9003ZM128.217 50.3649L128.025 47.0684L126.299 49.8866L128.217 50.3649ZM131.582 50.2151L132.933 50.552C133.686 50.7398 134.169 50.4233 134.345 49.7169C134.521 49.0106 134.244 48.5043 133.491 48.3165L132.14 47.9796L131.582 50.2151ZM132.854 51.365L131.387 50.999L130.818 53.2811L129.917 53.0565L131.435 46.971L133.803 47.5616C135.014 47.8636 135.544 48.7462 135.245 49.9416C134.943 51.1525 134.065 51.6671 132.854 51.365ZM136.646 51.4782L137.997 51.8151C138.749 52.003 139.232 51.6865 139.409 50.9801C139.585 50.2738 139.307 49.7675 138.554 49.5797L137.204 49.2427L136.646 51.4782ZM137.917 52.6282L136.45 52.2622L135.881 54.5443L134.981 54.3196L136.499 48.2341L138.866 48.8247C140.077 49.1268 140.607 50.0094 140.309 51.2047C140.007 52.4156 139.128 52.9302 137.917 52.6282Z" fill="#231F20"/>
<circle cx="154" cy="82" r="5" fill="#FCD68E"/>
<circle cx="17" cy="42" r="8" fill="#FCD68E"/>
<circle cx="19.5" cy="62.5" r="2.5" fill="#FCD68E"/>
<circle cx="5.5" cy="70.5" r="3.5" fill="#FCD68E"/>
</g>
<g clip-path="url(#clip0_960_7737)">
<path d="M50.0541 82.1826C50.0541 82.1826 57.4337 87.3296 70.5015 84.4722L76.7473 88.7645L61.6967 91.4783L50.9092 86.9053C50.9092 86.9053 47.6438 84.048 50.0603 82.1889L50.0541 82.1826Z" fill="#DAEAE5"/>
<path d="M61.5788 91.7587L50.7913 87.1857C50.7913 87.1857 50.7355 87.1545 50.7107 87.1358C50.6364 87.0672 48.8147 85.4513 48.8643 83.7544C48.8891 83.0432 49.2237 82.4318 49.8743 81.9327C49.9796 81.8516 50.1283 81.8453 50.2398 81.9265C50.2832 81.9576 54.7754 85.0209 62.8119 85.0209C65.2718 85.0209 67.8432 84.7339 70.4394 84.1662C70.5261 84.1474 70.6067 84.1662 70.681 84.2161L76.9268 88.5021C77.0321 88.577 77.0817 88.7017 77.0569 88.8265C77.0321 88.9513 76.933 89.0449 76.8091 89.0698L61.7585 91.7837C61.7585 91.7837 61.7214 91.7837 61.7028 91.7837C61.6594 91.7837 61.6222 91.7774 61.585 91.7587H61.5788ZM70.4332 84.8025C67.837 85.364 65.2656 85.6447 62.7995 85.6447C55.426 85.6447 51.0391 83.1742 50.0725 82.569C49.6822 82.9184 49.4901 83.3177 49.4715 83.7731C49.4281 85.0583 50.8285 86.4121 51.0701 86.6305L61.7276 91.1473L75.9416 88.5832L70.4332 84.8025Z" fill="#231F20" stroke="#231F20" stroke-width="0.5"/>
<path d="M75.607 75.6069C75.607 75.6069 71.0652 78.4643 70.4951 85.0399L74.4173 88.3777L84.6906 77.0356L75.607 75.6069Z" fill="#DAEAE5"/>
<path d="M74.2189 88.6146L70.2967 85.2769C70.2223 85.2082 70.179 85.1147 70.1852 85.0086C70.7614 78.3581 75.2474 75.4571 75.4395 75.3385C75.5015 75.3011 75.5758 75.2824 75.6502 75.2949L84.7338 76.7235C84.8453 76.7423 84.9383 76.8171 84.9755 76.9294C85.0126 77.0355 84.9878 77.1602 84.9135 77.2414L74.6402 88.5834C74.5783 88.652 74.4977 88.6832 74.411 88.6832C74.3428 88.6832 74.2684 88.6583 74.2127 88.6084L74.2189 88.6146ZM75.6812 75.9312C75.0492 76.3742 71.381 79.1816 70.8234 84.9025L74.3924 87.9408L84.077 77.2476L75.6812 75.925V75.9312Z" fill="#231F20" stroke="#231F20" stroke-width="0.5"/>
<path d="M92.789 75.4509C92.789 75.4509 94.4992 72.9554 91.5126 71.8823C91.5126 71.8823 87.8197 71.8886 85.6882 72.0071C85.6882 72.0071 80.9543 72.4064 81.0472 76.5988L87.956 78.1835L92.7828 75.4509H92.789Z" fill="#636363"/>
<path d="M87.894 78.4827L80.9853 76.8981C80.849 76.8669 80.7498 76.7421 80.7437 76.5986C80.6445 72.1629 85.6139 71.695 85.6758 71.6887C87.7887 71.5702 91.4816 71.564 91.5188 71.564C91.5436 71.5764 91.587 71.564 91.6242 71.5827C92.6217 71.9445 93.2537 72.4935 93.4892 73.2359C93.8672 74.4088 93.0865 75.5755 93.0493 75.6254C93.0245 75.6628 92.9873 75.7003 92.9439 75.719L88.1171 78.4515C88.0675 78.4765 88.018 78.489 87.9622 78.489C87.9374 78.489 87.9188 78.489 87.894 78.4827ZM92.8944 73.4293C92.7209 72.8991 92.2438 72.4811 91.4631 72.1941C90.9983 72.1941 87.6648 72.2128 85.7192 72.3189C85.5395 72.3376 81.4562 72.7181 81.3633 76.3491L87.9188 77.8464L92.5722 75.2136C92.7023 74.9953 93.1422 74.1905 92.8944 73.4293Z" fill="#1E2470" stroke="black" stroke-width="0.5"/>
<path d="M84.1577 72.918C84.1577 72.918 81.4004 75.1827 77.2737 75.5071C77.2737 75.5071 70.3712 76.9608 68.3264 76.8672C68.3264 76.8672 66.0152 76.8609 65.3584 78.614C65.3584 78.614 63.9085 83.5676 64.1998 85.9446L59.5278 85.6201C59.5278 85.6201 59.8934 78.9384 60.4077 75.2201C60.4077 75.2201 60.544 72.8182 63.3509 71.8387C63.3509 71.8387 69.2311 69.5055 74.8324 69.1187L84.1639 72.918H84.1577Z" fill="#FF8C73"/>
<path d="M64.1751 86.2565L59.5031 85.9321C59.3358 85.9196 59.2057 85.7761 59.2181 85.6015C59.2181 85.5328 59.5899 78.8636 60.098 75.2015C60.098 75.0954 60.2777 72.575 63.2394 71.5518C63.3014 71.5268 69.2249 69.1936 74.8139 68.813C74.8635 68.813 74.9068 68.813 74.9502 68.8379L84.2817 72.6373C84.3808 72.6748 84.4552 72.7684 84.4738 72.8807C84.4923 72.9867 84.449 73.099 84.3622 73.1676C84.2445 73.2612 81.481 75.5009 77.3481 75.8191C77.0817 75.8753 70.8174 77.1916 68.5496 77.1916C68.469 77.1916 68.3947 77.1916 68.3389 77.1916C68.3203 77.1916 66.2322 77.2103 65.6683 78.7139C65.6559 78.7638 64.237 83.63 64.5158 85.9196C64.5282 86.0132 64.4973 86.1068 64.4353 86.1692C64.3795 86.2316 64.2928 86.269 64.2122 86.269C64.206 86.269 64.1998 86.269 64.1936 86.269L64.1751 86.2565ZM68.3389 76.5553C70.3279 76.6489 77.1375 75.2202 77.2428 75.1952C80.2851 74.9582 82.5901 73.6168 83.5133 72.9929L74.7705 69.4369C69.3055 69.8299 63.5121 72.107 63.4377 72.132C60.8725 73.0241 60.7114 75.1453 60.699 75.2576C60.2591 78.4643 59.9183 83.9669 59.8439 85.3207L63.8528 85.6015C63.7227 83.0935 64.9991 78.7139 65.0611 78.4955C65.7799 76.5802 68.1902 76.549 68.3327 76.549L68.3389 76.5553Z" fill="#231F20" stroke="#231F20" stroke-width="0.5"/>
<path d="M59.8065 85.6575C59.8065 85.6575 57.6255 86.0069 57.1917 87.1736C57.1917 87.1736 56.6837 88.0096 58.1336 88.047L64.2678 87.9534C64.2678 87.9534 65.3769 87.4605 64.5528 85.564L59.8003 85.6513L59.8065 85.6575Z" fill="#896347"/>
<path d="M58.1274 88.3588C57.4706 88.3401 57.0617 88.1717 56.882 87.8348C56.6775 87.448 56.8944 87.0612 56.9006 87.0612C57.3963 85.7386 59.6579 85.358 59.8004 85.3393L64.5529 85.252C64.6644 85.252 64.7945 85.3268 64.8441 85.4391C65.7797 87.5977 64.4166 88.2341 64.398 88.2403C64.3608 88.259 64.3174 88.2653 64.2802 88.2653L58.146 88.3588H58.1336H58.1274ZM64.3484 85.8821L59.85 85.9632C59.2923 86.0505 57.7805 86.4623 57.4521 87.3357C57.4397 87.3544 57.3839 87.4729 57.4211 87.5416C57.4644 87.6227 57.6751 87.7225 58.1336 87.735L64.1873 87.6476C64.3422 87.5416 64.8131 87.0986 64.3484 85.8821Z" fill="#231F20" stroke="#231F20" stroke-width="0.5"/>
<path d="M85.8741 73.6854C85.8741 73.6854 83.1168 75.9501 78.9902 76.2745C78.9902 76.2745 72.3788 77.8217 69.9004 77.8716C69.9004 77.8716 68.6611 78.3395 68.593 79.606C68.593 79.606 67.5768 84.5783 67.0068 86.9677L62.0498 86.6558C62.0498 86.6558 62.2977 79.8867 62.8057 76.1684C62.8057 76.1684 62.7004 73.3859 65.5073 72.4127C65.5073 72.4127 70.0739 70.7345 75.6504 69.7612L85.8679 73.6854H85.8741Z" fill="#FF8C73"/>
<path d="M66.9945 87.2793L62.0375 86.9674C61.8702 86.9549 61.7401 86.8114 61.7463 86.643C61.7463 86.5743 62.0003 79.8115 62.5022 76.1806C62.5022 76.1494 62.4217 73.1548 65.4083 72.1192C65.4516 72.1004 70.0678 70.4222 75.6072 69.4552C75.6629 69.4427 75.7187 69.4552 75.7683 69.4739L85.9858 73.3981C86.0911 73.4355 86.1655 73.5291 86.1841 73.6414C86.2027 73.7537 86.1593 73.8598 86.0725 73.9346C85.9548 74.0282 83.1913 76.2679 79.0646 76.5861C78.7982 76.6485 72.4905 78.1146 69.9686 78.1895C69.7642 78.283 68.9525 78.7073 68.8967 79.6743C68.8843 79.7242 67.8743 84.6778 67.3105 87.0485C67.2795 87.192 67.1494 87.2856 67.0069 87.2856C67.0007 87.2856 66.9945 87.2856 66.9883 87.2856L66.9945 87.2793ZM75.632 70.0791C70.1855 71.0399 65.6685 72.6869 65.6189 72.7056C63.0723 73.5915 63.1219 76.0558 63.1219 76.2118C62.6819 79.4247 62.4341 85.0084 62.3783 86.3622L66.7714 86.6367C67.3415 84.1974 68.2833 79.5869 68.2895 79.5807C68.37 78.1271 69.7394 77.5968 69.7951 77.5718C69.8261 77.5593 69.8633 77.5531 69.8943 77.5531C72.3108 77.5032 78.854 75.9809 78.9655 75.956C81.9954 75.7189 84.2942 74.3901 85.2237 73.76L75.6258 70.0729L75.632 70.0791Z" fill="#231F20" stroke="#231F20" stroke-width="0.5"/>
<path d="M83.0921 52.0929L76.7906 49.7783L73.2898 53.0162C73.2774 53.1036 73.265 53.1909 73.2464 53.2783L72.4471 53.8086C72.4471 53.8086 67.9177 60.4341 60.0423 55.4057L59.4971 57.2274C59.4971 57.2274 64.1814 63.2977 71.6478 61.32C71.4309 65.5624 71.5734 69.1434 71.5734 69.1434C73.6554 70.4785 85.5954 74.646 85.5954 74.646C87.2064 72.7432 87.3923 71.3082 87.3923 71.3082C88.3217 60.1783 83.0921 52.0867 83.0921 52.0867V52.0929Z" fill="#FF8C73"/>
<path d="M85.4959 74.9454C85.0064 74.777 73.4939 70.753 71.4058 69.4116C71.319 69.3555 71.2695 69.2619 71.2633 69.1621C71.2633 69.1309 71.1269 65.7557 71.3128 61.7317C70.4268 61.9314 69.5469 62.0374 68.6733 62.0374C62.8736 62.0374 59.3914 57.6142 59.2489 57.427C59.1869 57.3459 59.1683 57.2398 59.1993 57.1463L59.7446 55.3245C59.7693 55.231 59.8437 55.1561 59.9304 55.1249C60.0234 55.0937 60.1225 55.1 60.2031 55.1561C62.1115 56.3727 63.9765 56.9903 65.7487 56.9903C69.8381 56.9903 72.1617 53.6775 72.1865 53.6401C72.2113 53.6089 72.2361 53.5777 72.2732 53.559L72.961 53.1036L72.9796 52.9725C72.992 52.9039 73.023 52.8415 73.0725 52.7979L76.5734 49.5537C76.6601 49.4788 76.7779 49.4539 76.8894 49.4913L83.1909 51.8059C83.2529 51.8308 83.3086 51.8745 83.3458 51.9307C83.4016 52.0118 88.6188 60.2407 87.6955 71.3644C87.6894 71.4268 87.4787 72.9053 85.8243 74.8643C85.7623 74.9329 85.6756 74.9766 85.5888 74.9766C85.5579 74.9766 85.5207 74.9766 85.4897 74.9579L85.4959 74.9454ZM87.0883 71.2895C87.9434 61.008 83.4388 53.247 82.8873 52.3487L76.8646 50.1339L73.5806 53.1722L73.5558 53.3281C73.5435 53.4155 73.4939 53.4904 73.4195 53.5403L72.6636 54.0394C72.329 54.501 69.9373 57.6079 65.7549 57.6079C63.9703 57.6079 62.1115 57.0277 60.2217 55.8923L59.8375 57.165C60.4385 57.87 63.6977 61.4136 68.6733 61.4136C69.6213 61.4136 70.5941 61.2826 71.5607 61.0268C71.6536 61.0018 71.759 61.0268 71.8333 61.0892C71.9077 61.1515 71.951 61.2451 71.9448 61.3449C71.759 65.0071 71.8395 68.22 71.8643 68.9687C74.0577 70.2476 83.9407 73.7413 85.4835 74.2841C86.8776 72.5684 87.0759 71.2895 87.0759 71.2895H87.0883Z" fill="#231F20" stroke="#231F20" stroke-width="0.5"/>
<path d="M60.755 55.2126C60.755 56.2108 59.9495 57.0218 58.9581 57.0218H51.2315C50.2401 57.0218 49.4346 56.2108 49.4346 55.2126C49.4346 54.2144 50.2401 53.4033 51.2315 53.4033H58.9581C59.9495 53.4033 60.755 54.2144 60.755 55.2126Z" fill="#636363"/>
<path d="M49.1245 55.2125C49.1245 54.0396 50.0725 53.0913 51.2312 53.0913H58.9579C60.1165 53.0913 61.0646 54.0458 61.0646 55.2125C61.0646 56.3791 60.1165 57.3337 58.9579 57.3337H51.2312C50.0663 57.3337 49.1245 56.3791 49.1245 55.2125ZM51.2312 53.7152C50.4133 53.7152 49.7441 54.389 49.7441 55.2125C49.7441 56.036 50.4133 56.7098 51.2312 56.7098H58.9579C59.7758 56.7098 60.4449 56.036 60.4449 55.2125C60.4449 54.389 59.7758 53.7152 58.9579 53.7152H51.2312Z" fill="#231F20" stroke="#231F20" stroke-width="0.5"/>
<path d="M42.1538 60.7211C42.1538 60.7211 36.7198 78.8821 36.8871 94.5538H100.751C100.751 94.5538 105.528 75.326 89.2325 74.6085H85.775C85.775 74.6085 75.5699 75.6754 74.4174 89.3881H61.9073C61.9073 89.3881 51.8695 90.2803 49.3972 80.3045C49.3972 80.3045 46.7638 68.9063 47.5879 61.607L42.1538 60.7148V60.7211Z" fill="#499CE8"/>
<path d="M36.5773 94.5541C36.4162 79.0196 41.8007 60.8149 41.8564 60.634C41.8998 60.4843 42.0547 60.3907 42.2034 60.4156L47.6375 61.3078C47.7986 61.3327 47.9163 61.4887 47.8977 61.6509C47.086 68.813 49.676 80.1301 49.7008 80.2361C51.7393 88.4651 59.0756 89.1014 61.2753 89.1014C61.6532 89.1014 61.8701 89.0827 61.9073 89.0827H74.1324C75.415 75.5446 85.6387 74.3156 85.775 74.3031H89.2449C93.6318 74.4965 96.9219 76.0312 99.0286 78.8761C103.428 84.8092 101.154 94.2359 101.055 94.6352C101.018 94.7724 100.894 94.8723 100.757 94.8723H36.8871C36.7198 94.8723 36.5773 94.735 36.5773 94.5666V94.5541ZM98.5329 79.2379C96.544 76.5553 93.4087 75.1017 89.2325 74.9207H85.8122C85.4032 74.9644 75.8487 76.1373 74.7272 89.4133C74.7148 89.5756 74.5785 89.7003 74.4174 89.7003H61.9321C61.9321 89.7003 61.6904 89.719 61.2753 89.719C58.9579 89.719 51.2436 89.0453 49.0936 80.3734C49.0688 80.2611 46.5283 69.1499 47.2471 61.8693L42.3707 61.0707C41.7139 63.3416 37.1101 79.8805 37.1907 94.2359H100.503C100.826 92.7324 102.381 84.4286 98.5267 79.2379H98.5329Z" fill="#1E2470" stroke="#231F20" stroke-width="0.5"/>
<path d="M52.2102 57.6515C52.2102 61.0579 49.4591 63.8216 46.0636 63.8216C42.6681 63.8216 39.917 61.0579 39.917 57.6515V57.508C39.917 54.1017 42.6681 51.3379 46.0636 51.3379C49.4591 51.3379 52.2102 54.1017 52.2102 57.508V57.6515Z" fill="#499CE8"/>
<path d="M39.6074 57.6519V57.5084C39.6074 53.9336 42.501 51.0264 46.0638 51.0264C49.6267 51.0264 52.5203 53.9336 52.5203 57.5084V57.6519C52.5203 61.2267 49.6205 64.134 46.0638 64.134C42.5072 64.134 39.6074 61.2267 39.6074 57.6519ZM40.227 57.5084V57.6519C40.227 60.8836 42.848 63.5101 46.0638 63.5101C49.2797 63.5101 51.9007 60.8836 51.9007 57.6519V57.5084C51.9007 54.2768 49.2797 51.6502 46.0638 51.6502C42.848 51.6502 40.227 54.2768 40.227 57.5084Z" fill="#231F20" stroke="#231F20" stroke-width="0.5"/>
<path d="M47.5938 57.1526C47.5938 59.5732 45.9642 61.5322 43.9505 61.5322C41.9367 61.5322 40.3071 59.5732 40.3071 57.1526C40.3071 54.7319 41.9367 52.7729 43.9505 52.7729C45.9642 52.7729 47.5938 54.7319 47.5938 57.1526Z" fill="#FFE027"/>
<path d="M39.9976 57.1525C39.9976 54.5696 41.7697 52.4609 43.9507 52.4609C46.1318 52.4609 47.9039 54.5634 47.9039 57.1525C47.9039 59.7416 46.1318 61.844 43.9507 61.844C41.7697 61.844 39.9976 59.7416 39.9976 57.1525ZM40.6172 57.1525C40.6172 59.3984 42.1105 61.2201 43.9507 61.2201C45.791 61.2201 47.2843 59.3984 47.2843 57.1525C47.2843 54.9065 45.791 53.0848 43.9507 53.0848C42.1105 53.0848 40.6172 54.9065 40.6172 57.1525Z" fill="#231F20" stroke="#231F20" stroke-width="0.5"/>
<path d="M61.1329 57.8014C61.1329 58.7996 60.3274 59.6107 59.336 59.6107H51.6094C50.618 59.6107 49.8125 58.7996 49.8125 57.8014C49.8125 56.8032 50.618 55.9922 51.6094 55.9922H59.336C60.3274 55.9922 61.1329 56.8032 61.1329 57.8014Z" fill="#636363"/>
<path d="M49.5024 57.8014C49.5024 56.6285 50.4505 55.6802 51.6091 55.6802H59.3358C60.5007 55.6802 61.4425 56.6347 61.4425 57.8014C61.4425 58.968 60.4945 59.9225 59.3358 59.9225H51.6091C50.4443 59.9225 49.5024 58.968 49.5024 57.8014ZM51.6091 56.3041C50.7912 56.3041 50.1221 56.9778 50.1221 57.8014C50.1221 58.6249 50.7912 59.2987 51.6091 59.2987H59.3358C60.1537 59.2987 60.8229 58.6249 60.8229 57.8014C60.8229 56.9778 60.1537 56.3041 59.3358 56.3041H51.6091Z" fill="#231F20" stroke="#231F20" stroke-width="0.5"/>
<path d="M75.5451 55.1187C75.5451 55.1187 70.5138 59.3111 67.5086 59.0179C67.5086 59.0179 62.5331 58.7746 61.1142 57.6329L58.3135 60.0909C58.3135 60.0909 66.9324 68.376 77.9678 60.6774" fill="#FF8C73"/>
<path d="M68.4256 64.24C71.2944 64.24 74.597 63.3978 78.135 60.9272C78.2775 60.8274 78.3085 60.634 78.2155 60.4905C78.1164 60.347 77.9243 60.3096 77.7818 60.4094C68.1219 67.1535 60.2776 61.339 58.7781 60.0787L61.1326 58.02C62.818 59.0805 67.2917 59.3114 67.4899 59.3238C70.5756 59.6295 75.5264 55.5307 75.7371 55.3498C75.8672 55.2375 75.8858 55.0441 75.7804 54.9131C75.6689 54.782 75.4768 54.7633 75.3467 54.8694C75.2971 54.9068 70.3712 58.9745 67.5395 58.7C66.1701 58.6313 62.4091 58.2695 61.3123 57.3836C61.1946 57.29 61.0273 57.29 60.9158 57.3898L58.1151 59.8479C58.0469 59.9041 58.0098 59.9852 58.0098 60.0787C58.0098 60.1661 58.0407 60.2534 58.1027 60.3158C58.1647 60.372 62.2913 64.24 68.4318 64.24H68.4256Z" fill="#231F20" stroke="#231F20" stroke-width="0.5"/>
<path d="M103.23 95.9453C103.23 97.5112 101.928 98.7839 100.324 98.7839H34.1111C32.5063 98.7839 31.2051 97.5112 31.2051 95.9453V95.0906C31.2051 93.5247 32.5063 92.252 34.1111 92.252H100.33C101.935 92.252 103.236 93.5247 103.236 95.0906V95.9453H103.23Z" fill="white"/>
<path d="M30.8955 95.9452V95.0905C30.8955 93.3499 32.3392 91.9399 34.1113 91.9399H100.33C102.102 91.9399 103.546 93.3561 103.546 95.0905V95.9452C103.546 97.6858 102.102 99.0958 100.33 99.0958H34.1113C32.3392 99.0958 30.8955 97.6858 30.8955 95.9452ZM34.1113 92.5638C32.68 92.5638 31.5151 93.6993 31.5151 95.0905V95.9452C31.5151 97.3365 32.68 98.4719 34.1113 98.4719H100.33C101.761 98.4719 102.926 97.3365 102.926 95.9452V95.0905C102.926 93.6993 101.761 92.5638 100.33 92.5638H34.1113Z" fill="#231F20" stroke="#231F20" stroke-width="0.8"/>
<path d="M53.9575 99.9568C53.9575 105.141 49.7874 109.34 44.6384 109.34C39.4894 109.34 35.3193 105.135 35.3193 99.9568C35.3193 94.7786 39.4894 90.5737 44.6384 90.5737C49.7874 90.5737 53.9575 94.7786 53.9575 99.9568Z" fill="#636363"/>
<path d="M35.0098 99.9567C35.0098 94.6101 39.3285 90.2617 44.6386 90.2617C49.9488 90.2617 54.2675 94.6101 54.2675 99.9567C54.2675 105.303 49.9488 109.652 44.6386 109.652C39.3285 109.652 35.0098 105.303 35.0098 99.9567ZM35.6294 99.9567C35.6294 104.96 39.6693 109.028 44.6386 109.028C49.608 109.028 53.6479 104.96 53.6479 99.9567C53.6479 94.9533 49.608 90.8856 44.6386 90.8856C39.6693 90.8856 35.6294 94.9595 35.6294 99.9567Z" fill="#231F20" stroke="#231F20" stroke-width="0.5"/>
<path d="M79.3369 99.9568C79.3369 105.141 83.5131 109.34 88.656 109.34C93.7988 109.34 97.975 105.135 97.975 99.9568C97.975 94.7786 93.805 90.5737 88.656 90.5737C83.5069 90.5737 79.3369 94.7786 79.3369 99.9568Z" fill="#636363"/>
<path d="M79.0273 99.9567C79.0273 94.6101 83.3461 90.2617 88.6562 90.2617C93.9663 90.2617 98.2851 94.6101 98.2851 99.9567C98.2851 105.303 93.9663 109.652 88.6562 109.652C83.3461 109.652 79.0273 105.303 79.0273 99.9567ZM79.647 99.9567C79.647 104.96 83.6869 109.028 88.6562 109.028C93.6256 109.028 97.6655 104.96 97.6655 99.9567C97.6655 94.9533 93.6256 90.8856 88.6562 90.8856C83.6869 90.8856 79.647 94.9595 79.647 99.9567Z" fill="#231F20" stroke="#231F20" stroke-width="0.5"/>
<path d="M50.3266 99.9067C50.3266 103.032 47.811 105.559 44.7129 105.559C41.6148 105.559 39.0991 103.026 39.0991 99.9067C39.0991 96.7873 41.6148 94.2544 44.7129 94.2544C47.811 94.2544 50.3266 96.7873 50.3266 99.9067Z" fill="white"/>
<path d="M38.7832 99.9066C38.7832 96.6188 41.4414 93.9424 44.7068 93.9424C47.9721 93.9424 50.6303 96.6188 50.6303 99.9066C50.6303 103.194 47.9721 105.871 44.7068 105.871C41.4414 105.871 38.7832 103.194 38.7832 99.9066ZM39.4028 99.9066C39.4028 102.851 41.7822 105.247 44.7068 105.247C47.6314 105.247 50.0107 102.851 50.0107 99.9066C50.0107 96.9619 47.6314 94.5663 44.7068 94.5663C41.7822 94.5663 39.4028 96.9619 39.4028 99.9066Z" fill="#231F20" stroke="#231F20" stroke-width="0.5"/>
<path d="M94.4682 99.707C94.4682 102.833 91.9526 105.359 88.8545 105.359C85.7564 105.359 83.2407 102.826 83.2407 99.707C83.2407 96.5876 85.7564 94.0547 88.8545 94.0547C91.9526 94.0547 94.4682 96.5876 94.4682 99.707Z" fill="white"/>
<path d="M82.9312 99.7069C82.9312 96.4191 85.5893 93.7427 88.8547 93.7427C92.1201 93.7427 94.7783 96.4191 94.7783 99.7069C94.7783 102.995 92.1201 105.671 88.8547 105.671C85.5893 105.671 82.9312 102.995 82.9312 99.7069ZM83.5508 99.7069C83.5508 102.652 85.9301 105.047 88.8547 105.047C91.7793 105.047 94.1586 102.652 94.1586 99.7069C94.1586 96.7622 91.7793 94.3666 88.8547 94.3666C85.9301 94.3666 83.5508 96.7622 83.5508 99.7069Z" fill="#231F20" stroke="#231F20" stroke-width="0.5"/>
<path d="M44.5148 87.835C38.4115 87.835 33.4236 92.6076 33.0146 98.653H56.0211C55.6059 92.6138 50.6242 87.835 44.5148 87.835Z" fill="#499CE8"/>
<path d="M32.686 98.6529C32.686 98.6154 32.6922 98.578 32.7046 98.5406C33.1755 92.358 38.3432 87.5229 44.5084 87.5229C50.6736 87.5229 55.8969 92.4016 56.3183 98.6279C56.3183 98.7153 56.2935 98.8026 56.2377 98.865C56.182 98.9274 56.0952 98.9648 56.0085 98.9648H33.0082C33.0082 98.9648 33.002 98.9648 32.9958 98.9648C32.8224 98.9648 32.686 98.8276 32.686 98.6529ZM44.5084 88.1468C38.7459 88.1468 33.9067 92.5951 33.3428 98.3409H55.6739C55.11 92.6013 50.2708 88.1468 44.5084 88.1468Z" fill="#231F20" stroke="#231F20" stroke-width="0.5"/>
<path d="M88.7802 87.8408C94.8835 87.8408 99.8714 92.6135 100.28 98.6588H77.2739C77.6891 92.6197 82.6708 87.8408 88.774 87.8408H88.7802Z" fill="#499CE8"/>
<path d="M77.0506 98.865C76.9948 98.8026 76.9638 98.7153 76.97 98.6279C77.3976 92.4016 82.5838 87.5229 88.7799 87.5229C94.9761 87.5229 100.169 92.4016 100.59 98.6279C100.59 98.7153 100.565 98.8026 100.509 98.865C100.454 98.9274 100.367 98.9648 100.28 98.9648H77.2736C77.1869 98.9648 77.1063 98.9274 77.0444 98.865H77.0506ZM88.7799 88.1468C83.0175 88.1468 78.1783 92.5951 77.6144 98.3409H99.9455C99.3816 92.6013 94.5424 88.1468 88.7799 88.1468Z" fill="#231F20" stroke="#231F20" stroke-width="0.5"/>
<path d="M61.1133 57.6329C61.1133 58.9305 59.9177 59.9786 58.437 59.9786C56.9564 59.9786 55.7607 58.9305 55.7607 57.6329C55.7607 56.3352 56.9564 55.2871 58.437 55.2871C59.9177 55.2871 61.1133 56.3352 61.1133 57.6329Z" fill="#FCF0ED"/>
<path d="M62.1861 86.7493C62.1861 86.7493 60.0051 87.0987 59.5713 88.2654C59.5713 88.2654 59.0384 89.1263 60.5131 89.1388L66.6474 89.0202C66.6474 89.0202 67.7565 88.5523 66.9324 86.6558L62.1799 86.7431L62.1861 86.7493Z" fill="#896347"/>
<path d="M60.5132 89.4506C59.8502 89.4506 59.435 89.2822 59.2554 88.9453C59.0447 88.5523 59.2739 88.153 59.2801 88.153C59.7758 86.8304 62.0374 86.4498 62.18 86.4311L66.9324 86.3438C67.044 86.3438 67.1741 86.4186 67.2237 86.5309C67.5768 87.3482 67.645 88.0407 67.4343 88.5835C67.2237 89.1075 66.8209 89.2884 66.7775 89.3072C66.7403 89.3259 66.7032 89.3321 66.666 89.3321L60.5318 89.4506H60.5256H60.5132ZM66.728 86.9739L62.2295 87.055C61.6719 87.1423 60.16 87.5541 59.8316 88.4275C59.8068 88.4712 59.7572 88.5897 59.7944 88.6521C59.8378 88.7332 60.0547 88.8268 60.507 88.833L66.5669 88.7145C66.7218 88.6147 67.1927 88.1904 66.728 86.9739Z" fill="#231F20" stroke="#231F20" stroke-width="0.5"/>
<path d="M36.3353 96.4816C36.5955 96.4816 36.8371 96.3132 36.9238 96.0574C37.9584 92.9255 40.2816 92.2018 40.3807 92.1706C40.7091 92.0708 40.8949 91.7277 40.802 91.397C40.7091 91.0664 40.3683 90.8792 40.04 90.9728C39.9161 91.0102 36.9982 91.8837 35.7529 95.6643C35.6476 95.9888 35.8211 96.3444 36.1432 96.4567C36.2052 96.4816 36.2733 96.4879 36.3415 96.4879L36.3353 96.4816Z" fill="white"/>
<path d="M67.9425 61.7754C68.3763 61.7754 68.6489 61.7629 68.6923 61.7567C76.0409 61.7567 79.7772 55.4306 79.9383 55.1623C80.1118 54.8629 80.0127 54.4823 79.7153 54.3076C79.4179 54.133 79.0399 54.2328 78.8664 54.5322C78.8292 54.5946 75.316 60.509 68.6551 60.509C68.5745 60.509 63.9212 60.7585 61.4613 59.0179C61.1825 58.8183 60.7921 58.8869 60.6 59.1676C60.4018 59.4484 60.4699 59.8414 60.7488 60.0348C62.9422 61.5883 66.4183 61.7754 67.9425 61.7754Z" fill="white"/>
<path d="M78.2529 20.9867C69.9252 20.4627 62.75 27.5624 62.2233 36.8519C62.1614 37.9249 62.2109 39.6219 62.2729 40.645C61.9321 42.2172 61.1886 42.2609 60.9655 42.6289C60.9655 42.6289 60.5627 44.251 63.0846 44.7626C63.5989 49.9033 68.2026 54.4015 76.4746 54.2954C84.9014 54.1831 91.8473 48.0504 92.374 38.7609C92.9006 29.4777 86.5743 21.517 78.2467 20.993L78.2529 20.9867Z" fill="#FCF0ED"/>
<path d="M62.8058 45.018C61.9011 44.7996 61.2629 44.4066 60.9159 43.8514C60.5132 43.2025 60.6619 42.5786 60.6681 42.5537C60.6743 42.5225 60.6867 42.4913 60.7053 42.4663C60.7982 42.3166 60.9345 42.2168 61.0709 42.1107C61.3683 41.8861 61.74 41.6116 61.9631 40.6259C61.8949 39.5529 61.8578 37.8746 61.9135 36.839C62.4464 27.4372 69.7207 20.1441 78.2715 20.6806C86.754 21.2172 93.2229 29.3338 92.6838 38.7793C92.1695 47.8379 85.3537 54.4947 76.4808 54.607H76.1895C67.7318 54.607 63.3944 49.8281 62.7996 45.018H62.8058ZM62.5332 36.8702C62.4774 37.8933 62.5146 39.5716 62.5827 40.6259C62.5827 40.6571 62.5827 40.6821 62.5765 40.7133C62.3039 41.961 61.7834 42.3478 61.4364 42.6098C61.3621 42.666 61.2939 42.7159 61.2567 42.7596C61.2443 42.8843 61.232 43.2025 61.4426 43.5332C61.7276 43.9761 62.2977 44.2881 63.1466 44.4627C63.2829 44.4877 63.382 44.6 63.3944 44.7373C63.8529 49.3414 67.9858 53.9893 76.1895 53.9893H76.4684C85.0067 53.877 91.5685 47.4698 92.058 38.7481C92.5723 29.6457 86.3637 21.8223 78.2219 21.3045C77.9369 21.2858 77.6518 21.2796 77.373 21.2796C69.541 21.2796 63.0227 28.1297 62.527 36.8764L62.5332 36.8702Z" fill="#231F20" stroke="#231F20" stroke-width="0.5"/>
<path d="M62.9732 29.721C62.9732 29.721 65.7862 19.8138 78.5194 20.7871C78.5194 20.7871 80.8244 20.7185 83.6313 21.9163C83.5693 21.542 83.433 20.9555 83.1356 20.5999C83.1356 20.5999 82.9001 20.1632 83.3958 20.2568C83.3958 20.2568 84.4306 20.55 85.3538 22.4279C85.3538 22.4279 87.0516 22.1097 88.4891 23.4386C88.4891 23.4386 88.8175 23.8878 88.4147 23.9626C88.4147 23.9626 87.5411 23.5009 86.6116 23.6444C88.8918 25.3601 91.1163 28.1051 92.436 32.5097C94.3073 40.2832 90.4904 45.6423 90.4904 45.6423C87.6154 50.9327 84.0588 52.2616 84.0588 52.2616C83.6065 52.561 82.5098 52.8605 82.5098 52.8605C82.485 50.496 82.5283 45.9792 82.5283 45.9792C87.2127 44.7813 86.3328 41.5746 86.3328 41.5746C85.6078 39.6593 83.8481 40.5078 83.8481 40.5078C82.5159 41.8366 82.2247 41.8366 82.2247 41.8366C82.3486 40.6887 82.3858 39.4098 82.3858 38.3367C78.253 37.4633 75 33.433 75 33.433C76.8898 37.6068 77.7883 37.1888 77.0633 38.0185C76.6791 38.3554 73.8785 37.7502 71.1769 36.1843C69.9253 35.4606 68.6489 34.7432 67.4716 34.1006C67.9115 35.2048 68.6179 36.0346 68.6179 36.0346C69.6341 36.8207 67.7752 36.3528 67.7752 36.3528C62.6448 34.8991 62.4465 32.3724 62.4465 32.3724H62.4837C62.3536 31.9357 62.3783 31.1497 62.967 29.721H62.9732Z" fill="#231F20"/>
<path d="M82.9186 32.2412C82.9186 32.2412 85.1306 53.8585 70.96 53.5341C70.96 53.5341 82.9248 50.4272 79.7028 32.2412H82.9186Z" fill="#7C7C7C"/>
<path d="M70.9538 53.8396C70.7989 53.8396 70.6688 53.7148 70.6502 53.5651C70.6316 53.4091 70.7307 53.2656 70.8794 53.2282C71.3565 53.1034 82.5221 49.9653 79.3992 32.2909C79.3806 32.1974 79.4054 32.11 79.4674 32.0351C79.5293 31.9665 79.6161 31.9229 79.7028 31.9229H82.9186C83.0797 31.9229 83.2099 32.0414 83.2284 32.2036C83.278 32.7027 84.4181 44.5376 79.0584 50.5206C77.0818 52.7228 74.467 53.8396 71.2698 53.8396C71.1645 53.8396 71.0591 53.8396 70.9538 53.8396ZM80.0746 32.5467C82.3796 46.3281 75.886 51.4751 72.6949 53.1346C75.0681 52.8476 77.0508 51.8369 78.5999 50.1026C83.3338 44.8183 82.7761 34.3872 82.6398 32.5467H80.0746Z" fill="#231F20" stroke="#231F20" stroke-width="0.5"/>
<path d="M78.3086 17.312H76.7162C68.8533 17.312 62.3782 23.6381 61.4922 31.7859C61.5603 32.6344 62.0684 33.3269 62.7624 33.7012H92.7395C93.4583 33.3643 93.5451 32.5283 93.5017 31.4989C92.4979 23.4884 86.0848 17.312 78.3148 17.312H78.3086Z" fill="#499CE8"/>
<path d="M62.6076 33.9756C61.7835 33.5327 61.2506 32.7216 61.1763 31.7546C62.0933 23.3448 68.7728 17 76.7101 17H78.3025C86.1035 17 92.7644 23.2138 93.7992 31.4864C93.8426 32.5345 93.7558 33.5639 92.8574 33.9819C92.814 34.0006 92.7706 34.0068 92.7272 34.0068H62.7501C62.7005 34.0068 62.651 33.9944 62.6014 33.9694L62.6076 33.9756ZM93.1858 31.5363C92.1882 23.6068 85.7937 17.6239 78.3025 17.6239H76.7101C69.0888 17.6239 62.6757 23.7254 61.7959 31.7609C61.8517 32.4347 62.2358 33.0398 62.8368 33.3892H92.6591C93.0866 33.1584 93.2291 32.6343 93.1858 31.5425V31.5363Z" fill="#231F20" stroke="#231F20" stroke-width="0.5"/>
<path d="M65.476 33.0708L61.6592 32.1911C61.6592 32.1911 62.1673 22.1218 72.7194 17.9668C72.7194 17.9668 64.9617 25.8962 65.4698 33.0708H65.476Z" fill="white"/>
<path d="M61.7026 31.9603C61.7026 31.9603 62.7002 21.473 72.7257 17.9668C72.7257 17.9668 62.9605 22.727 63.3508 32.7277L61.7088 31.9603H61.7026Z" fill="#499CE8"/>
<path d="M61.4857 31.7856C61.4857 31.7856 58.8089 33.0646 58.5983 33.6947C58.3442 34.2936 59.2365 34.6243 59.2365 34.6243C59.2365 34.6243 72.7379 39.5342 90.9919 33.7446C90.9919 33.7446 67.4588 34.356 61.4857 31.7856Z" fill="#E1FBFF"/>
<path d="M73.0912 36.8765C64.6272 36.8765 59.1931 34.9363 59.1374 34.9176C59.0754 34.8926 58.5115 34.6742 58.3195 34.2188C58.2327 34.0129 58.2327 33.7883 58.3195 33.5949C58.5549 32.8962 60.7112 31.8169 61.3618 31.4987C61.4423 31.4613 61.5353 31.455 61.6158 31.4987C65.6495 33.2393 78.0109 33.4951 85.0188 33.4951C88.5011 33.4951 90.9672 33.4327 90.9919 33.4327C91.1407 33.4203 91.277 33.5388 91.308 33.6948C91.3327 33.8507 91.2398 33.9942 91.0973 34.0441C85.1613 35.9282 79.1077 36.8828 73.0974 36.8828L73.0912 36.8765ZM85.0188 34.119C78.0357 34.119 65.7673 33.857 61.5043 32.1288C60.1721 32.7777 58.9948 33.5326 58.8957 33.8195C58.8647 33.8944 58.8771 33.9381 58.8957 33.9755C58.9639 34.1377 59.2427 34.2874 59.3604 34.3311C59.4162 34.3498 64.7511 36.2526 73.1036 36.2526C78.3084 36.2526 83.5565 35.529 88.7303 34.094C87.7389 34.1065 86.4687 34.119 85.0312 34.119H85.0188Z" fill="#231F20" stroke="#231F20" stroke-width="0.5"/>
<path d="M65.619 40.3641C65.588 40.9255 66.0279 41.4122 66.604 41.4434C67.1864 41.4746 67.682 41.0503 67.7129 40.4888C67.7439 39.9273 67.3041 39.447 66.7217 39.4095C66.1456 39.3721 65.6438 39.7963 65.6128 40.3641H65.619Z" fill="#231F20"/>
<path d="M65.3956 38.0744C65.4514 38.0744 65.5133 38.0557 65.5629 38.0245C66.2939 37.5442 66.8949 37.4506 67.5825 37.7126C67.7436 37.775 67.9233 37.6939 67.979 37.5317C68.041 37.3695 67.9604 37.1885 67.7994 37.1324C66.9196 36.7955 66.1267 36.9078 65.2222 37.5067C65.0797 37.6003 65.0425 37.7937 65.1354 37.9372C65.1974 38.0308 65.2965 38.0807 65.3956 38.0807V38.0744Z" fill="#231F20"/>
<path d="M65.2654 47.4885C66.7959 47.4885 68.2582 46.6962 69.1876 45.8602C69.2805 45.7729 69.2929 45.6294 69.2062 45.5296C69.1194 45.4297 68.9769 45.4235 68.8778 45.5108C67.7439 46.534 65.7735 47.4823 63.9394 46.7836C63.8217 46.7399 63.6854 46.796 63.642 46.9208C63.5986 47.0393 63.6544 47.1766 63.7783 47.2203C64.274 47.4074 64.7759 47.4885 65.2654 47.4885Z" fill="#231F20" stroke="#231F20" stroke-width="0.5"/>
<path d="M75.5882 44.3571C75.5882 45.6734 74.1507 46.734 72.3786 46.734C70.6065 46.734 69.1689 45.6672 69.1689 44.3571C69.1689 43.0469 70.6065 41.9863 72.3786 41.9863C74.1507 41.9863 75.5882 43.0469 75.5882 44.3571Z" fill="#F4C3C3"/>
<path d="M65.0487 85.907C65.3461 85.907 65.6064 85.6949 65.6559 85.3892C65.9657 83.5612 66.3437 77.9214 66.3623 77.6843C66.4862 75.5818 68.3637 75.0515 68.3823 75.0515C72.2487 74.0596 77.3172 73.3608 77.3667 73.3484C77.7075 73.3047 77.943 72.9865 77.8996 72.6496C77.8562 72.3065 77.5402 72.0694 77.1994 72.1131C77.1499 72.1131 72.007 72.8305 68.0663 73.8412C67.1058 74.097 65.2656 75.2138 65.1231 77.6032C65.1231 77.6593 64.7327 83.4115 64.4353 85.177C64.3795 85.5139 64.6026 85.8383 64.9434 85.9007C64.9806 85.9007 65.0115 85.907 65.0487 85.907Z" fill="white"/>
<path d="M55.4507 57.6328C55.4507 56.1667 56.7891 54.9751 58.4372 54.9751C60.0854 54.9751 61.4238 56.1667 61.4238 57.6328C61.4238 59.0989 60.0854 60.2905 58.4372 60.2905C56.7891 60.2905 55.4507 59.0989 55.4507 57.6328ZM56.0703 57.6328C56.0703 58.7558 57.1298 59.6666 58.4372 59.6666C59.7446 59.6666 60.8042 58.7558 60.8042 57.6328C60.8042 56.5098 59.7446 55.599 58.4372 55.599C57.1298 55.599 56.0703 56.5098 56.0703 57.6328Z" fill="#231F20" stroke="#231F20" stroke-width="0.5"/>
</g>
<defs>
<clipPath id="clip0_960_7737">
<rect width="77" height="94" fill="white" transform="translate(30 17)"/>
</clipPath>
</defs>
</svg>
