<svg width="160" height="120" viewBox="0 0 160 120" fill="none" xmlns="http://www.w3.org/2000/svg">
<mask id="mask0_968_6753" style="mask-type:alpha" maskUnits="userSpaceOnUse" x="0" y="0" width="160" height="120">
<rect width="160" height="120" fill="#D9D9D9"/>
</mask>
<g mask="url(#mask0_968_6753)">
</g>
<g clip-path="url(#clip0_968_6753)">
<path d="M101.693 24.5884C93.2255 21.0789 83.902 19.0944 74.813 20.4073C65.724 21.7202 56.9255 26.6587 52.3326 34.531C49.4219 39.52 48.1934 45.5442 44.2173 49.7505C41.3218 52.8106 37.3151 54.5325 33.7723 56.8301C27.2882 61.0364 22.2517 67.3938 19.6673 74.6299C18.2196 78.6797 17.5263 83.0829 18.3572 87.2994C19.1881 91.5158 21.6706 95.5201 25.4581 97.6106C33.859 102.256 45.2317 96.4543 53.709 100.974C56.7216 102.579 58.9391 105.296 61.4012 107.654C69.1801 115.102 79.9055 119.152 90.6971 119.874C101.489 120.596 112.336 118.152 122.282 113.941C127.935 111.548 133.486 108.548 139.593 107.897C144.828 107.336 150.803 108.351 154.799 104.953C158.255 102.009 158.709 96.9643 158.913 92.455C159.234 85.3654 159.555 78.2707 159.876 71.181C160.228 63.4147 160.198 54.6385 154.58 49.2102C147.979 42.8275 137.697 44.1455 129.745 40.6259C119.957 36.2984 111.781 28.7644 101.703 24.5884H101.693Z" fill="#C9DEC0"/>
<circle cx="23" cy="27" r="8" fill="#C9DEBF"/>
<circle cx="29.5" cy="46.5" r="2.5" fill="#C9DEBF"/>
<circle cx="6.5" cy="62.5" r="3.5" fill="#C9DEBF"/>
<g clip-path="url(#clip1_968_6753)">
<path d="M42.6201 104.92V69.8202L60.4401 61.1802L80 69L97.5 61.5H97.7001L118 67V79.5L118.22 104.92L97.7001 97.3602L78.8001 104.92L60.4401 97.3602L42.6201 104.92Z" fill="white"/>
<path d="M50.5716 101.486C49.3473 93.8864 50.8985 91.2238 52.8253 88.3392C55.6077 84.1788 62.5149 82.7504 66.7372 86.259C70.9107 89.726 74.7365 94.9265 77.8667 96.66C80.9968 98.3936 85.866 97.0067 88.6484 97.0067C91.4307 97.0067 91.7785 100.002 91.7785 100.002L79.6056 104.634L61.1724 97.3534L50.5716 101.486Z" fill="#EFF0EF"/>
<path d="M117.863 83.8321V104.96L98.5535 97.402L79.9324 104.96L61.3531 97.402L42.0435 104.96V68.8823L61.3531 61.3242L79.9324 68.8823L97.5 61.3242" stroke="#231F20" stroke-width="1.2" stroke-linecap="round" stroke-linejoin="round"/>
<path d="M61 61V97" stroke="#231F20" stroke-width="1.2" stroke-linecap="round" stroke-linejoin="round"/>
<path d="M80 69V105" stroke="#231F20" stroke-width="1.2" stroke-linecap="round" stroke-linejoin="round"/>
<path d="M98 61L98 97" stroke="#231F20" stroke-width="1.2" stroke-linecap="round" stroke-linejoin="round"/>
<path d="M60.8244 32.8667C52.832 32.8667 46.3491 39.3223 46.3491 47.2964C46.3491 55.2705 60.8244 74.0964 60.8244 74.0964C60.8244 74.0964 75.2997 55.2705 75.2997 47.2964C75.2997 39.3223 68.8168 32.8667 60.8244 32.8667ZM60.8244 52.4276C57.9725 52.4276 55.6562 50.1186 55.6562 47.2756C55.6562 44.4327 57.9725 42.1236 60.8244 42.1236C63.6763 42.1236 65.9927 44.4327 65.9927 47.2756C65.9927 50.1186 63.6763 52.4276 60.8244 52.4276Z" fill="#FF8C73"/>
<path d="M75.2997 47.2964C75.2997 55.2636 60.8244 74.0964 60.8244 74.0964C60.8244 74.0964 46.3491 55.2705 46.3491 47.2964C46.3491 39.3223 52.832 32.8667 60.8244 32.8667C68.8168 32.8667 75.2997 39.3292 75.2997 47.2964Z" stroke="#231F20" stroke-width="1.5" stroke-linecap="round" stroke-linejoin="round"/>
<path d="M64.9356 50.9385C66.9678 48.676 66.7752 45.1997 64.5056 43.174C62.236 41.1482 58.7487 41.3402 56.7166 43.6026C54.6845 45.8651 54.877 49.3414 57.1466 51.3671C59.4163 53.3929 62.9035 53.2009 64.9356 50.9385Z" stroke="#231F20" stroke-width="1.5" stroke-linecap="round" stroke-linejoin="round"/>
<path d="M64.3022 76.2046C68.921 76.898 76.5864 78.9851 80.1479 83.1386C86.0882 90.0726 99.9584 92.7145 104.577 88.6858C109.196 84.6572 113.5 78 113.5 78" stroke="#FF5A44" stroke-width="1.5" stroke-linecap="round" stroke-linejoin="round" stroke-dasharray="3 3"/>
</g>
<g clip-path="url(#clip2_968_6753)">
<path d="M134.912 44H99.0879C97.3825 44 96 45.3771 96 47.0758V71.9242C96 73.6229 97.3825 75 99.0879 75H134.912C136.617 75 138 73.6229 138 71.9242V47.0758C138 45.3771 136.617 44 134.912 44Z" fill="#F4EFDB" stroke="#231F20" stroke-width="1.2" stroke-linecap="round" stroke-linejoin="round"/>
<path d="M139 44L136.038 34.4632C135.768 33.5919 134.975 33 134.078 33H99.9217C99.0255 33 98.2324 33.5919 97.9619 34.4632L95 44" fill="#A3E8B0"/>
<path d="M139 44L136.038 34.4632C135.768 33.5919 134.975 33 134.078 33H99.9217C99.0255 33 98.2324 33.5919 97.9619 34.4632L95 44" stroke="#231F20" stroke-width="1.2" stroke-linecap="round" stroke-linejoin="round"/>
<path d="M95 44H106V45.7526C106 48.6486 103.535 51 100.5 51C97.4646 51 95 48.6486 95 45.7526V44Z" fill="#A3E8B0" stroke="#231F20" stroke-width="1.2" stroke-linecap="round" stroke-linejoin="round"/>
<path d="M106.196 44H116.804C116.912 44 117 44.0837 117 44.1869V45.7526C117 48.6486 114.535 51 111.5 51C108.465 51 106 48.6486 106 45.7526V44.1869C106 44.0837 106.088 44 106.196 44Z" fill="white" stroke="#231F20" stroke-width="1.2" stroke-linecap="round" stroke-linejoin="round"/>
<path d="M117.196 44H127.804C127.912 44 128 44.0837 128 44.1869V45.7526C128 48.6486 125.535 51 122.5 51C119.465 51 117 48.6486 117 45.7526V44.1869C117 44.0837 117.088 44 117.196 44Z" fill="#A3E8B0" stroke="#231F20" stroke-width="1.2" stroke-linecap="round" stroke-linejoin="round"/>
<path d="M128.196 44H138.804C138.912 44 139 44.0837 139 44.1869V45.7526C139 48.6486 136.535 51 133.5 51C130.465 51 128 48.6486 128 45.7526V44.1869C128 44.0837 128.088 44 128.196 44Z" fill="white" stroke="#231F20" stroke-width="1.2" stroke-linecap="round" stroke-linejoin="round"/>
<path d="M113 59H103V75H113V59Z" fill="#FFD473" stroke="#231F20" stroke-width="1.2" stroke-linecap="round" stroke-linejoin="round"/>
<path d="M106 44L108 33H117V44H106Z" fill="white" stroke="#231F20"/>
<path d="M128 44L127 33H134.472C135.374 33 136.165 33.6036 136.402 34.4738L139 44H128Z" fill="white" stroke="#231F20"/>
</g>
<path d="M141.26 64C135.595 64 131 68.5658 131 74.2055C131 79.8453 141.26 93.16 141.26 93.16C141.26 93.16 151.52 79.8453 151.52 74.2055C151.52 68.5658 146.925 64 141.26 64ZM141.26 77.8346C139.239 77.8346 137.597 76.2015 137.597 74.1908C137.597 72.1801 139.239 70.547 141.26 70.547C143.281 70.547 144.923 72.1801 144.923 74.1908C144.923 76.2015 143.281 77.8346 141.26 77.8346Z" fill="#499CE8"/>
<path d="M151.52 74.2055C151.52 79.8404 141.26 93.16 141.26 93.16C141.26 93.16 131 79.8453 131 74.2055C131 68.5658 135.595 64 141.26 64C146.925 64 151.52 68.5707 151.52 74.2055Z" stroke="#231F20" stroke-width="1.2" stroke-linecap="round" stroke-linejoin="round"/>
<path d="M144.145 76.7817C145.582 75.1815 145.446 72.7229 143.841 71.2902C142.235 69.8575 139.769 69.9933 138.332 71.5934C136.895 73.1935 137.031 75.6522 138.636 77.0849C140.241 78.5176 142.708 78.3818 144.145 76.7817Z" stroke="#231F20" stroke-width="1.2" stroke-linecap="round" stroke-linejoin="round"/>
<circle cx="151.5" cy="28.5" r="4.5" fill="#C9DEBF"/>
<circle cx="134.5" cy="29.5" r="2.5" fill="#C9DEBF"/>
</g>
<defs>
<clipPath id="clip0_968_6753">
<rect width="157" height="101" fill="white" transform="translate(3 19)"/>
</clipPath>
<clipPath id="clip1_968_6753">
<rect width="78" height="74" fill="white" transform="translate(41 32)"/>
</clipPath>
<clipPath id="clip2_968_6753">
<rect width="46" height="44" fill="white" transform="translate(94 32)"/>
</clipPath>
</defs>
</svg>
